<?xml version="1.0" encoding="utf-8"?>
<!-- Generator: Adobe Illustrator 21.0.0, SVG Export Plug-In . SVG Version: 6.00 Build 0)  -->
<svg version="1.1" id="Layer_1" xmlns="http://www.w3.org/2000/svg" xmlns:xlink="http://www.w3.org/1999/xlink" x="0px" y="0px"
	 viewBox="0 0 200 200" style="enable-background:new 0 0 200 200;" xml:space="preserve">
<style type="text/css">
	.st0{fill:#FFFFFF;}
	.st1{fill:#E64343;}
</style>
<g>
	<g>
		<path class="st0" d="M116.7,50.9c-7.6-0.2-23,0.1-36.2,14.4c-2-1.7-4.6-2.8-7.4-2.7c-2.9,0-5.5,1.2-7.5,3c-1.4-0.6-3-0.9-4.6-0.9
			c-6.9,0.1-12.4,6-12.6,13.2c-7,0.2-12.5,6.4-12.4,13.9c0.1,4.8,2.3,8.9,5.8,11.3c-2,2.3-3.2,5.3-3.1,8.7c0,2.4,0.7,4.6,1.8,6.4
			l-0.5,0c4.6,7.6,12.7,10.1,16,13.7c3.2,3.7-1.9,8.6-5.2,7.8c1,7.1,16.7,11.6,21.6-0.3c2.8-6.7,1.7-13.4,0.2-18
			c2.4-3.2,3.9-7.8,3.8-12.8c-0.1-9.2,8.1-13.4,1.6-14c0.6-0.2,9-1.7,9.6-2c1,0.3-19.4-1.5-18.3-1.5c5.3-0.1,9.6-3.8,10.8-8.7
			c2.7-2.1,4.5-5.4,4.4-9c0-0.7-0.1-1.3-0.2-2c0.8-0.9,1.5-1.9,2.2-2.9c6.5,1.8,33.2,8.3,55.9-0.8c4.1,6.4,8.3,11.1,18.3,13.8
			C154.6,70.1,142.5,51.5,116.7,50.9z"/>
		<path class="st1" d="M61.6,148.2c-0.6,0-1.3,0-1.9-0.1c-5.4-0.7-9.7-4-10.2-8c-0.1-0.4,0.1-0.8,0.4-1.1c0.3-0.3,0.7-0.4,1.1-0.3
			c1.2,0.3,3.1-0.7,4.1-2.3c0.5-0.9,1-2.2-0.2-3.5c-1.1-1.2-2.9-2.4-4.9-3.7c-3.6-2.3-8.1-5.2-11.2-10.3c-0.2-0.4-0.2-0.8-0.1-1.2
			c-0.9-1.9-1.4-3.9-1.4-5.9c0-3.1,0.9-6.1,2.6-8.5c-3.2-2.8-5.2-7-5.2-11.5c-0.1-7.8,5.4-14.3,12.5-15.1
			c0.7-7.5,6.6-13.2,13.8-13.3c1.5,0,2.9,0.2,4.4,0.7c2.2-1.8,4.9-2.8,7.7-2.9c2.6,0,5.2,0.8,7.3,2.3c14-14.4,30.2-14.1,36.3-14
			c0,0,0,0,0,0c19.8,0.5,34.5,10.9,45,31.6c0.2,0.4,0.2,1-0.1,1.4c-0.3,0.4-0.8,0.5-1.3,0.4c-9.6-2.6-14.2-7-18.5-13.5
			c-22.1,8.3-47.9,2.5-54.8,0.7c-0.4,0.6-0.9,1.2-1.4,1.8c0.1,0.6,0.1,1.1,0.1,1.6c0.1,3.8-1.6,7.3-4.6,9.8
			c-0.8,3.1-2.8,5.7-5.4,7.4c4.7,0.4,10.5,0.9,11.6,0.9c0.2,0,0.4,0,0.5,0c0.6,0.2,1.1,0.8,0.9,1.5c-0.1,0.5-0.2,0.8-0.8,0.9
			c-0.4,0.2-1.7,0.5-6.5,1.4c0.5,1.2-0.3,2.6-1.2,4.3c-1.2,2.2-2.8,5.2-2.8,9.1c0.1,4.9-1.3,9.5-3.7,13c1.4,4.7,2.3,11.4-0.5,18.2
			C71.3,145.2,66.9,148.2,61.6,148.2z M52.4,141.1c1.2,2.2,4.2,4,7.6,4.4c5,0.6,9.2-1.8,11.1-6.5c2.6-6.4,1.6-12.8,0.2-17.1
			c-0.1-0.4-0.1-0.8,0.2-1.1c2.4-3.2,3.7-7.4,3.6-12c-0.1-4.6,1.8-8.1,3.1-10.4c0.4-0.8,1-1.8,1-2.2c-0.1,0-0.4-0.1-1.4-0.2
			c-0.6-0.1-1.1-0.5-1.1-1.1c-0.1-0.6,0.3-1.2,0.9-1.3c0.1,0,0.3-0.1,0.7-0.1c-3.8-0.3-8.1-0.7-9-0.8c-0.7-0.1-1.3-0.7-1.3-1.3
			c0-0.7,0.6-1.2,1.3-1.2c4.6-0.1,8.5-3.3,9.6-7.8c0.1-0.3,0.2-0.5,0.5-0.7c2.6-1.9,4-4.9,3.9-8c0-0.5-0.1-1-0.2-1.7
			c-0.1-0.4,0-0.8,0.3-1c0.8-0.9,1.5-1.8,2-2.8c0.3-0.5,0.9-0.7,1.4-0.5c5.2,1.5,32.4,8.3,55.1-0.7c0.6-0.2,1.2,0,1.5,0.5
			c3.8,5.9,7.4,9.9,14.8,12.4c-9.9-18.1-23.5-27.1-41.4-27.6c-6-0.1-21.8-0.5-35.2,14c-0.5,0.5-1.2,0.5-1.7,0.1
			c-1.9-1.6-4.3-2.5-6.6-2.4c-2.4,0-4.8,1-6.6,2.7c-0.4,0.3-0.9,0.4-1.3,0.3c-1.4-0.5-2.8-0.8-4.1-0.8c-6.2,0.1-11.2,5.4-11.4,12
			c0,0.7-0.6,1.2-1.2,1.2c-6.2,0.1-11.3,5.8-11.2,12.6c0.1,4.2,2,8,5.2,10.3c0.3,0.2,0.5,0.5,0.5,0.9c0,0.4-0.1,0.7-0.3,1
			c-1.9,2.1-2.9,4.9-2.8,7.9c0,2.1,0.6,4,1.6,5.8c0.2,0.3,0.2,0.7,0.1,1c2.7,4,6.4,6.3,9.7,8.4c2.2,1.4,4.1,2.6,5.4,4.1
			c1.6,1.8,1.8,4.3,0.4,6.5C56.2,139.3,54.3,140.8,52.4,141.1z"/>
	</g>
	<g>
		<path class="st0" d="M160.4,81.5c-9.4-2.8-14.2-7.4-18.2-13.6c-22.7,9-49.4,2.6-55.9,0.8c-4.8,7.8-14.1,11.5-16.8,12.5
			c-2.5,6-3.9,12.6-3.8,19.5c0.4,27.1,22.7,48.8,49.8,48.5c27.1-0.4,48.8-22.7,48.5-49.8C164,93,162.6,87,160.4,81.5z"/>
		<path class="st1" d="M114.9,150.4c-27.5,0-50-22.2-50.4-49.7c-0.1-6.9,1.2-13.7,3.9-20c0.1-0.3,0.4-0.6,0.7-0.7
			c2.6-0.9,11.6-4.5,16.2-12c0.3-0.5,0.9-0.7,1.4-0.5c5.2,1.5,32.4,8.3,55.1-0.7c0.6-0.2,1.2,0,1.5,0.5c4.4,6.9,9.4,10.6,17.5,13
			c0.4,0.1,0.7,0.4,0.8,0.7c2.4,5.9,3.7,12.1,3.8,18.3c0.2,13.5-4.9,26.2-14.3,35.8c-9.4,9.6-22,15.1-35.4,15.2
			C115.3,150.4,115.1,150.4,114.9,150.4z M70.5,82.1c-2.4,5.9-3.6,12.2-3.5,18.5c0.4,26.2,21.8,47.3,47.9,47.3c0.2,0,0.4,0,0.7,0
			c12.8-0.2,24.8-5.3,33.7-14.5c8.9-9.2,13.7-21.3,13.6-34.1c-0.1-5.8-1.2-11.4-3.4-16.9c-8-2.5-13.2-6.3-17.7-13
			c-22.1,8.3-47.9,2.5-54.8,0.7C82,77.3,73.7,80.9,70.5,82.1z"/>
	</g>
</g>
</svg>
