<?xml version="1.0" encoding="utf-8"?>
<!-- Generator: Adobe Illustrator 21.0.0, SVG Export Plug-In . SVG Version: 6.00 Build 0)  -->
<svg version="1.1" id="Layer_1" xmlns="http://www.w3.org/2000/svg" xmlns:xlink="http://www.w3.org/1999/xlink" x="0px" y="0px"
	 viewBox="0 0 200 200" style="enable-background:new 0 0 200 200;" xml:space="preserve">
<style type="text/css">
	.st0{fill:#FFFFFF;}
	.st1{fill:#E64343;}
</style>
<g>
	<g>
		<g>
			<path class="st0" d="M150.9,93.3c0-28.1-22.8-50.9-50.9-50.9c-28.1,0-50.9,22.8-50.9,50.9v38.7c0,0-1.8,25.5,31.1,25.5
				c-1.4-0.8-9-10.4-3.4-20.9l23.1,3.5l23.1-3.5c5.6,10.5-2,20.1-3.4,20.9c30.6,0,31.2-22.1,31.2-25.1l0,0V93.3z"/>
			<path class="st1" d="M119.7,158.8c-0.6,0-1.1-0.4-1.2-0.9c-0.2-0.5,0.1-1.1,0.6-1.4c0.9-0.6,7.8-9,3.3-18.5l-22.2,3.4
				c-0.1,0-0.3,0-0.4,0L77.6,138c-4.5,9.5,2.4,17.9,3.3,18.5c0.5,0.3,0.7,0.9,0.5,1.4c-0.2,0.5-0.6,0.9-1.2,0.9
				c-11.5,0-20.2-3.1-25.8-9.1c-7.2-7.7-6.6-17.4-6.6-17.8l0-38.7c0-28.8,23.4-52.2,52.2-52.2s52.2,23.4,52.2,52.2v39.1
				c0,1.7-0.1,10.7-7,17.7C139.6,155.9,131,158.8,119.7,158.8z M123.1,135.4c0.5,0,0.9,0.3,1.1,0.7c4.5,8.4,1.1,16.3-1.7,20.2
				c9.2-0.4,16.2-3.1,20.8-7.8c6.1-6.3,6.3-14.4,6.2-15.9l0-39.1c0-27.4-22.3-49.7-49.7-49.7c-27.4,0-49.7,22.3-49.7,49.7v38.7
				c0,0.2-0.5,9.1,5.9,16c4.7,5,11.8,7.7,21.2,8.2c-2.7-3.9-6.1-11.8-1.7-20.2c0.3-0.5,0.8-0.7,1.3-0.6l23,3.5l22.9-3.5
				C123,135.4,123.1,135.4,123.1,135.4z M150.9,93.3L150.9,93.3L150.9,93.3z"/>
		</g>
	</g>
	<g>
		<g>
			<path class="st0" d="M142.1,91.7c-13-6.8-28.1-20.1-36.5-27.9C98.2,74.2,83.1,89.5,55.8,96c-0.1,1-0.2,2-0.2,3
				c0,24,19.5,43.5,43.5,43.5c24,0,43.5-19.5,43.5-43.5C142.7,96.5,142.5,94.1,142.1,91.7z"/>
			<path class="st1" d="M99.2,143.8c-24.7,0-44.8-20.1-44.8-44.8c0-0.9,0.1-1.8,0.1-2.6l0-0.4c0-0.5,0.4-1,1-1.1
				c26.4-6.3,41.2-20.7,49-31.7c0.2-0.3,0.5-0.5,0.9-0.5c0.4,0,0.7,0.1,1,0.3c8,7.5,23.2,21,36.2,27.7c0.3,0.2,0.6,0.5,0.7,0.9
				c0.5,2.7,0.7,5.1,0.7,7.5C144,123.7,123.9,143.8,99.2,143.8z M57,97c0,0.7-0.1,1.3-0.1,2c0,23.3,19,42.3,42.3,42.3
				c23.3,0,42.3-19,42.3-42.3c0-2-0.2-4.2-0.5-6.5c-12.6-6.7-27-19.3-35.2-26.9C97.6,76.7,82.7,90.6,57,97z"/>
		</g>
	</g>
</g>
</svg>
