<?xml version="1.0" encoding="utf-8"?>
<!-- Generator: Adobe Illustrator 21.0.0, SVG Export Plug-In . SVG Version: 6.00 Build 0)  -->
<svg version="1.1" id="Layer_1" xmlns="http://www.w3.org/2000/svg" xmlns:xlink="http://www.w3.org/1999/xlink" x="0px" y="0px"
	 viewBox="0 0 200 200" style="enable-background:new 0 0 200 200;" xml:space="preserve">
<style type="text/css">
	.st0{fill:#FFFFFF;}
	.st1{fill:#E64343;}
</style>
<g>
	<g>
		<g>
			<path class="st0" d="M150.9,108.7c0.1,0.2,0.1,0.4,0.2,0.6c0,0,0-0.1,0-0.1c-0.8-2.6-1.9-5-3.3-7.6
				c-5.3-11.1-14.1-24.8-23.5-27.3c0,0-20,7.1-43.5,0c-3.3-0.8-7.7-0.3-12.5,4c-3.5,3.1-8.9,7.6-14.1,18l-5.2,11.9
				c-0.1,1.1-0.2,2.2-0.2,3.3c0,12,4.1,23,10.9,31.8C69,155.3,83.6,163,100,163c28.3,0,51.2-23.1,51.2-51.6c0-0.7-0.1-1.4-0.1-2
				C150.9,109.2,150.8,109,150.9,108.7z"/>
			<path class="st1" d="M100,164.3c-16.2,0-31.3-7.4-41.3-20.3c-7.3-9.4-11.1-20.6-11.1-32.6c0-0.9,0.1-1.8,0.1-2.6l0-0.7
				c0-0.1,0-0.3,0.1-0.4L53,95.8c5.1-10.2,10.4-14.9,13.9-18l0.5-0.4c5.5-4.9,10.4-5,13.6-4.3c22.9,6.9,42.6,0.1,42.8,0
				c0.2-0.1,0.5-0.1,0.7,0c11.3,3.1,20.7,20.6,24.3,28c1.6,3.1,2.6,5.4,3.4,7.8c0,0.1,0.1,0.2,0.1,0.4c0,0,0,0,0,0c0,0,0,0.1,0,0.1
				l0,0.8c0,0.4,0.1,0.9,0.1,1.3C152.4,140.6,128.9,164.3,100,164.3z M50.2,108.5l0,0.5c-0.1,0.8-0.1,1.6-0.1,2.5
				c0,11.4,3.7,22.1,10.6,31c9.5,12.3,23.9,19.3,39.3,19.3c27.5,0,50-22.6,50-50.3c0-0.4,0-0.8-0.1-1.2l0-0.5
				c-0.1-0.3-0.3-0.6-0.3-1.1c-0.7-2-1.6-4-2.9-6.5c-2.6-5.5-11.9-23.4-22.3-26.6c-3,1-21.8,6.5-43.9-0.1c-2.6-0.6-6.7-0.5-11.3,3.7
				l-0.5,0.5c-3.6,3.2-8.5,7.5-13.3,17.2L50.2,108.5z"/>
		</g>
	</g>
	<g>
		<path class="st0" d="M48.8,111.5c0,0-8.8-36.5,22.9-58.2c-1.2,5.2-2.4,9.7-2.4,9.7S84.9,43.6,103.2,37c18.8,8.1,56,24.6,47.9,72.4
			c-3-6.8-14.6-26.6-26.8-35.1c-5.9,1.5-22.4,6.8-48.4,0.3C69,80.7,62.6,88,48.8,111.5z"/>
		<path class="st1" d="M48.8,112.7c-0.1,0-0.1,0-0.2,0c-0.5-0.1-0.9-0.5-1-1C47.5,111.3,39,74.2,71,52.2c0.4-0.3,1-0.3,1.4,0
			s0.6,0.8,0.5,1.3c-0.4,1.7-0.8,3.3-1.1,4.7c5.6-6.1,17.4-17.5,30.9-22.4c0.3-0.1,0.6-0.1,0.9,0c21.6,9.3,56.6,26.9,48.6,73.8
			c-0.1,0.5-0.5,1-1.1,1c-0.6,0.1-1.1-0.2-1.3-0.7c-2.8-6.2-13.9-25.6-25.9-34.3l-0.6,0.2c-6.9,1.8-22.8,6.1-47.2,0.1
			c-7,6.2-13.4,14.1-26.4,36.2C49.7,112.5,49.2,112.7,48.8,112.7z M69.7,56.2C47.1,74,48.3,98,49.5,107.8
			c12.3-20.6,18.6-28,25.6-34.2c0.3-0.3,0.7-0.4,1.1-0.3c24.1,6.1,39.9,1.8,46.6,0l1.2-0.3c0.4-0.1,0.7,0,1,0.2
			c10.7,7.5,20.9,23.5,25.4,32c5.1-42.2-27-58.1-47.3-66.9c-17.6,6.6-32.7,25.2-32.8,25.4c-0.4,0.5-1,0.6-1.5,0.3
			c-0.5-0.3-0.8-0.9-0.7-1.4C68.2,62.6,68.9,59.9,69.7,56.2z"/>
	</g>
</g>
</svg>
