<?xml version="1.0" encoding="utf-8"?>
<!-- Generator: Adobe Illustrator 21.0.0, SVG Export Plug-In . SVG Version: 6.00 Build 0)  -->
<svg version="1.1" id="Layer_1" xmlns="http://www.w3.org/2000/svg" xmlns:xlink="http://www.w3.org/1999/xlink" x="0px" y="0px"
	 viewBox="0 0 200 200" style="enable-background:new 0 0 200 200;" xml:space="preserve">
<style type="text/css">
	.st0{fill:#FFFFFF;}
	.st1{fill:#E64343;}
</style>
<g>
	<g>
		<path class="st0" d="M49.5,100.8c0,0-0.9-21.3,1-26.6c1.8-4.9,10.8-11.4,10.8-11.4S61.6,49,75.1,44c6,1.6,6.3,3.6,14.4,1.2
			c9.6-2.9,37.8-1.3,55.2,23.3c1.8,2.7,2,2.3,3.4,8.8c0.9,4.3,3,16.4,2.8,29.2C134.3,96,49.5,100.8,49.5,100.8z"/>
		<path class="st1" d="M150.8,107.7c-0.2,0-0.5-0.1-0.7-0.2c-15.9-10.1-99.7-5.5-100.6-5.4c-0.3,0-0.7-0.1-0.9-0.3
			c-0.2-0.2-0.4-0.5-0.4-0.9c0-0.9-0.9-21.6,1.1-27.1c1.6-4.6,8.8-10.2,10.8-11.6c0.3-2.9,2.2-14.8,14.6-19.4c0.2-0.1,0.5-0.1,0.8,0
			c1.6,0.4,2.8,0.9,3.9,1.3c2.8,1.1,4.3,1.6,9.8-0.1c10.3-3.1,38.8-1.4,56.5,23.7c0.3,0.4,0.5,0.7,0.7,1c1.4,2,1.7,2.6,2.9,8.3
			c0.7,3.5,3,16,2.8,29.4c0,0.5-0.3,0.9-0.7,1.1C151.2,107.6,151,107.7,150.8,107.7z M91,98.4c22.7,0,48.1,1.2,58.5,5.9
			c0-12.4-2.1-23.6-2.7-26.8c-1.1-5.4-1.3-5.7-2.5-7.4c-0.2-0.3-0.4-0.6-0.7-1c-17.3-24.5-45.5-25.3-53.8-22.7
			c-6.4,1.9-8.4,1.2-11.4,0c-0.9-0.3-1.9-0.7-3.2-1.1C63,50,62.5,62.8,62.5,62.9c0,0.4-0.2,0.8-0.5,1c-2.4,1.7-9,7-10.4,10.8
			c-1.4,3.9-1.2,18.2-1,24.9C55.5,99.2,72.3,98.4,91,98.4z"/>
	</g>
	<g>
		<path class="st0" d="M138.1,85.3l-0.5-9.6L100,80.2l-38.7-3.9l-1.1,9.9l-10.7,14.6c-0.1,1.5-0.2,2.9-0.2,4.4
			c0,28,22.7,50.8,50.8,50.8c28,0,50.8-22.7,50.8-50.8c0-1.2-0.1-3.7-0.1-3.7L138.1,85.3z"/>
		<path class="st1" d="M100,157.3c-28.7,0-52-23.3-52-52c0-1.3,0.1-2.7,0.2-4.6c0-0.2,0.1-0.4,0.2-0.6L59,85.7l1.1-9.6
			c0.1-0.7,0.7-1.2,1.4-1.1l38.5,3.9l37.4-4.5c0.3,0,0.7,0.1,1,0.3c0.3,0.2,0.4,0.5,0.4,0.9l0.5,9.3l12.3,15.9
			c0.2,0.2,0.2,0.4,0.3,0.7c0,0,0.1,2.5,0.1,3.8C152,133.9,128.7,157.3,100,157.3z M50.7,101.3c-0.1,1.6-0.2,2.8-0.2,4
			c0,27.3,22.2,49.5,49.5,49.5s49.5-22.2,49.5-49.5c0-0.9-0.1-2.5-0.1-3.2l-12.3-15.9c-0.2-0.2-0.2-0.4-0.3-0.7l-0.4-8.3l-36.2,4.4
			c-0.1,0-0.2,0-0.3,0l-37.5-3.8l-1,8.7c0,0.2-0.1,0.4-0.2,0.6L50.7,101.3z"/>
	</g>
	<g>
		<path class="st0" d="M96.6,111.5c0,2.2-1.8,4.1-4.1,4.1H64.1c-2.3,0-4.1-1.8-4.1-4.1v-8.8c0-2.2,1.8-4.1,4.1-4.1h28.4
			c2.3,0,4.1,1.8,4.1,4.1V111.5z"/>
		<path class="st1" d="M92.6,116.8H64.1c-2.9,0-5.3-2.4-5.3-5.3v-8.8c0-2.9,2.4-5.3,5.3-5.3h28.4c2.9,0,5.3,2.4,5.3,5.3v8.8
			C97.9,114.4,95.5,116.8,92.6,116.8z M64.1,99.8c-1.6,0-2.8,1.3-2.8,2.8v8.8c0,1.5,1.3,2.8,2.8,2.8h28.4c1.6,0,2.8-1.3,2.8-2.8
			v-8.8c0-1.5-1.3-2.8-2.8-2.8H64.1z"/>
	</g>
	<g>
		<path class="st0" d="M139.9,111.5c0,2.2-1.8,4.1-4.1,4.1h-28.4c-2.2,0-4.1-1.8-4.1-4.1v-8.8c0-2.2,1.8-4.1,4.1-4.1h28.4
			c2.3,0,4.1,1.8,4.1,4.1V111.5z"/>
		<path class="st1" d="M135.8,116.8h-28.4c-2.9,0-5.3-2.4-5.3-5.3v-8.8c0-2.9,2.4-5.3,5.3-5.3h28.4c2.9,0,5.3,2.4,5.3,5.3v8.8
			C141.2,114.4,138.8,116.8,135.8,116.8z M107.4,99.8c-1.5,0-2.8,1.3-2.8,2.8v8.8c0,1.5,1.3,2.8,2.8,2.8h28.4c1.6,0,2.8-1.3,2.8-2.8
			v-8.8c0-1.5-1.3-2.8-2.8-2.8H107.4z"/>
	</g>
</g>
</svg>
