<?xml version="1.0" encoding="utf-8"?>
<!-- Generator: Adobe Illustrator 21.0.0, SVG Export Plug-In . SVG Version: 6.00 Build 0)  -->
<svg version="1.1" id="Layer_1" xmlns="http://www.w3.org/2000/svg" xmlns:xlink="http://www.w3.org/1999/xlink" x="0px" y="0px"
	 viewBox="0 0 200 200" style="enable-background:new 0 0 200 200;" xml:space="preserve">
<style type="text/css">
	.st0{fill:#FFFFFF;}
	.st1{fill:#E64343;}
</style>
<g>
	<g>
		<path class="st0" d="M145,76.1c-1.6-4.5-6.8-9.3-6.8-9.3s-1.1-16.4-7.6-13.3c-6.5,3.1-13.8,0.5-21.1-1.8
			c-8.7-2.6-34.4-3.2-50.2,19.1c-0.9,1.4-1.4,1.9-1.8,3.1C57.4,74,57.4,74,57.4,74l-0.1,0.4c-0.3,0.9-0.6,2.3-1.1,4.5
			c-0.8,3.9-2.7,12.9-2.5,24.5c15-9.5,92.4-2.1,92.4-2.1S146.8,81,145,76.1z"/>
		<path class="st1" d="M53.8,104.6c-0.2,0-0.4-0.1-0.6-0.2c-0.4-0.2-0.6-0.6-0.7-1.1c-0.2-11.3,1.6-20.1,2.4-24.3l0.1-0.4
			c0.5-2.3,0.8-3.7,1.1-4.6l0-0.2c0-0.2,0.1-0.5,0.3-0.6c0.4-0.9,0.8-1.5,1.3-2.2l0.6-0.8c16.8-23.7,43.5-22.1,51.6-19.6l1.6,0.5
			c6.7,2.1,13.1,4,18.7,1.4c1.8-0.9,3.3-0.5,4.1,0c3.9,2.3,5,11.4,5.2,13.8c1.2,1.2,5.3,5.4,6.8,9.5l0,0c1.8,5,1.2,24.8,1.2,25.6
			c0,0.3-0.2,0.7-0.4,0.9c-0.3,0.2-0.6,0.3-0.9,0.3c-0.8-0.1-77.2-7.2-91.6,1.9C54.2,104.5,54,104.6,53.8,104.6z M58.6,74.6
			c-0.3,1.1-0.6,2.3-1.1,4.6l-0.1,0.5c-0.8,3.9-2.4,11.7-2.4,21.7c17.5-7.6,79.7-2.3,89.9-1.4c0.1-6.4,0.2-19.9-1.1-23.4
			c0,0,0,0,0,0c-1.5-4.1-6.4-8.8-6.5-8.8c-0.2-0.2-0.4-0.5-0.4-0.8c-0.3-4-1.6-10.9-4-12.3c-0.4-0.2-0.9-0.4-1.8,0
			c-6.4,3.1-13.6,0.9-20.5-1.2l-1.5-0.5c-7.6-2.3-32.9-3.8-48.8,18.6l-0.6,0.8c-0.5,0.8-0.8,1.2-1.1,1.9
			C58.6,74.4,58.6,74.5,58.6,74.6z"/>
	</g>
	<g>
		<g>
			<path class="st0" d="M139.7,86.2l-2.5-9.8c0,0-7.1,8.2-37.3,4.1c-16.4,0-37.2-3.6-37.2-3.6l-2,9l-6.8,13.3
				c-0.1,1.4-0.1,2.7-0.1,4.1c0,25.5,20.7,46.2,46.2,46.2c25.5,0,46.2-20.7,46.2-46.2C146.1,96.5,139.7,86.2,139.7,86.2z"/>
			<path class="st1" d="M99.9,150.8c-26.2,0-47.4-21.3-47.4-47.4c0-1.4,0.1-2.8,0.1-4.1c0-0.2,0.1-0.4,0.1-0.5l6.7-13.1l2-8.9
				c0.1-0.6,0.8-1.1,1.4-1c0.2,0,20.9,3.6,37,3.6c29.3,4,36.2-3.6,36.3-3.7c0.3-0.4,0.8-0.5,1.2-0.4c0.5,0.1,0.8,0.5,0.9,0.9
				l2.4,9.6c0.9,1.4,6.5,10.9,6.5,17.6C147.4,129.5,126.1,150.8,99.9,150.8z M55.1,99.6c-0.1,1.2-0.1,2.5-0.1,3.7
				c0,24.8,20.2,44.9,44.9,44.9c24.8,0,44.9-20.2,44.9-44.9c0-6.4-6.2-16.3-6.3-16.4c-0.1-0.1-0.1-0.2-0.2-0.4l-2-7.9
				c-3.6,2.3-13.5,6.4-36.7,3.2c0,0-0.1,0-0.1,0c-13.9,0-31.4-2.6-36-3.4l-1.8,7.9c0,0.1-0.1,0.2-0.1,0.3L55.1,99.6z"/>
		</g>
	</g>
</g>
</svg>
