<?xml version="1.0" encoding="utf-8"?>
<!-- Generator: Adobe Illustrator 21.0.0, SVG Export Plug-In . SVG Version: 6.00 Build 0)  -->
<svg version="1.1" id="Layer_1" xmlns="http://www.w3.org/2000/svg" xmlns:xlink="http://www.w3.org/1999/xlink" x="0px" y="0px"
	 viewBox="0 0 200 200" style="enable-background:new 0 0 200 200;" xml:space="preserve">
<style type="text/css">
	.st0{fill:#FFFFFF;}
	.st1{fill:#E64343;}
</style>
<g>
	<g>
		<g>
			<path class="st0" d="M100,46.2c-30.9,0-56,25.1-56,56v51.5h112v-51.5C156,71.3,130.9,46.2,100,46.2z"/>
			<path class="st1" d="M156,155H44c-0.7,0-1.3-0.6-1.3-1.3v-51.5C42.7,70.7,68.4,45,100,45c31.6,0,57.3,25.7,57.3,57.3v51.5
				C157.3,154.5,156.7,155,156,155z M45.2,152.5h109.5v-50.3c0-30.2-24.6-54.8-54.8-54.8s-54.8,24.6-54.8,54.8V152.5z"/>
		</g>
	</g>
	<g>
		<g>
			<path class="st0" d="M148.7,102.2c0,26.9-21.8,48.7-48.7,48.7c-26.9,0-48.7-21.8-48.7-48.7H148.7z"/>
			<path class="st1" d="M100,152.2c-27.6,0-50-22.4-50-50c0-0.7,0.6-1.3,1.3-1.3h97.4c0.7,0,1.3,0.6,1.3,1.3
				C150,129.8,127.5,152.2,100,152.2z M52.6,103.5c0.7,25.6,21.7,46.2,47.4,46.2c25.8,0,46.8-20.6,47.4-46.2H52.6z"/>
		</g>
	</g>
</g>
</svg>
