<?xml version="1.0" encoding="utf-8"?>
<!-- Generator: Adobe Illustrator 21.0.0, SVG Export Plug-In . SVG Version: 6.00 Build 0)  -->
<svg version="1.1" id="Layer_1" xmlns="http://www.w3.org/2000/svg" xmlns:xlink="http://www.w3.org/1999/xlink" x="0px" y="0px"
	 viewBox="0 0 200 200" style="enable-background:new 0 0 200 200;" xml:space="preserve">
<style type="text/css">
	.st0{fill:#FFFFFF;}
	.st1{fill:#E64343;}
</style>
<g>
	<g>
		<path class="st0" d="M52.8,119.8c0,0-8.8-17.4-4.7-34.2s14.4-25.1,26.1-29.9h-5.6c0,0,18.6-13.7,40.7-10.4
			c22.2,3.3,34.4,16,36.8,27.9c0,0,13.8,15.2,2.5,42.3S52.8,119.8,52.8,119.8z"/>
		<path class="st1" d="M113.4,130c-27,0-58.8-8.5-61-9c-0.3-0.1-0.6-0.3-0.8-0.6c-0.4-0.7-9-18-4.8-35.1C50,72.1,56.9,63,68.5,56.9
			c-0.5,0-1-0.3-1.2-0.9c-0.2-0.5,0-1.1,0.4-1.4C68.6,54,87,40.6,109.4,44c24.1,3.6,35.4,17.6,37.8,28.6c1.9,2.2,13.3,17.5,2.5,43.4
			C145.3,126.7,130.3,130,113.4,130z M53.6,118.7c7.3,1.9,83.6,21,93.8-3.7c10.8-26.1-2.2-40.8-2.3-41c-0.1-0.2-0.3-0.4-0.3-0.6
			c-2.1-10.3-12.8-23.5-35.8-26.9c-15.8-2.4-29.9,4.2-36.2,7.9h1.3c0.6,0,1.1,0.4,1.2,1c0.1,0.6-0.2,1.2-0.7,1.4
			c-13.9,5.7-22,15-25.4,29C45.7,100.5,52.3,115.8,53.6,118.7z"/>
	</g>
	<g>
		<path class="st0" d="M140.6,80.3c-0.2,0.1-18,6.5-42.5,6.9c5.8-1.6,7.8-5.4,7.8-5.4s-18.4,6-43.9,13.6l0,0c0,0-8.9,2.6-8.8,22.4
			c4.9,21.5,24.1,37.5,47.1,37.5c26.7,0,48.3-21.6,48.3-48.3C148.6,97.1,145.6,87.9,140.6,80.3z"/>
		<path class="st1" d="M100.3,156.5c-23.2,0-43.1-15.8-48.3-38.5c0-0.1,0-0.2,0-0.3c0-19.4,8.4-23.1,9.6-23.5c0,0,0.1,0,0.1,0
			c25.2-7.5,43.6-13.6,43.8-13.6c0.5-0.2,1,0,1.3,0.4c0.3,0.4,0.4,0.9,0.1,1.4c-0.1,0.1-0.9,1.7-3.1,3.3c21.1-1.2,36.1-6.5,36.3-6.6
			c0.5-0.2,1.2,0,1.5,0.5c5.4,8.1,8.3,17.6,8.3,27.4C149.9,134.3,127.6,156.5,100.3,156.5z M54.4,117.6c5,21.4,23.8,36.4,45.8,36.4
			c26,0,47.1-21.1,47.1-47.1c0-9-2.5-17.6-7.3-25.2c-4,1.4-20.3,6.3-42,6.6c-0.6,0-1.2-0.5-1.3-1.1c-0.1-0.6,0.3-1.2,0.9-1.4
			c1.2-0.3,2.2-0.7,3-1.2c-7.3,2.3-21.3,6.7-38.3,11.8c0,0,0,0-0.1,0C62.3,96.6,54.4,99.4,54.4,117.6z"/>
	</g>
</g>
</svg>
