<?xml version="1.0" encoding="utf-8"?>
<!-- Generator: Adobe Illustrator 21.0.0, SVG Export Plug-In . SVG Version: 6.00 Build 0)  -->
<svg version="1.1" id="Layer_1" xmlns="http://www.w3.org/2000/svg" xmlns:xlink="http://www.w3.org/1999/xlink" x="0px" y="0px"
	 viewBox="0 0 200 200" style="enable-background:new 0 0 200 200;" xml:space="preserve">
<style type="text/css">
	.st0{fill:#FFFFFF;}
	.st1{fill:#E64343;}
</style>
<g>
	<g>
		<path class="st0" d="M156.3,82l-17.7-23.8l-18-13.1l-53.2,8L56.2,64.4c0,0-11.2,10-12.5,22.8l3.2,16.1c0,0,2.7,5.4,4.5,11.5
			l0.2,3.3l0.9,0.9c0.3,1.4,0.5,2.8,0.6,4.1l0.3-3.2l30.2,28.8l12.5-5.3c0,0-34.3-0.9-4-6.3l14.3-11.3l17.1,7.1l23.1-15.1l0.5,6.8
			c0,0,0.8-3.9,2-8.4l0.1-0.1l0-0.4c1.5-5.9,3.6-12.7,5.4-14C154.4,101.8,156.7,86.8,156.3,82z"/>
		<path class="st1" d="M83.5,149.9c-0.3,0-0.6-0.1-0.9-0.4l-28.3-27l-0.1,0.6c-0.1,0.7-0.6,1.2-1.3,1.1c-0.7,0-1.2-0.5-1.3-1.2
			c-0.1-1-0.2-2.2-0.5-3.5l-0.6-0.6c-0.2-0.2-0.4-0.5-0.4-0.9l-0.1-3.2c-1.8-5.9-4.3-11.1-4.4-11.2c0-0.1-0.1-0.2-0.1-0.3l-3.2-16.1
			c0-0.1,0-0.3,0-0.4c1.3-13.2,12.5-23.2,12.9-23.6l11.2-11.2c0.2-0.2,0.4-0.3,0.7-0.4l53.2-8c0.3,0,0.7,0,0.9,0.2l18,13.1
			c0.1,0.1,0.2,0.2,0.3,0.3l17.7,23.8c0.1,0.2,0.2,0.4,0.2,0.7c0.3,4.9-1.8,19.4-1.9,20c0,0.3-0.2,0.6-0.5,0.8
			c-0.4,0.3-2,2.2-4.9,13.2l0,0.2c0,0.3-0.1,0.5-0.2,0.7c-1.1,4.3-1.9,8-1.9,8c-0.1,0.6-0.7,1-1.3,1c-0.6,0-1.1-0.6-1.2-1.2
			l-0.3-4.7L124.1,134c-0.4,0.2-0.8,0.3-1.2,0.1l-16.4-6.9L92.9,138c-0.2,0.1-0.4,0.2-0.6,0.3c-6.2,1.1-9.1,1.9-10.4,2.4
			c2.7,0.7,8.9,1.2,14.3,1.3c0.6,0,1.1,0.4,1.2,1c0.1,0.6-0.2,1.2-0.8,1.4L84,149.8C83.9,149.8,83.7,149.9,83.5,149.9z M53.6,118.6
			c0.2,0,0.4,0.2,0.6,0.3l29.6,28.2l6.5-2.7c-11.8-0.7-12-2.5-12-3.4c-0.1-1.5,0.8-2.9,13.2-5.1l14-11.1c0.4-0.3,0.9-0.4,1.3-0.2
			l16.4,6.9l22.5-14.7c0.4-0.2,0.9-0.3,1.3-0.1c0.1,0.1,0.3,0.2,0.4,0.3c0.1-0.3,0.2-0.7,0.3-1.1c0-0.1,0-0.1,0.1-0.2
			c0-0.1,0-0.1,0-0.2c2.6-10.1,4.3-13.2,5.4-14.4c0.4-2.4,2-14.2,1.9-18.7l-17.3-23.3l-17.5-12.7L68,54.3l-10.9,11
			c-0.2,0.1-10.8,9.7-12.1,21.8l3.1,15.7c0.5,0.9,2.8,5.9,4.5,11.6c0,0.1,0,0.2,0.1,0.3l0.1,2.8l0.5,0.5
			C53.5,118.1,53.6,118.3,53.6,118.6z"/>
	</g>
	<g>
		<path class="st0" d="M141.7,97l-1.4-13.8l-5.2,0c-31.4,5.5-75.8,0-75.8,0L57.8,97l-8.3,12.4c2.6,25.6,24.2,45.6,50.5,45.6
			c26.9,0,48.9-21,50.6-47.5L141.7,97z"/>
		<path class="st1" d="M100,156.2c-26.8,0-49-20.1-51.7-46.7c0-0.3,0-0.6,0.2-0.8l8.2-12.1L58,83c0-0.3,0.2-0.7,0.5-0.9
			c0.3-0.2,0.6-0.3,1-0.3c0.4,0.1,44.6,5.4,75.4,0l5.4,0c0.7,0,1.2,0.5,1.3,1.1l1.4,13.4l8.6,10.2c0.2,0.3,0.3,0.6,0.3,0.9
			C150.1,134.8,127.3,156.2,100,156.2z M50.8,109.7c2.8,25.1,23.8,44,49.2,44c25.8,0,47.4-20.1,49.3-45.8l-8.5-10.1
			c-0.2-0.2-0.3-0.4-0.3-0.7l-1.3-12.7l-4.1,0c-28,4.9-67.1,1-74.7,0.2l-1.3,12.5c0,0.2-0.1,0.4-0.2,0.6L50.8,109.7z"/>
	</g>
	<g>
		<path class="st0" d="M138,108.1c-3.7-0.7-14.8-1.1-18.9-0.9c-4.2,0.2-10.6,0.8-13.1,1.9c-2.5,1.1-2,3.3-2,3.3
			c0.1,1.7,1.1,3.4,2.9,6c1.8,2.6,3.6,3.1,4.5,3.4c0.9,0.3,4.6,0.8,4.6,0.8c3.2,0.3,7.2,0.2,12.2,0.1s7.6-0.9,8.6-1.2
			c3.3-0.8,3.8-3.2,4.2-4.2c0.4-1.1,1-4.8,0.9-5.4C141.8,110.4,141.8,108.8,138,108.1z"/>
		<path class="st1" d="M121.4,124c-2.1,0-3.9-0.1-5.6-0.2c-0.7-0.1-3.9-0.5-4.9-0.9l-0.3-0.1c-1-0.4-3-1.1-4.9-3.8
			c-2-2.9-3-4.7-3.1-6.6c-0.2-0.9,0-3.3,2.7-4.5c3.2-1.4,11.2-1.9,13.6-2c4.2-0.2,15.3,0.2,19.2,0.9l0,0c4.2,0.8,4.8,2.9,5,4.9
			c0.1,0.9-0.6,4.9-1,6c-0.5,1.5-1.3,4.1-5.1,5c-1.5,0.4-4.1,1.1-8.9,1.2C125.7,124,123.4,124,121.4,124z M121.9,108.4
			c-1,0-2,0-2.7,0c-4.5,0.2-10.4,0.8-12.6,1.8c-1.5,0.7-1.3,1.8-1.3,1.8c0.1,1.6,1,3.1,2.7,5.6c1.4,2,2.7,2.5,3.6,2.8l0.3,0.1
			c0.5,0.2,2.6,0.5,4.3,0.7c3.1,0.3,6.9,0.2,12,0.1c4.5-0.1,7-0.8,8.1-1c0,0,0.3-0.1,0.3-0.1c2.4-0.6,2.8-2,3.2-3.1l0.1-0.3
			c0.3-0.9,0.9-4.4,0.9-4.9c-0.1-1.3-0.2-2.1-2.9-2.6C134.8,108.8,126.8,108.4,121.9,108.4z"/>
	</g>
	<g>
		<path class="st0" d="M94,109.1c-2.5-1.1-8.9-1.7-13.1-1.9c-4.2-0.2-15.2,0.2-18.9,0.9c-3.7,0.7-3.8,2.3-3.9,3.8
			c-0.1,0.6,0.6,4.3,0.9,5.4c0.4,1.1,0.9,3.4,4.2,4.2c1,0.3,3.6,1,8.6,1.2c5,0.1,9,0.2,12.2-0.1c0,0,3.6-0.4,4.6-0.8
			c0.9-0.3,2.7-0.8,4.5-3.4c1.8-2.6,2.8-4.3,2.9-6C96,112.3,96.5,110.2,94,109.1z"/>
		<path class="st1" d="M78.6,124c-2,0-4.3-0.1-6.8-0.1c-4.8-0.1-7.4-0.8-8.7-1.1c-4-1-4.8-3.6-5.2-4.9c-0.5-1.3-1.2-5.3-1.1-6.2
			c0.2-2,0.7-4.1,5-4.9c3.9-0.7,15-1.1,19.2-0.9c2.4,0.1,10.4,0.6,13.6,2c2.7,1.2,3,3.6,2.7,4.7c-0.1,1.8-1.1,3.5-3.1,6.4
			c-1.9,2.7-3.8,3.4-4.9,3.8l-0.3,0.1c-1,0.4-4.2,0.8-4.9,0.9C82.5,124,80.6,124,78.6,124z M78.1,108.4c-5,0-12.9,0.4-15.9,0.9
			c-2.7,0.5-2.8,1.3-2.9,2.6c0,0.6,0.6,4,0.9,4.9l0.1,0.3c0.3,1.1,0.8,2.5,3.2,3.1c0,0,0.3,0.1,0.3,0.1c1.2,0.3,3.6,0.9,8.1,1
			c5.1,0.1,8.9,0.2,12.1-0.1c1.6-0.2,3.8-0.5,4.2-0.7l0.3-0.1c0.9-0.3,2.2-0.8,3.6-2.8c1.7-2.5,2.6-4,2.7-5.4c0.1-0.5,0.1-1.4-1.2-2
			c-2.2-1-8.2-1.6-12.6-1.8C80.1,108.4,79.2,108.4,78.1,108.4z"/>
	</g>
</g>
</svg>
