<?xml version="1.0" encoding="utf-8"?>
<!-- Generator: Adobe Illustrator 21.0.0, SVG Export Plug-In . SVG Version: 6.00 Build 0)  -->
<svg version="1.1" id="Layer_1" xmlns="http://www.w3.org/2000/svg" xmlns:xlink="http://www.w3.org/1999/xlink" x="0px" y="0px"
	 viewBox="0 0 200 200" style="enable-background:new 0 0 200 200;" xml:space="preserve">
<style type="text/css">
	.st0{fill-rule:evenodd;clip-rule:evenodd;fill:#FFFFFF;}
	.st1{fill:#E64343;}
	.st2{fill:#FFFFFF;}
</style>
<g>
	<g>
		<path class="st0" d="M150.8,98.2c0,28.1-22.8,50.8-50.8,50.8c-28.1,0-50.8-22.7-50.8-50.8c0-40,42.3-43.9,46.9-52.7
			C96.1,45.5,150.8,54.5,150.8,98.2z"/>
		<path class="st1" d="M100,150.3c-28.7,0-52.1-23.4-52.1-52.1c0-29.3,21.8-39.6,36.2-46.4c5.2-2.5,9.8-4.6,10.9-6.8
			c0.2-0.5,0.8-0.7,1.3-0.7c0.6,0.1,55.8,9.6,55.8,53.9C152.1,126.9,128.7,150.3,100,150.3z M96.7,46.9c-1.9,2.5-6,4.5-11.5,7.1
			c-13.8,6.6-34.7,16.5-34.7,44.2c0,27.3,22.2,49.6,49.6,49.6c27.3,0,49.6-22.2,49.6-49.6C149.6,58.9,103.4,48.3,96.7,46.9z"/>
	</g>
	<g>
		<g>
			<path class="st2" d="M100.1,75.5c13.4-8.9,38.2-3.6,38.2-3.6c7.4,8.7,11.9,20,11.9,32.4c0,27.7-22.4,50.1-50.1,50.1
				C72.4,154.5,50,132,50,104.4C50,92,54.5,80.7,61.9,72C61.9,72,83.4,66.2,100.1,75.5z"/>
			<path class="st1" d="M100.1,155.7c-28.3,0-51.3-23-51.3-51.3c0-12.1,4.3-23.9,12.2-33.2c0.2-0.2,0.4-0.3,0.6-0.4
				c0.9-0.2,21.7-5.7,38.5,3.3c13.8-8.5,37.5-3.5,38.5-3.3c0.3,0.1,0.5,0.2,0.7,0.4c7.9,9.3,12.2,21.1,12.2,33.2
				C151.4,132.7,128.4,155.7,100.1,155.7z M62.6,73.1c-7.3,8.8-11.3,19.9-11.3,31.3c0,26.9,21.9,48.8,48.8,48.8
				c26.9,0,48.8-21.9,48.8-48.8c0-11.4-4-22.5-11.3-31.3c-3.3-0.6-25-4.4-36.8,3.5c-0.4,0.3-0.9,0.3-1.3,0
				C84.6,68.3,65.5,72.4,62.6,73.1z"/>
		</g>
	</g>
	<g>
		<path class="st2" d="M96.9,108.3c0,2.2-1.8,3.9-3.9,3.9H65.6c-2.2,0-3.9-1.7-3.9-3.9v-8.5c0-2.2,1.7-3.9,3.9-3.9H93
			c2.2,0,3.9,1.8,3.9,3.9V108.3z"/>
		<path class="st1" d="M93,113.5H65.6c-2.8,0-5.2-2.3-5.2-5.2v-8.5c0-2.8,2.3-5.2,5.2-5.2H93c2.8,0,5.2,2.3,5.2,5.2v8.5
			C98.1,111.2,95.8,113.5,93,113.5z M65.6,97.2c-1.5,0-2.7,1.2-2.7,2.7v8.5c0,1.5,1.2,2.7,2.7,2.7H93c1.5,0,2.7-1.2,2.7-2.7v-8.5
			c0-1.5-1.2-2.7-2.7-2.7H65.6z"/>
	</g>
	<g>
		<path class="st2" d="M138.5,108.3c0,2.2-1.7,3.9-3.9,3.9h-27.4c-2.2,0-3.9-1.7-3.9-3.9v-8.5c0-2.2,1.8-3.9,3.9-3.9h27.4
			c2.2,0,3.9,1.8,3.9,3.9V108.3z"/>
		<path class="st1" d="M134.6,113.5h-27.4c-2.8,0-5.2-2.3-5.2-5.2v-8.5c0-2.8,2.3-5.2,5.2-5.2h27.4c2.8,0,5.2,2.3,5.2,5.2v8.5
			C139.8,111.2,137.4,113.5,134.6,113.5z M107.2,97.2c-1.5,0-2.7,1.2-2.7,2.7v8.5c0,1.5,1.2,2.7,2.7,2.7h27.4c1.5,0,2.7-1.2,2.7-2.7
			v-8.5c0-1.5-1.2-2.7-2.7-2.7H107.2z"/>
	</g>
</g>
</svg>
