<?xml version="1.0" encoding="utf-8"?>
<!-- Generator: Adobe Illustrator 21.0.0, SVG Export Plug-In . SVG Version: 6.00 Build 0)  -->
<svg version="1.1" id="Layer_1" xmlns="http://www.w3.org/2000/svg" xmlns:xlink="http://www.w3.org/1999/xlink" x="0px" y="0px"
	 viewBox="0 0 200 200" style="enable-background:new 0 0 200 200;" xml:space="preserve">
<style type="text/css">
	.st0{fill:#FFFFFF;}
	.st1{fill:#E64343;}
</style>
<g>
	<g>
		<path class="st0" d="M142.7,71.2c-1.6-3.9-4-7.6-7.3-10.4c0,0-26.8-31.7-66.7-5.5c-3.9,6.1-14.1,6.5-18.3,27.4
			c-0.1,0.4-0.2,0.8-0.2,1.2c-0.1,0.3-0.1,0.5-0.2,0.8c0,0,0,0,0,0c-0.7,3.7-1.1,7.9-1.1,12.7c0.5,12.5,5,22,5,22s-1-1.6-0.9-4.2
			c0.1,0.9,0.3,1.7,0.4,2.6c-0.1-7,1-11.9,2.4-15.3c1.9-2.8,4-5.1,6.1-7.3c0.2-0.1,0.3-0.1,0.3-0.1l-0.2,0c2-2.1,4.2-3.9,6.3-5.5
			c-0.9,1.6-1.9,3.3-2.9,4.9c3.7-2.1,9.2-4.3,15.2-6.3c7.7,0.4,16,0.8,24.1,1.1c0,0.4-0.1,0.8-0.1,1.2c0.7-0.4,1.4-0.8,2.1-1.1
			c15.7,0.6,30.1,1,36.5,1.2c2.5,12,4.8,24.7,4.8,24.7s3.3-7.5,3.3-20.3C151.2,86.7,146.2,77,142.7,71.2z"/>
		<path class="st1" d="M53.8,120.7c-0.4,0-0.8-0.2-1.1-0.6c0,0-0.3-0.4-0.5-1.2c-1.2-2.8-4.2-11.1-4.7-21.4c0-4.4,0.4-8.7,1.1-12.9
			c0-0.1,0-0.2,0.1-0.3l0.4-1.9c3.1-15.2,9.4-20,14-23.5c1.9-1.4,3.5-2.7,4.5-4.3c0.1-0.2,0.2-0.3,0.4-0.4
			c21.1-13.9,38.5-11.6,49.5-7.3c11.8,4.7,18.6,12.6,18.9,12.9c3,2.4,5.5,6.1,7.5,10.6c4,6.5,8.7,16,8.7,24.3
			c0,12.9-3.2,20.5-3.4,20.8c-0.2,0.5-0.7,0.8-1.3,0.7c-0.5-0.1-1-0.5-1.1-1c0-0.1-2.2-12.2-4.6-23.7c-7.2-0.2-20.6-0.6-35.2-1.1
			l-0.2,0.1c-0.5,0.3-1.1,0.6-1.6,0.9c-0.4,0.2-0.9,0.2-1.3,0c-0.4-0.2-0.6-0.6-0.6-1.1c-8.2-0.3-15.8-0.7-22.5-1
			c-6.6,2.3-11.6,4.4-14.8,6.2c-0.5,0.3-1.1,0.2-1.5-0.2c-0.2-0.2-0.3-0.4-0.3-0.6c-0.3,0.3-0.6,0.6-0.9,0.9
			c-0.1,0.3-0.3,0.5-0.6,0.7c-2.2,2.3-4.1,4.6-5.7,6.9c-1.6,3.8-2.3,8.8-2.3,14.7c0,0.1,0,0.1,0,0.2c0.2,0.6,0.4,0.9,0.4,0.9
			c0.3,0.6,0,1.3-0.5,1.6C54.2,120.7,54,120.7,53.8,120.7z M51.1,85c-0.7,4.2-1.1,8.3-1.1,12.5c0.2,5.4,1.2,10.3,2.3,14
			c0.4-3.6,1.1-6.7,2.2-9.4c0-0.1,0.1-0.2,0.1-0.2c1.8-2.5,3.8-5,6.3-7.5c0,0,0,0,0,0c0,0,0,0,0.1-0.1c1.9-1.9,3.9-3.7,6.4-5.6
			c0.5-0.4,1.1-0.3,1.6,0.1c0.5,0.4,0.6,1,0.3,1.6c-0.2,0.4-0.5,0.8-0.7,1.2c3.1-1.4,6.9-2.9,11.6-4.5c0.2-0.1,0.3-0.1,0.5-0.1
			c7.1,0.4,15.2,0.8,24.1,1.1c0.3,0,0.7,0.2,0.9,0.4c0,0,0,0,0,0l0.5-0.2c0.2-0.1,0.4-0.2,0.6-0.1c15.4,0.6,29.4,1,36.4,1.2
			c0.6,0,1.1,0.4,1.2,1c1.6,7.3,3,14.9,3.9,19.8c0.8-3.4,1.7-8.5,1.7-15.1c0-8.1-5.3-18-8.4-23.1c0-0.1-0.1-0.1-0.1-0.2
			c-1.8-4.2-4.2-7.5-7-9.9c-1.2-1.4-26.7-30.6-65-5.5c-1.3,1.9-3,3.2-4.9,4.7c-4.5,3.5-10.2,7.8-13,22L51.1,85L51.1,85z"/>
	</g>
	<g>
		<g>
			<path class="st0" d="M140.7,80c-0.2,0-17.2-0.3-36.1,10.5c0.5-4.2,0.9-7.5,1.2-9.8c-11.7,3.1-31.5,8.8-40.4,13.8c1-1.7,2-3.4,3-5
				c-2.2,1.7-4.3,3.6-6.4,5.7l0.2,0c0,0-0.1,0-0.3,0.1c-2.1,2.2-4.2,4.6-6.1,7.3c-1.4,3.3-2.4,8.1-2.4,14.9
				C58.2,139,77.4,155,100.4,155c26.7,0,48.3-21.6,48.3-48.3C148.7,96.8,145.7,87.6,140.7,80z"/>
			<path class="st1" d="M100.4,156.3c-23.2,0-43.1-15.8-48.3-38.5c0-0.1,0-0.2,0-0.3c0-6.2,0.8-11.4,2.5-15.4c0-0.1,0.1-0.2,0.1-0.2
				c1.8-2.5,3.8-5,6.3-7.5c0,0,0,0,0,0c0,0,0,0,0.1-0.1c2.1-2.2,4.3-4.2,6.5-5.8c0.5-0.4,1.1-0.3,1.6,0.1c0.4,0.4,0.6,1,0.3,1.6
				c-0.3,0.5-0.5,0.9-0.8,1.4c10.1-4.6,26.9-9.4,36.8-12c0.4-0.1,0.8,0,1.2,0.3c0.3,0.3,0.5,0.7,0.4,1.1c-0.3,2.3-0.7,4.8-0.9,7.4
				c18.2-9.7,33.9-9.5,34.6-9.5c0.4,0,0.8,0.2,1,0.6c5.4,8.1,8.3,17.6,8.3,27.4C150,134,127.7,156.3,100.4,156.3z M54.5,117.4
				c5,21.4,23.8,36.4,45.8,36.4c26,0,47.1-21.1,47.1-47.1c0-9.1-2.6-17.8-7.5-25.4c-3.3,0.1-18.4,1-34.8,10.3
				c-0.4,0.2-0.9,0.2-1.3,0c-0.4-0.3-0.6-0.7-0.6-1.2c0.3-2.8,0.6-5.5,1-8C92.8,85.4,74.4,90.8,66,95.6c-0.5,0.3-1.1,0.2-1.5-0.2
				c-0.2-0.2-0.3-0.4-0.3-0.6c-0.3,0.3-0.6,0.6-0.9,0.9c-0.1,0.3-0.3,0.5-0.6,0.7c-2.2,2.3-4.1,4.6-5.7,6.9
				C55.3,106.9,54.5,111.7,54.5,117.4z"/>
		</g>
	</g>
	<g>
		<path class="st0" d="M137.3,102.6c-3.6-1-14.5-1.6-18.5-1.3c-4.1,0.3-10.4,1.1-12.8,2.8c-2.4,1.6-2,4.7-2,4.7
			c0.1,2.5,1.1,4.9,2.8,8.7c1.8,3.8,3.5,4.4,4.4,4.9c0.9,0.5,4.5,1.1,4.5,1.1c3.2,0.5,7.1,0.3,12,0.1s7.5-1.3,8.5-1.7
			c3.2-1.2,3.7-4.6,4.1-6.1c0.4-1.5,1-7,0.9-7.8C141.1,106,141,103.7,137.3,102.6z"/>
		<path class="st1" d="M121,125.1c-2,0-3.8-0.1-5.5-0.3c-0.9-0.2-3.9-0.7-4.9-1.3l-0.3-0.1c-1-0.5-2.9-1.5-4.7-5.4
			c-1.9-4.1-2.8-6.5-2.9-9.2c0,0-0.6-3.8,2.5-5.8c3.2-2.1,11.1-2.8,13.4-3c4.2-0.3,15.1,0.3,19,1.4c4.4,1.3,4.6,4.4,4.8,6.5
			c0.1,1.1-0.6,6.7-0.9,8.3l-0.1,0.4c-0.4,1.7-1.2,5.3-4.8,6.6c-1.4,0.5-4.1,1.5-8.9,1.7C125.3,125.1,123,125.1,121,125.1z
			 M121.4,102.5c-1,0-1.8,0-2.5,0.1c-4.7,0.3-10.3,1.2-12.2,2.5c-1.7,1.2-1.4,3.4-1.4,3.5c0.1,2.4,1,4.6,2.7,8.4
			c1.4,3.1,2.7,3.7,3.6,4.2l0.3,0.2c0.4,0.2,2.5,0.7,4.1,1c3,0.4,6.7,0.3,11.7,0.1c4.4-0.2,6.7-1.1,7.8-1.5l0.2-0.1
			c2.4-0.9,2.9-3.3,3.2-4.8l0.1-0.4c0.3-1.5,0.9-6.8,0.9-7.5c-0.1-2.1-0.2-3.6-2.9-4.3l0,0C134.1,103,126.2,102.5,121.4,102.5z"/>
	</g>
	<g>
		<path class="st0" d="M96.4,104.1c-2.4-1.6-8.8-2.5-12.8-2.8c-4.1-0.3-14.9,0.3-18.5,1.3c-3.6,1-3.7,3.4-3.9,5.5
			c0,0.8,0.6,6.3,0.9,7.8c0.4,1.5,0.8,4.9,4.1,6.1c1,0.4,3.6,1.5,8.5,1.7s8.8,0.3,12-0.1c0,0,3.6-0.6,4.5-1.1
			c0.9-0.5,2.7-1.1,4.4-4.9c1.8-3.8,2.7-6.2,2.8-8.7C98.3,108.8,98.8,105.7,96.4,104.1z"/>
		<path class="st1" d="M81.3,125.1c-2,0-4.2-0.1-6.7-0.2c-4.8-0.2-7.5-1.2-8.6-1.7c-3.9-1.4-4.7-5-5-6.7l-0.1-0.4
			c-0.4-1.6-1-7.2-0.9-8.2c0.1-2.2,0.3-5.3,4.8-6.6c3.8-1.1,14.8-1.6,19-1.4c2.4,0.2,10.3,0.9,13.4,3c3.1,2,2.5,5.8,2.5,6
			c-0.1,2.5-1,4.9-2.9,9c-1.8,3.8-3.7,4.8-4.7,5.4l-0.2,0.1c-1,0.6-4,1.1-4.9,1.3C85.2,125.1,83.4,125.1,81.3,125.1z M81,102.5
			c-4.8,0-12.7,0.5-15.6,1.3c-2.7,0.8-2.8,2.2-2.9,4.2c0,0.8,0.5,6.1,0.9,7.6l0.1,0.4c0.3,1.6,0.9,4,3.2,4.8l0.3,0.1
			c1.1,0.4,3.5,1.3,7.8,1.5c5,0.2,8.7,0.3,11.7-0.1c1.6-0.3,3.6-0.8,4-1l0.3-0.2c0.9-0.5,2.2-1.1,3.6-4.2c1.8-3.8,2.6-6,2.7-8.2
			c0-0.2,0.3-2.5-1.4-3.6c-2-1.3-7.6-2.2-12.2-2.5C82.8,102.5,82,102.5,81,102.5z"/>
	</g>
</g>
</svg>
