<?xml version="1.0" encoding="utf-8"?>
<!-- Generator: Adobe Illustrator 21.0.0, SVG Export Plug-In . SVG Version: 6.00 Build 0)  -->
<svg version="1.1" id="Layer_1" xmlns="http://www.w3.org/2000/svg" xmlns:xlink="http://www.w3.org/1999/xlink" x="0px" y="0px"
	 viewBox="0 0 200 200" style="enable-background:new 0 0 200 200;" xml:space="preserve">
<style type="text/css">
	.st0{fill:#FFFFFF;}
	.st1{fill:#E64343;}
</style>
<g>
	<g>
		<g>
			<path class="st0" d="M148,106c-1.2-37.3-25.4-48.5-38.7-54c-12.1-5-21.7-7.3-27.3-9.4c-4,3-3,14.5-3,14.5l-11.8-1.9
				c0,0-1.9,3.8-5.7,12c-9.7,20-9.4,40.9-9.4,40.9l5-13c4.9-9.7,9.9-13.9,13.2-16.8c4.5-4,8.6-4.4,11.7-3.7c21.9,6.6,40.6,0,40.6,0
				c8.8,2.4,17,15.1,21.9,25.5c1.5,2.8,2.7,5.3,3.4,8.2c-0.3-1.8-0.4-0.9-0.4-1.6c0.2,0.5,0.3,1,0.4,1.6
				C147.9,107.6,148.1,107.2,148,106z"/>
			<path class="st1" d="M147.8,109.5c-0.1,0-0.2,0-0.4-0.1c-0.1,0-0.3-0.1-0.4-0.2c-0.2-0.1-0.3-0.3-0.4-0.5c0-0.1-0.1-0.2-0.1-0.2
				c-0.7-2.8-1.9-5.2-3.3-7.9c-6.5-13.6-14.2-22.8-20.8-24.8c-2.9,0.9-20.4,6.1-41-0.1c-2.4-0.5-6.2-0.4-10.5,3.4l-0.5,0.4
				c-3.3,3-7.9,7-12.4,16l-5,12.9c-0.2,0.6-0.8,0.9-1.4,0.8c-0.6-0.1-1-0.6-1-1.2c0-0.9-0.2-21.5,9.5-41.5c3.8-8.1,5.7-12,5.7-12
				c0.2-0.5,0.8-0.8,1.3-0.7l10.3,1.7c-0.1-3.5,0-11.3,3.6-14c0.3-0.3,0.8-0.3,1.2-0.2c1.9,0.7,4.4,1.5,7.3,2.4
				c5.4,1.7,12.2,3.7,20.1,7c11.4,4.7,38.2,15.8,39.5,55.1c0.1,1.1-0.1,1.7-0.1,2.2l-0.1,0.3c0,0.1,0,0.2-0.1,0.3
				c-0.1,0.2-0.1,0.3-0.2,0.4c0,0,0,0,0,0l0,0c-0.1,0.1-0.3,0.2-0.5,0.3c-0.1,0-0.2,0.1-0.3,0.1
				C147.9,109.5,147.8,109.5,147.8,109.5z M122.5,73.3c0.1,0,0.2,0,0.3,0c10.6,2.9,19.4,19.3,22.7,26.2c0.3,0.6,0.6,1.2,1,1.8
				c-3.1-34-27.1-43.9-37.6-48.3c-7.8-3.2-14.5-5.3-19.9-6.9c-2.6-0.8-4.8-1.5-6.7-2.1c-2.1,2.4-2.4,9.1-2.1,13c0,0.4-0.1,0.8-0.4,1
				c-0.3,0.3-0.7,0.4-1.1,0.3l-10.9-1.8c-0.8,1.5-2.5,5.2-5.3,11.1c-5.8,12.1-8,24.6-8.8,32.5l2.1-5.5c4.8-9.5,9.8-13.9,13.1-16.9
				l0.5-0.4c5.1-4.6,9.8-4.7,12.8-4c21.4,6.4,39.7,0.1,39.9,0C122.2,73.3,122.3,73.3,122.5,73.3z"/>
		</g>
	</g>
	<g>
		<path class="st0" d="M147.5,106.6c0.1,0.2-0.1,0.5,0,0.7c0,0,0-0.1,0-0.1c-0.7-2.4-1.8-4.7-3.1-7.1c-4.9-10.4-13.1-23.1-21.9-25.5
			c0,0-18.7,6.6-40.6,0c-3.1-0.7-7.2-0.3-11.7,3.7c-3.3,2.9-8.3,7.1-13.2,16.8l-4.9,11.1c-0.1,1-0.2,2-0.2,3.1
			c0,11.2,3.8,21.5,10.2,29.7c8.7,11.2,22.3,18.5,37.6,18.5c26.4,0,47.8-21.6,47.8-48.1c0-0.6-0.1-1.3-0.1-1.9
			C147.3,107.2,147.6,106.8,147.5,106.6z"/>
		<path class="st1" d="M99.8,158.6c-15.2,0-29.2-6.9-38.6-18.9c-6.8-8.8-10.4-19.3-10.4-30.4c0-0.8,0.1-1.7,0.1-2.5l0-0.7
			c0-0.1,0-0.3,0.1-0.4l4.9-11.1c4.8-9.5,9.7-13.9,13-16.8l0.5-0.4c5.1-4.6,9.8-4.7,12.8-4c21.4,6.4,39.7,0.1,39.9,0
			c0.2-0.1,0.5-0.1,0.7,0c10.6,2.9,19.4,19.3,22.7,26.2c1.2,2.3,2.1,4.2,2.7,6.1c0.1,0.1,0.2,0.2,0.3,0.4c0.3,0.5,0.2,1,0.1,1.3
			c0,0,0,0,0,0.1l0,0.7c0,0.4,0.1,0.8,0.1,1.2C148.8,136.5,126.8,158.6,99.8,158.6z M53.4,106.5l0,0.4c-0.1,0.8-0.1,1.5-0.1,2.3
			c0,10.6,3.4,20.6,9.9,28.9c8.9,11.4,22.2,18,36.6,18c25.7,0,46.5-21,46.5-46.9c0-0.4,0-0.7,0-1.1l0-0.6c0-0.1,0-0.3,0-0.4
			c-0.6-1.8-1.5-3.9-2.9-6.6c-6.5-13.6-14.2-22.8-20.8-24.8c-2.9,0.9-20.4,6.1-41-0.1c-2.4-0.5-6.2-0.4-10.5,3.4l-0.5,0.4
			c-3.3,3-7.9,7-12.4,16L53.4,106.5z"/>
	</g>
</g>
</svg>
