<?xml version="1.0" encoding="utf-8"?>
<!-- Generator: Adobe Illustrator 21.0.0, SVG Export Plug-In . SVG Version: 6.00 Build 0)  -->
<svg version="1.1" id="Layer_1" xmlns="http://www.w3.org/2000/svg" xmlns:xlink="http://www.w3.org/1999/xlink" x="0px" y="0px"
	 viewBox="0 0 200 200" style="enable-background:new 0 0 200 200;" xml:space="preserve">
<style type="text/css">
	.st0{fill:#FFFFFF;}
	.st1{fill:#E64343;}
</style>
<g>
	<g>
		<path class="st0" d="M150,91.1c-2.5-20.1-13.3-29.2-16.3-31.8c-4.4-8.2-13.4-11.4-13.4-11.4s0,0-3.6,2.3c-11.4-8.4-27-7.8-27-7.8
			s0,0,0,6.1c-14.1-1.9-23.1,1.9-23.1,1.9s0,0,1.2,6.5C57,67.2,49,86.6,50,99.7c0,1.8,0.4,3.5,0.8,5.1c0,0,1-5.2,3.3-11.5l0.4-1
			c3.1-8.4,8.2-18.5,15.7-22c7.4,1.4,35.5,8.1,60.1-0.5c8.4,3.7,13.8,12.3,19.6,34.6C149.8,101.1,150.3,96.4,150,91.1z"/>
		<path class="st1" d="M50.8,106.1c-0.6,0-1.1-0.4-1.2-1c-0.4-1.5-0.8-3.4-0.8-5.4c-1-13.4,7-32.6,17.8-43.2l-1.1-5.9
			c-0.1-0.6,0.2-1.2,0.7-1.4c0.4-0.2,8.9-3.7,22.3-2.2v-4.7c0-0.7,0.5-1.2,1.2-1.2c0.7,0,15.5-0.5,27.1,7.5l2.9-1.9
			c0.3-0.2,0.7-0.3,1.1-0.1c0.4,0.1,9.3,3.4,13.9,11.8c9.4,8.2,14.9,19.1,16.6,32.4c0,0,0,0.1,0,0.1c0.2,3.9,0,7.4-0.1,10.2
			c-0.1,1.2-0.1,2.2-0.1,3.1c0,0.6-0.5,1.1-1.1,1.2c-0.6,0.1-1.2-0.3-1.4-0.9c-5.3-20.5-10.3-29.7-18.4-33.5
			c-23,7.8-48.6,2.7-58.3,0.8l-1.6-0.3C63.3,75,58.4,84.9,55.6,92.7l-0.4,1C53,99.8,52,105,52,105C51.9,105.6,51.4,106,50.8,106.1
			C50.8,106.1,50.8,106.1,50.8,106.1z M68.1,51.2l1,5.5c0.1,0.4-0.1,0.8-0.4,1.1c-10,9.5-17.8,27.5-17.6,40.2c0.5-1.6,1-3.4,1.7-5.2
			l0.4-1c3.1-8.3,8.4-19,16.3-22.7c0.2-0.1,0.5-0.1,0.8-0.1l2,0.4c9.6,1.9,35,7,57.5-0.8c0.3-0.1,0.6-0.1,0.9,0
			c8,3.5,13.2,11.3,18.2,27.8c0-1.6,0-3.4-0.1-5.2c-1.6-12.8-6.9-23.2-15.8-30.8c-0.1-0.1-0.3-0.3-0.4-0.5
			c-3.5-6.5-10.2-9.8-12.1-10.6l-3.1,2c-0.4,0.3-1,0.3-1.4,0c-9.1-6.7-21.2-7.5-25-7.6v4.9c0,0.4-0.2,0.7-0.4,0.9
			c-0.3,0.2-0.6,0.3-1,0.3C78.5,48.3,70.7,50.4,68.1,51.2z"/>
	</g>
	<g>
		<path class="st0" d="M140.8,79.4c-1.5-2.2-3.2-4.2-5.1-6.1c-1.8-1.5-3.6-2.7-5.6-3.6c-24.6,8.6-52.8,1.9-60.1,0.5
			c-7.4,3.5-12.5,13.6-15.7,22l-0.4,1c-1.3,3.5-2.3,6.6-3,8.7c-0.2,2-0.4,4-0.4,6c0,27.4,22.2,49.6,49.6,49.6
			c27.4,0,49.6-22.2,49.6-49.6c0-2.6-0.3-5.1-0.6-7.6C146.6,90.9,143.9,84.2,140.8,79.4z"/>
		<path class="st1" d="M100.3,158.9c-28.1,0-50.9-22.8-50.9-50.9c0-1.9,0.1-3.9,0.4-6.1c0.7-2.3,1.8-5.4,3-9l0.4-1
			c3.1-8.3,8.4-19,16.3-22.7c0.2-0.1,0.5-0.1,0.8-0.1l2,0.4c9.6,1.9,35,7,57.5-0.8c0.3-0.1,0.6-0.1,0.9,0c2.2,1,4.1,2.2,5.9,3.8
			c1.9,2,3.7,4.1,5.3,6.3c0,0,0,0,0,0.1c3.2,5,6,12,8.6,21.3c0.5,3,0.7,5.5,0.7,7.9C151.2,136,128.3,158.9,100.3,158.9z M70.2,71.5
			C63.3,75,58.4,84.9,55.6,92.7l-0.4,1c-1.3,3.5-2.3,6.6-3,8.7c-0.2,1.9-0.3,3.8-0.3,5.6c0,26.7,21.7,48.4,48.4,48.4
			c26.7,0,48.4-21.7,48.4-48.4c0-2.3-0.2-4.6-0.6-7.4c-2.5-9-5.2-15.7-8.2-20.5c-1.5-2.1-3.2-4.1-4.9-5.9c-1.4-1.3-3-2.3-4.8-3.1
			c-23,7.8-48.6,2.7-58.3,0.8L70.2,71.5z"/>
	</g>
</g>
</svg>
