<?xml version="1.0" encoding="utf-8"?>
<!-- Generator: Adobe Illustrator 21.0.0, SVG Export Plug-In . SVG Version: 6.00 Build 0)  -->
<svg version="1.1" id="Layer_1" xmlns="http://www.w3.org/2000/svg" xmlns:xlink="http://www.w3.org/1999/xlink" x="0px" y="0px"
	 viewBox="0 0 200 200" style="enable-background:new 0 0 200 200;" xml:space="preserve">
<style type="text/css">
	.st0{fill:#FFFFFF;}
	.st1{fill:#E64343;}
</style>
<g>
	<g>
		<g>
			<path class="st0" d="M152.4,79.5c0-28.9-23.4-52.3-52.4-52.3c-28.9,0-52.4,23.4-52.4,52.3c0,0,0,16,0,23c0,6.1,1.8,10.6,4.7,14.1
				l0,0c0,0,11.2,15.2,45.1,15.2c-0.7-0.4-3.7-2.5-7-5.6c8.9-0.7,15.6-2.2,15.6-2.2s7.3,1.4,16.1,1.5c-3.7,20.4-16.6,46.7-17.8,47.4
				c33.9,0,48-33.7,48-63.5c0-0.3,0-0.6,0-0.9c0-0.2,0-0.4,0-0.5C152.4,83.2,152.4,79.5,152.4,79.5z"/>
			<path class="st1" d="M104.3,174.1c-0.6,0-1.1-0.4-1.2-0.9c-0.1-0.5,0.1-1.1,0.6-1.4c1.1-1.3,13-25.6,16.9-45.1
				c-7.3-0.2-13.3-1.2-14.6-1.4c-1.2,0.3-6,1.3-12.6,1.9c2.2,1.9,4.1,3.2,4.6,3.5c0.5,0.3,0.7,0.9,0.6,1.4c-0.2,0.5-0.6,0.9-1.2,0.9
				c-34.1,0-45.6-15-46.1-15.7c-0.1-0.1-0.1-0.1-0.1-0.2c-3.2-3.9-4.8-8.8-4.8-14.6v-23c0-29.6,24-53.6,53.6-53.6s53.6,24,53.6,53.6
				V108c0,0.1,0,0.3,0,0.4v0.4c0,0.2,0,0.4,0,0.6C153.6,140.6,138.2,174.1,104.3,174.1z M106,122.7c0.1,0,0.2,0,0.2,0
				c0.1,0,7.3,1.4,15.9,1.5c0.4,0,0.7,0.2,0.9,0.5c0.2,0.3,0.3,0.7,0.3,1c-3,16.6-12.7,38.6-16.7,45.9c22.5-1.2,44.5-20.6,44.5-62.2
				l0-0.8c0,0,0-0.3,0-0.4l0-28.7c0-28.2-22.9-51.1-51.1-51.1c-28.2,0-51.1,22.9-51.1,51.1v23c0,5.3,1.5,9.8,4.4,13.3
				c0.1,0.1,0.1,0.2,0.2,0.3c1.5,1.7,12.4,13.4,40,14.4c-1.2-0.9-2.5-2.1-3.9-3.3c-0.4-0.3-0.5-0.9-0.3-1.3c0.2-0.5,0.6-0.8,1.1-0.8
				c8.7-0.7,15.3-2.2,15.4-2.2C105.8,122.7,105.9,122.7,106,122.7z"/>
		</g>
	</g>
	<g>
		<path class="st0" d="M106.1,57.9c-5.9,14.8-16.9,34.8-35.1,45.9c-3.2,2-1.7,4.1-5.4,5.4c1.6,2.7-1.6,4.9,0.5,7.2
			c8.2,9.1,20,14.8,33.2,14.8c14.6,0,27.6-7.1,35.8-17.9c1.8-2.4-6.5-1.9-5.2-4.6c-1.1-0.8,7.8-4.8,6.7-5.8
			C125,92.3,113.3,71.8,106.1,57.9z"/>
		<path class="st1" d="M99.2,132.5c-13,0-25.4-5.5-34.1-15.2c-1.6-1.7-1.1-3.5-0.7-4.8c0.3-1.2,0.5-1.8,0-2.7
			c-0.2-0.3-0.2-0.7-0.1-1.1s0.4-0.6,0.7-0.7c1.5-0.6,1.8-1.1,2.3-2.1c0.5-0.9,1.1-2.1,2.9-3.2c18-11,28.8-30.7,34.6-45.3
			c0.2-0.5,0.6-0.8,1.1-0.8c0.5,0,0.9,0.2,1.2,0.7c7.6,14.7,19,34.4,30.1,44.6c0.3,0.3,0.5,0.9,0.5,1.3c-0.1,1.2-1.4,2.1-4.2,3.8
			c-0.8,0.5-2.1,1.3-2.6,1.7c0,0.2-0.1,0.3-0.1,0.4c0.2,0.1,1.4,0.5,2.1,0.7c1.5,0.5,3,0.9,3.4,2.2c0.1,0.4,0.2,1.2-0.4,2
			C127.2,125.8,113.8,132.5,99.2,132.5z M67.1,109.9c0.3,1.3,0,2.4-0.3,3.3c-0.4,1.3-0.4,1.8,0.1,2.4c8.2,9.1,20,14.4,32.2,14.4
			c13.7,0,26.3-6.2,34.6-17.2c-0.4-0.2-1.1-0.4-1.5-0.5c-1.6-0.5-3.2-1-3.7-2.2c-0.1-0.3-0.3-0.8-0.1-1.4c0-0.1,0-0.2,0-0.2
			c0-1.1,1.1-1.8,3.8-3.5c0.8-0.5,2-1.2,2.6-1.8c-10.5-10.1-21.1-28-28.6-42.3c-6.2,14.6-17,33.3-34.6,44c-1.2,0.7-1.6,1.4-2,2.2
			C69.1,108.1,68.6,109.1,67.1,109.9z"/>
	</g>
</g>
</svg>
