<?xml version="1.0" encoding="utf-8"?>
<!-- Generator: Adobe Illustrator 21.0.0, SVG Export Plug-In . SVG Version: 6.00 Build 0)  -->
<svg version="1.1" id="Layer_1" xmlns="http://www.w3.org/2000/svg" xmlns:xlink="http://www.w3.org/1999/xlink" x="0px" y="0px"
	 viewBox="0 0 200 200" style="enable-background:new 0 0 200 200;" xml:space="preserve">
<style type="text/css">
	.st0{fill:#FFFFFF;}
	.st1{fill:#E64343;}
</style>
<g>
	<g>
		<g>
			<path class="st0" d="M150.8,76c0,0-6.8-28.6-50.8-28.8c0,0,0,0,0,0c-0.1,0-0.1,0-0.2,0c-0.1,0-0.1,0-0.2,0c0,0,0,0,0,0
				C55.5,47.4,49.3,76,49.3,76l1.5,32.2l32.5,31l12.7-5.3c0,0-34.8-1-4.1-6.4l14.5-11.5l17.3,7.3l26-17L150.8,76z"/>
			<path class="st1" d="M83.3,140.4c-0.3,0-0.6-0.1-0.9-0.3l-32.5-31c-0.2-0.2-0.4-0.5-0.4-0.8L48,76.1c0-0.1,0-0.2,0-0.3
				c0.1-0.3,1.7-7.6,9-14.9c6.6-6.7,19.3-14.7,42.3-14.9c0.1,0,0.1,0,0.2,0h0.4c0.1,0,0.1,0,0.2,0c23,0.2,35.9,8.2,42.6,14.9
				c7.4,7.3,9.1,14.6,9.2,14.9c0,0.1,0,0.2,0,0.3l-1,30.3c0,0.4-0.2,0.8-0.6,1l-26,17c-0.3,0.2-0.8,0.3-1.2,0.1l-16.6-7l-13.9,11
				c-0.2,0.1-0.4,0.2-0.6,0.3c-6.5,1.1-9.4,2-10.7,2.5c2.7,0.7,9.1,1.2,14.6,1.4c0.6,0,1.1,0.4,1.2,1c0.1,0.6-0.2,1.2-0.7,1.4
				l-12.7,5.3C83.6,140.4,83.4,140.4,83.3,140.4z M52,107.6l31.6,30.1l6.8-2.9c-12.2-0.7-12.3-2.5-12.4-3.4
				c-0.1-1.5,0.8-2.9,13.4-5.1l14.3-11.3c0.4-0.3,0.8-0.3,1.3-0.2l16.7,7l24.9-16.3l1-29.4c-0.3-1-2.3-7.4-8.6-13.7
				c-9.2-9.1-23.3-13.9-40.9-14c-0.1,0-0.1,0-0.2,0c0,0,0,0,0,0c-0.1,0-0.1,0-0.2,0c-17.6,0.1-31.6,4.9-40.6,14
				c-6.2,6.3-8.1,12.7-8.4,13.7L52,107.6z"/>
		</g>
	</g>
	<g>
		<path class="st0" d="M141.1,96l-1.4-13.5l-5.1,0c-30.8,5.4-74.3,0-74.3,0L58.9,96l-8.2,12.1c2.5,25.1,23.7,44.6,49.5,44.6
			c26.4,0,47.9-20.6,49.6-46.5L141.1,96z"/>
		<path class="st1" d="M100.2,154.1c-26.3,0-48.1-19.7-50.7-45.8c0-0.3,0-0.6,0.2-0.8l8-11.9l1.4-13.2c0-0.3,0.2-0.6,0.5-0.9
			c0.3-0.2,0.6-0.3,0.9-0.3c0.4,0.1,43.7,5.3,73.9,0l5.3,0c0.6,0,1.2,0.5,1.2,1.1l1.3,13.2l8.4,10c0.2,0.2,0.3,0.6,0.3,0.9
			C149.3,133.1,127,154.1,100.2,154.1z M52,108.5c2.7,24.6,23.3,43.1,48.2,43.1c25.3,0,46.4-19.7,48.3-44.9l-8.3-9.9
			c-0.2-0.2-0.3-0.4-0.3-0.7l-1.3-12.4l-4,0c-27.5,4.8-65.8,1-73.2,0.2l-1.3,12.3c0,0.2-0.1,0.4-0.2,0.6L52,108.5z"/>
	</g>
</g>
</svg>
