<?xml version="1.0" encoding="utf-8"?>
<!-- Generator: Adobe Illustrator 21.0.0, SVG Export Plug-In . SVG Version: 6.00 Build 0)  -->
<svg version="1.1" id="Layer_1" xmlns="http://www.w3.org/2000/svg" xmlns:xlink="http://www.w3.org/1999/xlink" x="0px" y="0px"
	 viewBox="0 0 200 200" style="enable-background:new 0 0 200 200;" xml:space="preserve">
<style type="text/css">
	.st0{fill:#FFFFFF;stroke:#E64343;stroke-linecap:round;stroke-linejoin:round;stroke-miterlimit:10;}
	.st1{fill:#FFFFFF;}
	.st2{fill:#E64343;}
</style>
<g>
	<path class="st0" d="M58.2,83"/>
	<path class="st0" d="M58.2,83"/>
	<path class="st0" d="M58.2,83"/>
	<g>
		<path class="st1" d="M56.6,128.8l85.8,1.5c5.5-1.4,10.2-5.4,12.2-11c2.3-6.2,0.7-12.9-3.6-17.4c4.5-4.3,6.5-10.9,4.6-17.2
			c-1.9-6.3-7.2-10.8-13.4-12.1c1.1-6.1-1.3-12.5-6.6-16.6c-5.8-4.4-13.4-4.8-19.4-1.6c-2.8-6.1-9.1-10.3-16.4-10.3
			c-6.8,0-12.7,3.7-15.7,9.1c-5.7-2.7-12.7-2.3-18.3,1.6c-5.5,3.9-8.1,10.2-7.3,16.3c-6.3,1.1-11.7,5.4-13.9,11.6
			c-2.2,6.3-0.4,12.9,3.9,17.4c-4.4,4.4-6.3,11-4.3,17.3c1.9,6,6.8,10.2,12.6,11.7l85.5,1.4"/>
		<path class="st2" d="M142.5,131.6C142.5,131.6,142.4,131.6,142.5,131.6L57,130.2c-0.1,0-0.2,0-0.3,0c-6.5-1.6-11.5-6.3-13.5-12.5
			c-2-6.2-0.5-12.8,3.8-17.7c-4.2-4.9-5.5-11.6-3.4-17.8c2.1-6.1,7.3-10.7,13.7-12.2c-0.4-6.4,2.5-12.6,7.9-16.3
			c5.4-3.8,12.4-4.5,18.5-2.1c3.5-5.4,9.6-8.8,16.2-8.8c7.1,0,13.6,3.9,16.9,9.9c6.4-2.8,14-2,19.6,2.3c5.2,4,8,10.3,7.3,16.6
			c6.3,1.7,11.3,6.5,13.2,12.7c1.9,6.2,0.3,12.8-4.1,17.6c4.1,5,5.3,11.8,3,17.8c-2.1,5.7-7,10.1-13,11.7
			C142.7,131.5,142.6,131.6,142.5,131.6z M56.8,127.6l85.5,1.5c5.2-1.4,9.4-5.2,11.2-10.1c2-5.6,0.8-11.8-3.3-16.2
			c-0.5-0.5-0.4-1.3,0.1-1.8c4.3-4.2,6-10.3,4.3-16c-1.7-5.7-6.5-10-12.5-11.3c-0.7-0.1-1.1-0.8-1-1.4c1-5.8-1.3-11.7-6.2-15.4
			c-5.2-3.9-12.3-4.5-18.1-1.5c-0.3,0.2-0.7,0.2-1,0.1c-0.3-0.1-0.6-0.4-0.7-0.7c-2.7-5.8-8.6-9.6-15.2-9.6
			c-6.1,0-11.7,3.2-14.6,8.5c-0.3,0.6-1,0.8-1.6,0.5c-5.5-2.6-12-2-17,1.4c-5,3.5-7.5,9.3-6.8,15.1c0.1,0.7-0.4,1.3-1,1.4
			c-6,1-11,5.2-12.9,10.8c-1.9,5.6-0.5,11.8,3.6,16.1c0.5,0.5,0.5,1.3,0,1.8c-4.3,4.2-5.8,10.4-4,16C47.2,122.1,51.4,126,56.8,127.6
			z"/>
	</g>
	<g>
		<g>
			<path class="st1" d="M100,76.4c15.2,5.6,35.2,3.6,35.2,3.6c6.8,8.1,11,18.5,11,29.9c0,25.5-20.7,46.2-46.2,46.2
				c-25.5,0-46.2-20.7-46.2-46.2c0-11.4,4.1-21.8,11-29.9C64.8,80,84.8,82,100,76.4z"/>
			<path class="st2" d="M100,157.3c-26.2,0-47.4-21.3-47.4-47.4c0-11.2,4-22.1,11.2-30.7c0.3-0.3,0.7-0.5,1.1-0.4
				c0.2,0,19.9,1.9,34.7-3.5c0.3-0.1,0.6-0.1,0.9,0c14.7,5.4,34.5,3.5,34.7,3.5c0.4,0,0.8,0.1,1.1,0.4c7.3,8.6,11.3,19.5,11.3,30.7
				C147.4,136,126.2,157.3,100,157.3z M65.3,81.3c-6.6,8-10.2,18.1-10.2,28.6c0,24.8,20.2,44.9,44.9,44.9
				c24.8,0,44.9-20.2,44.9-44.9c0-10.4-3.6-20.5-10.2-28.6c-3.6,0.3-20.8,1.4-34.7-3.6C86.1,82.7,68.9,81.6,65.3,81.3z"/>
		</g>
	</g>
	<g>
		<path class="st1" d="M97,106.6c0,2-1.6,3.6-3.6,3.6H68.2c-2,0-3.6-1.6-3.6-3.6v-7.8c0-2,1.6-3.6,3.6-3.6h25.2c2,0,3.6,1.6,3.6,3.6
			V106.6z"/>
		<path class="st2" d="M93.4,111.4H68.2c-2.7,0-4.9-2.2-4.9-4.9v-7.8c0-2.7,2.2-4.8,4.9-4.8h25.2c2.7,0,4.9,2.2,4.9,4.8v7.8
			C98.3,109.3,96.1,111.4,93.4,111.4z M68.2,96.4c-1.3,0-2.4,1.1-2.4,2.3v7.8c0,1.3,1.1,2.4,2.4,2.4h25.2c1.3,0,2.4-1.1,2.4-2.4
			v-7.8c0-1.3-1.1-2.3-2.4-2.3H68.2z"/>
	</g>
	<g>
		<path class="st1" d="M135.4,106.6c0,2-1.6,3.6-3.6,3.6h-25.2c-2,0-3.6-1.6-3.6-3.6v-7.8c0-2,1.6-3.6,3.6-3.6h25.2
			c2,0,3.6,1.6,3.6,3.6V106.6z"/>
		<path class="st2" d="M131.8,111.4h-25.2c-2.7,0-4.9-2.2-4.9-4.9v-7.8c0-2.7,2.2-4.8,4.9-4.8h25.2c2.7,0,4.9,2.2,4.9,4.8v7.8
			C136.7,109.3,134.5,111.4,131.8,111.4z M106.6,96.4c-1.3,0-2.4,1.1-2.4,2.3v7.8c0,1.3,1.1,2.4,2.4,2.4h25.2c1.3,0,2.4-1.1,2.4-2.4
			v-7.8c0-1.3-1.1-2.3-2.4-2.3H106.6z"/>
	</g>
</g>
</svg>
