<?xml version="1.0" encoding="utf-8"?>
<!-- Generator: Adobe Illustrator 21.0.0, SVG Export Plug-In . SVG Version: 6.00 Build 0)  -->
<svg version="1.1" id="Layer_1" xmlns="http://www.w3.org/2000/svg" xmlns:xlink="http://www.w3.org/1999/xlink" x="0px" y="0px"
	 viewBox="0 0 200 200" style="enable-background:new 0 0 200 200;" xml:space="preserve">
<style type="text/css">
	.st0{fill:#FFFFFF;}
	.st1{fill:#E64343;}
</style>
<g>
	<g>
		<path class="st0" d="M152.5,101l2.4,0.5l-4.7-9.2l2.8,0.6c0,0-9.2-49.2-54.5-46.2c-0.4,0-0.7,0.1-1,0.1
			c-9.6,0.5-21.3,2.9-35.6,8.5c3.3-0.2,5.6-0.4,5.6-0.4S51.4,69,48.5,84.7c0,0.3,1.5-1.4,3.9-3.2c-5.1,11.3-6.5,21.1-6.5,21.1l4-3.5
			c0,0-1.9,8.2-5.8,13.6c5.3-1.5,8.3-1.7,8.3-1.7L49,123.5l5-4.1l6.6,12c0,0-1.1-13.5-0.4-17.8c0.7-4.3,5.2-18.5,5.2-18.5
			s14.9,15.5,16.1,17.1c0.2-2.9,3.6-26.6,3.6-26.6l9.2,10.4l6.7-8.1c0.3,3,0.6,5.9,1,8.7c0,0,2.8-4.2,5.5-7
			c1.5,6.7,1.9,15.5,1.9,27.7c4.8-9.2,10.1-22.9,10.1-34.9c1.7,3.1,3.4,6.9,4.7,11.5l7.9-7.7c0,0,5.1,11.5,7.7,17.6
			c0.1-2.6,0.4-5.1,0.6-7.3l8.9,26.9l1.1-14.5l5.4,2.9L152.5,101z"/>
		<path class="st1" d="M60.7,132.8c-0.4,0-0.9-0.2-1.1-0.6l-5.9-10.7l-3.9,3.1c-0.4,0.3-1,0.4-1.5,0.1c-0.5-0.3-0.7-0.8-0.5-1.4
			l2.8-10.7c-1.4,0.2-3.5,0.7-6.3,1.4c-0.5,0.1-1.1-0.1-1.4-0.5c-0.3-0.4-0.3-1,0-1.4c2-2.8,3.5-6.4,4.4-9.1l-0.7,0.7
			c-0.4,0.3-1,0.4-1.4,0.2c-0.5-0.2-0.7-0.8-0.6-1.3c0.1-0.3,1.1-7.5,4.7-16.7c-0.4,0.3-0.8,0.4-1.4,0.1c-0.5-0.3-0.7-0.8-0.6-1.3
			c2.3-12.2,12.1-23.2,16.9-28c-0.6,0-1.4,0.1-2.1,0.1c-0.6,0-1.2-0.4-1.3-1c-0.1-0.6,0.2-1.2,0.8-1.4c13.2-5.1,25.2-8,35.9-8.6
			l0.4,0c0.2,0,0.4,0,0.6-0.1c45.8-3,55.7,46.7,55.8,47.2c0.1,0.4-0.1,0.8-0.3,1.1c-0.3,0.3-0.7,0.4-1.1,0.3l-0.3-0.1l3.5,6.9
			c0.2,0.4,0.2,0.9-0.1,1.3c-0.3,0.4-0.8,0.6-1.3,0.5l-0.2-0.1l2.8,8.6c0.2,0.5,0,1-0.4,1.3c-0.4,0.3-0.9,0.4-1.4,0.1l-3.7-2
			l-1,12.6c0,0.6-0.5,1.1-1.1,1.1c-0.6,0.1-1.2-0.3-1.3-0.8l-7-21.2c0,0.4-0.1,0.9-0.1,1.3c0,0.6-0.5,1.1-1,1.2
			c-0.6,0.1-1.1-0.2-1.4-0.7c-2-4.7-5.5-12.6-7-16l-6.6,6.5c-0.3,0.3-0.8,0.4-1.2,0.3c-0.4-0.1-0.8-0.5-0.9-0.9
			c-0.7-2.4-1.5-4.7-2.5-7c-1.3,12.7-7.2,25.4-10,30.6c-0.3,0.5-0.8,0.8-1.4,0.6c-0.6-0.1-1-0.6-1-1.2c0-11.6-0.4-19.1-1.4-24.9
			c-2,2.4-3.7,5-3.7,5c-0.3,0.4-0.8,0.6-1.3,0.5c-0.5-0.1-0.9-0.5-1-1c-0.2-1.8-0.5-3.7-0.7-5.7l-4.8,5.8c-0.2,0.3-0.6,0.4-0.9,0.5
			c-0.4,0-0.7-0.1-1-0.4l-7.4-8.3c-0.9,6.3-3,21.5-3.2,23.8c0,0.5-0.4,1-0.9,1.1c-0.5,0.2-1,0-1.4-0.4c-0.9-1.1-9.8-10.4-14.6-15.4
			c-1.3,4-4,13.1-4.6,16.3c-0.7,4.1,0.4,17.3,0.4,17.5c0,0.6-0.3,1.1-0.9,1.3C60.9,132.7,60.8,132.8,60.7,132.8z M54,118.2
			c0.1,0,0.2,0,0.2,0c0.4,0.1,0.7,0.3,0.9,0.6l3.9,7.1c-0.2-4.3-0.4-9.9,0-12.5c0.7-4.4,5.1-18.1,5.3-18.7c0.1-0.4,0.5-0.7,0.9-0.8
			c0.4-0.1,0.9,0,1.2,0.4c0.5,0.5,10,10.5,14.3,15c0.8-6.9,3.1-23,3.3-23.9c0.1-0.5,0.4-0.9,0.9-1c0.5-0.1,1,0,1.3,0.4l8.2,9.3
			l5.7-7c0.3-0.4,0.8-0.5,1.3-0.4c0.5,0.1,0.8,0.6,0.9,1.1c0.2,2,0.4,3.8,0.6,5.5c1-1.4,2.4-3.1,3.7-4.6c0.3-0.3,0.8-0.5,1.2-0.4
			c0.4,0.1,0.8,0.5,0.9,0.9c1.2,5.4,1.8,12.1,1.9,22.6c3.3-7.2,7.6-18.8,7.6-29.5c0-0.6,0.4-1.1,0.9-1.2c0.6-0.1,1.1,0.1,1.4,0.6
			c1.7,3.2,3.1,6.4,4.2,9.7l6.4-6.3c0.3-0.3,0.7-0.4,1.1-0.3c0.4,0.1,0.7,0.3,0.9,0.7c0,0,3.1,7,5.7,13c0.1-0.7,0.2-1.5,0.3-2.4
			c0.1-0.6,0.5-1,1.1-1.1c0.6-0.1,1.1,0.3,1.3,0.9l7,21l0.7-8.4c0-0.4,0.3-0.8,0.6-1c0.4-0.2,0.8-0.2,1.2,0l2.6,1.4l-2.5-7.7
			c-0.1-0.4,0-0.9,0.3-1.2c0.3-0.3,0.6-0.4,1-0.4l-3.5-6.9c-0.2-0.4-0.2-0.9,0.1-1.3c0.3-0.4,0.8-0.6,1.2-0.5l1,0.2
			c-1-3.8-3.7-13.1-9.7-22C131.4,53.9,116.9,46.8,98.6,48l-1,0.1c-8.8,0.5-18.5,2.5-29,6.1c0.1,0.1,0.1,0.2,0.1,0.2
			c0.2,0.5,0.1,1.1-0.3,1.4C68.2,56,55,67.7,50.6,81.2c0.3-0.2,0.6-0.5,1-0.7c0.5-0.3,1.1-0.3,1.5,0c0.4,0.4,0.6,1,0.3,1.5
			c-3.2,7-4.9,13.4-5.7,17.2l1.2-1.1c0.4-0.4,1-0.4,1.5-0.1c0.5,0.3,0.7,0.8,0.6,1.4c-0.1,0.3-1.4,6.2-4.3,11.4c3.5-0.8,5.4-1,5.5-1
			c0.4,0,0.8,0.1,1.1,0.4c0.3,0.3,0.4,0.7,0.2,1.1l-2.4,8.8l2.1-1.7C53.5,118.3,53.8,118.2,54,118.2z"/>
	</g>
	<g>
		<path class="st0" d="M140.5,96.4c-0.3,2.2-0.5,4.7-0.6,7.3c-2.7-6.1-7.7-17.6-7.7-17.6l-7.9,7.7c-1.2-4.6-3-8.4-4.7-11.5
			c0,12-5.3,25.7-10.1,34.9c0-12.2-0.4-20.9-1.9-27.7c-2.7,2.9-5.5,7-5.5,7c-0.4-2.8-0.7-5.7-1-8.7l-6.7,8.1l-9.2-10.4
			c0,0-3.4,23.6-3.6,26.6c-1.2-1.5-16.1-17.1-16.1-17.1s-4.5,14.2-5.2,18.5c-0.5,3.2-0.1,11.3,0.2,15.4
			c8.9,15.5,26.1,25.5,45.1,24.2c20.3-1.3,36.8-15,42.7-33.2L140.5,96.4z"/>
		<path class="st1" d="M102.3,154.6c-17.7,0-33.9-9.3-42.9-24.9c-0.1-0.2-0.2-0.4-0.2-0.5c-0.3-4.4-0.7-12.4-0.2-15.6
			c0.7-4.4,5.1-18.1,5.3-18.7c0.1-0.4,0.5-0.7,0.9-0.8c0.4-0.1,0.9,0,1.2,0.4c0.5,0.5,10,10.5,14.3,15c0.8-6.9,3.1-23,3.3-23.9
			c0.1-0.5,0.4-0.9,0.9-1c0.5-0.1,1,0,1.3,0.4l8.2,9.3l5.7-7c0.3-0.4,0.8-0.5,1.3-0.4c0.5,0.1,0.8,0.6,0.9,1.1
			c0.2,2,0.4,3.8,0.6,5.5c1-1.4,2.4-3.1,3.7-4.6c0.3-0.3,0.8-0.5,1.2-0.4c0.4,0.1,0.8,0.5,0.9,0.9c1.2,5.4,1.8,12.1,1.9,22.6
			c3.3-7.2,7.6-18.8,7.6-29.5c0-0.6,0.4-1.1,0.9-1.2c0.6-0.1,1.1,0.1,1.4,0.6c1.7,3.2,3.1,6.4,4.2,9.7l6.4-6.3
			c0.3-0.3,0.7-0.4,1.1-0.3c0.4,0.1,0.7,0.3,0.9,0.7c0,0,3.1,7,5.7,13c0.1-0.7,0.2-1.5,0.3-2.4c0.1-0.6,0.5-1,1.1-1.1
			c0.6-0.1,1.1,0.3,1.3,0.9l7.8,23.6c0.1,0.3,0.1,0.5,0,0.8c-6.3,19.4-23.5,32.7-43.8,34.1C104.6,154.6,103.5,154.6,102.3,154.6z
			 M61.8,128.7c9.1,15.6,25.8,24.5,43.8,23.3c19.1-1.3,35.4-13.8,41.5-32l-5.8-17.5c0,0.4-0.1,0.9-0.1,1.3c0,0.6-0.5,1.1-1,1.2
			c-0.6,0.1-1.1-0.2-1.4-0.7c-2-4.7-5.5-12.6-7-16l-6.6,6.5c-0.3,0.3-0.8,0.4-1.2,0.3c-0.4-0.1-0.8-0.5-0.9-0.9
			c-0.7-2.4-1.5-4.7-2.5-7c-1.3,12.7-7.2,25.4-10,30.6c-0.3,0.5-0.8,0.8-1.4,0.6c-0.6-0.1-1-0.6-1-1.2c0-11.6-0.4-19.1-1.4-24.9
			c-2,2.4-3.7,5-3.7,5c-0.3,0.4-0.8,0.6-1.3,0.5c-0.5-0.1-0.9-0.5-1-1c-0.2-1.8-0.5-3.7-0.7-5.7l-4.8,5.8c-0.2,0.3-0.6,0.4-0.9,0.5
			c-0.4,0-0.7-0.1-1-0.4l-7.4-8.3c-0.9,6.3-3,21.5-3.2,23.8c0,0.5-0.4,1-0.9,1.1c-0.5,0.2-1,0-1.4-0.4c-0.9-1.1-9.8-10.4-14.6-15.4
			c-1.3,4-4,13.1-4.6,16.3C61.2,116.1,61.3,121.5,61.8,128.7z"/>
	</g>
</g>
</svg>
