<?xml version="1.0" encoding="utf-8"?>
<!-- Generator: Adobe Illustrator 21.0.0, SVG Export Plug-In . SVG Version: 6.00 Build 0)  -->
<svg version="1.1" id="Layer_1" xmlns="http://www.w3.org/2000/svg" xmlns:xlink="http://www.w3.org/1999/xlink" x="0px" y="0px"
	 viewBox="0 0 200 200" style="enable-background:new 0 0 200 200;" xml:space="preserve">
<style type="text/css">
	.st0{fill:#FFFFFF;}
	.st1{fill:#E64343;}
</style>
<g>
	<g>
		<g>
			<ellipse class="st0" cx="98.7" cy="105.8" rx="49.4" ry="49.4"/>
			<path class="st1" d="M98.7,156.5c-27.9,0-50.7-22.7-50.7-50.7s22.7-50.7,50.7-50.7c27.9,0,50.7,22.7,50.7,50.7
				S126.6,156.5,98.7,156.5z M98.7,57.6c-26.6,0-48.2,21.6-48.2,48.2c0,26.6,21.6,48.2,48.2,48.2c26.6,0,48.2-21.6,48.2-48.2
				C146.8,79.2,125.2,57.6,98.7,57.6z"/>
		</g>
	</g>
	<g>
		<path class="st0" d="M136.1,101.2c-3.6-1-14.5-1.6-18.5-1.3c-4.1,0.3-10.4,1.1-12.8,2.8c-2.4,1.6-2,4.7-2,4.7
			c0.1,2.5,1.1,4.9,2.8,8.7c1.8,3.8,3.5,4.4,4.4,4.9c0.9,0.5,4.5,1.1,4.5,1.1c3.2,0.5,7.1,0.3,12,0.1c4.9-0.2,7.5-1.3,8.5-1.7
			c3.2-1.2,3.7-4.6,4.1-6.1c0.4-1.5,1-7,0.9-7.8C139.9,104.6,139.8,102.3,136.1,101.2z"/>
		<path class="st1" d="M119.8,123.7c-2,0-3.8-0.1-5.5-0.3c-0.9-0.2-3.9-0.7-4.9-1.3l-0.3-0.1c-1-0.5-2.9-1.5-4.7-5.4
			c-1.9-4.1-2.8-6.5-2.9-9.2c0,0-0.6-3.8,2.5-5.8c3.2-2.1,11.1-2.8,13.4-3c4.2-0.3,15.1,0.3,19,1.4l0,0c4.4,1.3,4.6,4.4,4.8,6.5
			c0.1,1.1-0.6,6.7-0.9,8.3l-0.1,0.4c-0.4,1.7-1.2,5.3-4.8,6.6l-0.2,0.1c-1.2,0.4-3.9,1.5-8.6,1.7
			C124,123.6,121.8,123.7,119.8,123.7z M120.2,101.1c-1,0-1.8,0-2.5,0.1c-4.7,0.3-10.3,1.2-12.2,2.5c-1.8,1.2-1.4,3.5-1.4,3.5
			c0.1,2.4,1,4.6,2.7,8.4c1.4,3.1,2.7,3.7,3.6,4.2l0.3,0.2c0.4,0.2,2.5,0.7,4.1,1c3,0.4,6.7,0.3,11.7,0.1c4.3-0.2,6.7-1.1,7.8-1.5
			l0.3-0.1c2.4-0.9,2.9-3.2,3.2-4.8l0.1-0.4c0.3-1.5,0.9-6.8,0.9-7.5c-0.1-2.1-0.2-3.6-2.9-4.3l0,0
			C132.9,101.6,125,101.1,120.2,101.1z"/>
	</g>
	<g>
		<path class="st0" d="M92.9,102.7c-2.4-1.6-8.8-2.5-12.8-2.8c-4.1-0.3-14.9,0.3-18.5,1.3c-3.6,1-3.7,3.4-3.9,5.5
			c0,0.8,0.6,6.3,0.9,7.8c0.4,1.5,0.8,4.9,4.1,6.1c1,0.4,3.6,1.5,8.5,1.7s8.8,0.3,12-0.1c0,0,3.6-0.6,4.5-1.1
			c0.9-0.5,2.7-1.1,4.4-4.9c1.8-3.8,2.7-6.2,2.8-8.7C94.9,107.4,95.4,104.3,92.9,102.7z"/>
		<path class="st1" d="M77.8,123.7c-2,0-4.2-0.1-6.7-0.2c-4.8-0.2-7.5-1.2-8.6-1.7l-0.2-0.1c-3.6-1.3-4.4-4.9-4.8-6.6l-0.1-0.4
			c-0.4-1.6-1-7.2-0.9-8.2c0.1-2.2,0.3-5.3,4.8-6.6c3.8-1.1,14.8-1.6,19-1.4c2.4,0.2,10.3,0.9,13.4,3l0,0l0,0c3.1,2,2.5,5.8,2.5,6
			c-0.1,2.5-1,4.9-2.9,9c-1.8,3.8-3.7,4.8-4.7,5.4l-0.2,0.1c-1,0.6-4,1.1-4.9,1.3C81.7,123.6,79.9,123.7,77.8,123.7z M77.5,101.1
			c-4.8,0-12.7,0.5-15.6,1.3c-2.7,0.8-2.8,2.2-2.9,4.3c0,0.8,0.5,6.1,0.9,7.6l0.1,0.4c0.3,1.6,0.9,4,3.2,4.8l0.3,0.1
			c1.1,0.4,3.5,1.3,7.8,1.5c5,0.2,8.7,0.3,11.7-0.1c1.6-0.3,3.6-0.8,4-1l0.3-0.2c0.9-0.5,2.2-1.1,3.6-4.2c1.8-3.8,2.6-6,2.7-8.2
			c0-0.2,0.3-2.5-1.4-3.6l0,0c-2-1.3-7.6-2.2-12.2-2.5C79.4,101.1,78.5,101.1,77.5,101.1z"/>
	</g>
	<g>
		<path class="st0" d="M71.1,73.3c0,0,32.2-5.8,54.3,17.1c0,0,0.7-4.4-4.1-11.2c0,0,10,7.3,12.4,14.7c0,0,1.5-6,0-10.6l9.8,10.6
			l4.5,11.9c0,0,0.3-17.3,3.3-19.8c0,0-2.9-24.9-27.4-34.2h9.3c0,0-30.8-18.7-62.1,4.6c0,0-13.2-1.7-22.5,18.9c0,0,3.3,7.6,1.2,22.7
			l7.8-10.5L71.1,73.3z"/>
		<path class="st1" d="M148.1,107.1c-0.5,0-1-0.3-1.2-0.8l-4.4-11.7l-6.9-7.4c0.1,3.6-0.6,6.8-0.7,7c-0.1,0.5-0.6,0.9-1.2,1
			c-0.6,0-1.1-0.3-1.2-0.9c-1.1-3.5-4.2-7.1-6.9-9.7c1.4,3.7,1.1,6,1,6.1c-0.1,0.5-0.4,0.9-0.9,1c-0.4,0.1-0.9,0-1.3-0.3
			C104.4,70.5,75.5,74,71.8,74.5L58.6,88.4l-7.7,10.4c-0.3,0.5-1,0.6-1.5,0.4c-0.5-0.2-0.8-0.8-0.8-1.3c2-14.6-1.1-22-1.1-22.1
			c-0.1-0.3-0.1-0.7,0-1C56.1,55.6,68.1,55,70.8,55.1c31.5-23.1,62.8-4.5,63.1-4.4c0.5,0.3,0.7,0.9,0.6,1.4
			c-0.2,0.5-0.6,0.9-1.2,0.9h-3.5c20,10.8,22.8,32.6,22.9,32.8c0,0.4-0.1,0.8-0.4,1.1c-1.5,1.3-2.7,10.8-2.8,18.8
			c0,0.6-0.4,1.1-1,1.2C148.2,107.1,148.2,107.1,148.1,107.1z M133.7,82c0.3,0,0.7,0.1,0.9,0.4l9.8,10.6c0.1,0.1,0.2,0.3,0.3,0.4
			l2.4,6.2c0.3-5.2,1.1-11.6,2.9-14c-0.6-3.6-5-24.5-26.5-32.7c-0.6-0.2-0.9-0.8-0.8-1.4c0.1-0.6,0.6-1,1.2-1h3.8
			c-9.7-4-32.8-10.4-55.9,6.8c-0.3,0.2-0.6,0.3-0.9,0.2c-0.5-0.1-12.2-1.2-21,17.7c0.6,1.8,2.4,7.9,1.6,18.3l5.1-6.8l13.5-14.3
			c0.2-0.2,0.4-0.3,0.7-0.4c0.3-0.1,30.7-5.2,52.9,15c-0.5-1.8-1.4-4.3-3.5-7.2c-0.3-0.5-0.3-1.2,0.2-1.6c0.4-0.4,1.1-0.5,1.6-0.1
			c0.3,0.3,7.2,5.3,11,11.4c0.1-1.9,0.1-4.1-0.5-6c-0.2-0.6,0.1-1.2,0.6-1.5C133.3,82.1,133.5,82,133.7,82z"/>
	</g>
</g>
</svg>
