<?xml version="1.0" encoding="utf-8"?>
<!-- Generator: Adobe Illustrator 21.0.0, SVG Export Plug-In . SVG Version: 6.00 Build 0)  -->
<svg version="1.1" id="Layer_1" xmlns="http://www.w3.org/2000/svg" xmlns:xlink="http://www.w3.org/1999/xlink" x="0px" y="0px"
	 viewBox="0 0 200 200" style="enable-background:new 0 0 200 200;" xml:space="preserve">
<style type="text/css">
	.st0{fill:#FFFFFF;}
	.st1{fill:#E64343;}
</style>
<g>
	<g>
		<ellipse class="st0" cx="99.6" cy="102.1" rx="46.5" ry="46.6"/>
		<path class="st1" d="M99.6,149.9c-26.4,0-47.8-21.4-47.8-47.8c0-26.4,21.4-47.8,47.8-47.8c26.4,0,47.8,21.4,47.8,47.8
			C147.4,128.5,126,149.9,99.6,149.9z M99.6,56.8c-25,0-45.3,20.3-45.3,45.3c0,25,20.3,45.3,45.3,45.3c25,0,45.3-20.3,45.3-45.3
			C144.9,77.2,124.6,56.8,99.6,56.8z"/>
	</g>
	<g>
		<path class="st0" d="M100.2,51.3c38.1,0,38.5,19.7,38.5,19.7s11.3,8.1,7.5,33.3c0,0-5.1-22.7-17.9-27.7c-7,1.1-33.8,6.4-57.2-0.4
			c-7.9,2.9-12.5,10-18,27.6C52.9,96.9,62.1,51.3,100.2,51.3z"/>
		<path class="st1" d="M146.2,105.6c-0.6,0-1.1-0.4-1.2-1c-0.1-0.2-5.1-21.8-16.8-26.7l-1.5,0.3c-9.2,1.5-33.6,5.6-55.5-0.6
			c-7.3,2.8-11.5,9.6-16.8,26.6c-0.2,0.6-0.8,1-1.4,0.9c-0.6-0.1-1.1-0.6-1.1-1.2c-0.1-4.9,3.9-26.6,17.9-41
			c8.3-8.5,18.6-12.9,30.5-12.9c35.6,0,39.3,16.8,39.7,20.3c2.2,1.9,11,11.2,7.5,34.2C147.3,105.1,146.8,105.6,146.2,105.6
			C146.2,105.6,146.2,105.6,146.2,105.6z M128.3,75.4c0.2,0,0.3,0,0.5,0.1c9,3.5,14.3,15.1,16.9,22.5c1.1-19.3-7.6-25.8-7.7-25.9
			c-0.3-0.2-0.5-0.6-0.5-1c0-0.7-1-18.5-37.2-18.5c-11.2,0-20.9,4.1-28.7,12.1c-6.7,6.8-11,15.6-13.6,23.1
			c3.6-7.1,7.4-10.8,12.8-12.7c0.3-0.1,0.5-0.1,0.8,0c21.4,6.2,45.6,2.2,54.8,0.7l1.9-0.3C128.1,75.4,128.2,75.4,128.3,75.4z"/>
	</g>
</g>
</svg>
