<?xml version="1.0" encoding="utf-8"?>
<!-- Generator: Adobe Illustrator 21.0.0, SVG Export Plug-In . SVG Version: 6.00 Build 0)  -->
<svg version="1.1" id="Layer_1" xmlns="http://www.w3.org/2000/svg" xmlns:xlink="http://www.w3.org/1999/xlink" x="0px" y="0px"
	 viewBox="0 0 200 200" style="enable-background:new 0 0 200 200;" xml:space="preserve">
<style type="text/css">
	.st0{fill:#FFFFFF;}
	.st1{fill:#E64343;}
</style>
<g>
	<g>
		<path class="st0" d="M150,106.7c0.1-28.3-7.9-35.7-7.9-35.7c-19.3-28.2-48.8-24.5-53.9-23.6c-5.1,1-8.7-0.5-11.9-1.5
			c-12,5.4-12.7,13.7-13.3,19.2c-16.6,12-12.7,30.9-12.5,38.3c0.3-0.8,0.1,1.1,0,0c0,0.3,0,0.5,0,0.8c0,27.5,22.3,49.8,49.8,49.8
			c27.5,0,49.8-22.3,49.8-49.8c0-0.7-0.1-1.4-0.1-2C149.4,93.8,150,106.7,150,106.7z"/>
		<path class="st1" d="M100.2,155.3c-28.1,0-51-22.9-51-51c0-0.2,0-0.3,0-0.5l0-0.3c0-0.9-0.1-2-0.2-3.2
			c-0.6-8.7-1.8-24.9,12.8-35.8c0.6-5.7,1.8-14.1,14-19.6c0.3-0.1,0.6-0.1,0.9-0.1l1.1,0.3c2.8,0.9,6,1.9,10.2,1.1
			c3.5-0.7,34.7-5.6,55.1,24c1,1,7.6,8.8,8.1,33.2c0,0.3,0,0.6,0,0.9c0,0.3,0,0.5,0,0.8c0,0.6,0,1.1,0,1.7c0,0.2,0,0.3-0.1,0.4
			C149.7,134,127.4,155.3,100.2,155.3z M51.7,104.4c0,26.7,21.8,48.4,48.5,48.4c26.2,0,47.5-20.8,48.5-46.7
			c-0.1-2.9-0.2-4.7-0.2-5.9c0-0.3,0-0.5,0-0.6l0.1,0c0-0.1,0-0.2,0-0.3c-1.2-21.1-7.2-27.3-7.3-27.3c-0.1-0.1-0.1-0.1-0.2-0.2
			c-19.5-28.3-49.3-23.7-52.6-23c-4.9,0.9-8.5-0.2-11.4-1.2l-0.6-0.2c-10.7,5-11.5,12.3-12.1,17.7l0,0.3c0,0.3-0.2,0.7-0.5,0.9
			c-14,10.1-12.9,25-12.2,33.9c0.1,1,0.1,2,0.2,2.8c0.1,0.3,0.2,0.6,0.1,0.9C51.9,104,51.8,104.2,51.7,104.4z"/>
	</g>
	<g>
		<path class="st0" d="M131,77c-7.5,1.2-36.1,6.9-61.2-0.4c-8.1,3-13.8,10-19.3,26.9c0,0.3,0,0.5,0,0.8c0,27.5,22.3,49.8,49.8,49.8
			c27.5,0,49.8-22.3,49.8-49.8c0-0.7-0.1-1.4-0.1-2C147.4,95.3,141.2,81,131,77z"/>
		<path class="st1" d="M100.2,155.3c-28.1,0-51-22.9-51-51c0-0.2,0-0.3,0-0.5l0-0.3c0-0.1,0-0.3,0.1-0.4
			c5.4-16.4,11.2-24.4,20.1-27.7c0.2-0.1,0.5-0.1,0.8,0c22.9,6.6,48.8,2.3,58.6,0.7l2-0.3c0.2,0,0.4,0,0.6,0.1
			c10.5,4.1,16.8,18,19.6,26c0,0.1,0.1,0.2,0.1,0.4l0,0.7c0,0.4,0.1,0.9,0.1,1.3C151.3,132.4,128.4,155.3,100.2,155.3z M51.8,103.7
			c0,0.1,0,0.2,0,0.2l0,0.3c0,26.8,21.8,48.5,48.5,48.5s48.5-21.8,48.5-48.5c0-0.4,0-0.8-0.1-1.2l0-0.6c-2.2-6.1-8.2-20.2-17.8-24.2
			l-1.7,0.3c-9.9,1.6-36,6-59.3-0.7C62,81,56.9,88.3,51.8,103.7z"/>
	</g>
	<g>
		<path class="st0" d="M137.7,99.6c-3.6-1-14.5-1.6-18.5-1.3c-4.1,0.3-10.4,1.1-12.8,2.8c-2.4,1.6-2,4.7-2,4.7
			c0.1,2.5,1.1,4.9,2.8,8.7c1.8,3.8,3.5,4.4,4.4,4.9c0.9,0.5,4.5,1.1,4.5,1.1c3.2,0.5,7.1,0.3,12,0.1c4.9-0.2,7.5-1.3,8.5-1.7
			c3.2-1.2,3.7-4.6,4.1-6.1c0.4-1.5,1-7,0.9-7.8C141.4,102.9,141.3,100.6,137.7,99.6z"/>
		<path class="st1" d="M121.4,122.1c-2,0-3.9-0.1-5.5-0.3c-0.9-0.2-3.9-0.7-4.9-1.3l-0.2-0.1c-1-0.5-2.9-1.5-4.7-5.4
			c-1.9-4.1-2.8-6.5-2.9-9.2c0,0-0.6-3.8,2.5-5.8c3.2-2.1,11.1-2.8,13.4-3c4.2-0.3,15.1,0.3,19,1.4c4.4,1.3,4.6,4.4,4.8,6.5
			c0.1,1.1-0.6,6.7-0.9,8.3l-0.1,0.4c-0.4,1.7-1.2,5.3-4.8,6.6c-1.4,0.5-4.1,1.5-8.9,1.7C125.6,122,123.4,122.1,121.4,122.1z
			 M121.7,99.4c-1,0-1.8,0-2.5,0.1c-4.7,0.3-10.3,1.2-12.2,2.5c-1.7,1.2-1.4,3.4-1.4,3.5c0.1,2.4,1,4.6,2.7,8.4
			c1.4,3.1,2.7,3.7,3.6,4.2l0.3,0.2c0.4,0.2,2.5,0.7,4.1,1c3,0.4,6.7,0.3,11.7,0.1c4.4-0.2,6.7-1.1,7.8-1.5l0.3-0.1
			c2.4-0.9,2.9-3.2,3.2-4.8l0.1-0.4c0.3-1.5,0.9-6.8,0.9-7.5c-0.1-2.1-0.2-3.6-2.9-4.3C134.5,99.9,126.5,99.4,121.7,99.4z"/>
	</g>
	<g>
		<path class="st0" d="M94.5,101c-2.4-1.6-8.8-2.5-12.8-2.8c-4.1-0.3-14.9,0.3-18.5,1.3c-3.6,1-3.7,3.4-3.9,5.5
			c0,0.8,0.6,6.3,0.9,7.8c0.4,1.5,0.8,4.9,4.1,6.1c1,0.4,3.6,1.5,8.5,1.7c4.9,0.2,8.8,0.3,12-0.1c0,0,3.6-0.6,4.5-1.1
			c0.9-0.5,2.7-1.1,4.4-4.9c1.8-3.8,2.7-6.2,2.8-8.7C96.5,105.7,96.9,102.6,94.5,101z"/>
		<path class="st1" d="M79.4,122.1c-2,0-4.2-0.1-6.7-0.2c-4.8-0.2-7.5-1.2-8.6-1.7c-3.9-1.4-4.7-5-5-6.7l-0.1-0.4
			c-0.4-1.6-1-7.2-0.9-8.2c0.1-2.2,0.3-5.3,4.8-6.6c3.8-1.1,14.8-1.6,19-1.4c2.4,0.2,10.3,0.9,13.4,3c3.1,2,2.5,5.8,2.5,6
			c-0.1,2.5-1,4.9-2.9,9c-1.8,3.8-3.7,4.8-4.7,5.4l-0.2,0.1c-1,0.6-4,1.1-4.9,1.3C83.3,122,81.5,122.1,79.4,122.1z M79.1,99.4
			c-4.8,0-12.7,0.5-15.6,1.3c-2.7,0.8-2.8,2.2-2.9,4.3c0,0.8,0.5,6.1,0.9,7.6l0.1,0.4c0.3,1.6,0.9,4,3.2,4.8l0.3,0.1
			c1.1,0.4,3.5,1.3,7.8,1.5c5,0.2,8.7,0.3,11.7-0.1c1.6-0.3,3.6-0.8,4-1l0.3-0.2c0.9-0.5,2.2-1.1,3.6-4.2c1.8-3.8,2.6-6,2.7-8.2
			c0-0.2,0.3-2.5-1.4-3.6l0,0c-2-1.3-7.6-2.2-12.2-2.5C80.9,99.4,80.1,99.4,79.1,99.4z"/>
	</g>
</g>
</svg>
