<?xml version="1.0" encoding="utf-8"?>
<!-- Generator: Adobe Illustrator 21.0.0, SVG Export Plug-In . SVG Version: 6.00 Build 0)  -->
<svg version="1.1" id="Layer_1" xmlns="http://www.w3.org/2000/svg" xmlns:xlink="http://www.w3.org/1999/xlink" x="0px" y="0px"
	 viewBox="0 0 200 200" style="enable-background:new 0 0 200 200;" xml:space="preserve">
<style type="text/css">
	.st0{fill:#FFFFFF;}
	.st1{fill:#E64343;}
</style>
<g>
	<g>
		<path class="st0" d="M150.7,80.2c0-15.6-8-32.1-18.3-38.8c-3.4-3.1-10-0.4-10-0.4c-2.4-10.5-17.2-11.1-22.1-11.1
			c-2.2,0-4.3,0.1-6.4,0.4c-24.8,3.1-44,24.3-44,49.9c0,0-1.8,15.7,0,22.1c0,0,4.5,70.3,45.9,67.7c-1.1-0.6-12.3-25.7-19.1-45.2
			c14.6,2.4,29.4-1.8,29.4-1.8s7,1.3,15.5,1.4c-3.5,19.7-16,44.9-17.1,45.6c32.6,0,46.2-32.4,46.2-61c0-0.3,0-0.6,0-0.8
			c0-0.2,0-0.3,0-0.5C150.7,83.8,150.7,80.2,150.7,80.2z"/>
		<path class="st1" d="M93.7,171.4c-39.2,0-44.7-65.5-44.9-68.8c-1.7-6.7-0.1-21.8,0-22.4c0-25.8,19.4-47.8,45.1-51
			c2.1-0.3,4.3-0.4,6.5-0.4c7.3,0,19.7,1.4,22.9,10.8c2.3-0.7,7-1.6,10,1.1c10.6,6.8,18.7,24,18.7,39.7v27.4c0,0.1,0,0.3,0,0.4
			l0,0.4c0,0.2,0,0.3,0,0.5c0,30-14.8,62.3-47.4,62.3c-0.6,0-1.1-0.4-1.2-0.9c-0.1-0.5,0.1-1.1,0.6-1.4c1.1-1.3,12.4-24.2,16.2-43.3
			c-6.9-0.2-12.6-1.1-13.9-1.4c-2.1,0.6-14.5,3.6-27.6,2c6.6,18.4,16.6,40.9,18.1,42.8c0.3,0.3,0.5,0.8,0.4,1.2
			c-0.1,0.5-0.6,0.9-1.1,1C95.2,171.3,94.5,171.4,93.7,171.4z M100.4,31.1c-2.1,0-4.2,0.1-6.2,0.4c-24.5,3.1-42.9,24-42.9,48.7
			c0,0.3-1.7,15.6,0,21.8c0,0.1,0,0.2,0,0.2c0,0.7,4.7,66.6,42.5,66.6c0,0,0,0,0,0c-3.8-7.1-13.1-29.3-18.2-43.6
			c-0.1-0.4-0.1-0.9,0.2-1.2c0.3-0.3,0.7-0.5,1.2-0.4c14.2,2.3,28.7-1.7,28.8-1.8c0.2-0.1,0.4-0.1,0.6,0c0.1,0,7,1.3,15.3,1.4
			c0.4,0,0.7,0.2,0.9,0.5c0.2,0.3,0.3,0.7,0.3,1c-2.9,16.4-12.1,37.1-16,44c21.6-1.2,42.7-19.8,42.7-59.7l0-0.8c0,0,0-0.3,0-0.4
			l0-27.6c0-15-7.6-31.2-17.7-37.7c-2.5-2.2-7.2-1-8.9-0.3c-0.3,0.1-0.7,0.1-1-0.1c-0.3-0.2-0.6-0.5-0.6-0.8
			C119.2,32.5,107.3,31.1,100.4,31.1z"/>
	</g>
	<g>
		<path class="st0" d="M123.9,55.4c-16.2-0.1-50.7,4.7-64.8,46.1c6,16.6,21.8,28.6,40.5,28.6c19.9,0,36.6-13.5,41.5-31.8
			C138.4,78.8,130.6,64.5,123.9,55.4z"/>
		<path class="st1" d="M99.6,131.3c-18.6,0-35.4-11.8-41.7-29.4c-0.1-0.3-0.1-0.6,0-0.8c14.5-42.7,50.9-47,66-46.9
			c0.4,0,0.8,0.2,1,0.5c6.4,8.7,14.6,23.3,17.5,43.4c0,0.2,0,0.3,0,0.5C137.1,117.8,119.6,131.3,99.6,131.3z M60.4,101.4
			c6,16.4,21.7,27.3,39.2,27.3c18.7,0,35.3-12.6,40.2-30.7c-2.7-19-10.5-33-16.6-41.5C105.2,56.6,73.8,62.6,60.4,101.4z"/>
	</g>
</g>
</svg>
