<?xml version="1.0" encoding="utf-8"?>
<!-- Generator: Adobe Illustrator 21.0.0, SVG Export Plug-In . SVG Version: 6.00 Build 0)  -->
<svg version="1.1" id="Layer_1" xmlns="http://www.w3.org/2000/svg" xmlns:xlink="http://www.w3.org/1999/xlink" x="0px" y="0px"
	 viewBox="0 0 200 200" style="enable-background:new 0 0 200 200;" xml:space="preserve">
<style type="text/css">
	.st0{fill:#FFFFFF;}
	.st1{fill:#E64343;}
</style>
<g>
	<g>
		<path class="st0" d="M148.7,117.9c0,0,2.5-7.5,2.5-20.3c0-8.2-5-17.9-8.6-23.7c-1.3-3-3-6-5.3-8.4c-1.3-2.1-2.9-4-4.6-5.7
			c0,0-10-14-23.7-17.5c2.6,2.1,4.6,4.1,6.4,6c-3.1-1.7-6.7-3.3-10.9-4.4c1.6,1.3,3,2.6,4.3,3.8c-16.7-5.9-37.7,2.6-44.2,7.1
			c3.3,0,5.6,0,5.6,0s-12.4,5.1-18.1,14.3c3.2-2.4,6-4.1,8.5-5.2c-4.6,5.1-9.5,11.9-11.4,19.3c0,0.2,0.7-0.5,2-1.5
			c-1.3,4.6-2.5,10.9-2.5,18.6c0.5,12.5,4.1,22,4.1,22s0-1.6,0-4.2c0.1,0.9,0.3,1.7,0.4,2.6c-0.1-7,1-11.9,2.4-15.3
			c1.9-2.8,4-5.1,6.1-7.3c0.2-0.1,0.3-0.1,0.3-0.1l-0.2,0c2.8-2.8,5.6-5.2,8.6-7.3c0.6,0,1.2,0.1,1.8,0.1C68.8,96.4,66,102,64,106.9
			c8.3-6.6,15.2-11.7,21.3-15.5c2.2,0.1,4.4,0.2,6.6,0.3c-0.5,3-1.2,5.5-1.2,5.5c2.7-1.6,5.6-3.4,8.4-5.2c1.9,0.1,3.8,0.1,5.7,0.2
			c0,0.4-0.1,0.7-0.1,1c0.6-0.3,1.2-0.6,1.8-1c15.8,0.5,5.4,20.2,11.8,20.3C120.7,124.6,148.7,117.9,148.7,117.9z"/>
		<path class="st1" d="M52.8,123.5c-0.5,0-1-0.3-1.2-0.8c-0.1-0.4-3.6-9.9-4.1-22.4c0-5.5,0.6-10.9,1.7-15.9c-0.2,0-0.4-0.1-0.7-0.2
			c-0.5-0.3-0.7-0.9-0.5-1.4c1.2-4.7,3.6-9.6,7.3-14.5c-0.8,0.5-1.6,1.1-2.4,1.7c-0.5,0.4-1.2,0.3-1.6-0.1c-0.4-0.4-0.5-1.1-0.2-1.6
			c3.6-5.8,9.6-10,13.9-12.4c-0.6,0-1.3-0.2-1.5-0.9c-0.2-0.5,0-1.1,0.5-1.4c5.4-3.7,23.7-11.8,40.2-8.7c-0.1-0.1-0.3-0.2-0.4-0.3
			c-0.5-0.4-0.6-1-0.3-1.5c0.3-0.5,0.9-0.8,1.4-0.6c1.4,0.4,2.9,0.8,4.3,1.3c-0.3-0.2-0.6-0.5-0.9-0.7c-0.5-0.4-0.6-1-0.3-1.5
			c0.3-0.5,0.9-0.8,1.4-0.6c13.9,3.6,24,17.4,24.4,18c1.6,1.5,3.2,3.5,4.7,5.8c2,2.2,3.9,5.1,5.4,8.6c3.9,6.4,8.7,15.9,8.7,24.2
			c0,12.9-2.5,20.4-2.6,20.7c-0.1,0.4-0.5,0.7-0.9,0.8c-0.8,0.2-19.7,4.6-28.1-0.8c-1.9-1.2-3.1-2.7-3.7-4.7
			c-2.7-0.7-2.7-4.4-2.6-7.9c0.1-7-0.4-11.9-7.9-12.3l-0.2,0.1c-0.4,0.2-0.8,0.4-1.2,0.7c-0.4,0.2-0.9,0.2-1.3,0
			c-0.3-0.2-0.5-0.5-0.6-0.9l-4-0.1c-2.7,1.8-5.5,3.5-8.1,5c-0.4,0.3-1,0.2-1.4-0.1c-0.4-0.3-0.6-0.8-0.5-1.3c0,0,0.5-1.8,0.9-4
			c-1.6-0.1-3.2-0.1-4.7-0.2c-5.5,3.5-12,8.2-20.8,15.2c-0.4,0.4-1.1,0.4-1.5,0c-0.5-0.3-0.6-1-0.4-1.5c1.4-3.4,3.7-8.3,6.8-13.7
			c-2.2,1.7-4.4,3.6-6.5,5.6c-0.1,0.3-0.3,0.5-0.6,0.7c-2.2,2.3-4.1,4.6-5.7,6.9c-1.6,3.8-2.3,8.8-2.3,14.7c0,0.4-0.2,0.7-0.4,1
			c0,0.4,0,0.6,0,0.6c0,0.6-0.4,1.1-1,1.3C53,123.5,52.9,123.5,52.8,123.5z M106.4,91C106.4,91,106.4,91,106.4,91
			c10.9,0.4,10.8,9.1,10.7,14.9c-0.1,4,0.1,5.4,1.1,5.5c0.6,0,1.1,0.4,1.2,1c0.4,1.6,1.3,2.9,2.8,3.9c6.7,4.3,22,1.4,25.5,0.6
			c0.6-2.1,2.2-8.9,2.2-19.2c0-8.1-5.3-18-8.4-23.1c-1.5-3.4-3.2-6.1-5.2-8.2c-1.5-2.3-3-4.1-4.6-5.7c-0.2-0.3-7.1-9.8-17-14.8
			c0.5,0.5,1,1,1.5,1.5c0.4,0.5,0.4,1.1,0.1,1.6c-0.4,0.5-1,0.6-1.6,0.3c-1.7-0.9-3.3-1.7-5-2.4c0.3,0.4,0.3,1,0.1,1.4
			c-0.3,0.5-0.9,0.7-1.5,0.5c-13.9-4.9-30.6,0.5-39.1,4.7c0.6,0,0.9,0,0.9,0c0,0,0,0,0,0c0.6,0,1.1,0.4,1.2,1
			c0.1,0.6-0.2,1.2-0.7,1.4c-0.1,0-6.3,2.7-11.8,7.4c0.4-0.2,0.8-0.4,1.2-0.6c0.5-0.3,1.2-0.1,1.5,0.4c0.4,0.5,0.3,1.1-0.1,1.6
			c-4.9,5.4-8.3,10.7-10.2,15.8c0.2,0,0.4,0.1,0.5,0.2c0.4,0.3,0.6,0.9,0.5,1.4c-1.6,5.7-2.4,11.8-2.4,18.2c0.3,6,1.2,11.4,2.2,15.3
			c0.3-4.1,1.1-7.7,2.3-10.6c0-0.1,0.1-0.2,0.1-0.2c1.8-2.5,3.8-5,6.3-7.5c0,0,0,0,0,0c0,0,0,0,0.1-0.1c2.7-2.8,5.7-5.3,8.7-7.4
			c0.2-0.2,0.5-0.2,0.8-0.2l1.8,0.1c0.4,0,0.8,0.3,1,0.7c0.2,0.4,0.2,0.9-0.1,1.2c-2.6,4.1-4.7,8.1-6.2,11.4
			c7.1-5.5,12.6-9.4,17.4-12.5c0.2-0.1,0.5-0.2,0.7-0.2c2.2,0.1,4.4,0.2,6.6,0.3c0.4,0,0.7,0.2,0.9,0.5c0.2,0.3,0.3,0.6,0.3,1
			c-0.2,1-0.4,1.9-0.5,2.7c1.9-1.2,3.8-2.4,5.8-3.7c0.2-0.1,0.5-0.2,0.7-0.2l5.7,0.2c0.3,0,0.6,0.1,0.8,0.3l0.3-0.1
			C105.9,91.1,106.1,91,106.4,91z M148.7,117.9L148.7,117.9L148.7,117.9z"/>
	</g>
	<g>
		<g>
			<path class="st0" d="M146.2,98.3l-22.5-12.9c-5.6,1.5-12.2,4-19.1,7.9c0.2-2,0.4-3.7,0.6-5.3c-4.8,3.2-9.8,6.5-14.6,9.3
				c0,0,1.5-5.5,1.8-9.9c-7.8,3.9-16.7,10.3-28.5,19.6c2.3-5.6,5.6-12.1,9.8-18.4c-4,2.4-8,5.5-11.8,9.4L61.8,98
				c-2.1,2.2-4.2,4.6-6.1,7.3c-1.4,3.3-2.4,8.1-2.4,14.9c4.9,21.5,24.1,37.5,47.1,37.5c26.7,0,48.3-21.6,48.3-48.3
				C148.7,103.8,146.2,98.3,146.2,98.3z"/>
			<path class="st1" d="M100.4,159c-23.2,0-43.1-15.8-48.3-38.5c0-0.1,0-0.2,0-0.3c0-6.2,0.8-11.4,2.5-15.4c0-0.1,0.1-0.2,0.1-0.2
				c1.8-2.5,3.8-5,6.3-7.5c3.7-3.8,7.8-7.1,12.2-9.7c0.5-0.3,1.1-0.2,1.5,0.2c0.4,0.4,0.5,1.1,0.1,1.6c-3.3,4.9-5.8,9.7-7.7,13.6
				C78,94.4,85.3,89.5,91.9,86.2c0.4-0.2,0.9-0.2,1.3,0.1c0.4,0.3,0.6,0.7,0.5,1.1c-0.2,2.4-0.7,5.2-1.2,7.2c3.6-2.2,7.6-4.8,12-7.7
				c0.4-0.3,0.9-0.3,1.4,0c0.4,0.3,0.6,0.7,0.6,1.2c-0.1,0.9-0.2,1.9-0.3,2.9c5.5-2.9,11.2-5.2,17.2-6.8c0.3-0.1,0.7,0,1,0.1
				l22.5,12.9c0.2,0.1,0.4,0.3,0.5,0.6c0.1,0.2,2.7,5.8,2.7,11.7C150,136.8,127.7,159,100.4,159z M54.5,120.2
				c5,21.4,23.8,36.4,45.8,36.4c26,0,47.1-21.1,47.1-47.1c0-4.5-1.8-9-2.3-10.2l-21.7-12.5c-6.4,1.8-12.6,4.3-18.3,7.6
				c-0.4,0.2-0.9,0.2-1.3,0s-0.6-0.7-0.6-1.2c0.1-0.9,0.2-1.8,0.3-2.6c-4.5,3-8.7,5.6-12.4,7.8c-0.4,0.3-1,0.2-1.4-0.1
				c-0.4-0.3-0.6-0.8-0.5-1.3c0,0,1-3.7,1.5-7.4c-6.7,3.6-14.5,9.1-26.2,18.4c-0.4,0.4-1.1,0.4-1.5,0c-0.5-0.3-0.6-1-0.4-1.5
				c1.4-3.5,3.7-8.3,6.8-13.6c-2.4,1.8-4.7,3.8-6.8,6c-2.4,2.5-4.4,4.8-6,7.2C55.3,109.6,54.5,114.4,54.5,120.2z"/>
		</g>
	</g>
</g>
</svg>
