<?xml version="1.0" encoding="utf-8"?>
<!-- Generator: Adobe Illustrator 21.0.0, SVG Export Plug-In . SVG Version: 6.00 Build 0)  -->
<svg version="1.1" id="Layer_1" xmlns="http://www.w3.org/2000/svg" xmlns:xlink="http://www.w3.org/1999/xlink" x="0px" y="0px"
	 viewBox="0 0 200 200" style="enable-background:new 0 0 200 200;" xml:space="preserve">
<style type="text/css">
	.st0{fill:#FFFFFF;}
	.st1{fill:#E64343;}
</style>
<g>
	<g>
		<g>
			<ellipse class="st0" cx="99.9" cy="103.6" rx="49.4" ry="49.4"/>
			<path class="st1" d="M99.9,154.3c-27.9,0-50.7-22.7-50.7-50.7c0-27.9,22.7-50.7,50.7-50.7c27.9,0,50.7,22.7,50.7,50.7
				C150.5,131.5,127.8,154.3,99.9,154.3z M99.9,55.4c-26.6,0-48.2,21.6-48.2,48.2c0,26.6,21.6,48.2,48.2,48.2
				c26.6,0,48.2-21.6,48.2-48.2C148,77,126.4,55.4,99.9,55.4z"/>
		</g>
	</g>
	<g>
		<path class="st0" d="M135,77.2c0,0-13.7,11.7-22,11.7c0,0,11.7-10.8,11-15.2c0,0-8.6,4.9-22.3,7.6S80.2,91.9,80.2,91.9l2-6.1
			l-21,6.1v-6.1c0,0-8.1,5.5-10.7,23.1c0,0-7.8-28,8.7-38.2c0,0,18.6-39.6,65.5-16.6l6.8,5.9c0,0,27.7,2.9,17.7,43.5
			C149.3,103.6,148.7,88.4,135,77.2z"/>
		<path class="st1" d="M50.4,110.2c-0.6,0-1.1-0.4-1.2-0.9c-0.3-1.2-7.8-28.7,8.9-39.4c1.2-2.4,8.7-16.1,24.8-21.8
			c12.4-4.4,26.7-2.7,42.3,4.9c0.1,0,0.2,0.1,0.3,0.2l6.6,5.7c1.9,0.3,9.9,2,15.4,9.8c5.7,8.1,6.7,20,3,35.2c-0.1,0.6-0.7,1-1.3,0.9
			c-0.6-0.1-1.1-0.6-1.1-1.2c0-0.1-0.8-14.2-13.1-24.8c-3.1,2.6-14.4,11.4-22,11.4c-0.5,0-1-0.3-1.2-0.8c-0.2-0.5-0.1-1,0.3-1.4
			c3.7-3.4,8.5-8.6,10.1-11.9c-3.5,1.7-10.6,4.6-20.3,6.5c-13.2,2.6-20.8,10.1-20.9,10.2c-0.4,0.4-1,0.5-1.5,0.2
			C79,92.6,78.8,92,79,91.5l1.2-3.8l-18.8,5.4c-0.4,0.1-0.8,0-1.1-0.2c-0.3-0.2-0.5-0.6-0.5-1v-3.1c-2.4,2.8-6.5,9-8.2,20.4
			C51.6,109.7,51.1,110.2,50.4,110.2C50.5,110.2,50.5,110.2,50.4,110.2z M97.2,48.2c-4.7,0-9.1,0.7-13.3,2.2
			c-16.3,5.7-23.5,20.7-23.5,20.8c-0.1,0.2-0.3,0.4-0.5,0.5c-10.9,6.8-10.6,22-9.4,30.6c3.3-13,9.6-17.5,10-17.7
			c0.4-0.3,0.9-0.3,1.3-0.1c0.4,0.2,0.7,0.6,0.7,1.1v4.4l19.4-5.6c0.4-0.1,0.9,0,1.2,0.3c0.3,0.3,0.4,0.8,0.3,1.3l-0.6,2
			c3.6-2.6,10-6.4,18.8-8.1c13.3-2.6,21.8-7.4,21.9-7.4c0.4-0.2,0.8-0.2,1.2,0c0.4,0.2,0.6,0.5,0.7,0.9c0.6,3.6-4.8,9.7-8.4,13.4
			c7.6-2.5,17.3-10.6,17.4-10.7c0.5-0.4,1.1-0.4,1.6,0c8.4,6.9,12,15.2,13.6,20.8c1.9-11.4,0.6-20.5-3.9-26.9
			c-5.5-7.8-14-8.8-14.1-8.9c-0.3,0-0.5-0.1-0.7-0.3l-6.7-5.8C114.4,50.6,105.5,48.2,97.2,48.2z"/>
	</g>
</g>
</svg>
