<?xml version="1.0" encoding="utf-8"?>
<!-- Generator: Adobe Illustrator 21.0.0, SVG Export Plug-In . SVG Version: 6.00 Build 0)  -->
<svg version="1.1" id="Layer_1" xmlns="http://www.w3.org/2000/svg" xmlns:xlink="http://www.w3.org/1999/xlink" x="0px" y="0px"
	 viewBox="0 0 200 200" style="enable-background:new 0 0 200 200;" xml:space="preserve">
<style type="text/css">
	.st0{fill:#FFFFFF;}
	.st1{fill:#E64343;}
</style>
<g>
	<g>
		<path class="st0" d="M53.3,102.1c0,25.7,20.8,46.6,46.6,46.6c25.7,0,46.5-20.8,46.5-46.6c0-25.7-20.8-46.6-46.5-46.6
			C74.2,55.6,53.3,76.4,53.3,102.1"/>
		<path class="st1" d="M99.9,149.9c-26.4,0-47.8-21.4-47.8-47.8c0-26.4,21.4-47.8,47.8-47.8c26.4,0,47.8,21.4,47.8,47.8
			C147.7,128.5,126.2,149.9,99.9,149.9z M99.9,56.8c-25,0-45.3,20.3-45.3,45.3c0,25,20.3,45.3,45.3,45.3c25,0,45.3-20.3,45.3-45.3
			C145.2,77.2,124.9,56.8,99.9,56.8z"/>
	</g>
	<g>
		<path class="st0" d="M53.6,104.1c-0.2-6.9,9-52.8,47.1-52.8c38.1,0,38.5,19.7,38.5,19.7s8.9,6.7,7.2,32.9c0,0-4.8-22.3-17.6-27.3
			c-7,1.1-33.8,6.4-57.2-0.4C63.7,79.2,59.1,86.5,53.6,104.1"/>
		<path class="st1" d="M53.6,105.4c-0.1,0-0.1,0-0.2,0c-0.6-0.1-1.1-0.6-1.1-1.2c-0.1-4.9,3.9-26.8,18-41.3
			c8.3-8.5,18.5-12.8,30.4-12.8c35.7,0,39.3,16.9,39.7,20.4c1.9,1.8,8.8,10.1,7.3,33.6c0,0.6-0.5,1.1-1.2,1.2c-0.6,0-1.2-0.4-1.3-1
			c0-0.2-4.8-21.3-16.5-26.3l-1.5,0.3c-9.2,1.5-33.6,5.6-55.5-0.6c-7.2,2.8-11.5,9.7-16.9,26.9C54.7,105,54.2,105.4,53.6,105.4z
			 M128.8,75.4c0.2,0,0.3,0,0.5,0.1c8.4,3.3,13.5,13.4,16.1,20.6c-0.3-18.7-6.9-24-6.9-24.1c-0.3-0.2-0.5-0.6-0.5-1
			c0-0.7-1-18.5-37.2-18.5c-11.2,0-20.8,4.1-28.6,12.1C65.4,71.5,61.1,80.3,58.4,88C62,80.7,65.9,77,71.2,75.1
			c0.2-0.1,0.5-0.1,0.8,0c21.4,6.2,45.6,2.2,54.8,0.7l1.9-0.3C128.7,75.4,128.8,75.4,128.8,75.4z"/>
	</g>
</g>
</svg>
