<?xml version="1.0" encoding="utf-8"?>
<!-- Generator: Adobe Illustrator 21.0.0, SVG Export Plug-In . SVG Version: 6.00 Build 0)  -->
<svg version="1.1" id="Layer_1" xmlns="http://www.w3.org/2000/svg" xmlns:xlink="http://www.w3.org/1999/xlink" x="0px" y="0px"
	 viewBox="0 0 200 200" style="enable-background:new 0 0 200 200;" xml:space="preserve">
<style type="text/css">
	.st0{fill:#FFFFFF;}
	.st1{fill:#E64343;}
</style>
<g>
	<g>
		<g>
			<ellipse class="st0" cx="100.2" cy="108.8" rx="49.4" ry="49.4"/>
			<path class="st1" d="M100.2,159.5c-27.9,0-50.7-22.7-50.7-50.7c0-27.9,22.7-50.7,50.7-50.7c27.9,0,50.7,22.7,50.7,50.7
				C150.9,136.7,128.1,159.5,100.2,159.5z M100.2,60.6C73.6,60.6,52,82.2,52,108.8c0,26.6,21.6,48.2,48.2,48.2
				c26.6,0,48.2-21.6,48.2-48.2C148.4,82.2,126.8,60.6,100.2,60.6z"/>
		</g>
	</g>
	<g>
		<path class="st0" d="M137.6,103.7c-3.6-0.7-14.5-1.1-18.5-0.9c-4.1,0.2-10.4,0.8-12.8,1.9c-2.4,1.1-2,3.2-2,3.2
			c0.1,1.7,1.1,3.3,2.8,5.9c1.8,2.6,3.5,3,4.4,3.3c0.9,0.3,4.5,0.8,4.5,0.8c3.2,0.3,7.1,0.2,12,0.1c4.9-0.1,7.5-0.9,8.5-1.1
			c3.2-0.8,3.7-3.1,4.1-4.1c0.4-1,1-4.7,0.9-5.3C141.4,106,141.3,104.4,137.6,103.7z"/>
		<path class="st1" d="M121.4,119.4c-2,0-3.8-0.1-5.4-0.2c-0.7-0.1-3.8-0.5-4.8-0.8l-0.3-0.1c-1-0.4-2.9-1-4.8-3.7
			c-2-2.9-2.9-4.6-3-6.5c-0.2-0.9,0-3.2,2.7-4.4c3.1-1.4,11-1.9,13.3-2c4.2-0.2,15,0.2,18.8,0.9l0,0c4.2,0.8,4.7,2.9,4.9,4.8
			c0.1,0.9-0.6,4.8-1,5.9c-0.5,1.5-1.3,4-5,4.9c-1.4,0.3-4,1-8.7,1.2C125.5,119.3,123.3,119.4,121.4,119.4z M121.8,104.1
			c-1,0-1.9,0-2.6,0c-4.7,0.2-10.4,0.8-12.4,1.8c-1.5,0.7-1.3,1.7-1.2,1.8c0.1,1.5,1,3,2.6,5.5c1.4,2,2.7,2.4,3.5,2.8l0.3,0.1
			c0.5,0.2,2.5,0.5,4.2,0.7c3,0.3,6.8,0.2,11.8,0.1c4.4-0.1,6.8-0.7,8-1c0,0,0.2-0.1,0.2-0.1c2.3-0.6,2.8-2,3.1-3l0.1-0.3
			c0.3-0.9,0.9-4.3,0.9-4.8c-0.1-1.3-0.2-2-2.8-2.5C134.5,104.4,126.6,104.1,121.8,104.1z"/>
	</g>
	<g>
		<path class="st0" d="M94.5,104.7c-2.4-1.1-8.8-1.7-12.8-1.9c-4.1-0.2-14.9,0.2-18.5,0.9c-3.6,0.7-3.7,2.3-3.9,3.7
			c0,0.6,0.6,4.2,0.9,5.3c0.4,1,0.8,3.3,4.1,4.1c1,0.3,3.6,1,8.5,1.1c4.9,0.1,8.8,0.2,12-0.1c0,0,3.6-0.4,4.5-0.8
			c0.9-0.3,2.7-0.8,4.4-3.3c1.8-2.6,2.7-4.2,2.8-5.9C96.4,107.9,96.9,105.8,94.5,104.7z"/>
		<path class="st1" d="M79.4,119.4c-2,0-4.2-0.1-6.7-0.1c-4.7-0.1-7.3-0.8-8.5-1.1c-3.9-1-4.7-3.5-5.1-4.8c-0.4-1.3-1.1-5.2-1.1-6
			c0.2-1.9,0.7-4,4.9-4.8c3.8-0.7,14.7-1.1,18.8-0.9c2.3,0.1,10.2,0.6,13.3,2c0,0,0,0,0,0c2.7,1.2,2.9,3.5,2.7,4.6
			c-0.1,1.7-1,3.4-3,6.3c-1.8,2.7-3.7,3.3-4.8,3.7l-0.3,0.1c-1,0.4-4.1,0.8-4.8,0.8C83.2,119.3,81.4,119.4,79.4,119.4z M79,104.1
			c-4.9,0-12.7,0.3-15.6,0.9c-2.7,0.5-2.7,1.3-2.8,2.5c0,0.6,0.5,3.9,0.9,4.8l0.1,0.3c0.3,1,0.8,2.5,3.1,3l0.3,0.1
			c1.2,0.3,3.5,0.9,8,1c5,0.1,8.7,0.2,11.8-0.1c1.6-0.2,3.7-0.5,4.1-0.7l0.3-0.1c0.9-0.3,2.2-0.8,3.5-2.8c1.7-2.4,2.5-3.9,2.6-5.3
			c0.1-0.4,0.1-1.4-1.2-2l0,0c-2-0.9-7.7-1.5-12.4-1.8C80.9,104.1,80,104.1,79,104.1z"/>
	</g>
	<g>
		<path class="st0" d="M72.3,73c0,0,2.9,3.8,21,3.8s43,1.7,46,9c0,0,8.2,8.2,7.2,18.9l1.2,17.9c0,0,4.3-20.8,7.6-23.3
			c0,0,2.3-15.2,2-20.1l-20.5-26.7l-36.5-10.8l-33.3,8.1c0,0-5.9,5.2-3.9,10.8l-7.5,0.7c0,0-11.4,10.1-12.7,23.1l3.3,16.3
			c0,0,5.7,11.5,6.3,20.1l1.9-18.1c0,0-1.6-11.8,5.1-16.7C59.2,86.1,63.3,75.1,72.3,73z"/>
		<path class="st1" d="M147.6,123.9C147.6,123.9,147.6,123.9,147.6,123.9c-0.7,0-1.2-0.5-1.2-1.2l-1.2-17.9
			c0.9-10.3-6.7-18-6.8-18.1c-0.1-0.1-0.2-0.3-0.3-0.4c-2-5.1-19.2-8.2-44.8-8.2c-14.5,0-19.7-2.5-21.3-3.7
			c-7.8,2.3-11.5,12.1-11.5,12.2c-0.1,0.2-0.2,0.4-0.4,0.6c-6,4.4-4.6,15.4-4.6,15.5c0,0.1,0,0.2,0,0.3L53.5,121
			c-0.1,0.6-0.6,1.2-1.3,1.1c-0.6,0-1.2-0.5-1.2-1.2c-0.6-8.2-6.1-19.5-6.1-19.7c0-0.1-0.1-0.2-0.1-0.3l-3.3-16.3c0-0.1,0-0.2,0-0.4
			c1.3-13.4,12.6-23.5,13.1-24c0.2-0.2,0.5-0.3,0.7-0.3l6-0.5C60.6,54,65.8,49.2,66.1,49c0.2-0.1,0.3-0.2,0.5-0.3l33.3-8.1
			c0.2-0.1,0.4,0,0.7,0L137,51.3c0.3,0.1,0.5,0.2,0.6,0.4l20.5,26.7c0.2,0.2,0.2,0.4,0.3,0.7c0.3,5-1.9,19.7-2,20.3
			c0,0.3-0.2,0.6-0.5,0.8c-2,1.5-5.4,14.1-7.1,22.5C148.7,123.5,148.2,123.9,147.6,123.9z M140.3,85.1c1.2,1.3,8.3,9.3,7.4,19.7
			l0.6,9.3c1.5-6,3.7-13.2,5.7-15.4c0.4-2.4,2.1-14.4,1.9-19l-20.1-26.1l-35.7-10.5l-32.7,8c-1,1-4.8,5.1-3.4,9.2
			c0.1,0.4,0.1,0.8-0.1,1.1c-0.2,0.3-0.6,0.5-0.9,0.6L56,62.6c-1.8,1.7-10.8,10.7-12,21.9l3.2,16c0.5,1,3,6.3,4.7,12.1l1-9.7
			c-0.2-1.5-1.2-12.4,5.3-17.5c0.8-2,5.1-11.5,13.8-13.6c0.5-0.1,0.9,0.1,1.3,0.4c0.1,0.1,3.6,3.4,20.1,3.4
			C109.3,75.5,136.5,76.8,140.3,85.1z M59.2,86.1L59.2,86.1L59.2,86.1z"/>
	</g>
</g>
</svg>
