<?xml version="1.0" encoding="utf-8"?>
<!-- Generator: Adobe Illustrator 21.0.0, SVG Export Plug-In . SVG Version: 6.00 Build 0)  -->
<svg version="1.1" id="Layer_1" xmlns="http://www.w3.org/2000/svg" xmlns:xlink="http://www.w3.org/1999/xlink" x="0px" y="0px"
	 viewBox="0 0 200 200" style="enable-background:new 0 0 200 200;" xml:space="preserve">
<style type="text/css">
	.st0{fill:#FFFFFF;}
	.st1{fill:#E64343;}
</style>
<g>
	<g>
		<path class="st0" d="M141.2,92.6c2.4,11.4,4,23.6,4,23.6s5.4-7.9,5.9-19.4c0-13-5.8-20-8.3-22.5c-0.6-3.4-1.2-6.7-5.8-12.2
			c-30.6-32-65.5-10.4-79.7,10.1c-0.1,0.1-0.2,0.3-0.2,0.3s-7.5,10.2-8.1,26.8c0.5,11.9,6.9,20.9,6.9,20.9s29.1,20,33.1,5.7
			C108.8,127.8,128.2,92.3,141.2,92.6z"/>
		<path class="st1" d="M81.6,132.2c-10.3,0-25.7-10.6-26.5-11.1c-0.1-0.1-0.2-0.2-0.3-0.3c-0.3-0.4-6.6-9.4-7.1-21.6
			c0.7-16.8,8.1-27.1,8.4-27.5c0,0,0.1-0.2,0.3-0.4c7.8-11.3,23.8-25.2,42.9-26.7c14-1.1,27,4.4,38.6,16.5c4.8,5.7,5.5,9.2,6.1,12.5
			c2.7,2.8,8.4,10.1,8.4,23.1c-0.5,11.8-5.8,19.8-6.1,20.1c-0.3,0.4-0.8,0.6-1.3,0.5c-0.5-0.1-0.9-0.5-0.9-1.1
			c0-0.1-1.5-11.5-3.8-22.5c-5.1,0.7-11.6,7-18.5,13.7c-9.7,9.4-20.6,20.1-31.9,19.6c-0.9,2.2-2.4,3.7-4.5,4.5
			C84.2,132.1,82.9,132.2,81.6,132.2z M56.7,119.2c5.5,3.8,20.7,12.6,27.7,10.1c1.7-0.6,2.8-1.8,3.3-3.8c0.2-0.6,0.7-0.9,1.3-0.9
			c10.5,1,21.4-9.5,30.9-18.8c8-7.8,14.9-14.5,21.1-14.5c0.1,0,0.1,0,0.2,0c0.6,0,1.1,0.4,1.2,1c1.6,7.5,2.8,15.5,3.5,20
			c1.5-3.3,3.6-8.8,3.9-15.6c0-12.4-5.5-19.2-7.9-21.6c-0.2-0.2-0.3-0.4-0.4-0.7c-0.6-3.2-1.1-6.3-5.6-11.6
			c-11-11.5-23.3-16.8-36.5-15.7c-18.3,1.5-33.6,14.8-41.2,25.7l-1.2-0.4l1.1,0.6c-0.2,0.2-7.3,10.3-8,26.2
			C50.6,109.7,55.9,117.9,56.7,119.2z"/>
	</g>
	<g>
		<g>
			<path class="st0" d="M139.2,83.1c-1.5,0.2-5.8,0.5-16.7,0.7c5.6-1.5,6.8-4.5,6.8-4.5s-37.8,9.9-65.8,17.9
				c-1.7,0.8-8.1,4.8-8,21.2c4.7,20.5,23,35.8,45,35.8c25.5,0,46.2-20.7,46.2-46.2C146.5,98.8,143.8,90.3,139.2,83.1z"/>
			<path class="st1" d="M100.4,155.5c-22.2,0-41.2-15.1-46.2-36.8c0-0.1,0-0.2,0-0.3c0-17,6.7-21.4,8.7-22.3c27.9-8,65.7-17.9,66-18
				c0.5-0.1,0.9,0,1.3,0.4s0.4,0.9,0.2,1.3c-0.1,0.2-0.6,1.4-2.2,2.6c7.1-0.2,9.8-0.4,10.8-0.6c0.5-0.1,1,0.1,1.3,0.6
				c4.9,7.7,7.6,16.5,7.6,25.6C147.8,134.2,126.5,155.5,100.4,155.5z M56.6,118.2c4.8,20.5,22.7,34.7,43.7,34.7
				c24.8,0,44.9-20.2,44.9-44.9c0-8.4-2.3-16.5-6.7-23.6c-2.5,0.3-7.9,0.5-16.1,0.6c-0.7-0.1-1.2-0.5-1.3-1.1
				c-0.1-0.6,0.3-1.2,0.9-1.4c0.6-0.2,1.1-0.3,1.5-0.5c-11.8,3.1-38.8,10.3-59.9,16.3C62.7,98.9,56.6,102.5,56.6,118.2z"/>
		</g>
	</g>
</g>
</svg>
