<?xml version="1.0" encoding="utf-8"?>
<!-- Generator: Adobe Illustrator 21.0.0, SVG Export Plug-In . SVG Version: 6.00 Build 0)  -->
<svg version="1.1" id="Layer_1" xmlns="http://www.w3.org/2000/svg" xmlns:xlink="http://www.w3.org/1999/xlink" x="0px" y="0px"
	 viewBox="0 0 200 200" style="enable-background:new 0 0 200 200;" xml:space="preserve">
<style type="text/css">
	.st0{fill:#FFFFFF;}
	.st1{fill:#E64343;}
</style>
<g>
	<g>
		<g>
			<ellipse class="st0" cx="100.2" cy="104.4" rx="49.4" ry="49.4"/>
			<path class="st1" d="M100.2,155.1c-27.9,0-50.7-22.7-50.7-50.7c0-27.9,22.7-50.7,50.7-50.7c27.9,0,50.7,22.7,50.7,50.7
				C150.9,132.3,128.2,155.1,100.2,155.1z M100.2,56.2c-26.6,0-48.2,21.6-48.2,48.2c0,26.6,21.6,48.2,48.2,48.2
				c26.6,0,48.2-21.6,48.2-48.2C148.4,77.8,126.8,56.2,100.2,56.2z"/>
		</g>
	</g>
	<g>
		<path class="st0" d="M50.8,104.4c0,0,4.1-20.6,18.3-30.9c0,0,36.2,8.3,62.6,0c0,0,13.9,8.1,18,30.9c0,0,3.6-26.1-13.5-45.6
			c0,0-32.3-28.4-77.3,0l-1,8.2C57.8,66.9,47.1,85.6,50.8,104.4z"/>
		<path class="st1" d="M149.6,105.7c-0.6,0-1.1-0.4-1.2-1c-3.5-19.7-14.6-28.2-16.9-29.8c-24.9,7.6-57.3,1-62.1,0
			c-13.3,10-17.3,29.6-17.3,29.8c-0.1,0.6-0.6,1-1.2,1c0,0,0,0,0,0c-0.6,0-1.1-0.4-1.2-1c-3.6-18.1,5.8-35.8,7.1-38.1l0.9-7.9
			c0-0.4,0.3-0.7,0.6-0.9c23.6-14.9,43.7-14.1,56.5-10.8c13.8,3.6,21.9,10.6,22.3,10.9c17.4,19.9,14.1,45.7,14,46.8
			C150.8,105.2,150.3,105.6,149.6,105.7C149.7,105.7,149.7,105.7,149.6,105.7z M60,59.5l-0.9,7.6c0,0.2-0.1,0.3-0.2,0.5
			c-0.1,0.2-8.2,14.5-7.6,30.3c2.4-7.1,7.4-18.5,17-25.4c0.3-0.2,0.7-0.3,1-0.2c0.4,0.1,36.2,8.2,61.9,0c0.3-0.1,0.7-0.1,1,0.1
			c0.5,0.3,10.8,6.5,16.3,22.8c-0.5-9.2-3-23.7-13.4-35.6C135,59.4,103.4,32.5,60,59.5z"/>
	</g>
</g>
</svg>
