<?xml version="1.0" encoding="utf-8"?>
<!-- Generator: Adobe Illustrator 21.0.0, SVG Export Plug-In . SVG Version: 6.00 Build 0)  -->
<svg version="1.1" id="Layer_1" xmlns="http://www.w3.org/2000/svg" xmlns:xlink="http://www.w3.org/1999/xlink" x="0px" y="0px"
	 viewBox="0 0 200 200" style="enable-background:new 0 0 200 200;" xml:space="preserve">
<style type="text/css">
	.st0{fill:#FFFFFF;}
	.st1{fill:#E64343;}
	.st2{fill:#FFFFFF;stroke:#E64343;stroke-linecap:round;stroke-linejoin:round;stroke-miterlimit:10;}
</style>
<g>
	<g>
		<path class="st0" d="M165.8,135.4c-1-7.7-9.1-11.4-4.7-21.5c4.4-10-2.3-13.3-1.8-19.4c1.2-16.3-13.2-27.5-13.2-27.5l0,0.6
			c-2.1-1.4-4.2-2.2-6.1-2.6l-1.6-6.3c0,0-24.3-26-63.3-9.4c-9.9,4.2-16.5,10.4-21.1,17.8v0c0,0-14.5,11.2-13.2,27.5
			c0.5,6.1-6.2,9.3-1.8,19.4c4.4,10-3.7,13.7-4.7,21.5c-1,7.7-1.2,11.9,4,16.8c5.3,4.8,6.9-1.4,11.7,1c4.8,2.4,12.5,4.7,16.2,1.4
			c3.7-3.3,19.2,2.1,13.2-8.4c-1.6-2.7-4-8.6-6.8-15.7l-1.3-20.6l8.5-2.1l44-10.7l-1,4.1l8.4,18.1c-4.5,11.9-8.9,22.9-11.3,26.9
			c-6,10.5,10.1,5.1,13.8,8.4c3.7,3.3,11.4,1,16.2-1.4c4.8-2.4,6.5,3.8,11.7-1C167,147.3,166.8,143.1,165.8,135.4z"/>
		<path class="st1" d="M139,157.5c-2.2,0-4.4-0.5-6-2c-1-0.9-3.8-0.9-6.3-1c-3.7-0.1-7.5-0.2-8.8-2.6c-0.9-1.5-0.5-3.6,1-6.3
			c2-3.4,5.7-12.2,11-26.2l-8.2-17.6c-0.1-0.3-0.1-0.5-0.1-0.8l0.5-2.2l-49.5,12.1l1.2,19.4c3.1,7.8,5.3,13,6.7,15.4
			c1.6,2.8,1.9,4.8,1.1,6.4c-1.3,2.4-4.9,2.5-8.5,2.6c-2.4,0.1-5.1,0.1-6.1,1c-5.2,4.7-15.6-0.2-17.6-1.2c-1.6-0.8-2.6-0.4-4.1,0.2
			c-2,0.8-4.4,1.8-7.9-1.4c-5.7-5.2-5.4-10-4.4-17.8c0.4-3.1,1.8-5.5,3.2-7.9c2.2-3.8,4.1-7.1,1.6-12.9c-3-6.8-1.2-10.7,0.3-14.2
			c0.8-1.9,1.6-3.6,1.4-5.6c-1.2-16.1,12-27.1,13.6-28.4c5.1-8.1,12.1-14.1,21.5-18.1c39.3-16.7,64.5,9.4,64.7,9.7
			c0.1,0.2,0.2,0.3,0.3,0.6l1.4,5.6c1.6,0.4,3.2,1.1,4.7,1.9c0.4-0.2,0.9-0.1,1.2,0.2c0.6,0.5,15,11.8,13.7,28.5
			c-0.1,2,0.6,3.6,1.4,5.6c1.5,3.5,3.3,7.4,0.3,14.2c-2.5,5.8-0.6,9.1,1.6,12.9c1.4,2.4,2.8,4.8,3.2,7.9c1,7.9,1.3,12.6-4.4,17.8
			c-3.5,3.2-6,2.2-7.9,1.4c-1.4-0.6-2.5-1-4.1-0.2C149.2,155,143.8,157.5,139,157.5z M124.2,101.1l8.3,17.7c0.1,0.3,0.2,0.7,0,1
			c-5.5,14.4-9.3,23.5-11.4,27.1c-1,1.8-1.4,3.2-1,3.8c0.7,1.2,4,1.3,6.7,1.3c3.2,0.1,6.2,0.2,7.9,1.6c2.9,2.6,9.5,1.1,14.8-1.6
			c2.6-1.3,4.6-0.5,6.1,0.1c1.8,0.7,2.9,1.2,5.3-0.9c4.8-4.4,4.6-8.2,3.6-15.7c-0.3-2.6-1.6-4.7-2.8-7c-2.3-4.1-4.8-8.2-1.7-15.2
			c2.5-5.8,1.2-8.9-0.3-12.2c-0.9-2-1.8-4.2-1.6-6.8c1-13-8.7-22.8-11.8-25.6c-0.3,0-0.6,0-0.9-0.2c-1.8-1.1-3.7-2-5.7-2.5
			c-0.5-0.1-0.8-0.5-0.9-0.9l-1.5-6c-2.5-2.5-25.9-24.1-61.7-8.9c-9,3.8-15.7,9.5-20.5,17.3c-0.1,0.2-0.3,0.4-0.5,0.5
			C52.8,69.6,40.9,80,42,94.4c0.2,2.6-0.7,4.7-1.6,6.8c-1.5,3.3-2.8,6.4-0.3,12.2c3,6.9,0.6,11.1-1.7,15.2c-1.3,2.2-2.5,4.4-2.8,7
			c-0.9,7.5-1.2,11.3,3.6,15.7c2.4,2.2,3.5,1.7,5.3,0.9c1.6-0.6,3.5-1.4,6.1-0.1c5.3,2.7,11.9,4.2,14.8,1.6c1.6-1.5,4.6-1.6,7.7-1.6
			c2.5-0.1,5.7-0.2,6.3-1.3c0.2-0.4,0.4-1.4-1.1-3.9c-1.4-2.5-3.8-7.9-6.9-15.9c0-0.1-0.1-0.2-0.1-0.4L70,109.9c0-0.6,0.4-1.2,1-1.3
			l8.5-2.1l44-10.7c0.4-0.1,0.9,0,1.2,0.3c0.3,0.3,0.4,0.8,0.3,1.2L124.2,101.1z"/>
	</g>
	<g>
		<g>
			<path class="st0" d="M100.6,74.8c-17.5-5.4-31-1.7-37.3,0.9c-5.5,7.5-8.8,16.7-8.8,26.7c0,25.1,20.4,45.5,45.5,45.5
				s45.5-20.4,45.5-45.5c0-10.4-3.5-19.9-9.4-27.6C125.7,69.3,111.8,71,100.6,74.8z"/>
			<path class="st1" d="M100,149.2c-25.8,0-46.7-21-46.7-46.7c0-9.9,3.1-19.4,9-27.5c0.1-0.2,0.3-0.3,0.5-0.4
				c6.6-2.7,20.2-6.4,37.8-1.1c8.4-2.8,23.9-6.3,36.1,0.3c0.2,0.1,0.3,0.2,0.4,0.3c6.3,8.2,9.6,18,9.6,28.3
				C146.7,128.3,125.8,149.2,100,149.2z M64.1,76.8c-5.4,7.6-8.3,16.5-8.3,25.7c0,24.4,19.8,44.2,44.2,44.2
				c24.4,0,44.2-19.8,44.2-44.2c0-9.7-3.1-18.9-9-26.6c-8.4-4.5-20.9-4.4-34.2,0.1c-0.3,0.1-0.5,0.1-0.8,0
				C83.5,70.8,70.5,74.2,64.1,76.8z"/>
		</g>
		<path class="st2" d="M59.5,77.3"/>
	</g>
	<g>
		<path class="st0" d="M128.7,69.6l8.9-12c0.3-0.4,0.8-0.5,1.2-0.2l9,6.7c0.4,0.3,0.5,0.8,0.2,1.2l-8.9,12c-0.3,0.4-0.8,0.5-1.2,0.2
			l-9-6.7C128.5,70.5,128.4,70,128.7,69.6z"/>
		<path class="st1" d="M138.1,78.4c-0.7,0-1.4-0.2-2-0.7l-6.8-5.1c-0.7-0.5-1.2-1.3-1.4-2.3c-0.1-0.9,0.1-1.8,0.6-2.6l7.4-9.9
			c1.1-1.5,3.3-1.8,4.8-0.7l6.8,5.1c0.7,0.5,1.2,1.3,1.4,2.3c0.1,0.9-0.1,1.8-0.6,2.6l-7.4,9.9c-0.5,0.7-1.3,1.2-2.3,1.3
			C138.4,78.3,138.2,78.4,138.1,78.4z M138.6,59c-0.3,0-0.6,0.1-0.8,0.4l-7.4,9.9l0,0c-0.1,0.2-0.2,0.4-0.2,0.7
			c0,0.2,0.2,0.5,0.4,0.6l6.8,5.1c0.2,0.1,0.5,0.2,0.7,0.2c0.3,0,0.5-0.2,0.6-0.4l7.4-9.9c0.1-0.2,0.2-0.4,0.2-0.7
			c0-0.3-0.2-0.5-0.4-0.6l-6.8-5.1C139,59,138.8,59,138.6,59z M129.5,68.5L129.5,68.5L129.5,68.5z"/>
	</g>
</g>
</svg>
