<?xml version="1.0" encoding="utf-8"?>
<!-- Generator: Adobe Illustrator 21.0.0, SVG Export Plug-In . SVG Version: 6.00 Build 0)  -->
<svg version="1.1" id="Layer_1" xmlns="http://www.w3.org/2000/svg" xmlns:xlink="http://www.w3.org/1999/xlink" x="0px" y="0px"
	 viewBox="0 0 200 200" style="enable-background:new 0 0 200 200;" xml:space="preserve">
<style type="text/css">
	.st0{fill:#FFFFFF;}
	.st1{fill:#E64343;}
</style>
<g>
	<g>
		<g>
			<path class="st0" d="M50,106.1c0,0,5.5-23.8,19.1-29.1c7.5,1.2,36.1,6.9,61.2-0.4c8.5,3.1,13.4,10.7,19.2,29.5
				c0.2-7.4,4.2-28.9-12.4-40.9c-0.6-5.5-1.4-13.8-13.3-19.2c-3.1,1-6.8,2.4-11.9,1.5c-5.1-1-34.6-4.6-53.9,23.6
				C58,71,49.9,77.8,50,106.1z"/>
			<path class="st1" d="M149.5,107.3c-0.5,0-1-0.4-1.2-0.9c-5.7-18.2-10.3-25.5-18.1-28.5c-23.3,6.6-49.4,2.3-59.3,0.7l-1.7-0.3
				c-12.6,5.3-18,27.8-18.1,28.1c-0.1,0.6-0.7,1-1.4,1c-0.6-0.1-1.1-0.6-1.1-1.2c-0.1-26.8,7.2-34.8,8.3-35.9
				c20.4-29.5,51.6-24.6,55.1-24c4.2,0.8,7.4-0.2,10.2-1.1l1.1-0.3c0.3-0.1,0.6-0.1,0.9,0.1c12.2,5.5,13.3,14,14,19.6
				c14.6,11,13.3,29.4,12.6,38.3c-0.1,1.3-0.2,2.4-0.2,3.3c0,0.6-0.5,1.1-1.1,1.2C149.6,107.3,149.5,107.3,149.5,107.3z M130.3,75.3
				c0.1,0,0.3,0,0.4,0.1c7.9,2.9,12.7,9.2,17.9,24.1c0.6-9.6,0.3-24.3-12.3-33.4c-0.3-0.2-0.5-0.5-0.5-0.9l0-0.3
				c-0.6-5.4-1.4-12.7-12.1-17.7l-0.6,0.2c-2.9,0.9-6.6,2.1-11.4,1.2c-3.3-0.6-33.2-5.3-52.6,23c-0.1,0.1-0.1,0.2-0.2,0.3
				c-0.1,0.1-5.9,5.4-7.3,25.2c2.9-7.6,8.4-17.9,17.1-21.3c0.2-0.1,0.4-0.1,0.6-0.1l2,0.3c9.8,1.6,35.7,5.9,58.6-0.7
				C130,75.4,130.2,75.3,130.3,75.3z"/>
		</g>
	</g>
	<g>
		<path class="st0" d="M130.3,76.6c-25,7.3-53.7,1.6-61.2,0.4C58.6,81.1,52.4,96,50,102.7c0,0.5-0.1,1-0.1,1.5
			c0,27.5,22.3,49.8,49.8,49.8c27.5,0,49.8-22.3,49.8-49.8c0-0.4-0.1-0.9-0.1-1.3C143.9,86.4,138.3,79.5,130.3,76.6z"/>
		<path class="st1" d="M99.7,155.3c-28.1,0-51-22.9-51-51c0-0.3,0-0.7,0-1l0-0.6c0-0.1,0-0.3,0.1-0.4C51.7,94.2,58,80,68.6,75.8
			c0.2-0.1,0.4-0.1,0.6-0.1l2,0.3c9.8,1.6,35.7,5.9,58.6-0.7c0.3-0.1,0.5-0.1,0.8,0c8.8,3.2,14.6,11.1,19.9,27.1
			c0,0.1,0.1,0.2,0.1,0.4l0,0.5c0,0.3,0,0.5,0,0.8C150.8,132.4,127.9,155.3,99.7,155.3z M51.3,103c0,0.2,0,0.3,0,0.5
			c0,0.3,0,0.5,0,0.8c0,26.8,21.8,48.5,48.5,48.5c26.8,0,48.5-21.8,48.5-48.5c0-0.2,0-0.4,0-0.7c0-0.1,0-0.3,0-0.4
			c-5-14.9-10.2-22.3-18-25.3c-23.3,6.6-49.4,2.3-59.3,0.7l-1.7-0.3C59.5,82.4,53.5,96.7,51.3,103z"/>
	</g>
</g>
</svg>
