<?xml version="1.0" encoding="utf-8"?>
<!-- Generator: Adobe Illustrator 21.0.0, SVG Export Plug-In . SVG Version: 6.00 Build 0)  -->
<svg version="1.1" id="Layer_1" xmlns="http://www.w3.org/2000/svg" xmlns:xlink="http://www.w3.org/1999/xlink" x="0px" y="0px"
	 viewBox="0 0 200 200" style="enable-background:new 0 0 200 200;" xml:space="preserve">
<style type="text/css">
	.st0{fill:#FFFFFF;}
	.st1{fill:#E64343;}
</style>
<g>
	<g>
		<g>
			<path class="st0" d="M143.1,91.8c2.5,12,4.8,24.7,4.8,24.7s5-8.2,5.5-20.3c0-13.5-6-21-8.7-23.6c-0.2-3.7-1.4-7.3-6.1-12.8
				c-33.7-31.6-68.6-10.5-83.5,11c-0.1,0.1-0.2,0.3-0.2,0.3s-8.4,9.8-8.4,27.6c0.5,12.5,7.2,22,7.2,22s-1-1.5-0.9-4
				c0.1,0.5,0.2,1,0.3,1.5l0,0c0,0.3,0.1,0.6,0.1,1c-0.1-17.5,6.6-21.7,8.4-22.6c7.4-2.1,15.5-4.4,23.4-6.6
				C107.7,91,134,91.6,143.1,91.8z"/>
			<path class="st1" d="M53.8,122c-0.4,0-0.8-0.2-1-0.5c-0.3-0.4-6.9-10-7.5-22.7c0-18.2,8.4-28.1,8.7-28.5l0.2-0.3
				c8.1-11.8,23.7-25.2,43-27.3c14.9-1.6,29.2,3.8,42.3,16.2c4.3,5,6.2,8.8,6.5,13.1c2.9,3,8.7,10.7,8.7,24.1
				c-0.5,12.3-5.5,20.6-5.7,21c-0.3,0.4-0.8,0.7-1.3,0.6c-0.5-0.1-0.9-0.5-1-1c0-0.1-2.2-12.2-4.6-23.7c-10.6-0.2-35.2-0.8-56.9-1.7
				c-7.9,2.2-15.9,4.4-23.2,6.5c-1.1,0.5-7.6,4.4-7.5,21.3c0,0.1,0,0.1,0,0.2c0.2,0.5,0.3,0.7,0.3,0.8c0.3,0.6,0.2,1.3-0.4,1.7
				C54.3,121.9,54,122,53.8,122z M102.3,45c-1.6,0-3.2,0.1-4.8,0.3c-18.4,2-33.3,14.9-41.2,26.3L56,71.9c-0.1,0.2-8.2,9.8-8.2,26.9
				c0.3,6.7,2.5,12.6,4.3,16.5c0.8-14.8,7-18.9,9-19.8c7.6-2.2,15.7-4.5,23.6-6.6c0.1,0,0.3-0.1,0.4,0c22.4,1,48,1.5,58,1.7
				c0.6,0,1.1,0.4,1.2,1c1.7,8,3.3,16.3,4.1,21c1.5-3.4,3.4-9.2,3.7-16.4c0-13-5.8-20.2-8.3-22.6c-0.2-0.2-0.4-0.5-0.4-0.8
				c-0.1-3.3-1.2-6.6-5.8-12C126.7,50.2,114.7,45,102.3,45z"/>
		</g>
		<g>
			<path class="st0" d="M141,81.8c-1.5,0.3-6,0.5-17.5,0.7c5.8-1.6,7.1-4.7,7.1-4.7S91,88.2,61.7,96.6c-1.8,0.8-8.4,5-8.4,22.2
				c4.9,21.5,24.1,37.5,47.1,37.5c26.7,0,48.3-21.6,48.3-48.3C148.7,98.3,145.9,89.3,141,81.8z"/>
			<path class="st1" d="M100.4,157.5c-23.2,0-43.1-15.8-48.3-38.5c0-0.1,0-0.2,0-0.3c0-17.7,7-22.3,9.1-23.3
				c29.2-8.4,68.7-18.7,69.1-18.8c0.5-0.1,0.9,0,1.3,0.4c0.3,0.4,0.4,0.9,0.2,1.3c0,0.1-0.6,1.4-2.5,2.8c7.5-0.2,10.5-0.4,11.5-0.6
				c0.5-0.1,1,0.1,1.3,0.6c5.2,8,7.9,17.3,7.9,26.8C150,135.3,127.7,157.5,100.4,157.5z M54.5,118.6c5,21.4,23.8,36.4,45.8,36.4
				c26,0,47.1-21.1,47.1-47.1c0-8.8-2.4-17.3-7.1-24.8c-2.6,0.3-8.3,0.5-16.9,0.6c-0.6,0.1-1.2-0.5-1.3-1.1s0.3-1.2,0.9-1.4
				c0.9-0.3,1.7-0.5,2.4-0.8C113.7,83.6,84.7,91.3,62,97.8C60.9,98.3,54.5,102.1,54.5,118.6z"/>
		</g>
	</g>
	<g>
		<path class="st0" d="M136.5,105.4c-3.6-1-14.5-1.6-18.5-1.3c-4.1,0.3-10.4,1.1-12.8,2.8c-2.4,1.6-2,4.7-2,4.7
			c0.1,2.5,1.1,4.9,2.8,8.7c1.8,3.8,3.5,4.4,4.4,4.9c0.9,0.5,4.5,1.1,4.5,1.1c3.2,0.5,7.1,0.3,12,0.1c4.9-0.2,7.5-1.3,8.5-1.7
			c3.2-1.2,3.7-4.6,4.1-6.1c0.4-1.5,1-7,0.9-7.8C140.3,108.8,140.2,106.4,136.5,105.4z"/>
		<path class="st1" d="M120.2,127.9c-2,0-3.9-0.1-5.5-0.3c-0.9-0.2-3.9-0.7-4.9-1.3l-0.2-0.1c-1-0.5-2.9-1.5-4.7-5.4
			c-1.9-4.1-2.8-6.5-2.9-9.2c0,0-0.6-3.8,2.5-5.8c3.2-2.1,11.1-2.8,13.4-3c4.2-0.3,15.1,0.3,19,1.4c4.4,1.3,4.6,4.4,4.7,6.5
			c0.1,1.1-0.6,6.7-0.9,8.3l-0.1,0.4c-0.4,1.7-1.1,5.3-4.8,6.6c-1.4,0.5-4.1,1.5-8.8,1.7C124.4,127.8,122.2,127.9,120.2,127.9z
			 M120.6,105.3c-1,0-1.8,0-2.5,0.1c-4.7,0.3-10.3,1.2-12.2,2.5c-1.7,1.2-1.4,3.4-1.4,3.5c0.1,2.4,1,4.6,2.7,8.4
			c1.4,3.1,2.7,3.7,3.6,4.2l0.3,0.2c0.4,0.2,2.5,0.7,4.1,1c3,0.4,6.7,0.3,11.7,0.1c4.4-0.2,6.7-1.1,7.8-1.5l0.3-0.1
			c2.4-0.9,2.9-3.3,3.2-4.8l0.1-0.4c0.3-1.5,0.9-6.8,0.9-7.5c-0.1-2.1-0.2-3.6-2.9-4.3C133.3,105.8,125.4,105.3,120.6,105.3z"/>
	</g>
	<g>
		<path class="st0" d="M95.6,106.8c-2.4-1.6-8.8-2.5-12.8-2.8c-4.1-0.3-14.9,0.3-18.5,1.3c-3.6,1-3.7,3.4-3.9,5.5
			c0,0.8,0.6,6.3,0.9,7.8c0.4,1.5,0.8,4.9,4.1,6.1c1,0.4,3.6,1.5,8.5,1.7c4.9,0.2,8.8,0.3,12-0.1c0,0,3.6-0.6,4.5-1.1
			c0.9-0.5,2.7-1.1,4.4-4.9c1.8-3.8,2.7-6.2,2.8-8.7C97.5,111.6,98,108.5,95.6,106.8z"/>
		<path class="st1" d="M80.5,127.9c-2,0-4.2-0.1-6.7-0.2c-4.8-0.2-7.5-1.2-8.6-1.7c-3.9-1.4-4.7-5-5-6.7l-0.1-0.4
			c-0.4-1.6-1-7.2-0.9-8.2c0.1-2.2,0.3-5.3,4.8-6.6c3.8-1.1,14.8-1.6,19-1.4c2.4,0.2,10.3,0.9,13.4,3l0,0c3.1,2,2.5,5.8,2.5,6
			c-0.1,2.5-1,4.9-2.9,9c-1.8,3.8-3.7,4.8-4.7,5.4l-0.2,0.1c-1,0.6-4,1.1-4.9,1.3C84.4,127.8,82.5,127.9,80.5,127.9z M80.2,105.3
			c-4.8,0-12.7,0.5-15.6,1.3c-2.7,0.8-2.8,2.2-2.9,4.3c0,0.8,0.5,6.1,0.9,7.6l0.1,0.4c0.3,1.6,0.9,4,3.2,4.8l0.3,0.1
			c1.1,0.4,3.5,1.3,7.8,1.5c5,0.2,8.7,0.3,11.7-0.1c1.6-0.3,3.6-0.8,4-1l0.3-0.2c0.9-0.5,2.2-1.1,3.6-4.2c1.8-3.8,2.6-6,2.7-8.2
			c0-0.2,0.3-2.5-1.4-3.6l0,0c-2-1.3-7.6-2.2-12.2-2.5C82,105.3,81.2,105.3,80.2,105.3z"/>
	</g>
</g>
</svg>
