<?xml version="1.0" encoding="utf-8"?>
<!-- Generator: Adobe Illustrator 21.0.0, SVG Export Plug-In . SVG Version: 6.00 Build 0)  -->
<svg version="1.1" id="Layer_1" xmlns="http://www.w3.org/2000/svg" xmlns:xlink="http://www.w3.org/1999/xlink" x="0px" y="0px"
	 viewBox="0 0 200 200" style="enable-background:new 0 0 200 200;" xml:space="preserve">
<style type="text/css">
	.st0{fill-rule:evenodd;clip-rule:evenodd;fill:#FFFFFF;}
	.st1{fill:#E64343;}
	.st2{fill:#FFFFFF;}
</style>
<g>
	<g>
		<g>
			<path class="st0" d="M151.7,98.6c0,36-23.6,17.3-51.7,17.3c-28.1,0-51.8,16.7-51.7-16.1c0-11.5,1.7-23.8,9-31.3
				c4.6-4.7,13.8-11.1,19.7-14.1c12.2-6.2,15.8-6.1,23.1-11.7c0,0,8.2,1.4,19.1,8.6c4.6,3,17.9,12.3,22.6,16.4
				C152,76.5,151.7,84.7,151.7,98.6z"/>
			<path class="st1" d="M136.9,122c-4.4,0-9.5-1-14.9-2.1c-6.6-1.3-14.2-2.8-21.9-2.8c-7.7,0-15.2,1.3-21.8,2.4
				c-10.7,1.8-19.9,3.4-25.5-1.3c-3.9-3.3-5.7-9.2-5.7-18.5c0-15.4,3-25.7,9.4-32.2c4.8-4.9,14.2-11.4,20-14.3
				c4.8-2.4,8.4-3.9,11.2-5.1c4.4-1.9,7.4-3.1,11.7-6.4c0.3-0.2,0.6-0.3,1-0.2c0.3,0.1,8.6,1.5,19.5,8.8
				c4.3,2.9,17.9,12.3,22.7,16.5c10.3,8.9,10.3,17.6,10.3,30.7v1.1c0,10.5-1.9,17-6.1,20.4C144.2,121.2,140.8,122,136.9,122z
				 M100,114.7c8,0,15.7,1.5,22.4,2.8c10.1,2,18.1,3.5,22.8-0.4c3.5-2.9,5.2-8.9,5.2-18.5v-1.1c0-13.3,0-20.7-9.4-28.8
				c-4.8-4.1-18.2-13.4-22.5-16.3c-9-6-16.1-7.9-18.1-8.3c-4.4,3.2-7.5,4.6-11.8,6.4c-2.8,1.2-6.3,2.7-11.1,5.1
				c-5.6,2.8-14.7,9.1-19.4,13.8c-5.9,6.1-8.6,15.7-8.7,30.5c0,8.4,1.5,13.8,4.8,16.5c4.8,4,13,2.6,23.5,0.8
				C84.5,116,92.1,114.7,100,114.7z"/>
		</g>
	</g>
	<g>
		<path class="st2" d="M145.9,124c1.6-6.7-0.6-21.9-0.6-21.9l-6.7-8.5l-0.5-8.9c-0.2-0.2-0.5-0.4-0.7-0.6l-36.9,4.4L62,84.5
			c-0.1,0.1-0.2,0.2-0.3,0.2l-1.1,9.7l-8.8,10.9c-0.1,1.2-0.2,2.4-0.2,3.7c0,26.7,21.6,48.3,48.3,48.3
			C121.5,157.3,139.6,143.3,145.9,124L145.9,124z"/>
		<path class="st1" d="M100,158.5c-27.3,0-49.6-22.2-49.6-49.6c0-1.3,0.1-2.6,0.2-3.8c0-0.3,0.1-0.5,0.3-0.7l8.6-10.6l1.1-9.3
			c0-0.3,0.2-0.6,0.4-0.8l0.3-0.2c0.3-0.2,0.6-0.3,0.9-0.3l38.3,3.9l36.8-4.4c0.3,0,0.7,0.1,0.9,0.3c0.2,0.1,0.3,0.3,0.5,0.4
			l0.3,0.2c0.3,0.2,0.4,0.5,0.4,0.9l0.4,8.5l6.5,8.2c0.1,0.2,0.2,0.4,0.3,0.6c0.1,0.6,2.3,15.6,0.6,22.4c0,0,0,0.1,0,0.1
			C140.4,144.8,121.5,158.5,100,158.5z M53.1,105.7c-0.1,1-0.2,2.1-0.2,3.2c0,26,21.1,47.1,47.1,47.1c20.4,0,38.4-13,44.7-32.4
			c1.4-5.9-0.3-18.9-0.6-21.1l-6.5-8.2c-0.2-0.2-0.3-0.5-0.3-0.7l-0.4-8.3l-36.2,4.4c-0.1,0-0.2,0-0.3,0l-37.5-3.8l-1,8.7
			c0,0.2-0.1,0.5-0.3,0.6L53.1,105.7z M145.9,124L145.9,124L145.9,124z"/>
	</g>
	<g>
		<path class="st2" d="M115.7,154.7c0,0-2.5-2-7-2c-4.5,0-4.8-2.1-8.4-2.3c-3.6-0.2-3.1,2.3-8.4,2.3s-7.6,2-7.6,2l15.7,2.6
			L115.7,154.7z"/>
		<path class="st1" d="M100,158.5c-0.1,0-0.1,0-0.2,0l-15.7-2.6c-0.5-0.1-0.9-0.4-1-0.9c-0.1-0.5,0-1,0.4-1.3
			c0.1-0.1,2.8-2.3,8.4-2.3c2.5,0,3.4-0.6,4.4-1.2c0.9-0.6,2-1.2,4.1-1.1c1.9,0.1,3.1,0.7,4.1,1.2c1.1,0.6,2.1,1.1,4.3,1.1
			c4.9,0,7.7,2.2,7.8,2.3c0.4,0.3,0.5,0.8,0.4,1.3c-0.1,0.5-0.5,0.8-1,0.9l-15.7,2.6C100.1,158.5,100.1,158.5,100,158.5z
			 M88.9,154.2L100,156l11.2-1.9c-0.7-0.1-1.6-0.2-2.5-0.2c-2.8,0-4.2-0.7-5.4-1.4c-1-0.5-1.7-0.9-3.1-0.9c-1.3-0.1-1.8,0.3-2.6,0.8
			c-1.1,0.7-2.5,1.5-5.7,1.5C90.8,153.9,89.8,154,88.9,154.2z"/>
	</g>
</g>
</svg>
