<?xml version="1.0" encoding="utf-8"?>
<!-- Generator: Adobe Illustrator 21.0.0, SVG Export Plug-In . SVG Version: 6.00 Build 0)  -->
<svg version="1.1" id="Layer_1" xmlns="http://www.w3.org/2000/svg" xmlns:xlink="http://www.w3.org/1999/xlink" x="0px" y="0px"
	 viewBox="0 0 200 200" style="enable-background:new 0 0 200 200;" xml:space="preserve">
<style type="text/css">
	.st0{fill:#FFFFFF;}
	.st1{fill:#E64343;}
</style>
<g>
	<g>
		<g>
			<path class="st0" d="M151.2,87.7l2.1-1.1c0,0-4.6-23.1-18.3-32.2c0,0-10-9.4-23.7-11.8c2.6,1.4,4.6,2.7,6.4,4
				C99.5,38.1,60.4,48.9,51.6,74c-0.1,0.2,1.2-0.7,3.2-1.6c-0.6,0.7-1,1.5-1.6,2c-11.6,10.7-4.1,28.3-4.1,28.3l17.6,20.7l53,7.4
				l30.3-29L151.2,87.7z"/>
			<path class="st1" d="M119.7,132c-0.1,0-0.1,0-0.2,0l-53-7.4c-0.3,0-0.6-0.2-0.8-0.4l-17.6-20.7c-0.1-0.1-0.1-0.2-0.2-0.3
				c-0.3-0.7-7.1-17,2.9-28.2c0,0-0.1-0.1-0.1-0.1c-0.4-0.3-0.5-0.9-0.4-1.4c3.8-10.9,13.5-20,27.1-25.8c11-4.6,23.1-6.3,32.7-4.7
				c-0.1-0.3-0.1-0.6,0-0.9c0.2-0.6,0.8-0.9,1.4-0.8c13.9,2.4,23.9,11.7,24.3,12.1c13.8,9.2,18.5,31.9,18.7,32.9
				c0.1,0.5-0.2,1.1-0.6,1.4l-1.5,0.8l-1.2,13.4c0,0.3-0.2,0.6-0.4,0.8l-30.3,29C120.3,131.9,120,132,119.7,132z M67.4,122.2
				l51.9,7.2l29.5-28.3l1.2-13.6c0-0.4,0.3-0.8,0.7-1l1.3-0.7c-1-4.3-6-22.8-17.6-30.5c-0.2-0.2-6.4-5.9-15.5-9.4
				c0.2,0.4,0.2,0.9,0,1.3c-0.3,0.6-1,0.8-1.6,0.5c-9.4-4.4-24.9-3.4-38.7,2.4C66.8,55,58.2,62.5,54,71.4c0.1,0,0.2-0.1,0.3-0.1
				c0.5-0.2,1.2-0.1,1.5,0.4c0.4,0.5,0.3,1.1-0.1,1.6c-0.2,0.3-0.4,0.5-0.6,0.8c-0.3,0.4-0.6,0.9-1,1.3c-10.3,9.4-4.6,24.9-3.9,26.7
				L67.4,122.2z M150,101.7L150,101.7L150,101.7z"/>
		</g>
		<g>
			<path class="st0" d="M150,101.7l-6.3-13.9l-2.7-10.8l-22.5,0.2c-3.1,0.8-6.3,1.9-9.5,3.1c0.2-1.1,0.4-2.1,0.5-3l-2.3,0
				c-4.7,2.1-9.7,4.3-14.3,6.1c0,0,1.3-3.2,1.7-6l-1.6,0c-7.4,2.7-15.8,6.7-26.7,12.6c0.9-4.3,2.5-8.3,4.8-11.9
				c-4.4,2.5-8.3,5.9-11,10.4c-1.2-2.3-1.8-4.6-1.8-7l-1.4,6.1l-7.5,14.6c-0.1,1.5-0.1,3-0.1,4.5c0,28,22.7,50.8,50.8,50.8
				c28,0,50.8-22.7,50.8-50.8C150.8,99.1,150,101.7,150,101.7z"/>
			<path class="st1" d="M100,158.7c-28.7,0-52-23.3-52-52c0-1.5,0.1-3,0.1-4.5c0-0.2,0.1-0.4,0.1-0.5l7.4-14.5l1.3-6
				c0.1-0.6,0.7-1,1.4-1c0.6,0.1,1.1,0.6,1.1,1.2c0,1.5,0.3,3,0.8,4.4c2.5-3.5,5.9-6.5,10.2-8.9c0.5-0.3,1.1-0.2,1.5,0.2
				c0.4,0.4,0.5,1,0.1,1.5c-1.8,2.8-3.1,5.7-4,8.8c10.6-5.6,18-9,24.4-11.3c0.1,0,0.3-0.1,0.4-0.1l1.6,0c0.4-0.1,0.7,0.2,1,0.4
				c0.2,0.3,0.3,0.6,0.3,1c-0.2,1.2-0.5,2.6-0.9,3.6c3.5-1.5,7.5-3.2,11.7-5.1c0.2-0.1,0.3-0.1,0.5-0.1l2.3,0c0,0,0,0,0,0
				c0.4,0,0.7,0.2,1,0.4c0.2,0.3,0.3,0.7,0.3,1c-0.1,0.3-0.1,0.6-0.2,0.9c2.4-0.9,4.9-1.6,7.6-2.4c0.1,0,0.2,0,0.3,0l22.5-0.2
				c0,0,0,0,0,0c0.6,0,1.1,0.4,1.2,0.9l2.7,10.8l5.7,12.5c1.2,0.2,1.4,1.5,1.4,6.6C152,135.3,128.7,158.7,100,158.7z M50.6,102.5
				c-0.1,1.4-0.1,2.8-0.1,4.1c0,27.3,22.2,49.5,49.5,49.5c27.3,0,49.5-22.2,49.5-49.5c0-2-0.1-3.1-0.1-3.8c-0.2-0.1-0.4-0.3-0.6-0.6
				l-6.3-13.9l-2.6-10l-21.4,0.2c-3.3,0.9-6.3,1.9-9.3,3c-0.4,0.2-0.9,0.1-1.2-0.2c-0.3-0.3-0.5-0.7-0.4-1.2
				c0.1-0.6,0.2-1.1,0.3-1.6l-0.5,0c-5.2,2.3-10,4.4-14.1,6.1c-0.5,0.2-1,0.1-1.3-0.3c-0.4-0.4-0.5-0.9-0.3-1.3c0,0,0.8-2.1,1.4-4.3
				c-6.7,2.4-14.6,6.1-26.2,12.4c-0.4,0.2-0.9,0.2-1.3-0.1c-0.4-0.3-0.6-0.8-0.5-1.3c0.5-2.7,1.4-5.3,2.5-7.8
				c-2.7,2.1-4.8,4.5-6.4,7.2c-0.2,0.4-0.7,0.6-1.1,0.6c-0.5,0-0.9-0.3-1.1-0.7c-0.3-0.6-0.6-1.1-0.8-1.7l-0.1,0.4
				c0,0.1-0.1,0.2-0.1,0.3L50.6,102.5z"/>
		</g>
	</g>
	<g>
		<path class="st0" d="M97,110.6c0.1-1,0.3-1.8,0.4-2.7c0.2-3.9-1.5-6-6.2-7.2c-9.2-2.4-17.4-2.5-26.7-0.2c-3.6,0.9-5.9,3.5-5.6,6.7
			c0.4,4.1,0.6,8,3.8,11.4c5.2,5.4,12.5,6.1,20.3,5.5c6.7-0.5,10.8-3.5,12.6-8.5C96.2,113.9,96.6,112.2,97,110.6z"/>
		<path class="st1" d="M78.7,125.4c-5.8,0-12.2-1.1-16.9-6c-3.3-3.5-3.7-7.5-4.1-11.4l-0.1-0.7c-0.4-3.8,2.3-7,6.5-8.1
			c9.5-2.3,17.9-2.2,27.3,0.2c5.2,1.4,7.4,3.9,7.2,8.5c0,0.6-0.1,1.3-0.2,2l-0.1,0.9c0,0.1,0,0.1,0,0.2c-0.1,0.5-0.3,1-0.4,1.5
			c-0.3,1.1-0.6,2.3-1,3.5c-2.1,5.6-6.7,8.8-13.7,9.3C81.7,125.4,80.2,125.4,78.7,125.4z M77.4,100.1c-4.1,0-8.3,0.5-12.6,1.6
			c-3.1,0.7-4.9,2.8-4.6,5.4l0.1,0.7c0.4,3.8,0.7,7.1,3.4,9.9c5.1,5.4,12.6,5.6,19.3,5.1c5.9-0.5,9.8-3,11.5-7.7
			c0.4-1.1,0.7-2.2,1-3.3c0.1-0.5,0.3-1,0.4-1.5l0.1-0.8c0.1-0.6,0.2-1.1,0.2-1.7c0.1-2.8-0.7-4.7-5.3-5.9
			C86.2,100.7,81.8,100.1,77.4,100.1z M97,110.6L97,110.6L97,110.6z"/>
	</g>
	<g>
		<path class="st0" d="M103.2,110.6c-0.1-1-0.3-1.8-0.3-2.7c-0.2-3.9,1.5-6,6.2-7.2c9.2-2.4,17.4-2.5,26.7-0.2
			c3.6,0.9,5.9,3.5,5.6,6.7c-0.4,4.1-0.6,8-3.8,11.4c-5.2,5.4-12.5,6.1-20.3,5.5c-6.7-0.5-10.8-3.5-12.6-8.5
			C104,113.9,103.7,112.2,103.2,110.6z"/>
		<path class="st1" d="M121.5,125.4c-1.5,0-3-0.1-4.4-0.2c-7-0.5-11.6-3.7-13.7-9.3c-0.4-1.2-0.7-2.4-1-3.5c-0.1-0.5-0.3-1-0.4-1.5
			c0-0.1,0-0.1,0-0.2l-0.1-0.9c-0.1-0.7-0.2-1.3-0.2-1.9c-0.2-4.6,1.9-7.1,7.2-8.5c9.4-2.4,17.8-2.5,27.3-0.2c4.3,1,6.9,4.3,6.5,8.1
			l-0.1,0.7c-0.4,3.9-0.8,7.9-4.1,11.4C133.8,124.3,127.4,125.4,121.5,125.4z M104.4,110.3c0.1,0.5,0.3,1,0.4,1.5
			c0.3,1.1,0.6,2.2,1,3.3c1.7,4.6,5.6,7.2,11.5,7.7c6.7,0.5,14.2,0.3,19.3-5.1c2.7-2.9,3.1-6.1,3.4-9.9l0.1-0.7
			c0.3-2.5-1.6-4.6-4.6-5.4c-9-2.2-17.1-2.1-26.1,0.2c-4.6,1.2-5.4,3.1-5.3,5.9c0,0.6,0.1,1.1,0.2,1.7L104.4,110.3z"/>
	</g>
</g>
</svg>
