<?xml version="1.0" encoding="UTF-8"?>
<svg enable-background="new 0 0 150 100" version="1.1" viewBox="0 0 150 100" xml:space="preserve" xmlns="http://www.w3.org/2000/svg" xmlns:xlink="http://www.w3.org/1999/xlink">
<style type="text/css">
	.st0{clip-path:url(#h);fill:#BAB9B9;}
	.st1{clip-path:url(#f);fill:#BAB9B9;}
	.st2{clip-path:url(#d);fill:#FFD663;}
	.st3{clip-path:url(#b);fill:#FFD663;}
	.st4{clip-path:url(#r);fill:#253E8F;}
	.st5{fill:#404041;}
	.st6{clip-path:url(#p);fill:#404041;}
	.st7{clip-path:url(#n);fill:#404041;}
	.st8{clip-path:url(#l);fill:#404041;}
	.st9{clip-path:url(#j);fill:#110A09;}
</style>
	<defs>
		<rect id="i" x="33.2" y="23.1" width="83.7" height="53.7"/>
	</defs>
	<clipPath id="h">
		<use xlink:href="#i"/>
	</clipPath>
	<path class="st0" d="m66.5 74.1c0.3-0.1 0.6-0.3 0.9-0.4 0.1 0 0.2-0.1 0.3-0.1 0.6-0.3 1.1-0.7 1.7-1-0.7 0.3-1.4 0.5-2.2 0.7-8.8 2.4-18.4-0.3-24.8-6.7-2.2-2.3-4.1-4.9-5.3-7.8-1.1-2.7-1.8-5.6-2-8.4-0.1 1.1-0.1 2.2-0.1 3.4v0.8 1.7 0.2l0.1 0.5c0 0.1 0 0.2 0.1 0.2l0.5 1.4c0.9 2.6 2.3 5.1 4 7.3 1.7 2.3 3.7 4.3 6 5.9 1.7 1.2 3.5 2.1 5.4 2.8 1.4 0.5 2.9 0.9 4.3 1.1 1.4 0.3 2.9 0.3 4.4 0.3 0.7 0 1.3 0 2-0.1 0.1 0 0.3 0 0.4-0.1 1.1-0.3 2.2-0.7 3.3-1.1 0.4-0.3 0.7-0.4 1-0.6m-26.4-41.1c1.4-2 3.2-3.8 5.2-5.3-0.7 0.5-1.5 1-2.2 1.6-1.8 1.5-3.4 3.2-4.7 5.2-1.6 2.4-2.9 4.9-3.7 7.5 1-2.6 2.4-5 4.2-7.1 0.4-0.7 0.8-1.3 1.2-1.9"/>
	<defs>
		<rect id="g" x="33.2" y="23.1" width="83.7" height="53.7"/>
	</defs>
	<clipPath id="f">
		<use xlink:href="#g"/>
	</clipPath>
	<path class="st1" d="m65.2 72.2c3.6-0.6 7.1-2 10-4.1 0.5-0.5 0.9-1 1.3-1.5-4.4 3.1-10 5.3-15.4 5.9 1.4 0.1 2.7 0 4.1-0.3m17.4-34.3h0.1c-0.5-0.8-1.2-1.7-1.8-2.4-1.1-1.5-2.4-2.8-3.8-4-4.5-3.8-10.4-5.8-16.2-5.8h-0.9c-2.8 0-5.5 0.4-8.1 1.2l-0.7 0.2h0.2c0.2 0 0.3-0.1 0.5-0.1 0.1 0 0.2 0 0.3-0.1l0.4-0.1c0.1 0 0.2 0 0.3-0.1 0.1 0 0.3-0.1 0.4-0.1h0.3c0.1 0 0.3 0 0.4-0.1h0.3c0.2 0 0.3 0 0.5-0.1h0.2l0.7-0.1c5.3-0.6 10.8 0.2 15.3 2.8 0.1 0 0.1 0.1 0.2 0.1l1.3 0.7c3.1 1.8 5.7 4.3 7.8 7.3 0.1 0.2 0.3 0.4 0.4 0.6h1.9"/>
	<defs>
		<rect id="e" x="33.2" y="23.1" width="83.7" height="53.7"/>
	</defs>
	<clipPath id="d">
		<use xlink:href="#e"/>
	</clipPath>
	<path class="st2" d="m40.4 36.9c-2.1 2.8-3.7 6-4.6 9.4-0.3 1.3-0.5 2.6-0.7 3.9 0.2 2.9 0.8 5.7 2 8.4 1.2 2.9 3.1 5.6 5.3 7.8 6.4 6.5 16 9.1 24.8 6.7 0.7-0.2 1.4-0.4 2.2-0.7 0.2-0.1 0.3-0.2 0.5-0.3 1.9-1.1 3.7-2.5 5.3-4.2-3 2.1-6.4 3.6-10 4.1-1.3 0.2-2.7 0.3-4 0.3-6.5 0.1-12.8-2.5-17.2-7.3-5-5.3-7.3-12.8-6.1-20.1 0.7-4.1 2.5-7.8 5.1-11-0.9 1-1.8 2-2.6 3"/>
	<defs>
		<rect id="c" x="33.2" y="23.1" width="83.7" height="53.7"/>
	</defs>
	<clipPath id="b">
		<use xlink:href="#c"/>
	</clipPath>
	<path class="st3" d="m40.1 33-1.2 1.8c2.8-3.3 6.6-5.9 10.8-7.3 0.2-0.1 0.5-0.1 0.7-0.2h0.1c0.2-0.1 0.4-0.1 0.6-0.2h0.1l0.7-0.2c2.6-0.8 5.3-1.2 8.1-1.2h0.9c5.8-0.1 11.7 1.9 16.2 5.8 1.4 1.2 2.7 2.5 3.8 4 0.6 0.8 1.2 1.6 1.8 2.4h1.1c-0.1 0-0.2-0.5-0.3-0.6-0.4-0.8-0.8-1.6-1.3-2.4-0.6-0.9-1.2-1.8-1.9-2.6-1.3-1.6-2.9-3.1-4.6-4.3s-3.6-2.2-5.5-2.9c-2-0.8-4-1.3-6.1-1.6-3-0.4-6-0.4-8.9 0.1-2 0.3-4 0.8-5.8 1.7-1.4 0.7-2.8 1.6-4 2.5-2.1 1.5-3.9 3.2-5.3 5.2"/>
	<defs>
		<rect id="a" x="33.2" y="23.1" width="83.7" height="53.7"/>
	</defs>
	<clipPath id="r">
		<use xlink:href="#a"/>
	</clipPath>
	<path class="st4" d="m76.5 66.6c-0.4 0.5-0.9 1-1.3 1.5-1.6 1.6-3.4 3-5.3 4.2-0.2 0.1-0.3 0.2-0.5 0.3-0.5 0.3-1.1 0.7-1.7 1-0.1 0-0.2 0.1-0.3 0.1-0.3 0.1-0.6 0.3-0.9 0.4l-0.9 0.4c-1.1 0.4-2.2 0.8-3.3 1.1-0.4 0.1-0.7 0.2-1.1 0.3-1.1 0.2-2.1 0.5-3.2 0.6-0.6 0.1-1 0.1-1 0.1s0.3 0.1 1 0.1c2.4 0.3 5 0 7.4-0.5 0.7-0.2 1.5-0.4 2.2-0.6s1.4-0.5 2.1-0.8 1.4-0.7 2-1c0.7-0.4 1.3-0.8 1.9-1.2s1.2-0.9 1.8-1.4 1.2-1 1.7-1.6c0.5-0.5 1.1-1.1 1.6-1.7s1-1.2 1.4-1.9c0.5-0.6 0.9-1.3 1.3-2 0.1-0.2 0.2-0.3 0.3-0.5 0.2-0.3 0.3-0.6 0.5-0.9h-3.1c-0.6 1.4-1.5 2.8-2.6 4m-41.3-16.3c0.1-1.3 0.3-2.6 0.7-3.9 0.9-3.4 2.4-6.7 4.6-9.4 0.8-1 1.7-2 2.6-2.9l0.1-0.1c2.1-2 4.5-3.6 7.2-4.8 0.5-0.2 0.9-0.4 1.4-0.5 5.4-1.9 11.4-1.6 16.6 0.9 3.3 1.5 5.9 3.8 8.2 6.5 0.5 0.6 0.9 1.2 1.4 1.8h2.9c-0.1-0.2-0.3-0.4-0.4-0.6-2.1-3-4.7-5.5-7.8-7.3l-1.3-0.7c-0.1 0-0.1-0.1-0.2-0.1-1.6-0.9-3.3-1.5-5-2-1.8-0.5-3.6-0.8-5.4-0.9-3-0.2-6 0.1-8.8 0.8-0.8 0.2-1.6 0.4-2.4 0.7-1.6 0.6-3.2 1.3-4.7 2.2-1.4 0.9-2.8 1.9-4 3.1-0.6 0.6-1.2 1.2-1.8 1.9-1.8 2.1-3.2 4.5-4.2 7.1-0.5 1.4-0.9 2.9-1.2 4.4-0.8 4.5-0.2 9.2 1.5 13.4 0.1 0.3 0.3 0.6 0.4 0.9 0 0.1 0.1 0.2 0.1 0.3 0.1 0.2 0.3 0.5 0.4 0.7 0 0-0.1-0.2-0.2-0.6 0-0.2-0.1-0.4-0.2-0.7-0.5-1.9-0.5-3.9-0.5-5.9v-0.8c-0.1-1.3-0.1-2.4 0-3.5"/>
<path class="st5" d="m61.6 42.6v-1.1h-4.4v7.7h4.4v-1.1h-3.1v-2.4h2.9v-1.1h-2.9v-2.1l3.1 0.1z"/>
	<defs>
		<rect id="q" x="33.2" y="23.1" width="83.7" height="53.7"/>
	</defs>
	<clipPath id="p">
		<use xlink:href="#q"/>
	</clipPath>
	<path class="st6" d="m67.8 49c0.5-0.2 0.8-0.6 1.1-1 0.2-0.4 0.4-0.9 0.4-1.5v-5h-1.3v4.9c0 1.3-0.6 1.9-1.8 1.9-0.6 0-1.1-0.1-1.4-0.5-0.3-0.3-0.5-0.8-0.5-1.4v-4.9h-1.3v5c0 0.9 0.3 1.6 0.8 2.1s1.3 0.8 2.2 0.8c0.8 0 1.4-0.1 1.8-0.4m4.7-6.4h0.8c0.6 0 1 0.1 1.3 0.3s0.4 0.5 0.4 1c0 0.4-0.1 0.8-0.4 1s-0.7 0.3-1.3 0.3h-0.9l0.1-2.6zm0 3.6h1.3l1.9 3.1h1.3l-2.2-3.4c1-0.4 1.5-1.1 1.5-2.1 0-0.8-0.2-1.3-0.7-1.7s-1.2-0.6-2.2-0.6h-2.2v7.7h1.3v-3zm10.6-3c0.4 0.5 0.6 1.2 0.6 2.2s-0.2 1.7-0.6 2.2-1 0.7-1.7 0.7-1.3-0.2-1.7-0.7-0.6-1.2-0.6-2.2 0.2-1.7 0.6-2.2 1-0.7 1.7-0.7c0.8 0 1.3 0.3 1.7 0.7m-4.4-0.8c-0.6 0.7-1 1.7-1 2.9 0 1.3 0.3 2.3 0.9 3s1.5 1 2.7 1 2-0.4 2.7-1c0.6-0.7 1-1.7 1-2.9s-0.3-2.2-1-2.9-1.5-1-2.7-1c-1-0.1-1.9 0.3-2.6 0.9m13.2 6.6v-1c-0.3 0.1-0.6 0.2-1 0.3-0.3 0.1-0.6 0.1-1 0.1-0.8 0-1.3-0.2-1.7-0.7s-0.6-1.2-0.6-2.2c0-0.9 0.2-1.6 0.6-2.1s1-0.8 1.7-0.8c0.3 0 0.6 0 0.9 0.1s0.6 0.2 0.8 0.3l0.5-1c-0.7-0.3-1.4-0.5-2.2-0.5s-1.4 0.2-2 0.5-1 0.8-1.3 1.4-0.4 1.3-0.4 2.1c0 1.3 0.3 2.3 0.9 2.9 0.6 0.7 1.5 1 2.6 1 0.9 0 1.6-0.1 2.2-0.4"/>
<path class="st5" d="m94.8 45.8h3.6v3.5h1.3v-7.7h-1.3v3.2h-3.6v-3.2h-1.3v7.7h1.3v-3.5z"/>
	<defs>
		<rect id="o" x="33.2" y="23.1" width="83.7" height="53.7"/>
	</defs>
	<clipPath id="n">
		<use xlink:href="#o"/>
	</clipPath>
	<path class="st7" d="m103.8 44c0.2-0.5 0.3-1 0.4-1.4 0 0.1 0.1 0.4 0.2 0.7s0.2 0.5 0.2 0.7l0.7 2.1h-2.3l0.8-2.1zm-1 3.1h3l0.8 2.1h1.3l-2.9-7.8h-1.4l-2.9 7.8h1.3l0.8-2.1zm12.3-5.6-2.2 6.2-2.1-6.2h-1.8v7.7h1.1v-3.8c0-0.8 0-1.7-0.1-2.7l2.2 6.5h1.1l2.3-6.5v1.1 1.5 3.8h1.2v-7.7l-1.7 0.1zm-51.3 17.3h0.5v-7.8h-0.8l-2.7 6.8-2.7-6.8h-0.8v7.7h0.5v-5.7-1.3l2.9 7.2h0.3l2.9-7.1c0 0.4-0.1 0.9-0.1 1.3v5.7z"/>
<path class="st5" d="M69.2,58.8v-3l2.6-4.8h-0.6l-2.3,4.2L66.7,51H66l2.6,4.8v2.9H69.2z"/>
	<defs>
		<rect id="m" x="33.2" y="23.1" width="83.7" height="53.7"/>
	</defs>
	<clipPath id="l">
		<use xlink:href="#m"/>
	</clipPath>
	<path class="st8" d="m75 52.8 0.3-0.9c0.1 0.4 0.2 0.7 0.3 0.9l1 2.8h-2.8l1.2-2.8zm-1.3 3.2h3.1l1.1 2.7h0.6l-3-7.7h-0.3l-3.1 7.8h0.6l1-2.8zm11.3 0.1v1.8l-4.5-6.9h-0.5v7.7h0.5v-5c0-0.4 0-1-0.1-1.9l4.6 6.9h0.5v-7.7h-0.5v5.1zm6.4 1.7-2.8-6.8h-0.8v7.7h0.5v-5.7-1.3l2.9 7.2h0.3l2.9-7.1c0 0.4-0.1 0.9-0.1 1.3v5.9h0.5v-8h-0.8l-2.6 6.8zm9.8-2.2h-2.8l1.1-2.8 0.3-0.9c0.1 0.4 0.2 0.7 0.3 0.9l1.1 2.8zm-1.5-4.6-3.1 7.8h0.6l1.1-2.7h3.1l1.1 2.7h0.6l-3.1-7.8h-0.3zm6.5 3.9h-1.5v-3.4h1.3c0.8 0 1.4 0.1 1.7 0.4s0.5 0.7 0.5 1.3-0.2 1-0.5 1.3-0.9 0.4-1.5 0.4m2.2-0.4c0.3-0.4 0.4-0.8 0.4-1.3 0-0.7-0.2-1.2-0.7-1.6s-1.2-0.5-2.1-0.5h-1.8v7.7h0.5v-3.4h1.9l2 3.4h0.6l-2.1-3.5c0.6-0.2 1-0.5 1.3-0.8"/>
	<defs>
		<rect id="k" x="33.2" y="23.1" width="83.7" height="53.7"/>
	</defs>
	<clipPath id="j">
		<use xlink:href="#k"/>
	</clipPath>
	<path class="st9" d="m51.2 27.1h0.2-0.2"/>
</svg>
