<?xml version="1.0" encoding="UTF-8"?>
<svg enable-background="new 0 0 150 100" version="1.1" viewBox="0 0 150 100" xml:space="preserve" xmlns="http://www.w3.org/2000/svg">
<style type="text/css">
	.st0{fill:#603913;}
	.st1{fill:#FEE056;}
	.st2{fill:#FFFFFF;}
	.st3{fill:#FFE14F;}
	.st4{fill:#B4B4B4;}
	.st5{fill:#A7A9AC;}
	.st6{fill:#D1D3D4;}
	.st7{fill:#808285;}
	.st8{fill:#F3F3F3;}
	.st9{fill:#754D25;}
	.st10{fill:#DFB28B;}
	.st11{fill:#F0DCBF;}
	.st12{fill:#B28B74;}
	.st13{fill:#E6E7E8;}
	.st14{fill:#818181;}
	.st15{fill:#BCBEC0;}
	.st16{fill:#FFCC4E;}
	.st17{fill:#D2C1A9;}
	.st18{fill:#D09F76;}
	.st19{fill:#C36F67;}
	.st20{fill:#C72B2B;}
	.st21{fill:#B08875;}
	.st22{fill:#939598;}
</style>
<path class="st0" d="m77.3 35.2-5.6 0.5-0.3-4 5.6-0.5 0.3 4z"/>
<path class="st0" d="m89.1 19.2c0-0.4-0.3-0.7-0.7-0.7h-0.1c-0.3 0-0.5 0.2-0.6 0.4-0.1 0.1-0.6 0.5-2.2 0.7-1.1 0.2-1.9 1-2.4 2.3-1.1-0.9-2.2-1.1-3.2-1-0.5 0-1.1 0.2-1.6 0.4l-0.6 0.3c-0.2-0.6-0.8-1.1-1.5-1s-1.3 0.6-1.3 1.3c-0.6-0.7-1.6-1.2-2.6-1.1-1.7 0.1-2.9 1.6-2.8 3.3v0.1c-0.7 0.3-1.3 0.6-1.8 1.2-1.1 1.1-1.2 3.1-1.3 3.8v0.5l0.5 0.5c0 0.5 0.1 0.9 0.4 1.2l0.3 0.3-0.3 0.9c-0.1 0.1-0.2 0.3-0.2 0.4-0.1 0-0.1 0.1-0.2 0.3l-0.9 1.8c0-0.1-0.1-0.1-0.1-0.2-0.2-0.2-0.5-0.3-0.7-0.3s-0.5 0.1-0.6 0.3c-0.2 0.2-0.2 0.4-0.3 0.6-0.1 0.1-0.3 0.2-0.4 0.3-0.3 0.3-0.4 0.7-0.4 1.1s0.2 0.8 0.5 1c0.3 0.3 0.7 0.4 1.1 0.4s0.7-0.2 1-0.5c0.1-0.1 0.2-0.3 0.3-0.4 0.3 0.3 0.7 0.5 1.1 0.7l-0.3 0.2 1.1 0.2c0.7 0.2 1.5 0.3 2.3 0.3h0.1c0.4 0 0.7-0.2 0.9-0.5 0.1-0.1 0.1-0.2 0.1-0.3l0.6-0.3c0.4-0.3 0.5-0.8 0.5-1.3v-0.1c0.2-0.1 0.4-0.3 0.5-0.6 0.1-0.4-0.1-1-0.6-1.2-0.1 0-0.3-0.1-0.4 0 0-0.1 0-0.2-0.1-0.3 0.1-0.3 0.2-0.6 0.2-1 0-0.3 0.1-0.6 0-0.9 0.3 0.4 0.9 0.7 1.4 0.6 0.3 0 0.5-0.1 0.7-0.2v0.1c0 0.2 0.1 0.4 0.3 0.6-0.4 0.2-0.7 0.6-0.6 1 0 0.6 0.6 1 1.1 0.9s1-0.6 0.9-1.1c0-0.2-0.1-0.4-0.2-0.5 0.4-0.1 0.7-0.5 0.7-0.9 0.1 0.9 0 1.8-0.3 2.5-1.2 0.1-2.1 0.6-2.3 1.3h-0.1v0.4l0.1 3.6c0 0.2 0 0.4 0.1 0.5 0.2 0.4 0.5 0.6 0.9 0.7 0.2 0.1 0.6 0.1 1 0.2 0.1 0.2 0.2 0.4 0.4 0.5 0.3 0.3 0.8 0.3 1.3 0.3 0.1 0 0.3 0 0.5-0.1 0.1 0.1 0.1 0.2 0.2 0.3 0 0 0 0.1 0.1 0.1 0 0 0 0.1 0.1 0.1l0.1 0.1v0.1c0.3 0.4 0.8 0.6 1.2 0.6h0.2c2.7-0.6 4.7-1.8 5.9-3.8 0.3-0.5 0.6-1 0.8-1.6 0.1 0 0.3 0.1 0.4 0 0.6-0.1 1.1-0.6 1-1.2 0-0.5-0.5-1-1-1 0.2-1.5 0.1-3.1-0.3-4.9-0.1-0.3-0.2-0.6-0.3-0.8 0.7-0.1 1.1-0.7 1.1-1.4-0.1-0.7-0.7-1.3-1.4-1.2h-0.3v-0.1c0-0.6-0.6-1-1.2-1-0.1 0-0.2 0-0.3 0.1v-0.1-0.1-0.1s0-0.1 0-0.1v-0.2-0.1-0.1-0.1-0.1-0.1s0-0.1-0.1-0.1v-0.1c0.2-0.2 0.3-0.5 0.3-0.7 0.1-0.2 0.2-0.4 0.2-0.6 0.2-0.1 0.5-0.2 0.8-0.2 0.2 0 0.5-0.1 0.7-0.2 1.3-0.4 2.1-1.3 2.4-2.4 0.4-1 0.3-2 0.2-2.5z"/>
<path class="st1" d="m60.7 81.2c-0.8 0-1.5-0.7-1.5-1.5v-40.6c0-0.7 0.5-1.3 1.1-1.4 2.8-0.7 10.1-2.2 18.1-2.2 4.5 0 8.7 0.5 12.3 1.4 0.6 0.2 1.1 0.7 1.1 1.4v41.4c0 0.8-0.7 1.5-1.5 1.5h-29.6z"/>
<path class="st0" d="m78.5 35.1v0.7c4.5 0 8.6 0.5 12.2 1.4 0.5 0.1 0.8 0.6 0.8 1.1v41.4c0 0.6-0.5 1.1-1.1 1.1h-29.7c-0.6 0-1.1-0.5-1.1-1.1v-40.6c0-0.5 0.3-1 0.8-1.1 2.8-0.7 10-2.2 18.1-2.2v-0.7c-8.1 0-15.3 1.5-18.2 2.2-0.8 0.2-1.4 0.9-1.4 1.8v40.6c0 1 0.8 1.8 1.8 1.8h29.7c1 0 1.8-0.8 1.8-1.8v-41.4c0-0.8-0.6-1.6-1.4-1.8-4-1-8.3-1.4-12.3-1.4z"/>
<path class="st0" d="m88.4 65.3h-0.3-0.3-0.2-2.6c-0.2 0-0.4 0.1-0.6 0.1h-0.2-0.2c-0.7 0-1.3-0.4-1.5-1.1 0-0.1-0.1-0.4-0.1-0.7v-0.3-1-1-0.4-0.4-0.3-0.7c0.1-0.4 0.1-0.7 0-1.2v-1-0.4c-0.1-0.3-0.1-0.5-0.1-0.6v-0.4c-0.2-0.7 0-1.4 0.6-1.8l0.4-0.4c-0.1 0-0.3-0.1-0.5-0.2-0.4 0-0.7-0.2-0.9-0.5-0.3-0.4-0.4-0.8-0.2-1.3 0-0.1 0-0.1 0.1-0.1 0-0.2 0.1-0.4 0.1-0.5v-0.1c0-0.1 0.1-0.2 0.1-0.3 0.1-0.6 0.3-1.2 0.6-1.7 0.1-0.3 0.1-0.6 0.2-0.8s0.1-0.4 0.2-0.5c0 0 0-0.1 0.1-0.1 0-0.1 0-0.1 0.1-0.2s0.1-0.3 0.1-0.4c0-0.3 0.1-0.6 0.2-0.7v-0.1-0.1c0-0.2 0.1-0.4 0.2-0.7 0-0.1 0.1-0.3 0.1-0.4 0.1-0.2 0.1-0.4 0.2-0.6 0.1-0.3 0.2-0.5 0.2-0.7s0.1-0.4 0.2-0.6c0-0.4 0.2-0.7 0.4-1 0.3-0.3 0.7-0.5 1.1-0.5h0.5 1.4c0.3 0 0.6 0.1 0.8 0.1h0.3 0.1c0.3-0.1 0.6-0.1 0.8-0.1h0.1 0.6 0.4 0.3c0.1 0 0.2 0 0.3 0.1h0.1 0.8 0.3c0.6 0 1.1 0.3 1.4 0.8 0 0.1 0.1 0.2 0.2 0.5 0 0.1 0.1 0.2 0.1 0.3 0.1 0.2 0.2 0.5 0.3 0.9 0 0.1 0.1 0.3 0.2 0.5 0.1 0.1 0.1 0.3 0.2 0.4 0.1 0.3 0.2 0.7 0.3 1 0 0.1 0.1 0.3 0.1 0.4 0.2 0.8-0.2 1.6-0.9 1.9-0.1 0-0.3 0.1-0.6 0.1-0.4 0-0.7 0.1-1.1 0.1-0.2 0-0.4 0-0.6 0.1h-0.1-0.4c-0.6 0-1.1-0.1-1.5-0.2-0.7-0.2-1.2-0.8-1.3-1.5h-0.3-0.1c0 0.3 0 0.5-0.1 0.8 0 0.4-0.1 0.7-0.2 1 0 0.1-0.1 0.2-0.1 0.3-0.1 0.3-0.1 0.6-0.3 0.9 0.1 0 0.2 0.1 0.2 0.1 0.1-0.1 0.2-0.1 0.3-0.2 0.2-0.1 0.4-0.1 0.6-0.2 0.1 0 0.3-0.1 0.3-0.1 0.3-0.1 0.6-0.3 0.9-0.4l0.1-0.1c0.3-0.1 0.5-0.2 0.8-0.2 0.8 0 1.6 0.6 1.8 1.4 0 0.1 0 0.2 0.1 0.3 0 0.2 0.1 0.3 0.1 0.4 0.2 0.3 0.2 0.6 0.2 0.8v0.1c0.3 0.8 0 1.5-0.8 2-0.1 0.1-0.2 0.1-0.2 0.2-0.2 0.2-0.5 0.3-0.8 0.5-0.4 0.3-0.9 0.6-1.3 0.8-0.3 0.1-0.5 0.3-0.7 0.4-0.7 0.4-1.4 0.8-2 1.2v0.4 0.2 1.7c0.2 0 0.4 0.1 0.6 0.1h0.4 0.1c0.2-0.1 0.3-0.1 0.5-0.1v-0.2c-0.1-0.2-0.1-0.4-0.1-0.6-0.1-0.8 0.3-1.5 1.1-1.8 0.2-0.1 0.5-0.1 0.7-0.2l0.3-0.1c0.1 0 0.2-0.1 0.3-0.1 0.2-0.1 0.4-0.1 0.6-0.2l0.4-0.1c0.2-0.1 0.3-0.1 0.4-0.1h0.2c0.8 0 1.5 0.6 1.6 1.4v0.2 0.1 0.3c0 0.1 0.1 0.6-0.2 1v0.1c0 0.1 0 0.2-0.1 0.4v0.6 0.2 0.6 0.8 0.3c0 0.5-0.1 0.9-0.2 1.1v0.2 0.5c0 0.7-0.5 1.2-1.2 1.4-0.1 0-0.3 0.1-0.5 0.1h-0.2-0.4c-0.2 0-0.4 0-0.7 0.1h-0.1c-0.4 0-0.8 0.1-1.1 0.1h-0.5-0.4-0.6c0.2-0.1 0.1-0.1 0-0.1z"/>
<path class="st0" d="m82.9 52c0-0.2 0.2-0.3 0.1-0.4 0-0.1 0-0.2 0.1-0.3 0-0.2 0.1-0.4 0.1-0.6 0.1-0.4 0.2-0.9 0.4-1.3 0-0.1 0.1-0.1 0.1-0.2l0.3-0.9c0-0.2 0.1-0.4 0.2-0.6l0.3-0.9c0-0.2 0.2-0.5 0.2-0.7 0.1-0.2 0.1-0.5 0.1-0.7 0.1-0.2 0.1-0.4 0.2-0.6 0.1-0.5 0.3-1 0.4-1.5 0-0.1 0-0.1 0.1-0.1 0.2-0.1 0.2-0.3 0.1-0.5 0-0.1 0.1-0.1 0.1-0.1h1.9c0.2 0 0.4 0.1 0.6 0.1 0.1 0 0.3 0.1 0.4 0h0.2 0.4c0.2-0.1 0.4-0.1 0.6-0.1h0.9 0.2c0.3 0 0.5 0.1 0.8 0.1h0.8 0.2c0.1 0 0.2 0.1 0.3 0.1 0 0 0 0.1 0.1 0.1 0.1 0.4 0.3 0.7 0.4 1.1s0.3 0.8 0.4 1.2c0.2 0.4 0.3 0.8 0.4 1.3 0 0.1 0 0.1-0.1 0.2-0.1 0-0.1 0.1-0.2 0.1-0.3 0-0.7 0.1-1 0.1-0.2 0-0.4 0-0.6 0.1-0.5 0-1 0-1.5-0.2-0.1 0-0.2-0.1-0.2-0.2v-0.7s0-0.3-0.2-0.4c-0.1 0-0.2-0.1-0.3-0.1-0.6-0.1-1.3-0.2-1.9 0-0.3 0-0.6 0.2-0.8 0.4 0 0.1 0.1 0.1 0.1 0.1v0.2c-0.1 0.1-0.1 0.2-0.1 0.4 0 0.3 0.1 0.6-0.1 0.9 0 0.4-0.2 0.8-0.3 1.3-0.1 0.3-0.1 0.6-0.3 0.8v0.1c0 0.2-0.1 0.4-0.1 0.7 0 0.1 0 0.2 0.1 0.3 0.2 0.2 0.4 0.4 0.7 0.5 0.2 0.1 0.4 0.2 0.5 0.3l0.2 0.2c0.2 0.1 0.4 0.1 0.6 0l0.1-0.1c0.1 0 0.2-0.1 0.2-0.2s0.1-0.1 0.1-0.1c0.1 0 0.2-0.1 0.4-0.1s0.5-0.1 0.7-0.2c0.3-0.2 0.6-0.3 0.9-0.4s0.6 0 0.7 0.3 0.1 0.7 0.3 1c0.1 0.1 0.1 0.3 0.1 0.4v0.3c0.1 0.2 0 0.4-0.2 0.5-0.3 0.2-0.6 0.5-1 0.6-0.6 0.5-1.3 0.8-2 1.2s-1.4 0.9-2.2 1.3c-0.4 0.2-0.5 0.5-0.5 0.9v0.8 1.5 1.2c0 0.1 0 0.2-0.1 0.3 0 0.1 0 0.2 0.1 0.3s0.3 0.1 0.3 0l0.1-0.1c0.1-0.1 0.1-0.1 0.3-0.1 0.3 0 0.5 0.1 0.8 0.1 0.2 0.1 0.5 0.2 0.8 0.1h0.3c0.2 0 0.3 0 0.5-0.1s0.5-0.1 0.7 0 0.4 0.1 0.7 0.1c0.1 0 0.3-0.2 0.3-0.4-0.2-1.1-0.2-1.7-0.4-2.3 0-0.1-0.1-0.3-0.1-0.4s0-0.2 0.1-0.2c0.2-0.1 0.4-0.1 0.7-0.2 0.2-0.1 0.4-0.1 0.7-0.2s0.7-0.2 1-0.3h0.1c0.1 0 0.2 0.1 0.2 0.2v0.2 0.4 0.2c-0.2 0.3-0.1 0.6-0.3 0.9v0.1c0.1 0.4 0 0.7 0 1.1v0.3 0.2c0.1 0.4 0 0.8 0 1.2 0 0.2 0 0.4-0.1 0.6s-0.1 0.5-0.1 0.7v0.2s0 0.2 0 0.2c-0.1 0-0.2 0.1-0.3 0h-0.6c-0.3 0-0.6 0-0.8 0.1-0.5 0.1-1.1 0.1-1.6 0.1-0.4 0-0.7 0-1.1 0.1h-0.3c-0.2 0-0.4-0.1-0.6-0.1h-2.7-0.3c-0.2 0.1-0.5 0-0.7 0-0.1 0-0.2-0.1-0.2-0.2s-0.1-0.2-0.1-0.3v-1.2-0.1c-0.1-0.5 0.1-1 0-1.5 0-0.2 0-0.5-0.1-0.7v-0.3c0.1-0.6 0.1-1.1 0-1.6v-0.6c0-0.3 0.1-0.6 0-1v-0.4-0.6c0-0.2 0-0.3 0.1-0.4 0.2-0.2 0.4-0.3 0.6-0.5h0.1c0.2 0.1 0.3-0.1 0.4-0.2 0.2-0.2 0.5-0.4 0.7-0.6l0.1-0.1c0.2 0 0.3-0.1 0.3-0.3 0-0.1 0.1-0.1 0.2-0.2s0.1-0.2 0-0.3c-0.3-0.1-0.6-0.3-0.9-0.4-0.1 0-0.2-0.1-0.4-0.1-0.1 0-0.2-0.1-0.3-0.1h-0.6c-0.2 0-0.4-0.1-0.6-0.2-0.1 0-0.2 0.1-0.4 0.1zm3.8-1.1-0.3-0.3s-0.1 0-0.1 0.1v0.1c0.2 0.1 0.3 0.1 0.4 0.1zm-23.9 14.9c-0.2 0-0.3 0-0.5-0.1h-0.4-0.1-0.4-0.1c-0.2 0-0.4 0-0.6-0.1s-0.4-0.1-0.6-0.1-0.4 0-0.6-0.1c-0.2 0.1-0.3 0.1-0.5 0.1h-0.4-0.3-0.5c-0.3-0.1-0.5-0.2-0.6-0.3-0.4-0.3-0.6-0.7-0.6-1.1v-0.3-0.8-0.5-0.1-0.1-0.1c0-0.6 0-1.1 0.1-1.6v-0.2c0-0.6 0-1.3 0.1-1.9v-0.4-0.3-0.6c-0.3-0.2-0.6-0.3-0.8-0.5v-0.3c-0.1-0.1-0.2-0.1-0.3-0.2s-0.2-0.1-0.3-0.2c-0.7-0.3-1.1-1-1-1.7 0-0.1 0-0.3 0.1-0.5 0.1-0.4 0.2-0.8 0.3-1.3 0.1-0.8 0.7-1.4 1.5-1.4 0.2 0 0.3 0 0.5 0.1 0.3 0.1 0.6 0.2 0.8 0.3 0-0.1 0-0.2 0.1-0.3v-0.4c0-0.3 0-0.7 0.1-1 0-0.5 0.1-1 0.1-1.5v-0.2c0-0.3 0.1-0.6 0.1-0.9s0.1-0.5 0.1-0.8l0.1-0.6c0-0.3 0.1-0.6 0.2-0.8 0-0.1 0-0.1 0.1-0.2 0.1-0.4 0.3-0.7 0.7-0.9l0.1-0.1c0.2-0.2 0.6-0.5 1.1-0.6 0.6-0.1 1.1-0.3 1.7-0.5h0.1c0.6-0.2 1.2-0.3 1.8-0.4 0.2 0 0.4-0.1 0.5-0.1 0.4-0.2 0.9-0.3 1.3-0.3 0 0 0.1 0 0.2-0.1 0.3-0.1 0.7-0.3 1.2-0.3 0.2-0.1 0.5-0.2 0.9-0.2h0.2 0.1c0.1 0 0.2-0.1 0.3-0.1s0.3-0.1 0.4-0.1c0.7 0 1.2 0.4 1.5 1 0.2 0.5 0.2 0.9 0.2 1.2v0.3 0.7c0 0.3 0 0.6-0.1 1 0 0.4-0.3 0.9-0.7 1.1-0.1 0.1-0.3 0.3-0.6 0.4s-0.6 0.2-0.9 0.3c-0.2 0.1-0.5 0.1-0.7 0.2-0.2 0-0.3 0.1-0.5 0.1-0.3 0.1-0.5 0.1-0.8 0.1h-0.1c-0.1 0.1-0.3 0.1-0.4 0.2-0.3 0.1-0.6 0.2-0.7 0.2h-0.1-0.3c-0.3 0.1-0.5 0.2-0.6 0.2s-0.3 0.1-0.3 0.1c-0.3 0.1-0.6 0.2-0.8 0.2h-0.2-0.1c-0.1 0.1-0.2 0.1-0.4 0.2 0 0.3-0.1 0.5-0.1 0.8v0.3c0.1 0.4 0 0.8 0 1.1v0.2c0 0.3 0 0.6-0.1 0.8v0.2c0 0.2 0 0.5-0.1 0.7 0.3 0.2 0.7 0.3 1 0.5 0.1 0 0.1 0.1 0.2 0.1 0.2 0 0.3 0 0.5 0.1l0.6 0.3c0.2 0.1 0.3 0.2 0.4 0.3 0.2 0.1 0.3 0.1 0.4 0.2s0.4 0.1 0.6 0.3c0.3 0.2 0.6 0.6 0.7 0.9 0.1 0.2 0.1 0.4 0.1 0.5v0.1c0 0.1 0.1 0.2 0.1 0.4v0.6c0 0.6 0.1 1.2 0 1.9v0.5 0.4 0.2 0.4c0.1 0.3 0.1 0.5 0 0.6v0.6c0 0.3 0 0.6-0.1 0.9v0.3 0.9c0 0.3 0 0.4-0.1 0.6 0 0.3-0.2 0.7-0.4 0.9-0.3 0.3-0.7 0.5-1.1 0.5h-0.9c-0.2 0-0.3 0-0.5-0.1-0.2 0.1-0.4 0.1-0.6 0.1h-0.1c0.2 0.1 0 0.1-0.2 0.1zm-0.9-5.1h0.3 0.1 0.1c0-0.1 0.1-1 0.1-1 0-0.1 0-0.3 0.1-0.4v-0.4c-0.2-0.1-0.5-0.2-0.7-0.4-0.1 0-0.2-0.1-0.3-0.2 0 0.4 0 0.8-0.1 1.2 0 0.2 0 0.5-0.1 0.8 0 0.1 0.1 0.2 0.1 0.3 0.1 0 0.4 0.1 0.4 0.1z"/>
<path class="st0" d="m66.2 45.8c-0.1 0.2-0.2 0.4-0.4 0.4-0.2 0.1-0.4 0.1-0.6 0.2-0.2 0-0.5 0-0.7 0.2h-0.2c-0.2 0.1-0.4 0.1-0.7 0.2-0.2 0.1-0.5 0.1-0.8 0.2h-0.2c-0.2 0-0.3 0.2-0.5 0.2s-0.3 0-0.5 0.1-0.3 0.3-0.4 0.5c-0.1 0.6-0.1 1.2-0.2 1.8v0.1c0.1 0.4 0 0.8 0 1.3 0 0.3-0.1 0.5-0.1 0.8s0 0.5-0.1 0.8c0 0.2 0 0.5-0.1 0.7 0 0.1 0 0.2 0.1 0.3s0.3 0.2 0.4 0.2c0.6 0.2 1.1 0.6 1.7 0.9 0.1 0 0.1 0.1 0.2 0l0.6 0.3v0.1c0 0.3 0.2 0.3 0.4 0.3h0.2c0.2 0.2 0.5 0.2 0.8 0.4 0.1 0 0.1 0.1 0.2 0.2 0.1 0.2 0.1 0.4 0.1 0.5v0.1c0 0.7 0.2 1.5 0.1 2.2 0 0.3 0 0.7-0.1 1v0.4 0.4 0.3c0 0.5-0.1 1-0.1 1.5v1.3c0 0.1-0.1 0.3-0.1 0.4s-0.1 0.1-0.2 0.1h-0.8c0.1-0.2 0.2-0.1 0.4-0.2-0.2-0.1-0.3-0.1-0.4 0-0.2 0-0.3 0.1-0.5 0.1h-0.2c-0.2 0.2-0.5 0.1-0.8 0.2h-0.3c-0.4-0.1-0.8-0.1-1.2-0.1h-0.2c-0.5-0.2-1.1-0.2-1.6-0.3-0.2 0-0.4-0.1-0.6 0.1h-0.1c-0.3-0.1-0.6 0-0.9-0.1l-0.1-0.1v-1c0-0.2 0-0.4 0.1-0.6v-0.3c0-0.5 0-1 0.1-1.4v-0.4c0-0.6 0-1.2 0.1-1.8v-0.9-0.6-0.6c0-0.2-0.1-0.3-0.3-0.4-0.5-0.2-0.9-0.5-1.4-0.8-0.3-0.2-0.5-0.4-0.8-0.5-0.1 0-0.1-0.1-0.1-0.3 0-0.1 0-0.2 0.1-0.3l0.3-1.5c0-0.2 0.1-0.2 0.3-0.2 0.3 0.1 0.6 0.2 0.9 0.3 0.2 0.1 0.3 0.1 0.5 0.2s0.3 0.2 0.3 0.4c0 0.1 0.1 0.2 0.2 0.2 0.3 0.1 0.3 0.1 0.6 0.1 0-0.1 0.1-0.2 0.1-0.3 0.1-0.1 0.1-0.2 0-0.3-0.1-0.3-0.2-0.6-0.1-0.8v-0.3c0-0.2 0-0.4 0.1-0.6v-0.1c0-0.5 0-1 0.1-1.5 0-0.6 0.1-1.1 0.1-1.7 0-0.3 0.1-0.6 0.1-0.9 0-0.2 0.1-0.5 0.1-0.7s0.1-0.5 0.1-0.7c0-0.3 0.1-0.6 0.2-0.8v-0.1c0.3-0.2 0.5-0.4 0.8-0.5 0.7-0.2 1.3-0.4 2-0.6 0.5-0.2 1-0.3 1.5-0.3 0.3 0 0.6-0.1 0.8-0.2 0.3-0.1 0.6-0.2 1-0.3 0.2 0 0.4-0.1 0.6-0.2s0.5-0.2 0.7-0.2 0.4 0 0.6-0.1 0.4-0.2 0.6-0.1h0.3l0.6-0.2c0.1 0 0.2 0 0.2 0.1 0.1 0.3 0.1 0.6 0.1 0.9v0.9 0.9s0 0.1-0.1 0.1c-0.1 0.1-0.2 0.1-0.3 0.2-0.3 0.1-0.5 0.2-0.8 0.3l-1.2 0.3c0 0.4-0.2 0.4-0.6 0.2zm-4 16.3h0.3 0.7c0.3 0 0.4-0.1 0.5-0.4 0-0.1 0-0.3 0.1-0.4 0-0.5 0.1-1 0.1-1.5v-0.1c0.1-0.3 0.1-0.7 0-1 0-0.4-0.2-0.7-0.6-0.8-0.3-0.1-0.5-0.2-0.7-0.4l-0.6-0.3c-0.3 0-0.6-0.3-0.9-0.4-0.1 0-0.3-0.1-0.4-0.1s-0.2 0-0.3 0.1c-0.1 0.2-0.2 0.3-0.3 0.5v0.1 1c0 0.4 0 0.7-0.1 1.1s-0.1 0.8-0.1 1.3c0 0.1 0 0.3 0.1 0.4 0 0 0.1 0.1 0.1 0.2v0.5c0 0.2 0.1 0.3 0.2 0.4h0.2 0.6c0.3-0.3 0.7-0.3 1.1-0.2z"/>
<path class="st0" d="m64.8 66.1c-0.4 0-0.8-0.1-1.2-0.2-0.5-0.2-0.8-0.7-0.9-1.2 0-0.5 0.3-1 0.7-1.3 0.4-0.2 0.8-0.3 1.3-0.3h0.5 0.2c0.8 0 1.4 0.7 1.4 1.5s-0.6 1.5-1.4 1.5h-0.1-0.5z"/>
<path class="st0" d="m64.1 64.6c0.4-0.2 0.8-0.1 1.2-0.1l0.1 0.1-0.1 0.1c-0.4 0-0.8 0.1-1.2-0.1zm12.9 0.1c-0.7 0-1.3-0.4-1.5-1 0-0.1-0.1-0.3-0.1-0.6v-0.1c0-0.3 0-0.8 0.1-1.2 0.1-0.2 0.1-0.4 0.1-0.7v-0.1c0-0.2 0-0.6 0.1-0.9 0-0.3 0.1-0.6 0.1-0.7v-0.1c0-0.4 0.1-0.7 0.1-1v-0.1c0-0.3 0.1-0.5 0.1-0.8 0-0.4 0.1-0.9 0.2-1.4 0-0.2 0-0.4 0.1-0.6v-0.5c0-0.3 0.1-0.6 0.1-0.9v-0.2-0.2c0-0.3 0.1-1.7 0.1-1.7 0-0.3 0-0.5 0.1-0.8v-1.3-0.2-1-0.7c0-0.6 0-1.3 0.1-1.9v-0.1h-0.1c-0.1 0-0.3 0.1-0.4 0.1h-0.3v0.2 0.4 0.8c0.1 0.6-0.1 1.1-0.3 1.3-0.1 0.1-0.3 0.4-0.6 0.6-0.2 0.1-0.5 0.2-0.6 0.3h-0.1c-0.1 0-0.3 0.1-0.6 0.1h-0.2-0.1c-0.2 0.1-0.5 0.1-0.7 0.1h-0.1c-0.3 0.1-0.5 0.1-0.7 0.2h0.1c-0.5 0-0.9-0.2-1.3-0.6-0.3-0.4-0.4-0.9-0.3-1.3 0.1-0.3 0.1-0.6 0.2-1 0.1-0.3 0.1-0.5 0.2-0.8 0-0.3 0.1-0.6 0.2-0.8v-0.1c0.1-0.3 0.1-0.6 0.1-0.9v-0.5c-0.1-0.1-0.3-0.3-0.4-0.5 0-0.1-0.1-0.4-0.1-0.7 0-0.5 0.2-1 0.6-1.3 0.5-0.4 1-0.6 1.6-0.6h0.2 0.1c0.2-0.1 0.3-0.1 0.5-0.1h0.3 0.1 0.3 0.1 0.4 0.5c0.4-0.1 0.7-0.1 1-0.1 0.1 0 0.4-0.1 0.6-0.1h0.4c0.2 0 0.4-0.1 0.7-0.1h0.5 0.2c0.1 0 0.3 0 0.4 0.1 0.2 0 0.3-0.1 0.5-0.1 0.3 0 0.6 0.1 0.8 0.1h0.1c0.7 0.1 1.2 0.7 1.3 1.5v0.3c0 0.3 0 0.5 0.1 0.8v2.3c0 0.5-0.1 1.1-0.1 1.5v0.5 0.1 0.8 0.3 0.7c0 0.3 0 0.7-0.1 1.2v0.6 0.5c0 0.2 0 0.5-0.1 0.8v0.4 1 1.2 1.4c-0.1 0.6-0.1 1.2-0.1 1.8 0 0.3 0 0.5-0.1 0.7v0.4 0.2c0 0.4 0 0.8-0.1 1.2v0.3 0.3 0.9c0 0.2 0 0.3-0.1 0.4-0.2 0.8-0.8 1.3-1.6 1.4h-0.4-0.3c-0.1 0-0.3 0.1-0.5 0.1h-0.1c-0.2 0-0.4 0-0.6 0.1-0.2 0.4-0.4 0.4-0.7 0.4z"/>
<path class="st0" d="m72.1 43c0-0.1-0.1-0.2-0.1-0.2 0-0.1 0-0.2 0.1-0.2 0.2-0.2 0.5-0.3 0.8-0.3s0.5 0 0.7-0.1h0.2c0.3 0.1 0.6 0 0.8 0s0.3 0 0.5-0.1h0.5 0.2c0.3-0.1 0.7-0.1 1-0.1 0.1 0 0.2 0 0.3-0.1 0.1 0 0.3-0.1 0.4 0 0.2 0 0.3 0 0.5-0.1 0.3-0.1 0.7 0 1 0 0.1 0 0.3 0.1 0.4 0.1h0.2c0.4-0.2 0.7 0 1 0.1 0.1 0 0.2 0.1 0.2 0.2 0 0.3 0.1 0.7 0.1 1v2.3c0 0.7-0.1 1.3-0.1 2v0.8c0 0.1-0.1 0.3-0.1 0.5v0.7 1 1.1c0 0.2 0 0.4-0.1 0.6v0.3 1.3c-0.1 0.9 0 1.7-0.1 2.6s-0.1 1.7-0.2 2.6v0.5c0 0.4 0 0.8-0.1 1.2v0.8 0.9 0.2c0 0.2-0.1 0.3-0.3 0.3h-0.4c-0.2 0-0.4 0-0.6 0.1h-0.1c-0.4 0-0.7 0.1-1.1 0.1-0.1 0-0.2 0-0.2 0.1-0.1 0-0.2 0-0.2-0.1v-0.1c0-0.3 0-0.7 0.1-1s0.1-0.7 0.2-1v-0.2c0-0.2 0-0.4 0.1-0.6v-0.2c-0.1-0.2 0-0.4 0-0.6v-0.2c0-0.4 0-0.7 0.1-1.1 0.1-0.7 0.1-1.4 0.2-2.2 0.1-0.4 0.1-0.8 0.1-1.2s0.1-0.7 0.1-1.1v-0.2c0-0.6 0.1-1.1 0.1-1.7 0-0.3 0-0.6 0.1-0.8 0.1-0.6 0-1.1 0-1.7s0.1-1.1 0.1-1.6c0-0.6 0-1.2 0.1-1.8 0-0.4 0.1-0.8 0.1-1.2 0-0.1 0-0.2-0.1-0.3 0-0.1-0.1-0.1-0.2-0.1-0.2 0.1-0.3 0.1-0.5 0.1h-0.2c-0.3 0.1-0.6 0-0.9 0.1h-0.2c-0.2-0.1-0.3 0-0.5 0h-0.4-0.2c-0.3 0-0.5 0.1-0.5 0.4v0.7 0.8 1c0 0.1 0.1 0.2 0 0.3l-0.3 0.3s-0.3 0.1-0.4 0.1h-0.2c-0.2-0.1-0.4 0-0.6 0.1-0.1 0-0.3 0.1-0.4 0.1-0.2 0-0.3 0.1-0.5 0.1h-0.2c-0.1 0-0.3-0.1-0.2-0.3 0.1-0.3 0.1-0.6 0.2-0.9s0.2-0.6 0.2-1c0-0.3 0.1-0.6 0.2-0.8 0.1-0.5 0.1-0.9 0.1-1.4 0-0.3 0-0.5 0.1-0.8 0-0.1 0-0.1 0.1-0.2 0-0.1 0-0.2-0.1-0.3s-0.2-0.1-0.3 0c-0.5 0.3-0.5 0.4-0.6 0.4z"/>
<path class="st0" d="m71.8 47c-0.4 0-0.8-0.2-1.1-0.5-0.2-0.2-0.4-0.7-0.3-1.4v-0.1-0.4c0-0.3 0.1-0.6 0.1-0.9s0.2-0.7 0.6-1c0.2-0.2 0.5-0.3 0.8-0.3h0.3c0.4 0.1 0.8 0.4 1 0.8 0 0.1 0.1 0.1 0.1 0.2 0.1 0.2 0.1 0.4 0.1 0.6v0.3 0.7c0 0.1 0 0.3-0.1 0.6-0.1 0.8-0.7 1.2-1.3 1.3-0.1 0.1-0.1 0.1-0.2 0.1z"/>
<path class="st0" d="m72 44.1v1c0 0.1 0 0.2-0.1 0.3 0 0.1 0 0.2-0.1 0.3-0.1-0.1 0-0.2 0-0.3v-0.5c0-0.3 0.1-0.6 0.1-0.9l0.1-0.1v0.2c0.1 0 0.1 0 0 0zm1.4 22c-0.2 0-0.4 0-0.6-0.1h-2.1-0.4-0.1-0.4c-0.3 0-0.5-0.1-0.7-0.1-0.3 0-0.6 0-0.9-0.1h-0.4-0.3-0.1c-0.8-0.1-1.4-0.7-1.4-1.5v-0.2c0-0.3 0-0.6-0.1-0.9v-0.7-0.1c0-0.8 0.8-1.5 1.6-1.5h0.3 0.1 0.3c-0.1-0.1-0.3-0.2-0.4-0.3-0.2-0.2-0.4-0.6-0.4-1.2 0-0.1 0-0.2 0.1-0.4v-0.6-0.4c0-1.1 0.6-1.7 1.7-1.8h0.1c0.2-0.1 0.4-0.1 0.5-0.2 0.4-0.1 0.8-0.2 1.1-0.4h0.1c0.1 0 0.1-0.1 0.3-0.2v-0.7c-0.2 0.1-0.4 0.2-0.7 0.2-0.1 0.1-0.3 0.2-0.5 0.2h-0.2c-0.2 0-0.4 0.1-0.7 0.1h-0.3c-0.4 0.1-0.9 0.1-1.4 0.1h-0.3c-0.8-0.1-1.4-0.7-1.4-1.5v-0.1-0.8c0-0.3 0.1-0.6 0.1-0.8v-0.3c0-1 0.5-1.5 1.4-1.7h0.1c0.2 0 0.4-0.1 0.5-0.1h0.1 0.3 0.1 0.3 0.4c0.1 0 0.2 0 0.3-0.1 0.2-0.1 0.4-0.1 0.6-0.1h0.3c0.2 0 0.5 0 0.7-0.1 0.1 0 0.3-0.1 0.4-0.1h0.2c0.1 0 0.1 0 0.2-0.1 0.1 0 0.3-0.1 0.5-0.1h0.2 0.6 0.3s0.1 0 0.1-0.1c0.1 0 0.3-0.1 0.7-0.1h0.3 0.4 0.2 0.1c0.1 0 0.2 0 0.3-0.1s0.2 0 0.3 0c0.8 0 1.4 0.5 1.6 1.3 0 0.1 0.1 0.3 0.1 0.6 0 0.2 0 0.4-0.1 0.7-0.1 0.8-0.6 1.4-1.4 1.7v1.8 1 0.6 0.4 0.1 0.7 0.7 0.3c0.1 0.7 0.1 1.3 0 1.9v0.2 0.1 0.6 0.4 0.4c0 0.2 0 0.4-0.1 0.6v0.2c0 0.2 0 0.3-0.1 0.5v0.4c-0.2 1-0.7 1.5-1.7 1.7-0.3 0.1-0.5 0.1-0.7 0.1z"/>
<path class="st0" d="m72.1 52.9c-0.2 0.1-0.4 0.1-0.6 0.1-0.1 0-0.3 0-0.4 0.1-0.1 0-0.3 0.1-0.4 0.1s-0.3 0-0.3 0.1c-0.1 0.1-0.2 0.1-0.4 0 0 0-0.1 0-0.1-0.1-0.2-0.1-0.4 0-0.4 0.2v0.1c-0.3 0.1-0.5 0.1-0.8 0.2-0.5 0.1-1 0.2-1.5 0.2h-0.1c-0.1 0-0.2-0.1-0.2-0.2v-0.7c0-0.4 0.1-0.7 0.1-1.1v-0.1c0-0.5 0-0.4 0.5-0.5h0.5 0.6 0.2c0.4 0.1 0.7 0 1.1-0.1h0.3c0.4 0 0.9 0 1.3-0.1h0.1c0.2 0.1 0.5 0 0.7-0.1h0.3 0.1c0.4-0.1 0.9 0 1.4-0.2 0.1 0 0.2-0.1 0.2-0.1h0.1c0.3 0.1 0.5-0.1 0.8 0 0.1 0 0.3 0 0.4-0.1 0.1 0 0.2 0 0.3-0.1 0.1 0 0.3 0 0.3 0.2v0.2c0 0.2 0 0.4-0.1 0.6 0 0.3-0.2 0.5-0.5 0.6-0.1 0-0.1 0.1-0.2 0.1-0.3 0.1-0.4 0.2-0.6 0.4-0.1 0.1-0.1 0.2-0.1 0.3v0.2 0.3 1.7c-0.1 0.6 0 1.1-0.1 1.7v0.4 0.2c0.1 0.3 0 0.6 0 0.9v0.8 0.3c0.1 0.6 0 1.2 0 1.8v0.3 0.2c-0.1 0.3 0 0.7-0.1 1 0 0.2-0.1 0.5-0.1 0.7s0 0.3-0.1 0.5v0.3c-0.1 0.5-0.2 0.6-0.7 0.7-0.2 0-0.4 0.1-0.5 0h-0.3-2.1-0.4c-0.4 0-0.8-0.1-1.3-0.1-0.4 0-0.7-0.1-1.1-0.1-0.1 0-0.3 0-0.4-0.1-0.2 0-0.3-0.1-0.3-0.3 0-0.3-0.1-0.7-0.1-1v-0.7c0-0.1 0.1-0.2 0.2-0.2h0.2 0.4c0.3-0.1 0.6-0.1 0.9 0h0.3 0.2c0.5 0.1 1 0.1 1.5 0l1.1-0.2h0.1c0.1 0 0.1-0.2 0.1-0.2-0.2-0.2-0.2-0.5-0.2-0.8v-1.1c0-0.1 0-0.3-0.2-0.3-0.1 0-0.2-0.1-0.3-0.1-0.5 0-1 0-1.5 0.1-0.4 0.1-0.9 0-1.3 0-0.2 0-0.3-0.1-0.2-0.3 0.1-0.4 0.1-0.9 0.1-1.3s0-0.4 0.4-0.5h0.3c0.6-0.2 1.2-0.3 1.8-0.6 0.1 0 0.2-0.1 0.3-0.2s0.2-0.1 0.3-0.1c0.1 0.1 0.3-0.1 0.4-0.3 0-0.1 0.1-0.2 0.1-0.3 0.1-0.6 0.2-1.1 0.1-1.7v-0.6c0-0.1 0.1-0.1 0.1-0.2s0.1-0.1 0.2-0.1c0.1-0.1 0-0.2 0-0.2 0-0.4-0.2-0.4-0.4-0.5zm1.7 7.5h0.2v-0.1c-0.1 0-0.2-0.1-0.4-0.1-0.1 0-0.2 0-0.1 0.1l0.1 0.1c0 0.1 0.1 0 0.2 0z"/>
<path class="st2" d="m82.4 51.1c0-0.2 0.2-0.3 0.1-0.4 0-0.1 0-0.2 0.1-0.3 0-0.2 0.1-0.4 0.1-0.6 0.1-0.4 0.2-0.9 0.4-1.3 0-0.1 0.1-0.1 0.1-0.2l0.3-0.9c0-0.2 0.1-0.4 0.2-0.6l0.3-0.9c0-0.2 0.2-0.5 0.2-0.7 0.1-0.2 0.1-0.5 0.1-0.7 0.1-0.2 0.1-0.4 0.2-0.6 0.1-0.5 0.3-1 0.4-1.5 0-0.1 0-0.1 0.1-0.1 0.2-0.1 0.2-0.3 0.1-0.5 0-0.1 0.1-0.1 0.1-0.1h1.9c0.2 0 0.4 0.1 0.6 0.1 0.1 0 0.3 0.1 0.4 0h0.2 0.4c0.2-0.1 0.4-0.1 0.6-0.1h0.9 0.2c0.3 0 0.5 0.1 0.8 0.1h0.8 0.2c0.1 0 0.2 0.1 0.3 0.1 0 0 0 0.1 0.1 0.1 0.1 0.4 0.3 0.7 0.4 1.1s0.3 0.8 0.4 1.2c0.2 0.4 0.3 0.8 0.4 1.3 0 0.1 0 0.1-0.1 0.2-0.1 0-0.1 0.1-0.2 0.1-0.3 0-0.7 0.1-1 0.1-0.2 0-0.4 0-0.6 0.1-0.5 0-1 0-1.5-0.2-0.1 0-0.2-0.1-0.2-0.2v-0.7c0-0.2 0-0.3-0.2-0.4-0.1 0-0.2-0.1-0.3-0.1-0.6-0.1-1.3-0.2-1.9 0-0.3 0-0.6 0.2-0.8 0.4 0 0.1 0.1 0.1 0.1 0.1s0 0.1 0 0.2c-0.1 0.1-0.1 0.2-0.1 0.4 0 0.3 0.1 0.6-0.1 0.9 0 0.4-0.2 0.8-0.3 1.3-0.1 0.3-0.1 0.6-0.3 0.8v0.1c0 0.2-0.1 0.4-0.1 0.7 0 0.1 0 0.2 0.1 0.3 0.2 0.2 0.4 0.4 0.7 0.5 0.2 0.1 0.4 0.2 0.5 0.3l0.2 0.2c0.2 0.1 0.4 0.1 0.6 0l0.1-0.1c0.1 0 0.2-0.1 0.2-0.2s0.1-0.1 0.1-0.1c0.1 0 0.2-0.1 0.4-0.1s0.5-0.1 0.7-0.2c0.3-0.2 0.6-0.3 0.9-0.4s0.6 0 0.7 0.3 0.1 0.7 0.3 1c0.1 0.1 0.1 0.3 0.1 0.4v0.3c0.1 0.2 0 0.4-0.2 0.5-0.3 0.2-0.6 0.5-1 0.6-0.6 0.5-1.3 0.8-2 1.2s-1.4 0.9-2.2 1.3c-0.4 0.2-0.5 0.5-0.5 0.9v0.8 1.5 1.2c0 0.1 0 0.2-0.1 0.3 0 0.1 0 0.2 0.1 0.3s0.3 0.1 0.3 0l0.1-0.1c0.1-0.1 0.1-0.1 0.3-0.1 0.3 0 0.5 0.1 0.8 0.1 0.2 0.1 0.5 0.2 0.8 0.1h0.3c0.2 0 0.3 0 0.5-0.1s0.5-0.1 0.7 0 0.4 0.1 0.7 0.1c0.1 0 0.3-0.2 0.3-0.4-0.1-0.6-0.1-1.2-0.3-1.8 0-0.1-0.1-0.3-0.1-0.4s0-0.2 0.1-0.2c0.2-0.1 0.4-0.1 0.7-0.2 0.2-0.1 0.4-0.1 0.7-0.2s0.7-0.2 1-0.3h0.1c0.1 0 0.2 0.1 0.2 0.2v0.2 0.4 0.2c-0.2 0.3-0.1 0.6-0.3 0.9v0.1c0.1 0.4 0 0.7 0 1.1v0.3 0.2c0.1 0.4 0 0.8 0 1.2 0 0.2 0 0.4-0.1 0.6s-0.1 0.5-0.1 0.7v0.2s-0.1 0.1-0.1 0.1c-0.1 0-0.2 0.1-0.3 0h-0.6c-0.3 0-0.6 0-0.8 0.1-0.5 0.1-1.1 0.1-1.6 0.1-0.4 0-0.7 0-1.1 0.1h-0.3c-0.2 0-0.4-0.1-0.6-0.1h-2.7-0.3c-0.2 0.1-0.5 0-0.7 0-0.1 0-0.2-0.1-0.2-0.2s-0.1-0.2-0.1-0.3v-1.2-0.1c-0.1-0.5 0.1-1 0-1.5 0-0.2 0-0.5-0.1-0.7v-0.3c0.1-0.6 0.1-1.1 0-1.6v-0.6c0-0.3 0.1-0.6 0-1v-0.4-0.6c0-0.2 0-0.3 0.1-0.4 0.2-0.2 0.4-0.3 0.6-0.5h0.1c0.2 0.1 0.3-0.1 0.4-0.2 0.2-0.2 0.5-0.4 0.7-0.6l0.1-0.1c0.2 0 0.3-0.1 0.3-0.3 0-0.1 0.1-0.1 0.2-0.2s0.1-0.2 0-0.3c-0.3-0.1-0.6-0.3-0.9-0.4-0.1 0-0.2-0.1-0.4-0.1-0.1 0-0.2-0.1-0.3-0.1h-0.6c-0.2 0-0.4-0.1-0.6-0.2-0.1-0.4-0.2-0.3-0.4-0.3zm3.8-1.1-0.3-0.3s-0.1 0-0.1 0.1v0.1c0.2 0.1 0.3 0.1 0.4 0.1zm-20.5-5.1c-0.1 0.2-0.2 0.4-0.4 0.4-0.2 0.1-0.4 0.1-0.6 0.2-0.2 0-0.5 0-0.7 0.2h-0.2c-0.2 0.1-0.4 0.1-0.7 0.2-0.2 0.1-0.5 0.1-0.8 0.2h-0.2c-0.2 0-0.3 0.2-0.5 0.2s-0.3 0-0.5 0.1-0.3 0.3-0.4 0.5c-0.1 0.6-0.1 1.2-0.2 1.8v0.1c0.1 0.4 0 0.8 0 1.3 0 0.3-0.1 0.5-0.1 0.8s0 0.5-0.1 0.8c0 0.2 0 0.5-0.1 0.7 0 0.1 0 0.2 0.1 0.3s0.3 0.2 0.4 0.2c0.6 0.2 1.1 0.6 1.7 0.9 0.1 0 0.1 0.1 0.2 0l0.6 0.3v0.1c0 0.3 0.2 0.3 0.4 0.3h0.2c0.2 0.2 0.5 0.2 0.8 0.4 0.1 0 0.1 0.1 0.2 0.2 0.1 0.2 0.1 0.4 0.1 0.5v0.1c0 0.7 0.2 1.5 0.1 2.2 0 0.3 0 0.7-0.1 1v0.4 0.4 0.3c0 0.5-0.1 1-0.1 1.5v1.3c0 0.1-0.1 0.3-0.1 0.4s-0.1 0.1-0.2 0.1h-0.5c0.1-0.2 0.2-0.1 0.4-0.2-0.2-0.1-0.3-0.1-0.4 0-0.2 0-0.3 0.1-0.5 0.1h-0.2c-0.2 0.2-0.5 0.1-0.8 0.2h-0.3c-0.4-0.1-0.8-0.1-1.2-0.1h-0.2c-0.5-0.2-1.1-0.2-1.6-0.3-0.2 0-0.4-0.1-0.6 0.1h-0.1c-0.3-0.1-0.6 0-0.9-0.1l-0.1-0.1v-1c0-0.2 0-0.4 0.1-0.6v-0.3c0-0.5 0-1 0.1-1.4v-0.4c0-0.6 0-1.2 0.1-1.8v-0.9-0.6-0.6c0-0.2-0.1-0.3-0.3-0.4-0.5-0.2-0.9-0.5-1.4-0.8-0.3-0.2-0.5-0.4-0.8-0.5-0.1 0-0.1-0.1-0.1-0.3s0-0.2 0.1-0.3l0.3-1.5c0-0.2 0.1-0.2 0.3-0.2 0.3 0.1 0.6 0.2 0.9 0.3 0.2 0.1 0.3 0.1 0.5 0.2s0.3 0.2 0.3 0.4c0 0.1 0.1 0.2 0.2 0.2 0.3 0.1 0.3 0.1 0.6 0.1 0-0.1 0.1-0.2 0.1-0.3 0.1-0.1 0.1-0.2 0-0.3-0.1-0.3-0.2-0.6-0.1-0.8v-0.3c0-0.2 0-0.4 0.1-0.6v-0.1c0-0.5 0-1 0.1-1.5 0-0.6 0.1-1.1 0.1-1.7 0-0.3 0.1-0.6 0.1-0.9 0-0.2 0.1-0.5 0.1-0.7s0.1-0.5 0.1-0.7c0-0.3 0.1-0.6 0.2-0.8v-0.1c0.3-0.2 0.5-0.4 0.8-0.5 0.7-0.2 1.3-0.4 2-0.6 0.5-0.2 1-0.3 1.5-0.3 0.3 0 0.6-0.1 0.8-0.2 0.3-0.1 0.6-0.2 1-0.3 0.2 0 0.4-0.1 0.6-0.2s0.5-0.2 0.7-0.2 0.4 0 0.6-0.1 0.4-0.2 0.6-0.1h0.3l0.6-0.2c0.1 0 0.2 0 0.2 0.1 0.1 0.3 0.1 0.6 0.1 0.9v0.9 0.9s0 0.1-0.1 0.1c-0.1 0.1-0.2 0.1-0.3 0.2-0.3 0.1-0.5 0.2-0.8 0.3l-1.2 0.3c-0.3 0.4-0.5 0.4-0.9 0.2zm-4 16.2h0.3 0.7c0.3 0 0.4-0.1 0.5-0.4 0-0.1 0-0.3 0.1-0.4 0-0.5 0.1-1 0.1-1.5v-0.1c0.1-0.3 0.1-0.7 0-1 0-0.4-0.2-0.7-0.6-0.8-0.3-0.1-0.5-0.2-0.7-0.4l-0.6-0.3c-0.3 0-0.6-0.3-0.9-0.4-0.1 0-0.3-0.1-0.4-0.1s-0.2 0-0.3 0.1c-0.1 0.2-0.2 0.3-0.3 0.5v0.1 1c0 0.4 0 0.7-0.1 1.1s-0.1 0.8-0.1 1.3c0 0.1 0 0.3 0.1 0.4 0 0 0.1 0.1 0.1 0.2v0.5c0 0.2 0.1 0.3 0.2 0.4h0.2 0.6c0.3-0.2 0.7-0.2 1.1-0.2zm1.9 2.6c0.4-0.2 0.8-0.1 1.2-0.1l0.1 0.1s-0.1 0.1-0.1 0.1c-0.3 0-0.8 0.1-1.2-0.1zm8-21.6c0-0.1-0.1-0.2-0.1-0.2 0-0.1 0-0.2 0.1-0.2 0.2-0.2 0.5-0.3 0.8-0.3s0.5 0 0.7-0.1h0.2c0.3 0.1 0.6 0 0.8 0s0.3 0 0.5-0.1h0.5 0.2c0.3-0.1 0.7-0.1 1-0.1 0.1 0 0.2 0 0.3-0.1 0.1 0 0.3-0.1 0.4 0 0.2 0 0.3 0 0.5-0.1 0.3-0.1 0.7 0 1 0 0.1 0 0.3 0.1 0.4 0.1h0.2c0.4-0.2 0.7 0 1 0.1 0.1 0 0.2 0.1 0.2 0.2 0 0.3 0.1 0.7 0.1 1v2.3c0 0.7-0.1 1.3-0.1 2v0.8c0 0.1-0.1 0.3-0.1 0.5v0.7 1 1.1c0 0.2 0 0.4-0.1 0.6v0.3 1.3c-0.1 0.9 0 1.7-0.1 2.6s-0.1 1.7-0.2 2.6v0.5c0 0.4 0 0.8-0.1 1.2v0.8 0.9 0.2c0 0.2-0.1 0.3-0.3 0.3h-0.4c-0.2 0-0.4 0-0.6 0.1h-0.1c-0.4 0-0.7 0.1-1.1 0.1-0.1 0-0.2 0-0.2 0.1-0.1 0-0.2 0-0.2-0.1v-0.1c0-0.3 0-0.7 0.1-1s0.1-0.7 0.2-1v-0.2c0-0.2 0-0.4 0.1-0.6v-0.2c-0.1-0.2 0-0.4 0-0.6v-0.2c0-0.4 0-0.7 0.1-1.1 0.1-0.7 0.1-1.4 0.2-2.2 0.1-0.4 0.1-0.8 0.1-1.2s0.1-0.7 0.1-1.1v-0.2c0-0.6 0.1-1.1 0.1-1.7 0-0.3 0-0.6 0.1-0.8 0.1-0.6 0-1.1 0-1.7s0.1-1.1 0.1-1.6c0-0.6 0-1.2 0.1-1.8 0-0.4 0.1-0.8 0.1-1.2 0-0.1 0-0.2-0.1-0.3 0-0.1-0.1-0.1-0.2-0.1-0.2 0.1-0.3 0.1-0.5 0.1h-0.2c-0.3 0.1-0.6 0-0.9 0.1h-0.2c-0.2-0.1-0.3 0-0.5 0h-0.4-0.2c-0.3 0-0.5 0.1-0.5 0.4v0.7 0.8 1c0 0.1 0.1 0.2 0 0.3l-0.3 0.3c-0.1 0.1-0.3 0.1-0.4 0.1h-0.2c-0.2-0.1-0.4 0-0.6 0.1-0.1 0-0.3 0.1-0.4 0.1-0.2 0-0.3 0.1-0.5 0.1h-0.2c-0.1 0-0.3-0.1-0.2-0.3 0.1-0.3 0.1-0.6 0.2-0.9s0.2-0.6 0.2-1c0-0.3 0.1-0.6 0.2-0.8 0.1-0.5 0.1-0.9 0.1-1.4 0-0.3 0-0.5 0.1-0.8 0-0.1 0-0.1 0.1-0.2 0-0.1 0-0.2-0.1-0.3s-0.2-0.1-0.3 0c-0.5 0.3-0.5 0.4-0.6 0.4z"/>
<path class="st2" d="m71.6 43.2v1c0 0.1 0 0.2-0.1 0.3 0 0.1 0 0.2-0.1 0.3-0.1-0.1 0-0.2 0-0.3v-0.5c0-0.3 0.1-0.6 0.1-0.9l0.1-0.1c-0.1 0.1 0 0.1 0 0.2zm0 8.7c-0.1 0.1-0.3 0.2-0.6 0.1-0.1 0-0.3 0-0.4 0.1-0.1 0-0.3 0.1-0.4 0.1s-0.3 0-0.3 0.1c-0.1 0.1-0.2 0.1-0.4 0 0 0-0.1 0-0.1-0.1-0.2-0.1-0.4 0-0.4 0.2v0.1c-0.3 0.1-0.5 0.1-0.8 0.2-0.5 0.1-1 0.2-1.5 0.2h-0.1c-0.1 0-0.2-0.1-0.2-0.2v-0.7c0-0.4 0.1-0.7 0.1-1.1v-0.1c0-0.5 0-0.4 0.5-0.5h0.5 0.6 0.2c0.4 0.1 0.7 0 1.1-0.1h0.3c0.4 0 0.9 0 1.3-0.1h0.1c0.2 0.1 0.5 0 0.7-0.1h0.3 0.1c0.4-0.1 0.9 0 1.4-0.2 0.1 0 0.2-0.1 0.2-0.1h0.1c0.3 0.1 0.5-0.1 0.8 0 0.1 0 0.3 0 0.4-0.1 0.1 0 0.2 0 0.3-0.1 0.1 0 0.3 0 0.3 0.2v0.2c0 0.2 0 0.4-0.1 0.6 0 0.3-0.2 0.5-0.5 0.6-0.1 0-0.1 0.1-0.2 0.1-0.3 0.1-0.4 0.2-0.6 0.4-0.1 0.1-0.1 0.2-0.1 0.3v0.2 0.3 1.7c-0.1 0.6 0 1.1-0.1 1.7v0.4 0.2c0.1 0.3 0 0.6 0 0.9v0.8 0.3c0.1 0.6 0 1.2 0 1.8v0.3 0.2c-0.1 0.3 0 0.7-0.1 1 0 0.2-0.1 0.5-0.1 0.7s0 0.3-0.1 0.5v0.3c-0.1 0.5-0.2 0.6-0.7 0.7-0.2 0-0.4 0.1-0.5 0h-0.3-2.1-0.4c-0.4 0-0.8-0.1-1.3-0.1-0.4 0-0.7-0.1-1.1-0.1-0.1 0-0.3 0-0.4-0.1-0.2 0-0.3-0.1-0.3-0.3 0-0.3-0.1-0.7-0.1-1v-0.7c0-0.1 0.1-0.2 0.2-0.2h0.2 0.4c0.3-0.1 0.6-0.1 0.9 0h0.3 0.4c0.5 0.1 1 0.1 1.5 0l1.1-0.2h0.1c0.1 0 0.1-0.2 0.1-0.2-0.2-0.2-0.2-0.5-0.2-0.8v-1.1c0-0.1 0-0.3-0.2-0.3-0.1 0-0.2-0.1-0.3-0.1-0.5 0-1 0-1.5 0.1-0.4 0.1-0.9 0-1.3 0-0.2 0-0.3-0.1-0.2-0.3 0.1-0.4 0.1-0.9 0.1-1.3s0-0.4 0.4-0.5h0.3c0.6-0.2 1.2-0.3 1.8-0.6 0.1 0 0.2-0.1 0.3-0.2s0.2-0.1 0.3-0.1c0.1 0.1 0.3-0.1 0.4-0.3 0-0.1 0.1-0.2 0.1-0.3 0.2-0.7 0.2-1.2 0.2-1.8v-0.6c0-0.1 0.1-0.1 0.1-0.2s0.1-0.1 0.2-0.1c0.1-0.1 0-0.2 0-0.2-0.3-0.2-0.5-0.3-0.7-0.4zm1.7 7.6h0.1v-0.1c-0.1 0-0.2-0.1-0.4-0.1-0.1 0-0.2 0-0.1 0.1l0.1 0.1c0.1 0.1 0.2 0 0.3 0z"/>
<path class="st0" d="m67 69.2c0 0.3-0.1 0.6-0.3 0.8s-0.5 0.3-0.8 0.3-0.6-0.1-0.8-0.3-0.3-0.5-0.3-0.8 0.1-0.6 0.3-0.8 0.5-0.3 0.8-0.3 0.5 0.1 0.7 0.3c0.2-0.2 0.4-0.3 0.7-0.3s0.6 0.1 0.8 0.3 0.3 0.5 0.3 0.8-0.1 0.5-0.2 0.7c-0.2 0.2-0.4 0.3-0.6 0.4h-0.1l-0.1-0.7c0.1 0 0.2 0 0.3-0.1s0.1-0.2 0.1-0.3 0-0.2-0.1-0.3-0.2-0.1-0.3-0.1-0.2 0-0.3 0.1c-0.1 0-0.1 0.1-0.1 0.3zm-0.7 0c0-0.1 0-0.2-0.1-0.3s-0.2-0.1-0.3-0.1-0.2 0-0.3 0.1-0.1 0.2-0.1 0.3 0 0.2 0.1 0.3 0.2 0.1 0.3 0.1 0.2 0 0.3-0.1 0.1-0.2 0.1-0.3z"/>
<path class="st0" d="m67.4 66.7c0.2 0 0.4 0.1 0.6 0.2 0.2 0.2 0.2 0.4 0.2 0.6s-0.1 0.4-0.2 0.6c-0.2 0.2-0.4 0.2-0.6 0.2s-0.4-0.1-0.6-0.2c-0.2-0.2-0.2-0.4-0.2-0.6s0.1-0.4 0.2-0.6c0.2-0.1 0.4-0.2 0.6-0.2zm-0.2 0.8h0.2 0.2c0-0.1-0.1-0.2-0.2-0.2s-0.2 0.1-0.2 0.2zm0.3 0.1h-0.1-0.1l0.1 0.1 0.1-0.1zm1.1 1c0-0.1 0-0.2 0.1-0.3s0.2-0.1 0.3-0.1 0.2 0 0.3 0.1 0.1 0.2 0.1 0.3 0 0.2-0.1 0.3-0.2 0.1-0.3 0.1-0.2 0-0.3-0.1c0-0.1-0.1-0.2-0.1-0.3zm0 1.1c0-0.1 0-0.2 0.1-0.3s0.2-0.1 0.3-0.1 0.2 0 0.3 0.1 0.1 0.2 0.1 0.3 0 0.2-0.1 0.3-0.2 0.1-0.3 0.1-0.2 0-0.3-0.1-0.1-0.1-0.1-0.3zm0.4-1.1c0 0.1 0 0.1 0.1 0.1s0.1 0 0.1-0.1 0-0.1-0.1-0.1-0.1 0-0.1 0.1zm0 1.1c0 0.1 0 0.1 0.1 0.1s0.1 0 0.1-0.1 0-0.1-0.1-0.1-0.1 0.1-0.1 0.1zm2.5 0.4c-0.2 0.1-0.4 0.2-0.6 0.2-0.3 0-0.6-0.1-0.8-0.3s-0.3-0.5-0.3-0.8 0.1-0.6 0.3-0.8 0.5-0.3 0.8-0.3c0.2 0 0.4 0.1 0.6 0.2s0.3 0.3 0.4 0.4l-0.6 0.3c-0.1-0.1-0.2-0.2-0.4-0.2-0.1 0-0.2 0-0.3 0.1s-0.1 0.2-0.1 0.3 0 0.2 0.1 0.3c0-0.1 0.1-0.2 0.2-0.2 0.1-0.1 0.2-0.1 0.3-0.1s0.3 0 0.4 0.1 0.2 0.2 0.3 0.4c0 0.1-0.2 0.3-0.3 0.4zm-0.6-0.5c0.2 0 0.3-0.1 0.3-0.2h-0.1c-0.1 0-0.2 0.1-0.3 0.2h0.1zm3.4-0.4c0 0.3-0.1 0.6-0.3 0.8s-0.5 0.3-0.8 0.3-0.6-0.1-0.8-0.3-0.3-0.5-0.3-0.8c0-0.2 0.1-0.4 0.2-0.6s0.3-0.3 0.5-0.4l0.2 0.6c-0.2 0.1-0.3 0.2-0.3 0.4 0 0.1 0 0.2 0.1 0.3s0.2 0.1 0.3 0.1 0.2 0 0.3-0.1 0.1-0.2 0.1-0.3c0-0.2-0.1-0.3-0.3-0.4l0.2-0.6c0.1 0 0.3 0.1 0.4 0.2 0.2-0.2 0.4-0.3 0.7-0.3s0.6 0.1 0.8 0.3 0.3 0.5 0.3 0.8-0.1 0.5-0.2 0.7-0.4 0.3-0.6 0.4h-0.1l-0.1-0.7c0.1 0 0.2 0 0.3-0.1s0.1-0.2 0.1-0.3 0-0.2-0.1-0.3-0.2-0.1-0.3-0.1-0.2 0-0.3 0.1v0.3z"/>
<path class="st0" d="m75.1 69.2c0-0.3 0.1-0.6 0.3-0.8s0.5-0.3 0.8-0.3 0.6 0.1 0.8 0.3 0.3 0.5 0.3 0.8c0 0.2-0.1 0.4-0.2 0.6s-0.3 0.3-0.4 0.4c-0.1 0-0.2 0.1-0.3 0.1l-0.1-0.7c0.1 0 0.2 0 0.3-0.1s0.1-0.2 0.1-0.3 0-0.2-0.1-0.3-0.2-0.1-0.3-0.1-0.2 0-0.3 0.1-0.1 0.2-0.1 0.3h-0.8zm4.5 0c0 0.2-0.1 0.4-0.2 0.6s-0.3 0.3-0.4 0.4l-0.3-0.6c0.1-0.1 0.2-0.2 0.2-0.4 0-0.1 0-0.2-0.1-0.3s-0.2-0.1-0.3-0.1-0.2 0-0.3 0.1-0.1 0.2-0.1 0.3c0 0.2 0.1 0.3 0.2 0.4l-0.3 0.5c-0.2-0.1-0.3-0.2-0.4-0.4s-0.2-0.4-0.2-0.6c0-0.3 0.1-0.6 0.3-0.8s0.5-0.3 0.8-0.3 0.5 0.1 0.7 0.3c0.2-0.2 0.4-0.3 0.7-0.3s0.6 0.1 0.8 0.3 0.3 0.5 0.3 0.8-0.1 0.5-0.2 0.7-0.4 0.3-0.6 0.4h-0.1l-0.2-0.7h0.1c0.1 0 0.2-0.1 0.2-0.1 0.1-0.1 0.1-0.2 0.1-0.3s0-0.2-0.1-0.3-0.2-0.1-0.3-0.1-0.2 0-0.3 0.1v0.4z"/>
<path class="st0" d="m80.1 67.6c0.1-0.1 0.1-0.1 0 0 0-0.2 0-0.3-0.2-0.3s-0.2 0.1-0.2 0.2c0 0 0 0.1 0.1 0.1l0.1 0.1h0.1v0.6c-0.2 0-0.4-0.1-0.6-0.2-0.2-0.2-0.2-0.4-0.2-0.6s0.1-0.4 0.2-0.6c0.2-0.2 0.4-0.2 0.6-0.2 0.3 0 0.5 0.1 0.6 0.3 0 0 0.1 0.1 0.1 0.2l-0.6 0.4zm2.5 3.8c-0.3-0.1-0.6-0.3-0.9-0.8s-0.4-1-0.4-1.5c0-0.6 0.1-1.1 0.4-1.5s0.6-0.7 0.9-0.8l0.1 0.2c-0.2 0.1-0.4 0.3-0.6 0.7s-0.3 0.9-0.3 1.4c0 0.3 0.1 0.7 0.2 1.1 0.2 0.5 0.4 0.8 0.6 0.9v0.3z"/>
<path class="st0" d="m83.8 68.1c0.3 0 0.6 0.1 0.8 0.3s0.3 0.5 0.3 0.8-0.1 0.6-0.3 0.8-0.5 0.3-0.8 0.3-0.6-0.1-0.8-0.3-0.3-0.5-0.3-0.8 0.1-0.6 0.3-0.8 0.5-0.3 0.8-0.3zm-0.3 0.8c-0.1 0.1-0.1 0.2-0.1 0.3s0 0.2 0.1 0.2c0.1-0.1 0.1-0.1 0.1-0.3 0-0.1-0.1-0.1-0.1-0.2zm0.3-0.2c-0.1 0-0.1 0 0 0v0.4c0 0.2-0.1 0.3-0.2 0.4h0.1c0.1 0 0.2 0 0.3-0.1s0.1-0.2 0.1-0.3 0-0.2-0.1-0.3c0 0-0.1-0.1-0.2-0.1z"/>
<path class="st0" d="m83.9 67.6c0.1-0.1 0.1-0.1 0 0 0-0.2 0-0.3-0.2-0.3s-0.2 0.1-0.2 0.2c0 0 0 0.1 0.1 0.1l0.1 0.1h0.1l-0.1 0.6c-0.2 0-0.4-0.1-0.6-0.2-0.1-0.2-0.1-0.4-0.1-0.6s0.1-0.4 0.2-0.6c0.2-0.2 0.4-0.2 0.6-0.2 0.3 0 0.5 0.1 0.6 0.3 0 0 0.1 0.1 0.1 0.2l-0.6 0.4zm1.1 3.6c0.3-0.1 0.5-0.4 0.6-0.9 0.2-0.4 0.2-0.8 0.2-1.1 0-0.5-0.1-0.9-0.3-1.4-0.2-0.4-0.4-0.6-0.6-0.7l0.1-0.2c0.3 0.1 0.6 0.4 0.9 0.8s0.4 1 0.4 1.5-0.1 0.9-0.3 1.4c-0.3 0.5-0.6 0.8-1 0.9v-0.3zm-11.5 3.9v-0.1-0.1c0-0.1 0-0.3-0.1-0.4-0.1-0.2-0.3-0.2-0.5-0.2h-0.1c-0.1 0-0.3 0-0.4 0.2 0-0.1-0.1-0.2-0.2-0.2h-0.2c-0.1 0-0.2 0-0.3 0.1 0-0.1-0.1-0.1-0.2-0.1h-0.3c-0.1 0-0.1 0-0.2 0.1l-0.1-0.1c-0.1 0-0.3 0-0.4 0.1 0 0-0.1-0.1-0.2-0.1h-0.1c-0.1 0-0.2 0-0.3 0.1s-0.1 0.2-0.1 0.3v-0.1-0.1c0-0.1 0-0.1-0.1-0.2 0 0-0.1-0.1-0.2-0.1h-0.3c-0.1 0-0.1 0-0.2 0.1v0.2s0 0.1-0.1 0.3c0-0.1 0-0.2-0.1-0.2 0-0.1-0.1-0.1-0.2-0.2s-0.2-0.2-0.4-0.2h-0.4c-0.1 0-0.2 0.1-0.2 0.3v1.7c0 0.1 0 0.2 0.1 0.2 0 0 0.1 0.1 0.2 0.1h0.4c0.2 0 0.3-0.1 0.4-0.2v0.1c0 0.1 0.1 0.1 0.2 0.1h0.2c0.1 0 0.2 0 0.2-0.1 0 0 0.1 0.1 0.2 0.1h0.1c0.1 0 0.2 0 0.3-0.1 0 0 0-0.1 0.1-0.1 0.1 0.1 0.2 0.1 0.3 0.1h0.1 0.3s0.1 0 0.1-0.1l0.1-0.1c0 0.1 0.1 0.2 0.3 0.2h0.1c0.1 0 0.2 0 0.3-0.1 0.1 0.1 0.1 0.1 0.2 0.1h0.1c0.1 0 0.2 0 0.3-0.1l0.1-0.1c0.1 0.1 0.2 0.2 0.4 0.2h0.1c0.1 0 0.3 0 0.4-0.1s0.2-0.3 0.2-0.5l0.1-0.7c0.1 0.1 0.1 0 0 0zm3.9-0.6v0c0-0.1-0.1-0.2-0.1-0.2s-0.1-0.1-0.2-0.1h-0.3c-0.1 0-0.1 0-0.2 0.1s-0.1 0.2-0.1 0.2-0.1 0.3-0.1 0.9c0 0.1 0 0.2-0.1 0.4h-0.1-0.3 0.1c0.1 0 0.3-0.1 0.3-0.3v-0.2c0-0.1 0-0.1-0.1-0.2 0 0-0.1-0.1-0.2-0.1h-0.1 0.3c0.1 0 0.2-0.1 0.3-0.3v-0.1c0-0.1 0-0.2-0.1-0.3s-0.2-0.1-0.3-0.1h-0.6c-0.1 0-0.2 0-0.3 0.1-0.1-0.1-0.2-0.1-0.3-0.1h-0.7c-0.1 0-0.1 0-0.2 0.1s0 0 0 0.1v0.2c0 0.1 0 0.2 0.1 0.2 0 0 0.1 0.1 0.2 0.1v1.3c0 0.1 0.1 0.3 0.3 0.3h0.2c0.1 0 0.3-0.1 0.3-0.3v-1.3h0.1v1.2c0 0.1 0 0.1 0.1 0.2 0 0 0.1 0.1 0.2 0.1h0.7c0.1 0 0.1 0 0.1-0.1 0 0 0.1 0.1 0.2 0.1h0.2c0.1 0 0.2 0 0.2-0.1 0 0 0.1 0.1 0.2 0.1h0.1c0.1 0 0.2 0 0.3-0.1s0.1-0.3 0.1-0.3l-0.2-1.5zm6.5 1.4c0-0.1-0.1-0.2-0.3-0.3h-0.3 0.1c0.1 0 0.3-0.1 0.3-0.3v-0.2c0-0.1 0-0.1-0.1-0.2 0 0-0.1-0.1-0.2-0.1h-0.1 0.3c0.1 0 0.2-0.1 0.3-0.3v-0.1c0-0.1 0-0.2-0.1-0.3s-0.2-0.1-0.3-0.1h-0.5c-0.1 0-0.2 0-0.3 0.1l-0.1 0.1c-0.1-0.1-0.3-0.3-0.7-0.2-0.1 0-0.2 0.1-0.3 0.2 0-0.1-0.1-0.2-0.2-0.2s-0.3 0-0.4 0.1c0 0-0.1-0.1-0.2-0.1h-0.1c-0.1 0-0.2 0-0.3 0.1 0 0 0 0.1-0.1 0.1-0.1-0.1-0.2-0.1-0.3-0.1h-0.4c-0.1 0-0.1 0-0.2 0.1-0.1 0-0.1 0.1-0.1 0.1 0-0.1-0.1-0.2-0.3-0.2-0.1 0-0.2 0-0.3 0.1 0 0-0.1-0.1-0.2-0.1h-0.1c-0.1 0-0.2 0-0.3 0.1s-0.1 0.2-0.1 0.3v1.6s0 0.1 0.1 0.2c0 0.1 0.1 0.1 0.2 0.1h0.1c0.1 0 0.2 0 0.3-0.1 0 0 0.1 0.1 0.2 0.1h0.1c0.1 0 0.2 0 0.3-0.1 0 0 0-0.1 0.1-0.1 0.1 0.1 0.3 0.2 0.5 0.2s0.4-0.1 0.6-0.3c0.1 0.1 0.2 0.2 0.4 0.3h0.1 0.3s0.1 0 0.1-0.1l0.2-0.2s0 0.1 0.1 0.1c0 0.1 0.1 0.1 0.2 0.1 0.1 0.1 0.2 0.1 0.3 0.1h0.2c0.1 0 0.2-0.1 0.3-0.2 0 0 0 0.1 0.1 0.1 0 0 0.1 0.1 0.2 0.1h0.7c0.1 0 0.2-0.1 0.3-0.3-0.1 0-0.1-0.1-0.1-0.2z"/>
<path class="st2" d="m67.8 74.6v-0.1h0.4c0.1 0 0.2 0 0.2 0.1l0.1 0.1v0.2 1c0 0.1 0 0.2-0.1 0.2-0.1 0.1-0.2 0.2-0.3 0.2h-0.4-0.1l0.2-1.7zm0.4 0.7v0.5 0.1h0.1l0.1-0.1v-0.9c0-0.1-0.1-0.1-0.1-0.1h-0.1v0.1 0.4zm1.3-0.9h0.1 0.1s0 0 0 0.1 0.1 0.4 0.1 0.8c0.1 0.3 0.1 0.6 0.1 0.8v0.1h-0.1-0.1s0 0 0-0.1v-0.1s0 0 0-0.1c0 0 0-0.1-0.1-0.1h-0.1s0 0.1 0 0.1v0.2s0 0.1-0.1 0.1h-0.4s-0.1 0 0-0.1v-0.1c0.1-0.3 0.1-0.6 0.1-0.7 0.1-0.6 0.1-0.9 0.1-0.9v-0.1c0.1 0.1 0.1 0.1 0.3 0.1zm0 1.1c0.1-0.1 0.1-0.1 0.1-0.2v-0.1s0 0 0 0c-0.2 0.1-0.2 0.1-0.1 0.3-0.1 0-0.1 0 0 0zm1.5 0.3c0 0.1-0.1 0.3-0.2 0.4h-0.3c-0.1 0-0.2-0.1-0.3-0.2v-0.1-0.2-1.2-0.1h0.1 0.1s0.1 0 0.1 0.1v1.3 0.1l0.1 0.1c0.1 0 0.1 0 0.1-0.1v-0.2-1.1-0.1h0.1 0.2v1.3zm0.2-1.2v-0.1h0.2s0.1 0 0.1 0.1v0.1s0 0.1 0 0.1c0 0.1 0 0.2 0.1 0.3 0 0.1 0.1 0.2 0.1 0.3s0 0 0 0v-0.1-0.6-0.1h0.1 0.1v1.6 0.1h-0.1-0.1s-0.1 0-0.1-0.1c0 0 0-0.1-0.1-0.3 0-0.1-0.1-0.2-0.1-0.3v-0.1s0 0.1 0 0.1v0.4 0.1h-0.1-0.1s-0.1 0-0.1-0.1v-0.8c0.1-0.3 0.1-0.5 0.1-0.6zm1.6 0.7v0.4 0.1c0 0.1 0.1 0.1 0.1 0.1 0.1 0 0.1 0 0.1-0.1v-0.3l-0.1-0.1s-0.1 0-0.1-0.1v-0.2s0-0.1 0.1-0.1h0.3v0.6c0 0.1-0.1 0.3-0.2 0.3-0.1 0.1-0.2 0.1-0.4 0.1-0.1 0-0.3-0.1-0.3-0.3v-0.1-1c0-0.1 0-0.2 0.1-0.3s0.2-0.2 0.3-0.2h0.3c0.1 0 0.2 0.1 0.3 0.2s0.1 0.2 0.1 0.3v0.4s0 0.1-0.1 0.1h-0.2s-0.1 0-0.1-0.1v-0.1-0.1s-0.1-0.1-0.1 0c0 0-0.1 0-0.1 0.1v0.2 0.2zm1.7-0.4v-0.1h-0.1-0.1-0.1s0 0 0 0v-0.2h0.8 0.1v0.1 0.1h-0.1-0.1v0.1 1.4 0.1h-0.2l-0.1-0.1v-1.4h-0.1zm0.9 0.4v-0.8-0.1s0 0 0.1 0h0.6 0.1s0 0 0 0.1v0.1h-0.1-0.3-0.1v0.1 0.3 0.1s0 0 0.1 0h0.2 0.1v0.1 0.2s0 0.1-0.1 0.1h-0.2-0.1v0.1 0.2 0.1s0 0 0.1 0h0.3 0.1v0.2l-0.1 0.1h-0.7-0.1v-0.1l0.1-0.8zm1.6-0.9h0.1 0.1s0 0 0 0.1 0.1 0.4 0.1 0.8c0.1 0.3 0.1 0.6 0.1 0.8v0.1h-0.1-0.1s0 0 0-0.1v-0.1s0 0 0-0.1c0 0 0-0.1-0.1-0.1h-0.1v0.1 0.2s0 0.1-0.1 0.1h-0.2s-0.1 0 0-0.1v-0.1c0.1-0.3 0.1-0.6 0.1-0.7 0.1-0.6 0.1-0.9 0.1-0.9v-0.1c-0.1 0.1 0 0.1 0.1 0.1zm0 1.1c0.1-0.1 0.1-0.1 0.1-0.2v-0.1s0 0 0 0c-0.2 0.1-0.2 0.1-0.1 0.3-0.1 0-0.1 0 0 0zm1.3-0.2v-0.8-0.1s0 0 0.1 0h0.1s0.1 0 0.1 0.1v0.5 0.1s0 0 0.1 0h0.1s0.1 0 0.1-0.1v-0.5-0.1h0.1 0.1s0.1 0 0.1 0.1v1.6 0.1h-0.1-0.1-0.1v-0.5-0.1s0-0.1-0.1-0.1h-0.1s-0.1 0-0.1 0.1v0.6 0.1s0 0-0.1 0h-0.1-0.1v-0.1-0.9zm2.1-0.4v0.8 0.2 0.1c-0.1 0.2-0.2 0.2-0.4 0.2s-0.3-0.1-0.4-0.2v-0.2-1c0-0.1 0.1-0.3 0.2-0.4h0.1 0.3c0.1 0 0.1 0 0.2 0.1 0.1 0 0.1 0.1 0.1 0.2-0.1 0-0.1 0.1-0.1 0.2zm-0.4 0.9v-0.1-0.9-0.1c0-0.1-0.1-0.1-0.1-0.1-0.1 0-0.1 0-0.1 0.1v0.9 0.1c0 0.1 0.1 0.1 0.1 0.1 0.1 0.1 0.1 0.1 0.1 0zm1.5 0c0 0.1-0.1 0.3-0.2 0.4h-0.3c-0.1 0-0.2-0.1-0.3-0.2v-0.1-0.2-1.2-0.1h0.1 0.1s0.1 0 0.1 0.1v1.3 0.1l0.1 0.1c0.1 0 0.1 0 0.1-0.1v-0.2-1.1-0.1h0.1 0.1v1.3h0.1zm0.5 0.4-0.1-0.1c-0.1-0.1-0.1-0.2-0.1-0.3v-0.1h0.2s0 0 0.1 0v0.1c0 0.1 0.1 0.1 0.1 0.1s0.1 0 0.1-0.1v-0.1c0-0.1 0-0.1-0.1-0.2l-0.3-0.3c-0.1-0.1-0.2-0.3-0.2-0.5 0-0.1 0-0.2 0.1-0.3s0.1-0.1 0.2-0.1c0.2 0 0.3 0 0.5 0.1 0.1 0.1 0.1 0.1 0.1 0.3v0.1h-0.2-0.1c0-0.1-0.1-0.1-0.1-0.1-0.1 0-0.1 0-0.1 0.1s0 0.2 0.1 0.3l0.1 0.1c0.1 0 0.1 0.1 0.2 0.2s0.2 0.3 0.1 0.5c0 0.1 0 0.1-0.1 0.2s-0.1 0.1-0.2 0.1h-0.1c-0.1 0.1-0.2 0-0.2 0zm0.9-0.9v-0.8-0.1h0.1 0.6 0.1s0 0 0 0.1v0.1h-0.1-0.3-0.1v0.1 0.3 0.1h0.1 0.2 0.1v0.1 0.2s0 0.1-0.1 0.1h-0.2-0.1v0.1 0.2 0.1h0.1 0.3 0.1v0.2l-0.1 0.1h-0.6-0.1v-0.1-0.8z"/>
<path class="st0" d="m88.6 75c-0.2 0-0.4 0.1-0.4 0.3h-3.8v0.2h3.8c0.1 0.2 0.3 0.4 0.5 0.3 0.2 0 0.3-0.2 0.3-0.4s-0.2-0.4-0.4-0.4zm-25.6 0c-0.2 0-0.4 0.2-0.4 0.4s0.2 0.4 0.4 0.4 0.4-0.1 0.4-0.3h3.8v-0.2h-3.8c-0.1-0.2-0.2-0.3-0.4-0.3zm1-37c0.3 0.3 0.7 0.4 1.1 0.4s0.7-0.2 1-0.5c0.1-0.1 0.2-0.3 0.3-0.4 0.3 0.3 0.7 0.5 1.1 0.7l0.8 0.3c0.7 0.2 1.5 0.3 2.3 0.3h0.1c0.4 0 0.7-0.2 0.9-0.5 0.1-0.1 0.1-0.2 0.1-0.3l0.6-0.3c0.4-0.3 0.5-0.8 0.5-1.3v-0.1c0.2-0.1 0.4-0.3 0.5-0.6 0.1-0.2 0-0.4 0-0.7-3.9 0.6-7.2 1.5-9.8 2.2 0.1 0.3 0.2 0.6 0.5 0.8zm12.8-3.5c-0.1 0.3-0.1 0.6-0.2 0.8-1.2 0.1-2.1 0.6-2.3 1.3h-0.1v0.4l0.1 3.6c0 0.2 0 0.4 0.1 0.5 0.2 0.4 0.5 0.6 0.9 0.7 0.2 0.1 0.6 0.1 1 0.2 0.1 0.2 0.2 0.4 0.4 0.5 0.3 0.3 0.8 0.3 1.3 0.3 0.1 0 0.3 0 0.5-0.1 0.1 0.1 0.1 0.2 0.2 0.3 0 0 0 0.1 0.1 0.1 0 0 0 0.1 0.1 0.1l0.1 0.1v0.1c0.3 0.4 0.8 0.6 1.2 0.6h0.2c2.7-0.6 4.7-1.8 5.9-3.8 0.3-0.5 0.6-1 0.8-1.6 0.1 0 0.3 0.1 0.4 0 0.6-0.1 1.1-0.6 1-1.2 0-0.5-0.5-1-1-1 0.1-0.7 0.1-1.5 0-2.3-3.5-0.1-7.2 0-10.7 0.4z"/>
<path class="st0" d="m75.4 35.3c0.4 0 0.8-0.3 0.9-0.7-0.6 0.1-1.2 0.2-1.8 0.2 0.2 0.3 0.5 0.5 0.9 0.5z"/>
<ellipse class="st3" transform="matrix(.9964 -.084652 .084652 .9964 -2.8761 7.5342)" cx="87.4" cy="37.7" rx=".4" ry=".4"/>
<path class="st0" d="m87.4 38.2c-0.3 0-0.5-0.2-0.5-0.4 0-0.3 0.2-0.5 0.4-0.5s0.5 0.2 0.5 0.4c0.1 0.2-0.1 0.4-0.4 0.5zm0-0.9c-0.2 0-0.3 0.2-0.3 0.4s0.2 0.3 0.4 0.3 0.3-0.2 0.3-0.4c-0.1-0.1-0.2-0.3-0.4-0.3z"/>
<ellipse class="st3" transform="matrix(.9964 -.084652 .084652 .9964 -2.1856 7.4456)" cx="86.7" cy="29.5" rx=".6" ry=".6"/>
<path class="st0" d="m67.6 33.5 0.4-1.2 0.4 0.1-0.4 1.2-0.4-0.1z"/>
<path class="st4" d="m67.7 33.4 0.3-1 0.2 0.1-0.3 1-0.2-0.1z"/>
<path class="st5" d="m68.2 33.3h-0.4l0.1-0.3c0-0.1 0.1-0.1 0.1-0.1h0.1c0.1 0 0.2 0.1 0.1 0.2v0.2z"/>
<path class="st0" d="m67.7 33.3 0.1-0.3c0-0.1 0.1-0.1 0.2-0.1h0.1c0.1 0 0.1 0 0.1 0.1v0.1 0.3c0-0.1-0.5-0.1-0.5-0.1zm0.2-0.4c-0.1 0-0.1 0-0.1 0.1v0.3h0.4v-0.2-0.1h-0.1c-0.1-0.1-0.2-0.1-0.2-0.1z"/>
<path class="st6" d="m72.5 35.1c-0.6-0.2-0.8 0.9-1 1h-0.2l0.2-1.1c0.1-0.6-0.2-1.3-0.8-1.5l-1.6-0.6c-0.6-0.2-1.3 0.1-1.6 0.7l-1.1 2.4c-0.1 0.2 0 0.4 0.1 0.6 1.1 1.1 2.5 1.6 4 1.4h0.1c0.2 0 0.4-0.2 0.4-0.4l0.1-0.4c0.4 0.1 1.1-0.2 1-0.9 0-0.8 0.3-0.8 0.4-0.8 0.2 0.1 0.2-0.3 0-0.4z"/>
<path class="st4" d="m71.2 37.3c0.4 0 1-0.3 0.9-0.9 0-0.8 0.3-0.8 0.4-0.8s0.1-0.3 0-0.4c-0.6-0.2-0.8 0.9-1 1h-0.2l0.2-1.1v-0.1-0.1-0.1-0.1-0.1-0.1-0.1s0-0.1-0.1-0.1-0.3 0.2-0.6 0.4c0 0 0.7 2.5-1.6 3.5h0.1 0.1 0.1 0.6 0.1 0.1c0.2 0 0.4-0.2 0.4-0.4l0.5-0.5c-0.1 0 0 0 0 0z"/>
<path class="st5" d="m71.1 37.2s-0.6 0-0.7-0.9c0 0.7 0.2 1 0.6 1.1 0.1-0.1 0.1-0.2 0.1-0.2zm0.3-1.1s-0.2-0.1-0.3-0.2c0 0.1 0.3 0.3 0.4 0.2h-0.1z"/>
<path class="st0" d="m70.5 38.1c-1.5 0.1-3-0.4-4.1-1.5-0.2-0.2-0.2-0.4-0.1-0.7l1.2-2.5c0.3-0.6 1-0.9 1.7-0.7l1.6 0.6c0.7 0.2 1 0.9 0.9 1.6l-0.2 1.1h0.1s0.1-0.1 0.1-0.2c0.2-0.3 0.4-0.9 0.9-0.8 0.2 0.1 0.2 0.3 0.2 0.4s-0.1 0.1-0.2 0.1h-0.2c-0.1 0.1-0.2 0.2-0.1 0.7 0 0.3-0.1 0.6-0.3 0.8s-0.5 0.3-0.7 0.2l-0.1 0.3c-0.2 0.4-0.4 0.6-0.7 0.6zm-1.9-5.2c-0.4 0-0.8 0.3-1 0.7l-1.2 2.5c-0.1 0.2 0 0.4 0.1 0.5 1 1 2.5 1.5 4 1.4h0.1c0.2 0 0.3-0.1 0.4-0.3l0.1-0.5h0.1c0.2 0 0.5 0 0.7-0.2 0.1-0.1 0.3-0.3 0.2-0.7 0-0.4 0.1-0.7 0.3-0.8 0.1-0.1 0.1-0.1 0.2-0.1v-0.1s0-0.1-0.1-0.1c-0.3-0.1-0.5 0.3-0.7 0.7-0.1 0.2-0.1 0.3-0.2 0.3h-0.3l0.3-1.2c0.1-0.6-0.2-1.2-0.8-1.4l-1.7-0.6c-0.2-0.1-0.3-0.1-0.5-0.1z"/>
<path class="st6" d="m71.1 34.6c0.3 0 0.4-0.3 0.3-0.6-0.1-0.2-0.4-0.4-0.7-0.5l-1.6-0.6c-0.3-0.1-0.5-0.1-0.8 0-0.2 0.1-0.3 0.4-0.2 0.6 0.5 0.5 1.4 1.3 3 1.1z"/>
<path class="st4" d="m71.1 34.6c0.3 0 0.4-0.3 0.3-0.6-0.1-0.1-0.1-0.2-0.2-0.3l-0.7 0.6s0.2 0.1 0 0.3h0.6z"/>
<path class="st0" d="m71 34.7c-1.7 0.1-2.6-0.7-2.9-1.2-0.1-0.1-0.1-0.3-0.1-0.4s0.1-0.2 0.3-0.3c0.3-0.1 0.6-0.1 0.8 0l1.6 0.6c0.3 0.1 0.5 0.3 0.7 0.6 0.1 0.1 0.1 0.3 0 0.4s-0.2 0.2-0.4 0.3c0.1 0 0 0 0 0zm-2.4-1.8h-0.2c-0.1 0-0.2 0.1-0.2 0.2s0 0.2 0 0.3c0.4 0.5 1.3 1.3 2.9 1.1 0.1 0 0.2-0.1 0.2-0.2s0-0.2 0-0.3c-0.1-0.2-0.4-0.4-0.6-0.5l-1.6-0.5c-0.2-0.1-0.3-0.1-0.5-0.1z"/>
<ellipse class="st6" transform="matrix(.3314 -.9435 .9435 .3314 15.072 88.33)" cx="69.9" cy="33.5" rx=".7" ry="1.5"/>
<path class="st4" d="m70.1 32.9c0.3 0.4 0.7 1 0.7 1.4 0.3 0 0.4-0.1 0.5-0.3 0.1-0.3-0.4-0.8-1.2-1.1z"/>
<path class="st0" d="m70.7 34.4c-0.3 0-0.7 0-1-0.2-0.4-0.1-0.7-0.3-0.9-0.5s-0.3-0.5-0.3-0.6c0.1-0.4 0.9-0.5 1.7-0.2 0.4 0.1 0.7 0.3 0.9 0.5s0.3 0.5 0.3 0.6c-0.2 0.2-0.4 0.3-0.7 0.4zm-1.6-1.6c-0.3 0-0.5 0.1-0.5 0.3-0.1 0.1 0 0.3 0.2 0.5s0.5 0.4 0.9 0.5 0.7 0.2 1 0.1c0.3 0 0.5-0.1 0.5-0.3 0.1-0.1 0-0.3-0.2-0.5s-0.5-0.4-0.9-0.5-0.8-0.1-1-0.1z"/>
<path class="st6" d="m70.4 33.1c-0.1 0.2-0.2 0.1-0.4 0s-0.4-0.1-0.3-0.3 0.3-0.3 0.5-0.2 0.3 0.3 0.2 0.5z"/>
<ellipse class="st7" transform="matrix(.97 -.2431 .2431 .97 -6.414 18.682)" cx="72.5" cy="35.3" rx=".1" ry=".1"/>
<path class="st0" d="m71.1 34.5c0.3-0.8 0.8-2.8 0-3.1-0.1 0-0.2-0.1-0.2-0.1-0.5-0.2-0.9-0.4-1.2-0.3-0.1 0-0.2 0-0.3 0.1-0.4 0.2-0.7 0.7-1.1 1.7v0.1l-0.4-0.1v-0.1c0.4-1.1 0.8-1.7 1.3-1.9 0.1-0.1 0.3-0.1 0.4-0.1 0.5 0 0.9 0.2 1.4 0.4 0.1 0 0.2 0.1 0.2 0.1 1.4 0.6 0.3 3.5 0.3 3.6v0.1c0-0.2-0.4-0.4-0.4-0.4z"/>
<path class="st4" d="m71.4 34.6-0.2-0.1c0.3-0.7 0.8-2.8-0.1-3.2-0.1 0-0.2-0.1-0.2-0.1-0.6-0.3-1.1-0.5-1.6-0.3-0.4 0.2-0.8 0.8-1.1 1.7h-0.2c0.3-1.1 0.7-1.7 1.2-1.9 0.6-0.3 1.1 0 1.8 0.3 0.1 0 0.2 0.1 0.2 0.1 1.3 0.6 0.3 3.4 0.2 3.5z"/>
<path class="st6" d="m71.4 34.9h-0.4l0.1-0.3c0-0.1 0.1-0.1 0.1-0.1h0.1c0.1 0 0.2 0.1 0.1 0.2 0.1-0.1 0 0.2 0 0.2z"/>
<path class="st0" d="m71 34.9v-0.3c0-0.1 0.1-0.1 0.2-0.1h0.1c0.1 0 0.1 0 0.1 0.1v0.1 0.2h-0.4zm0.2-0.4c-0.1 0-0.1 0-0.1 0.1v0.3h0.4v-0.2-0.1s-0.1 0-0.1 0c-0.1-0.1-0.2-0.1-0.2-0.1z"/>
<path class="st4" d="m70.2 32.6s-0.1 0 0 0c0 0 0.1 0.3-0.2 0.5 0.2 0.1 0.3 0.2 0.4 0s0-0.4-0.2-0.5z"/>
<path class="st0" d="m70.3 33.2c-0.1 0-0.1 0-0.2-0.1h-0.1-0.1c-0.1 0-0.2-0.1-0.3-0.1v-0.2c0-0.1 0.1-0.2 0.2-0.3 0.1 0 0.2-0.1 0.3 0 0.1 0 0.2 0.1 0.3 0.2 0 0.1 0.1 0.2 0 0.3 0 0.2 0 0.2-0.1 0.2zm-0.3-0.6h-0.1c-0.1 0-0.1 0.1-0.2 0.2v0.1s0.1 0.1 0.2 0.1h0.1 0.1c0.1 0 0.2 0.1 0.2 0l0.1-0.1v-0.3s-0.1-0.1-0.2-0.2c-0.1 0.2-0.1 0.2-0.2 0.2z"/>
<path class="st8" d="m67.7 33.6-0.6 1.2c-0.1 0.2 0.2 0.4 0.3 0.2l0.6-1.2c0.2-0.3-0.2-0.4-0.3-0.2zm-0.8 1.7-0.3 0.6c0 0.1 0 0.2 0.1 0.3 0.1 0 0.2 0 0.3-0.1l0.3-0.6c0.1-0.3-0.3-0.4-0.4-0.2zm2.4-2.5c-0.2 0-0.6 0-0.7 0.2-0.1 0.1 0.1 0.2 0.1 0.1 0.1-0.1 0.4-0.1 0.6-0.1 0.1-0.1 0.1-0.2 0-0.2zm0.7-0.2c-0.1 0-0.2 0.1-0.3 0.2 0 0.1 0 0.1 0.1 0.1 0.1-0.1 0.1-0.1 0.2-0.1 0.1-0.1 0.1-0.2 0-0.2zm-1.7 0.4-0.1 0.1v0.2c0 0.1 0.1 0.1 0.1 0v-0.1-0.2c0.1 0.1 0.1-0.1 0 0z"/>
<path class="st9" d="m71.3 31v-0.2c0-0.2-0.1-0.3-0.3-0.3h-0.1-0.1l-1.6-0.3c-0.2 0-0.4 0.1-0.4 0.3v0.2c0 0.2 0.1 0.4 0.3 0.4l1.8 0.3c0.2 0 0.4-0.1 0.4-0.3v-0.1z"/>
<path class="st0" d="m70.9 31.6h-0.1l-1.8-0.3c-0.1 0-0.2-0.1-0.3-0.2s-0.1-0.2-0.1-0.3v-0.2c0-0.1 0.1-0.2 0.2-0.3s0.2-0.1 0.3-0.1l1.6 0.3h0.1 0.1c0.2 0 0.3 0.2 0.4 0.4v0.2c0 0.1 0 0.1-0.1 0.2 0.1 0.1-0.1 0.3-0.3 0.3zm-1.8-1.3c-0.1 0-0.1 0-0.1 0.1-0.1 0-0.1 0.1-0.1 0.2v0.2c0 0.1 0 0.2 0.1 0.2 0 0.1 0.1 0.1 0.2 0.1l1.8 0.3c0.1 0 0.3-0.1 0.3-0.2s0-0.1 0.1-0.2v-0.1c0-0.1-0.1-0.3-0.2-0.3h-0.1-0.1l-1.9-0.3c0.1 0 0 0 0 0z"/>
<ellipse class="st6" transform="matrix(.9964 -.084652 .084652 .9964 -2.6769 6.1598)" cx="71.3" cy="34.6" rx=".1" ry=".1"/>
<path class="st0" d="m71.3 34.7c-0.1 0-0.1 0-0.1-0.1s0-0.1 0.1-0.1 0.1 0 0.1 0.1 0 0.1-0.1 0.1zm0-0.1v0 0z"/>
<path class="st10" d="m70.2 30.7c-0.1 0-0.2 0-0.2 0.1-0.1 0.2-0.1 0.5 0.4 0.6 0.2 0 0.1 0.2-0.1 0.3-0.1 0-0.7 0.2-0.9-0.1-0.1 0.1-0.5 0-0.6-0.2-0.1 0.1-0.5 0-0.6-0.3-0.3 0-0.7-0.3-0.5-1.5 0.2-0.4 3 0.1 3 0.1s0.5 0.3 1 0.2c0.1 0 0.2 0 0.2 0.1 0 0.3-0.1 0.9-0.9 0.9-0.2 0-0.6-0.1-0.8-0.2z"/>
<path class="st11" d="m71.1 29.8c-0.1 0.1-0.4 0.3-0.4 0.4 0.1 0.1 0.9 0.2 1.1-0.3 0-0.1 0-0.1-0.1-0.1-0.1 0.1-0.2 0.1-0.6 0z"/>
<path class="st0" d="m71.2 30.4c-0.2 0-0.5 0-0.6-0.1s0-0.3 0.3-0.5h0.1 0.6 0.1c0.1 0 0.1 0 0.1 0.1v0.1c0 0.2-0.2 0.4-0.6 0.4 0.1 0 0 0 0 0zm-0.4-0.2s0.3 0.1 0.6 0c0.1 0 0.3-0.1 0.4-0.3h-0.1-0.6l-0.3 0.3z"/>
<path class="st0" d="m70.7 30.5c-0.1 0-0.2-0.1-0.2-0.2h0.1v0.1s0.1 0 0.1 0.1v0z"/>
<path class="st2" d="m71.4 30h-0.2c-0.1 0-0.1 0.1 0 0.1h0.3s0-0.1-0.1-0.1z"/>
<path class="st12" d="m70.4 31.4c-0.1 0-0.2-0.1-0.3-0.1-0.4 0.1-1.3 0.2-2.2-0.5v0.2c0.1 0.1 0.2 0.2 0.3 0.2 0.1 0.3 0.4 0.4 0.6 0.3 0 0.2 0.5 0.3 0.6 0.2 0.2 0.2 0.8 0.1 0.9 0.1s0.3-0.4 0.1-0.4z"/>
<path class="st0" d="m70 31.8c-0.2 0-0.4 0-0.5-0.1h-0.2c-0.1 0-0.3-0.1-0.4-0.2h-0.3c-0.2 0-0.3-0.2-0.4-0.3-0.1 0-0.2-0.1-0.3-0.2-0.1-0.2-0.3-0.6-0.2-1.4 0.1-0.1 0.3-0.3 1.7-0.2 0.7 0.1 1.4 0.2 1.4 0.2s0.5 0.2 1 0.2c0.1 0 0.3 0.1 0.3 0.2s0 0.4-0.2 0.7c-0.3 0.2-0.5 0.3-0.9 0.3-0.2 0-0.5-0.1-0.8-0.3h-0.1l-0.1 0.1c0 0.1-0.1 0.2 0 0.3 0 0.1 0.2 0.2 0.3 0.2s0.1 0.1 0.1 0.2-0.1 0.2-0.2 0.2h-0.1c0.1 0.1 0 0.1-0.1 0.1zm-0.6-0.3s0.1 0 0 0c0.2 0.2 0.7 0.1 0.8 0.1h0.1l0.1-0.1c-0.2-0.1-0.4-0.1-0.4-0.3-0.1-0.1-0.1-0.3 0-0.4 0-0.1 0.1-0.1 0.1-0.1h0.2c0.3 0.1 0.6 0.2 0.7 0.2 0.3 0 0.6-0.1 0.7-0.2 0.2-0.2 0.2-0.5 0.1-0.6l-0.1-0.1c-0.5 0.1-1-0.1-1-0.2-1.1-0.2-2.7-0.4-2.9-0.1-0.1 0.7 0 1.1 0.2 1.2 0.1 0.1 0.2 0.2 0.3 0.2h0.1c0 0.1 0.1 0.2 0.3 0.3h0.2 0.1v0.1c0 0.1 0.1 0.1 0.2 0.1s0.2 0 0.2-0.1z"/>
<path class="st0" d="m69.5 31.6c-0.1-0.1-0.1-0.3-0.2-0.4 0-0.1-0.2 0-0.1 0.1 0 0.1 0.1 0.3 0.2 0.4 0 0 0.2 0 0.1-0.1zm-0.5-0.1c-0.1-0.1-0.1-0.3-0.2-0.4 0-0.1-0.2 0-0.1 0.1 0 0.1 0.1 0.3 0.2 0.4 0 0.1 0.2 0 0.1-0.1zm-0.6-0.3c-0.1-0.1-0.1-0.2-0.1-0.4 0-0.1-0.1-0.1-0.1 0 0 0.2 0 0.3 0.1 0.4 0 0.2 0.2 0.1 0.1 0z"/>
<ellipse class="st3" transform="matrix(.9964 -.084652 .084652 .9964 -1.7611 6.2334)" cx="72.6" cy="23.9" rx="2.3" ry="2.3"/>
<path class="st13" d="m76.3 26s-4.9-3.1-8-0.1c-1.1 1.1-1 3.5-1 3.5s1.3 1.5 3.7 0.5c0.2-0.1 0.3-0.3 0.3-0.5-0.2-0.8-0.5-2.3 1-2.5 1.8-0.3 3.4 0.9 4.1 2.1 0.8 1.2 2.2 4.8 0.6 7.3 0.5 0.1 0.7 0.2 0.8 0.9s0.1 0.9 0.1 0.9l1 1 1.4-0.3s4.4-0.3 5-3.1 0.6-5 0.3-5.6c-0.4-0.6-9.3-4.1-9.3-4.1z"/>
<path class="st6" d="m76.2 28.8c-1.1-3-4-2.5-4.6-2.2-1.7 0.7-1.3 2.7-0.9 3.4 0.2 0.2 0.4-0.4 0.4-0.4l-0.2-1c-0.1-0.7 0.1-1.5 1.2-1.7 1.8-0.3 3.3 0.7 4.1 1.9z"/>
<path class="st0" d="m78.7 39.1-1-1s0-0.2-0.1-0.9c-0.1-0.6-0.2-0.7-0.7-0.8h-0.1l0.1-0.1c1.5-2.4 0.2-5.9-0.6-7.2-0.8-1.2-2.3-2.3-4.1-2-0.4 0.1-0.7 0.2-0.9 0.5-0.4 0.6-0.1 1.5 0 2 0.1 0.2-0.1 0.5-0.3 0.6-1.3 0.5-2.2 0.4-2.8 0.1s-1-0.7-1-0.7c0-0.1 0-2.5 1.1-3.5 1.3-1.3 3.1-1.6 5.2-1.1 1.5 0.4 2.8 1.1 2.9 1.2s2.3 0.9 4.5 1.8c1.3 0.5 4.6 1.9 4.7 2.3 0.2 0.6 0.3 2.7-0.3 5.6-0.2 1.2-1.2 2.1-2.7 2.6-1.1 0.4-2.2 0.5-2.3 0.5l-1.6 0.1zm-0.9-1.1 0.9 1 1.4-0.3s4.4-0.3 4.9-3c0.3-1.6 0.4-2.8 0.5-3.6 0-0.9 0-1.6-0.1-2 0-0.1-0.6-0.5-4.6-2.2-2.2-0.9-4.5-1.8-4.5-1.8s-1.3-0.8-2.8-1.2-3.5-0.5-5.1 1.1c-1 1-1 3.1-1 3.4 0.1 0.1 0.4 0.4 0.9 0.6 0.6 0.2 1.5 0.4 2.7-0.1 0.2-0.1 0.3-0.2 0.2-0.4-0.2-0.7-0.3-1.5 0.1-2.1 0.2-0.3 0.6-0.5 1-0.6 1.8-0.3 3.4 0.9 4.2 2.1 0.4 0.6 0.9 1.8 1.2 3.2 0.2 1.1 0.3 2.8-0.5 4.1 0.5 0.1 0.7 0.3 0.7 0.9-0.1 0.5-0.1 0.8-0.1 0.9z"/>
<path class="st0" d="m69.6 30.3c-0.6 0.1-1.1-0.1-1.5-0.2-0.6-0.3-1-0.7-1-0.7s0 0 0 0 0-0.6 0.1-1.3v-0.1h0.1c0.5 0.5 1.2 0.8 2.1 0.9 0.7 0.1 1.3 0 1.5-0.1 0 0 0.1 0 0.1 0.1 0 0.2 0.1 0.3 0.1 0.4 0.1 0.2-0.1 0.5-0.3 0.6-0.4 0.3-0.8 0.4-1.2 0.4zm-2.3-1c0.1 0.1 0.4 0.4 0.9 0.6 0.6 0.2 1.5 0.4 2.7-0.1 0.2-0.1 0.3-0.2 0.2-0.4 0-0.1-0.1-0.2-0.1-0.4-0.2 0-0.8 0.1-1.5 0-0.9-0.1-1.6-0.4-2.1-0.8-0.1 0.6-0.1 1-0.1 1.1z"/>
<path class="st2" d="m68.7 29.2v0.5c0 0.1-0.1 0.2-0.2 0.2-0.6-0.1-1-0.3-1-0.6v-0.3c0-0.1 0.1-0.1 0.2-0.1 0.1 0.1 0.4 0.2 0.7 0.2 0.2 0 0.3 0.1 0.3 0.1z"/>
<ellipse class="st14" transform="matrix(.9964 -.084652 .084652 .9964 -2.2103 5.8194)" cx="67.5" cy="29" rx=".2" ry=".3"/>
<path class="st0" d="m67.5 29.3c-0.1 0-0.3-0.1-0.3-0.3s0.1-0.3 0.2-0.4c0.1 0 0.3 0.1 0.3 0.3 0.1 0.3 0 0.4-0.2 0.4zm0-0.5s-0.1 0.1-0.1 0.2 0.1 0.2 0.1 0.2 0.1-0.1 0.1-0.2-0.1-0.2-0.1-0.2z"/>
<path class="st2" d="m68.8 28.7s-1.4-0.2-1-1.2 1.4-2.5 3.1-2.6c-0.7 0.3-2 0.8-2.1 3.8z"/>
<path class="st6" d="m80.5 31.1s0.8 3.5-0.6 7.4h-0.3l0.3-0.7 0.4-1.7 0.1-0.8 0.1-1.7v-1.5-1z"/>
<path class="st6" d="m79 36.7s0.7 0.5 2.5 0.2c-0.2 0.2-2 0.6-2.5-0.2zm0.5-1.4s0.6 0.3 1.9 0c-0.2 0.2-1.4 0.6-1.9 0zm0.5-2.7s0.7 0.1 1.2-0.1c-0.2 0.2-0.9 0.4-1.2 0.1zm-0.1 1.6s0.8 0.2 1.4-0.1c-0.2 0.2-1 0.5-1.4 0.1z"/>
<path class="st0" d="m79.2 39.2c-0.1 0-0.1-0.1-0.1-0.1 1.7-1.9 1.3-8 1.3-8s0-0.1 0.1-0.1c0 0 0.1 0 0.1 0.1 0 0 0.1 1.6 0 3.3-0.2 2.4-0.6 4-1.4 4.8z"/>
<path class="st0" d="m80.6 34.3h-0.7v-0.1h0.1s0.4 0.1 1.3-0.1h0.1s0 0.1 0 0.1c-0.4 0-0.6 0-0.8 0.1zm0 1.2c-0.8 0.1-1.2-0.1-1.2-0.1v-0.1h0.1s0.5 0.3 1.9 0h0.1v0.1c-0.4 0-0.6 0.1-0.9 0.1zm0.3 1.5c-1.1 0.1-1.9-0.2-1.9-0.2v-0.1h0.1s0.3 0.1 0.7 0.2 1 0.1 1.8-0.1h0.1v0.1c-0.4 0-0.6 0.1-0.8 0.1zm-0.2-4.4h-0.7v-0.1h0.1s0.5 0.1 1.1 0h0.1v0.1h-0.6z"/>
<ellipse class="st0" transform="matrix(.9964 -.084652 .084652 .9964 -2.4586 6.9913)" cx="81.2" cy="32.5" rx=".1" ry=".1"/>
<ellipse class="st0" transform="matrix(.9964 -.084652 .084652 .9964 -2.4657 6.883)" cx="79.9" cy="32.5" rx=".1" ry=".1"/>
<ellipse class="st0" transform="matrix(.9964 -.084652 .084652 .9964 -2.6043 6.8876)" cx="79.9" cy="34.2" rx=".1" ry=".1"/>
<ellipse class="st0" transform="matrix(.9964 -.084652 .084652 .9964 -2.7041 6.8566)" cx="79.5" cy="35.3" rx=".1" ry=".1"/>
<ellipse class="st0" transform="matrix(.9964 -.084652 .084652 .9964 -2.8206 6.8186)" cx="79" cy="36.7" rx=".1" ry=".1"/>
<ellipse class="st0" transform="matrix(.9964 -.084652 .084652 .9964 -2.8253 7.0346)" cx="81.5" cy="36.8" rx=".1" ry=".1"/>
<ellipse class="st0" transform="matrix(.9964 -.084652 .084652 .9964 -2.5945 7.0008)" cx="81.3" cy="34.1" rx=".1" ry=".1"/>
<ellipse class="st0" transform="matrix(.9964 -.084652 .084652 .9964 -2.696 7.0177)" cx="81.4" cy="35.3" rx=".1" ry=".1"/>
<path class="st5" d="m82.5 37h0.1c0.1 0 0.1 0 0.1 0.1 0 0.2 0.1 0.7 0.3 1 0 0.1 0 0.2-0.1 0.2-0.5 0.1-0.4 0-0.4 0l-0.2-1.1c0.1-0.2 0.1-0.2 0.2-0.2zm-4.7-4.7c0 0.1 0.1 0.3 0.3 0.3h0.8c0.1 0 0.3-0.1 0.3-0.3 0-0.1-0.1-0.3-0.3-0.3h-0.9c-0.1 0-0.2 0.2-0.2 0.3zm4.3 0.2c0 0.2 0.1 0.3 0.3 0.3l1-0.1c0.1 0 0.3-0.1 0.3-0.3 0-0.1-0.1-0.3-0.3-0.2h-1c-0.1 0-0.3 0.2-0.3 0.3z"/>
<path class="st15" d="m74.9 37 0.1 3.6c0 0.1 0 0.2 0.1 0.2 0.1 0.1 0.2 0.3 0.4 0.3 0.6 0.1 2.2 0.4 3.4-0.3l0.2-0.2c0-0.1 0.1-0.2 0.1-0.3l-0.5-3.6c-0.2 0-2-0.8-3.8 0.3z"/>
<path class="st2" d="m75.4 41.2c0.3 0.1 0.9 0.2 1.5 0.2-2-1.9-0.8-4.5-0.8-4.5s-0.4 0-0.8-0.1c-0.1 0.1-0.3 0.1-0.4 0.2l0.1 3.6c0 0.1 0 0.2 0.1 0.2 0 0.2 0.2 0.3 0.3 0.4z"/>
<path class="st0" d="m77.4 41.4c-0.8 0.1-1.6-0.1-2-0.2-0.2 0-0.3-0.2-0.4-0.3 0-0.1-0.1-0.2-0.1-0.3v-3.6c1.7-1.2 3.6-0.3 3.6-0.3l0.5 3.7c0 0.1 0 0.3-0.1 0.4s-0.1 0.2-0.2 0.2c-0.3 0.3-0.8 0.4-1.3 0.4zm-2.4-4.3 0.1 3.6v0.2l0.3 0.3c0.6 0.1 2.2 0.4 3.3-0.3 0.1 0 0.1-0.1 0.2-0.2 0-0.1 0.1-0.2 0-0.3l-0.5-3.6c-0.2-0.1-1.9-0.8-3.4 0.3z"/>
<ellipse class="st2" transform="matrix(.9964 -.084652 .084652 .9964 -2.8451 6.6277)" cx="76.7" cy="36.9" rx="1.8" ry=".8"/>
<path class="st16" d="m76.7 36.3c-0.9 0.1-1.5 0.5-1.5 0.9v0.2c0.3 0.2 0.9 0.3 1.5 0.2 0.7-0.1 1.2-0.3 1.5-0.5v-0.1c0.1-0.4-0.6-0.7-1.5-0.7z"/>
<path class="st3" d="m77.8 37.2c0-0.4-0.7-0.6-1.4-0.5-0.4 0-0.7 0.1-1 0.3-0.1 0.1-0.1 0.2-0.1 0.3v0.2c0.3 0.2 0.9 0.3 1.5 0.2 0.3 0 0.6-0.1 0.8-0.1 0.1-0.2 0.2-0.3 0.2-0.4z"/>
<path class="st0" d="m76.8 37.8c-1 0.1-1.9-0.2-1.9-0.7s0.7-1 1.8-1c1-0.1 1.9 0.2 1.9 0.7s-0.8 0.9-1.8 1zm-0.1-1.7c-1 0.1-1.7 0.5-1.7 0.9s0.8 0.7 1.8 0.6 1.7-0.5 1.7-0.9c-0.1-0.4-0.9-0.7-1.8-0.6z"/>
<ellipse class="st6" transform="matrix(.9964 -.084652 .084652 .9964 -2.9622 6.5178)" cx="75.4" cy="38.2" rx=".2" ry=".4"/>
<ellipse class="st6" transform="matrix(.9964 -.084652 .084652 .9964 -3.0323 6.5309)" cx="75.5" cy="39" rx=".1" ry=".3"/>
<path class="st10" d="m76.7 41.4h0.2l-0.1-0.3h-0.3v0.1l0.2 0.2zm-0.1-2.1-0.2-0.1-0.1 1.1s0.5 0.1 0.7 0-0.1-0.3-0.1-0.3l-0.1-0.6-0.2-0.1z"/>
<path class="st10" d="m76.6 38.7s-0.6-0.1-0.7 0.4c0 0.5-0.1 1.2 0.6 1.2"/>
<path class="st0" d="m76.4 40.4c-0.2 0-0.3 0-0.4-0.1-0.2-0.2-0.2-0.6-0.2-0.9v-0.2c0.1-0.5 0.6-0.5 0.8-0.5v0.1-0.1 0.1s-0.6-0.1-0.6 0.3v0.1c0 0.3 0 0.7 0.2 0.8 0.1 0.1 0.2 0.1 0.3 0.1l-0.1 0.3z"/>
<path class="st2" d="m77.3 38.2v-0.1c0-0.2-0.2-0.3-0.3-0.3h-0.2c-0.2 0-0.3 0.2-0.3 0.3l0.1 1.1c0 0.2 0.2 0.3 0.3 0.3h0.2c0.2 0 0.3-0.2 0.3-0.3l-0.1-1z"/>
<path class="st6" d="m76.9 39.6h0.2 0.1c-0.2-0.2-0.4-0.3-0.5-0.5-0.1-0.4-0.1-0.9-0.2-1-0.1 0.1-0.1 0.1-0.1 0.2l0.1 1.1c0 0.1 0.2 0.2 0.4 0.2z"/>
<path class="st0" d="m77.1 39.6h-0.2c-0.2 0-0.4-0.1-0.4-0.3l-0.1-1.1c0-0.2 0.1-0.4 0.4-0.4h0.2c0.2 0 0.4 0.1 0.4 0.3l0.1 1.1c0 0.2-0.2 0.4-0.4 0.4zm-0.4-1.7c-0.1 0-0.2 0.1-0.2 0.2l0.1 1.1c0 0.1 0.1 0.2 0.3 0.2h0.2c0.1 0 0.2-0.1 0.2-0.2l-0.1-1.1c0-0.1-0.1-0.2-0.3-0.2h-0.2z"/>
<path class="st10" d="m76.9 41.6s0 1 2.1 0.3c0.6-0.6 0-3.1 0-3.1s-0.7-0.9-0.8-1.1c0 0 0-0.1-0.1-0.1-0.4 0-1.4 0.4-0.7 1.5 0.2 0.3-0.8 0.2-1 0"/>
<path class="st0" d="m77.9 42.2c-0.4 0-0.7 0-0.9-0.2-0.3-0.2-0.2-0.4-0.2-0.4s0-0.1 0.1-0.1c0 0 0.1 0 0.1 0.1 0 0 0 0.2 0.2 0.3s0.7 0.3 1.8-0.1c0.5-0.4 0.1-2.3 0-3-0.1-0.1-0.7-0.9-0.8-1.1-0.2 0-0.6 0.1-0.8 0.4-0.1 0.3-0.1 0.6 0.2 1 0.1 0.1 0 0.2 0 0.2-0.2 0.2-0.9 0-1.1-0.1v-0.1h0.1c0.2 0.1 0.8 0.2 0.9 0.1-0.3-0.4-0.3-0.8-0.2-1.1 0.2-0.4 0.7-0.5 0.9-0.5 0.1 0 0.1 0 0.1 0.1 0.1 0.2 0.8 1.1 0.8 1.1 0 0.1 0.6 2.6 0 3.1-0.5 0.2-0.9 0.3-1.2 0.3z"/>
<path class="st12" d="m79.2 40.7c-0.5 1.2-1.7 1.3-2.2 1.1 0.1 0.3 0.6 0.6 2 0.1 0.2-0.2 0.3-0.5 0.3-1-0.1 0-0.1-0.2-0.1-0.2z"/>
<path class="st0" d="m77.9 42.2c-0.4 0-0.7 0-0.9-0.2-0.3-0.2-0.2-0.4-0.2-0.4s0-0.1 0.1-0.1c0 0 0.1 0 0.1 0.1 0 0 0 0.2 0.2 0.3s0.7 0.3 1.8-0.1c0.5-0.4 0.1-2.3 0-3-0.1-0.1-0.7-0.9-0.8-1.1-0.2 0-0.6 0.1-0.8 0.4-0.1 0.3-0.1 0.6 0.2 1 0.1 0.1 0 0.2 0 0.2-0.2 0.2-0.9 0-1.1-0.1v-0.1h0.1c0.2 0.1 0.8 0.2 0.9 0.1-0.3-0.4-0.3-0.8-0.2-1.1 0.2-0.4 0.7-0.5 0.9-0.5 0.1 0 0.1 0 0.1 0.1 0.1 0.2 0.8 1.1 0.8 1.1 0 0.1 0.6 2.6 0 3.1-0.5 0.2-0.9 0.3-1.2 0.3z"/>
<path class="st10" d="m77.3 41.6c-0.7 0.1-0.7-0.5-0.7-0.5"/>
<path class="st0" d="m77.2 41.7c-0.2 0-0.4 0-0.6-0.1-0.2-0.2-0.2-0.4-0.2-0.4s0-0.1 0.1-0.1c0 0 0.1 0 0.1 0.1 0 0 0 0.2 0.1 0.3s0.3 0.1 0.5 0.1c0 0 0.1 0 0.1 0.1 0-0.1 0 0-0.1 0z"/>
<path class="st10" d="m77.1 41s-0.2 0.1-0.6 0c-0.4 0-0.4-0.9-0.4-0.9s0.4 0.2 1 0"/>
<path class="st0" d="m76.9 41.2h-0.3c-0.1 0-0.3-0.1-0.4-0.5-0.2-0.2-0.2-0.5-0.2-0.5v-0.1s0 0 0.1 0c0 0 0.4 0.2 1 0h0.1v0.1c-0.4 0.1-0.8 0.1-1 0 0 0.3 0.1 0.7 0.3 0.7h0.5 0.1s0 0.1 0 0.1c0 0.1-0.1 0.2-0.2 0.2z"/>
<path class="st11" d="m78.2 37.7c-0.1 0-0.6 0.1-0.8 0.3-0.1 0.1-0.1 0.1-0.1 0.2 0.1 0.2 0.2 0.7 0.4 0.7 0.1 0 0.8-0.1 0.9-0.4 0-0.2-0.2-0.6-0.4-0.8 0.1 0 0 0 0 0z"/>
<path class="st0" d="m77.8 39c-0.3 0-0.5-0.4-0.6-0.6v-0.1c0-0.1 0-0.2 0.1-0.3 0.3-0.2 0.7-0.3 0.8-0.3s0.1 0 0.2 0.1c0.1 0.2 0.3 0.6 0.4 0.7-0.1 0.3-0.6 0.5-0.9 0.5zm0.4-1.2c-0.1 0-0.5 0.1-0.7 0.3v0.1 0.1c0.1 0.2 0.2 0.5 0.4 0.5 0.1 0 0.7-0.1 0.8-0.4-0.2-0.1-0.4-0.5-0.5-0.6zm-0.3 1.4c-0.2 0-0.3-0.1-0.3-0.1v-0.1h0.1s0.1 0.1 0.4 0h0.1v0.1c-0.2 0.1-0.3 0.1-0.3 0.1zm0.3-0.1c-0.1 0-0.1 0 0 0-0.1-0.1 0-0.1 0-0.1s0.2 0 0.3-0.1h0.1v0.1c-0.2 0.1-0.4 0.1-0.4 0.1zm-0.8 1.3s-0.1 0 0 0c-0.2-0.2-0.1-0.3-0.1-0.4h0.1s0 0.1 0 0.1-0.1 0.1 0 0.2v0.1z"/>
<path class="st17" d="m77.3 40.9v0.2"/>
<path class="st0" d="m77.4 41.2s-0.1 0 0 0c-0.1-0.1-0.1-0.3-0.1-0.3h0.1v0.1 0.1c0.1 0 0 0.1 0 0.1z"/>
<path class="st17" d="m77.4 41.5s0 0.1 0.1 0.2"/>
<path class="st0" d="m77.5 41.8c-0.2-0.1-0.2-0.3-0.1-0.3 0 0 0-0.1 0.1-0.1 0 0 0.1 0 0.1 0.1v0.1c0 0.1 0 0.1-0.1 0.2z"/>
<path class="st2" d="m78.4 38.4c-0.1-0.1-0.1-0.3-0.2-0.4 0-0.1-0.2 0-0.1 0.1s0.1 0.3 0.2 0.4 0.2 0 0.1-0.1z"/>
<path class="st6" d="m85.2 33.5s-1-0.4-1.6 2.2c-0.6 2.7 0.6 2.3 0.6 2.3s1.7-3.6 1-4.5z"/>
<path class="st13" d="m82.7 28.5s2.9-0.1 3.9 3.3c1.3 5.8-0.5 10.3-6.3 11.6-0.3 0.1-0.5 0-0.7-0.3-0.8-1-1.4-2.4-0.7-4.6 1.2-0.2 6.3-0.5 6-5.4"/>
<path class="st6" d="m86.7 32.8c0.1 3.1-0.8 8.5-7.6 9.7 0.1 0.2 0.3 0.4 0.4 0.6s0.4 0.3 0.7 0.3c5.5-1.2 7.4-5.3 6.5-10.6z"/>
<path class="st0" d="m80.1 43.5c-0.3 0-0.5-0.1-0.7-0.3-0.7-1-1.4-2.4-0.7-4.6h0.1c0.1 0 0.3 0 0.4-0.1 0.9-0.1 2.3-0.3 3.5-1.1 1.5-0.9 2.1-2.3 2-4.2 0 0 0-0.1 0.1-0.1 0 0 0.1 0 0.1 0.1 0.1 1.9-0.6 3.4-2.1 4.3-1.2 0.7-2.7 1-3.6 1.1-0.1 0-0.3 0-0.4 0.1-0.7 2.2 0 3.5 0.7 4.5 0.1 0.2 0.4 0.3 0.6 0.2 2.5-0.5 4.3-1.7 5.4-3.4 1.3-2 1.6-4.8 0.8-8.1-0.3-1.8-1.3-2.6-2.1-2.9-0.8-0.4-1.5-0.3-1.5-0.3s-0.1 0-0.1-0.1c0 0 0-0.1 0.1-0.1 0 0 0.7 0 1.6 0.4 0.8 0.4 1.8 1.2 2.3 3 0.7 3.3 0.4 6.2-0.9 8.2-1.1 1.8-3 2.9-5.5 3.5 0-0.1 0-0.1-0.1-0.1z"/>
<path class="st0" d="m80.1 43.5c-0.3 0-0.5-0.1-0.7-0.3-0.7-1-1.4-2.4-0.7-4.6h0.1c0.1 0 0.3 0 0.4-0.1 0.3 0 0.6-0.1 0.9-0.2h0.1v0.1c-0.1 0.4-0.2 1.3 0 2.1 0.3 1 0.9 1.8 2 2.2v0.1s0 0.1 0 0.1c-0.6 0.3-1.3 0.5-2 0.6h-0.1zm-1.2-4.9c-0.7 2.1 0 3.5 0.7 4.4 0.1 0.2 0.4 0.3 0.6 0.2 0.6-0.1 1.2-0.3 1.8-0.5-1-0.5-1.6-1.2-1.9-2.2-0.2-0.8-0.1-1.6 0-2.1-0.3 0.1-0.6 0.1-0.8 0.1-0.2 0.1-0.3 0.1-0.4 0.1z"/>
<ellipse class="st5" transform="matrix(.9964 -.084652 .084652 .9964 -3.3265 7.0054)" cx="80.9" cy="42.7" rx=".3" ry=".3"/>
<path class="st0" d="m81 43.1c-0.2 0-0.4-0.1-0.4-0.3s0.1-0.4 0.3-0.4 0.4 0.1 0.4 0.3-0.1 0.4-0.3 0.4zm-0.1-0.6c-0.1 0-0.2 0.1-0.2 0.2s0.1 0.2 0.2 0.2 0.2-0.1 0.2-0.2-0.1-0.2-0.2-0.2z"/>
<path class="st2" d="m80.3 39.9c-0.1-0.4-0.3-1.5 0.8-1.6 0.4 0 2.8-0.9 3.3-2.5-0.1 1.1-0.7 2.5-4.1 4.1zm-0.6 0.3-0.7 0.2c-0.2 0.1-0.4-0.1-0.3-0.3 0-0.4 0.1-0.9 0.2-1.1 0-0.1 0.1-0.1 0.2-0.2 0.2 0 0.4-0.1 0.5-0.1 0.2 0 0.3 0.1 0.3 0.3v0.9c0 0.1-0.1 0.2-0.2 0.3z"/>
<ellipse class="st3" transform="matrix(.9964 -.084652 .084652 .9964 -2.0836 7.3187)" cx="85.3" cy="28.2" rx=".3" ry=".3"/>
<ellipse class="st3" transform="matrix(.9964 -.084652 .084652 .9964 -2.2798 6.3538)" cx="73.8" cy="30.1" rx="1" ry="1"/>
<ellipse class="st3" transform="matrix(.9964 -.084652 .084652 .9964 -2.6191 6.3909)" cx="74.1" cy="34.1" rx=".3" ry=".3"/>
<ellipse class="st3" transform="matrix(.9964 -.084652 .084652 .9964 -2.4988 6.459)" cx="74.9" cy="32.7" rx=".4" ry=".4"/>
<ellipse class="st3" transform="matrix(.6717 -.7408 .7408 .6717 -6.0185 60.265)" cx="65" cy="36.9" rx=".8" ry=".8"/>
<path class="st0" d="m65.6 36.3c0.3 0.3 0.4 0.8 0.1 1.2-0.3 0.3-0.8 0.4-1.2 0.1-0.3-0.3-0.4-0.8-0.1-1.2s0.8-0.4 1.2-0.1zm-1.1 1.1c0.3 0.3 0.7 0.2 1 0s0.2-0.7 0-1c-0.3-0.3-0.7-0.2-1 0s-0.3 0.8 0 1z"/>
<ellipse class="st3" transform="matrix(.6717 -.7408 .7408 .6717 -5.0183 60.02)" cx="65.2" cy="35.7" rx=".3" ry=".3"/>
<path class="st0" d="m65.4 35.4c0.1 0.1 0.1 0.3 0 0.5-0.1 0.1-0.3 0.1-0.5 0-0.1-0.1-0.1-0.3 0-0.5 0.2-0.1 0.4-0.1 0.5 0zm-0.3 0.4c0.1 0.1 0.2 0.1 0.2 0s0.1-0.2 0-0.2c-0.1-0.1-0.2-0.1-0.2 0-0.1 0-0.1 0.1 0 0.2z"/>
<ellipse class="st3" transform="matrix(.9964 -.084652 .084652 .9964 -1.5948 6.5507)" cx="76.4" cy="22.1" rx=".8" ry=".8"/>
<ellipse class="st3" transform="matrix(.9964 -.084652 .084652 .9964 -1.8107 6.5207)" cx="76" cy="24.6" rx=".4" ry=".4"/>
<path class="st6" d="m81.8 29.9c0.3-0.4 0.7-0.6 1.2-0.8h0.2 0.1 0.1c0.2 0 0.4-0.1 0.7-0.1-0.7-0.3-1.3-0.3-1.5-0.3h-0.1c-0.2-0.1-0.5-0.2-0.7-0.3-0.3 0.3-0.5 1.2 0 1.5z"/>
<ellipse class="st18" transform="matrix(.9964 -.084652 .084652 .9964 -2.2351 6.9326)" cx="80.6" cy="29.8" rx=".6" ry=".6"/>
<path class="st2" d="m81.1 29.6s0.1 0.6-0.4 0.7c0.2 0.5 0.3 0.5 0.3 0.5s1.1-0.5 1.1-1.6c-0.5 0.1-1 0.4-1 0.4z"/>
<path class="st0" d="m81 30.9c-0.1 0-0.2-0.1-0.3-0.6v-0.1h0.1c0.4-0.1 0.4-0.6 0.4-0.6s0.5-0.3 1-0.4h0.1v0.1c-0.2 1-1.3 1.5-1.3 1.6zm-0.2-0.6c0.1 0.2 0.2 0.3 0.2 0.4 0.2-0.1 1-0.6 1-1.4-0.4 0.1-0.7 0.3-0.8 0.3 0 0.2-0.1 0.6-0.4 0.7z"/>
<path class="st10" d="m83.9 26.2c0.2-1.1 0-2 0-2l-7.1-0.2c-0.9 2.5 0.5 4.7 2.2 5.5 1.1 0.6 2.4 0.4 3.4-0.4 0.6-0.6 1-1.2 1.3-1.8h0.1c0.3 0 0.6-0.3 0.5-0.6s-0.2-0.5-0.4-0.5z"/>
<path class="st0" d="m80.6 29.9c-0.6 0-1.1-0.1-1.7-0.3-1.8-0.9-3.1-3.1-2.2-5.6h0.1l7.1 0.2s0.1 0 0.1 0.1c0 0 0.2 0.9 0 2 0.2 0.1 0.3 0.3 0.3 0.5 0 0.4-0.2 0.7-0.6 0.7h-0.1c-0.3 0.7-0.7 1.3-1.3 1.8-0.4 0.3-1 0.6-1.7 0.6zm-3.7-5.8c-0.8 2.4 0.5 4.5 2.2 5.4 1.1 0.6 2.4 0.4 3.3-0.4 0.6-0.5 1-1.1 1.2-1.8 0 0 0-0.1 0.1 0h0.1c0.3 0 0.5-0.3 0.5-0.5s-0.1-0.3-0.3-0.4v-0.1c0.1-0.9 0-1.7 0-1.9-0.2-0.1-7.1-0.3-7.1-0.3z"/>
<path class="st18" d="m84.3 26.6c0-0.2-0.2-0.4-0.4-0.5 0.1-0.6 0.1-1.2 0-1.5-0.8 0-1.7 0.3-1.7 0.3 0.1 0.2 1.3 1.7 0.4 3.9 0.4-0.5 0.7-1 0.9-1.5h0.1c0.5-0.1 0.7-0.3 0.7-0.7z"/>
<path class="st0" d="m80.6 29.9c-0.6 0-1.1-0.1-1.7-0.3-1.8-0.9-3.1-3.1-2.2-5.6l7.2 0.2v0.1s0.2 0.9 0 2c0.2 0.1 0.3 0.3 0.3 0.5 0 0.4-0.2 0.7-0.6 0.7h-0.1c-0.3 0.7-0.7 1.3-1.3 1.8-0.3 0.3-0.9 0.6-1.6 0.6zm-3.7-5.8c-0.8 2.4 0.5 4.5 2.2 5.4 1.1 0.6 2.4 0.4 3.3-0.4 0.6-0.5 1-1.1 1.2-1.8v-0.1h0.1c0.3 0 0.5-0.3 0.5-0.5s-0.1-0.3-0.3-0.4h-0.1v-0.1c0.1-0.9 0-1.7 0-1.9l-6.9-0.2z"/>
<path class="st2" d="m80.2 29.6c0 0.1-0.1 0.8 0.6 0.6 0.5-0.2 0.4 0.5 0.3 0.6s-0.9 0.4-1.3 0.1-0.3-1.2 0-1.3h0.4z"/>
<path class="st0" d="m80.4 31.1c-0.2 0-0.5 0-0.7-0.2-0.3-0.2-0.4-0.6-0.3-0.9 0-0.2 0.2-0.4 0.3-0.5 0.3-0.1 0.4 0 0.5 0v0.1c0 0.1 0 0.4 0.1 0.5s0.2 0.1 0.4 0c0.3-0.1 0.4 0 0.4 0.1 0.1 0.2 0 0.5-0.1 0.6 0 0.1-0.3 0.3-0.6 0.3zm-0.4-1.4h-0.2s-0.2 0.2-0.2 0.3c-0.1 0.3 0 0.6 0.2 0.8 0.4 0.3 1.2 0 1.2-0.1s0.1-0.3 0-0.4c0-0.1-0.1-0.1-0.3 0s-0.4 0-0.5-0.1-0.1-0.4-0.2-0.5c0.1 0 0 0 0 0z"/>
<path class="st19" d="m78.8 28.5-0.2 0.1c-0.1 0-0.2 0-0.2-0.1l-0.3-0.9c0-0.1 0-0.2 0.1-0.2l0.2-0.1c0.1 0 0.2 0 0.2 0.1l0.3 0.9s0 0.1-0.1 0.2z"/>
<path class="st0" d="m78.6 29.3c0.1 0.1 0.3 0.2 0.4 0.2 0.8 0.4 1.8 0.4 2.6 0.1 0.5-0.6 0.3-1.5 0.3-1.5l-3.3 1.2z"/>
<path class="st0" d="m80.6 29.9c-0.6 0-1.1-0.1-1.7-0.3l-0.4-0.2v-0.1-0.1l3.3-1.1h0.1s0.1 0.9-0.4 1.5c-0.2 0.2-0.5 0.3-0.9 0.3zm-1.8-0.6c0.1 0 0.2 0.1 0.3 0.1 0.8 0.4 1.7 0.4 2.5 0.1 0.4-0.4 0.3-1.1 0.3-1.3l-3.1 1.1z"/>
<path class="st20" d="m81.6 29.6c0.1-0.1 0.2-0.3 0.2-0.4-0.3-0.2-0.7-0.3-1.1-0.3-0.6 0.1-1.1 0.4-1.3 0.8 0.8 0.2 1.5 0.2 2.2-0.1z"/>
<path class="st0" d="m80.6 29.9c-0.4 0-0.8 0-1.2-0.1h-0.1v-0.1c0.1-0.5 0.7-0.8 1.3-0.9 0.4 0 0.9 0.1 1.2 0.3-0.1 0.2-0.1 0.3-0.2 0.4-0.3 0.3-0.6 0.4-1 0.4zm-1-0.2c0.7 0.2 1.4 0.1 2-0.1 0.1-0.1 0.1-0.2 0.2-0.3-0.3-0.2-0.6-0.3-1-0.2-0.6-0.1-1.1 0.2-1.2 0.6z"/>
<path class="st2" d="m81.9 28.2-3.3 1.1c0.1 0.1 0.3 0.1 0.4 0.2l2.9-1.3z"/>
<path class="st0" d="m79 29.6c-0.1-0.1-0.3-0.1-0.4-0.2l3.4-1.2v0.1l-3 1.3zm-0.3-0.3c0.1 0.1 0.2 0.1 0.3 0.2l2.9-1.3-3.2 1.1zm0-0.4c-0.2-0.1-0.3-0.2-0.5-0.1-0.1 0-0.2 0.1-0.2 0.1l-0.3 0.3c0-0.1-0.1-0.1-0.1 0s0 0.1 0.1 0.2h0.1c0.1 0 0.2-0.1 0.4-0.2 0.1-0.1 0.2-0.1 0.3-0.1h0.3 0.1c-0.1-0.1-0.1-0.2-0.2-0.2 0.1 0 0.1 0 0 0zm0.4-0.1c0-0.2 0.1-0.4 0.3-0.5 0.1 0 0.1-0.1 0.2-0.1h0.2 0.1 0.1c-0.1 0 0-0.1 0.1-0.1s0.1 0.1 0.1 0.2c0 0 0 0.1-0.1 0.1-0.1 0.1-0.2 0.1-0.4 0.1-0.1 0-0.2 0.1-0.3 0.1l-0.2 0.2h-0.1z"/>
<ellipse class="st19" transform="matrix(.9964 -.084652 .084652 .9964 -1.9596 7.1797)" cx="83.7" cy="26.7" rx=".3" ry=".3"/>
<ellipse class="st14" transform="matrix(.9964 -.084652 .084652 .9964 -2.2976 6.9466)" cx="80.8" cy="30.6" rx=".1" ry=".1"/>
<path class="st0" d="m80.8 30.7c-0.1 0-0.2-0.1-0.2-0.1 0-0.1 0.1-0.2 0.1-0.2 0.1 0 0.2 0.1 0.2 0.1 0 0.1 0 0.2-0.1 0.2zm0-0.2c-0.1 0-0.1 0 0 0-0.1 0.1 0 0.1 0 0.1s0 0 0-0.1zm2.9-3.2c-0.1-0.1 0-0.1 0-0.1 0.3 0 0.5-0.3 0.5-0.5 0-0.3-0.3-0.5-0.5-0.5 0 0-0.1 0-0.1-0.1s0-0.1 0.1-0.1c0.4 0 0.7 0.2 0.7 0.6s-0.3 0.7-0.7 0.7z"/>
<path class="st21" d="m81.8 27.9s0.4-0.1 0.4 0.3c0.1-0.3 0-0.5-0.4-0.3z"/>
<path class="st13" d="m83.6 23.7s0.1-3.1 2.1-3.4 2.6-0.9 2.7-1.1c0.1 1.1 0.5 3.3-2 4.2-0.7 0.2-1.4 0.2-2.1 0.8-0.6 0.6-0.7-0.5-0.7-0.5z"/>
<path class="st6" d="m88.2 21.9c-0.7 0.4-2 1.2-3 1-0.6-0.1-1.1 0-1.5 0.2-0.1 0.4-0.1 0.6-0.1 0.6s0.1 1.1 0.8 0.4c0.6-0.6 1.4-0.6 2.1-0.8 0.9-0.3 1.4-0.8 1.7-1.4z"/>
<path class="st22" d="m83.8 23.6s0.1-1.2 3.2-2.7c-1.7 0.9-2.9 2.3-2.8 3.4-0.4-0.8-0.4-0.7-0.4-0.7z"/>
<path class="st22" d="m84.1 23.9s0.5-0.8 1.4-0.8c-0.6 0.2-1.1 0.5-1.4 1.1v-0.3z"/>
<path class="st0" d="m84 24.4h-0.1c-0.3-0.1-0.4-0.6-0.4-0.7 0 0 0-0.8 0.3-1.6 0.4-1.1 1-1.7 1.9-1.9 2-0.4 2.6-0.9 2.6-1.1 0 0 0-0.1 0.1-0.1 0 0 0.1 0 0.1 0.1v0.1c0.1 1.1 0.4 3.3-2 4.2-0.2 0.1-0.4 0.1-0.7 0.2-0.5 0.1-1 0.2-1.4 0.6-0.1 0.1-0.3 0.2-0.4 0.2zm-0.3-0.7c0 0.1 0.1 0.5 0.3 0.5 0.1 0 0.3-0.1 0.4-0.2 0.5-0.5 1-0.6 1.5-0.7 0.2 0 0.4-0.1 0.6-0.2 2.3-0.8 2.1-2.7 2-3.9-0.3 0.3-1 0.7-2.6 1-2 0.5-2.2 3.4-2.2 3.5z"/>
<ellipse class="st6" transform="matrix(.9964 -.084652 .084652 .9964 -1.4831 7.5193)" cx="87.9" cy="21.2" rx=".1" ry=".3"/>
<ellipse class="st6" transform="matrix(.9964 -.084652 .084652 .9964 -1.4294 7.4765)" cx="87.4" cy="20.6" rx=".3" ry=".5"/>
<path class="st5" d="m83.1 23.3s0.6 0.1 0.9 0.4 0.8 0.7 0.1 1.2c-0.4 0.3-1-1.6-1-1.6z"/>
<path class="st0" d="m84 25h-0.1c-0.4-0.1-0.8-1.5-0.9-1.7v-0.1h0.1s0.6 0.1 0.9 0.4l0.1 0.1c0.2 0.2 0.4 0.4 0.4 0.7 0 0.2-0.1 0.4-0.4 0.6h-0.1zm-0.8-1.6c0.2 0.6 0.5 1.4 0.7 1.4h0.1c0.2-0.1 0.3-0.3 0.3-0.4 0-0.2-0.2-0.4-0.4-0.6l-0.1-0.1c-0.1-0.2-0.4-0.3-0.6-0.3z"/>
<path class="st13" d="m77.4 28.2-0.4 0.1c-0.2 0-0.4-0.1-0.5-0.3-0.1-0.3-0.2-0.7-0.2-0.7-0.9-2.2 0.2-4.5 2.4-5.3 3.5-1.3 5 1.3 5.5 2.6 0.1 0.3 0 0.7-0.2 0.8l-0.2 0.1c-2 1.4-4.1 2.3-6.4 2.7z"/>
<path class="st22" d="m76.1 26.4s1.7-0.7 2.8-0.4c-0.2-0.1-1.6-0.4-2.8 0.3v0.1z"/>
<path class="st6" d="m84.2 24.6c-0.6-1.3-2-3.9-5.5-2.6-0.3 0.1-0.6 0.3-0.9 0.4 1.6 0.4 3.4 1.6 3.9 4.2 0.3-0.2 1.7-0.9 2-1.1l0.2-0.1c0.3-0.1 0.4-0.5 0.3-0.8z"/>
<path class="st22" d="m79.9 26s3 0.5 4.1-2c0.2 0.4-0.8 2.6-4.1 2zm-3.8 0.5s0.8-0.4 1.7-0.4c-0.4 0-1.6 0.4-1.7 0.6v-0.2z"/>
<path class="st0" d="m77 28.4c-0.2 0-0.5-0.1-0.5-0.4l-0.1-0.2c-0.1-0.2-0.1-0.4-0.1-0.5-0.4-1-0.4-2.2 0-3.2 0.5-1 1.3-1.8 2.4-2.2 2.5-0.9 4.5 0 5.6 2.6 0.1 0.3 0 0.7-0.3 0.9l-0.2 0.1c-1.9 1.3-4 2.2-6.3 2.6l-0.5 0.3zm3.1-6.6c-0.4 0-0.9 0.1-1.4 0.3-1 0.4-1.9 1.1-2.3 2.1s-0.4 2.1 0 3.1c0 0 0 0.1 0.1 0.5l0.1 0.2c0.1 0.2 0.2 0.3 0.4 0.3l0.4-0.1c2.3-0.4 4.4-1.3 6.3-2.6l0.2-0.1c0.2-0.2 0.3-0.5 0.2-0.7-0.6-1.6-1.8-3.2-4-3z"/>
<ellipse class="st15" transform="matrix(.9964 -.084652 .084652 .9964 -1.639 6.9679)" cx="81.3" cy="22.8" rx=".2" ry=".4"/>
<ellipse class="st15" transform="matrix(.9964 -.084652 .084652 .9964 -1.6773 7.0188)" cx="81.9" cy="23.3" rx=".3" ry=".6"/>
<path class="st22" d="m80.8 25.6c-0.1 0 0.7-0.4 1.5-0.2-0.1 0-0.9-0.1-1.5 0.2zm0.1 0.6s1.1 0.1 1.9-0.5c-0.4 0.3-1 0.7-1.9 0.5z"/>
<path class="st2" d="m79.2 22.1c-0.8 0.3-1.5 0.7-2 1.4-0.2 0.4 0.4 0.7 0.6 0.3 0.3-0.6 1-0.8 1.5-1 0.6-0.2 0.3-0.8-0.1-0.7z"/>
</svg>
