<?xml version="1.0" encoding="UTF-8"?>
<svg enable-background="new 0 0 150 100" version="1.1" viewBox="0 0 150 100" xml:space="preserve" xmlns="http://www.w3.org/2000/svg">
<style type="text/css">
	.st0{fill:url(#a);}
	.st1{fill:#231F20;}
	.st2{fill:#F6921E;}
</style>
<linearGradient id="a" x1="25.412" x2="48.636" y1="43.034" y2="56.442" gradientTransform="matrix(1 0 0 -1 0 99.7)" gradientUnits="userSpaceOnUse">
	<stop stop-color="#EB008B" offset=".2"/>
	<stop stop-color="#F6921E" offset=".9"/>
</linearGradient>
<path class="st0" d="m27.1 41c0-0.5 0.4-1 1-1h7.9c0.5 0 1 0.4 1 1s-0.4 1-1 1h-8c-0.5-0.1-0.9-0.5-0.9-1zm8.9-2.6h4.6c0.5 0 1-0.4 1-1s-0.4-1-1-1h-4.6c-0.5 0-1 0.4-1 1s0.5 1 1 1zm1.8 23.2h-4.7c-0.5 0-1 0.4-1 1s0.4 1 1 1h4.6c0.5 0 1-0.4 1-1s-0.4-1-0.9-1zm-10.1-16.2h5c0.3 0 0.6-0.2 0.8-0.4 0.2 0.2 0.4 0.4 0.8 0.4 0.5 0 0.9-0.4 0.9-0.9s-0.4-1-1-1c-0.3 0-0.6 0.2-0.8 0.4-0.2-0.3-0.5-0.4-0.8-0.4h-5c-0.5 0-1 0.4-1 1s0.6 0.9 1.1 0.9zm-3.1 3.5h16.6c0.5 0 1-0.4 1-1s-0.4-1-1-1h-16.6c-0.5 0-1 0.4-1 1s0.4 1 1 1zm14.8-7.9c0 0.5 0.4 1 1 1h5.5c0.5 0 1-0.4 1-1s-0.4-1-1-1h-5.5c-0.6 0-1 0.4-1 1zm5.5 7c0 0.5 0.4 1 1 1h3.5c0.5 0 1-0.4 1-1s-0.4-1-1-1h-3.5c-0.6 0-1 0.5-1 1zm1 9.9h-10.8c-0.5 0-1 0.4-1 1s0.4 1 1 1h10.7c0.5 0 1-0.4 1-1s-0.4-1-0.9-1zm-15.2 0h-2.7c-0.5 0-1 0.4-1 1s0.4 1 1 1h2.7c0.5 0 1-0.4 1-1s-0.4-1-1-1zm6.1-14.4c-0.5 0-1 0.4-1 1s0.4 1 1 1h9.4c0.5 0 1-0.4 1-1s-0.4-1-1-1h-9.4zm9.4 10.7h-3.7c-0.5 0-1 0.4-1 1 0 0.5 0.4 1 1 1h3.7c0.5 0 1-0.4 1-1s-0.5-1-1-1zm-8.8 1.9c0.5 0 1-0.4 1-1s-0.4-1-1-1h-9.7c-0.5 0-1 0.4-1 1s0.4 1 1 1h9.7zm-8.3-4.5c0.1 0.4 0.4 0.8 0.9 0.8s0.9-0.4 0.9-0.9-0.4-0.9-0.9-0.9-0.9 0.4-0.9 0.8c-0.1-0.5-0.5-0.8-0.9-0.8h-3.6c-0.5 0-1 0.4-1 1s0.4 1 1 1h3.6c0.4-0.2 0.8-0.5 0.9-1zm20.3-1.1h-16.9c-0.5 0-1 0.4-1 1s0.4 1 1 1h16.9c0.5 0 1-0.4 1-1s-0.5-1-1-1zm-10-9.5c0-0.5-0.4-0.9-0.9-0.9s-0.9 0.4-0.9 0.9 0.4 0.9 0.9 0.9 0.9-0.4 0.9-0.9zm3.3 7c0 0.5 0.4 0.9 0.9 0.9s0.9-0.4 0.9-0.9-0.4-0.9-0.9-0.9c-0.5-0.1-0.9 0.4-0.9 0.9zm-9.1 10.8c0-0.5-0.4-0.9-0.9-0.9s-0.9 0.4-0.9 0.9 0.4 0.9 0.9 0.9 0.9-0.3 0.9-0.9zm14.7-13.4c0.5 0 0.9-0.4 0.9-0.9s-0.4-0.9-0.9-0.9-0.9 0.4-0.9 0.9 0.3 0.9 0.9 0.9zm-22.7 0c0.5 0 0.9-0.4 0.9-0.9s-0.4-0.9-0.9-0.9-0.9 0.4-0.9 0.9 0.4 0.9 0.9 0.9zm15.3 9.8c0-0.5-0.4-0.9-0.9-0.9s-0.9 0.4-0.9 0.9 0.4 0.9 0.9 0.9 0.9-0.4 0.9-0.9zm-15.3-1c-0.5 0-0.9 0.4-0.9 0.9s0.4 0.9 0.9 0.9 0.9-0.4 0.9-0.9c0.1-0.4-0.3-0.9-0.9-0.9zm22.7 0c-0.5 0-0.9 0.4-0.9 0.9s0.4 0.9 0.9 0.9 0.9-0.4 0.9-0.9c0-0.4-0.4-0.9-0.9-0.9zm-8.1 7.4c-0.5 0-0.9 0.4-0.9 0.9s0.4 0.9 0.9 0.9 0.9-0.4 0.9-0.9-0.4-0.9-0.9-0.9zm-6.5-23.2c0.5 0 0.9-0.4 0.9-0.9s-0.4-0.9-0.9-0.9-0.9 0.4-0.9 0.9 0.4 0.9 0.9 0.9z"/>
<path class="st1" d="m56.9 42.3h3.1c0.3 0 0.6 0.1 0.7 0.4l4.1 6.4 4.1-6.4c0.2-0.2 0.4-0.4 0.7-0.4h3.2c0.2 0 0.4 0.2 0.4 0.4v14.5c0 0.2-0.2 0.4-0.4 0.4h-4.1c-0.2 0-0.4-0.2-0.4-0.4v-4.4c0-0.2-0.3-0.3-0.4-0.1l-2.8 4.4c-0.2 0.3-0.5 0.3-0.7 0l-2.8-4.4c-0.1-0.2-0.4-0.1-0.4 0.1v4.4c0 0.2-0.2 0.4-0.4 0.4h-4.1c-0.2 0-0.4-0.2-0.4-0.4v-14.5c0.2-0.2 0.3-0.4 0.6-0.4zm18.8 0h4.4c0.2 0 0.4 0.2 0.4 0.4v14.5c0 0.2-0.2 0.4-0.4 0.4h-4.4c-0.2 0-0.4-0.2-0.4-0.4v-14.5c0-0.2 0.2-0.4 0.4-0.4zm10.1 4h-2.8c-0.2 0-0.4-0.2-0.4-0.4v-3.2c0-0.2 0.2-0.4 0.4-0.4h11.4c0.2 0 0.4 0.2 0.4 0.4v3.2c0 0.2-0.2 0.4-0.4 0.4h-2.8c-0.2 0-0.4 0.2-0.4 0.4v10.5c0 0.2-0.2 0.4-0.4 0.4h-4.3c-0.2 0-0.4-0.2-0.4-0.4v-10.5c0.1-0.2-0.1-0.4-0.3-0.4z"/>
<path class="st2" d="m98.8 57.5h-0.5v-0.3c-0.1 0.2-0.3 0.3-0.6 0.3-0.5 0-0.9-0.4-0.9-0.9 0-0.6 0.3-0.9 0.9-0.9 0.3 0 0.5 0.1 0.6 0.3v-1h0.5v2.5zm-0.6-0.9c0-0.3-0.2-0.5-0.5-0.5s-0.5 0.2-0.5 0.5 0.2 0.5 0.5 0.5c0.4 0 0.5-0.2 0.5-0.5zm1.6-1.5c0 0.2-0.1 0.3-0.3 0.3s-0.3-0.1-0.3-0.3 0.1-0.3 0.3-0.3c0.1 0 0.3 0.2 0.3 0.3zm-0.6 2.4v-1.8h0.5v1.8h-0.5zm2.7-0.2c0 0.5-0.4 0.9-1 0.9-0.3 0-0.6-0.1-0.8-0.2l0.2-0.4c0.2 0.1 0.4 0.2 0.6 0.2 0.3 0 0.5-0.2 0.5-0.4v-0.2c-0.1 0.2-0.3 0.3-0.5 0.3-0.5 0-0.8-0.4-0.8-0.9s0.3-0.9 0.8-0.9c0.3 0 0.4 0.1 0.6 0.3v-0.3h0.5l-0.1 1.6zm-0.5-0.8c0-0.3-0.2-0.5-0.4-0.5-0.3 0-0.4 0.2-0.4 0.5s0.2 0.5 0.4 0.5 0.4-0.2 0.4-0.5zm1.5-1.4c0 0.2-0.1 0.3-0.3 0.3s-0.3-0.1-0.3-0.3 0.1-0.3 0.3-0.3 0.3 0.2 0.3 0.3zm-0.5 2.4v-1.8h0.5v1.8h-0.5zm2.1-0.1c-0.1 0.1-0.3 0.1-0.5 0.1-0.3 0-0.6-0.2-0.6-0.6v-0.8h-0.3v-0.4h0.3v-0.5h0.5v0.5h0.5v0.4h-0.5v0.8c0 0.2 0.1 0.2 0.2 0.2s0.2 0 0.2-0.1l0.2 0.4zm1.3-0.1c-0.1 0.2-0.3 0.2-0.6 0.2-0.4 0-0.6-0.2-0.6-0.6s0.3-0.5 0.7-0.5h0.5c0-0.2-0.1-0.3-0.4-0.3-0.2 0-0.4 0.1-0.5 0.2l-0.2-0.4c0.3-0.1 0.5-0.2 0.8-0.2 0.5 0 0.8 0.2 0.8 0.7v1.2h-0.5v-0.3zm0-0.4v-0.2h-0.4c-0.2 0-0.3 0.1-0.3 0.2s0.1 0.2 0.3 0.2 0.4-0.1 0.4-0.2zm1 0.6v-2.5h0.5v2.5h-0.5zm2.4-2.4c0 0.2-0.1 0.3-0.3 0.3s-0.3-0.1-0.3-0.3 0.1-0.3 0.3-0.3 0.3 0.2 0.3 0.3zm-0.6 2.4v-1.8h0.5v1.8h-0.5zm2.8-1.2v1.2h-0.5v-1c0-0.2-0.1-0.4-0.4-0.4s-0.4 0.2-0.4 0.5v0.9h-0.5v-1.8h0.5v0.3c0.1-0.2 0.4-0.3 0.6-0.3 0.5-0.1 0.7 0.2 0.7 0.6zm2.3 0v1.2h-0.5v-1c0-0.2-0.1-0.4-0.4-0.4s-0.4 0.2-0.4 0.5v0.9h-0.5v-1.8h0.5v0.3c0.1-0.2 0.4-0.3 0.6-0.3 0.4-0.1 0.7 0.2 0.7 0.6zm2.2 0.3c0 0.6-0.4 0.9-1 0.9s-1-0.4-1-0.9 0.4-0.9 1-0.9c0.6-0.1 1 0.3 1 0.9zm-1.4 0c0 0.3 0.2 0.5 0.5 0.5s0.5-0.2 0.5-0.5-0.2-0.5-0.5-0.5-0.5 0.2-0.5 0.5zm2.1 0.9-0.7-1.8h0.5l0.4 1.3 0.4-1.3h0.5l-0.7 1.8h-0.4zm2.5-0.2c-0.1 0.2-0.3 0.2-0.6 0.2-0.4 0-0.6-0.2-0.6-0.6s0.3-0.5 0.7-0.5h0.5c0-0.2-0.1-0.3-0.4-0.3-0.2 0-0.4 0.1-0.5 0.2l-0.2-0.4c0.3-0.1 0.5-0.2 0.8-0.2 0.5 0 0.8 0.2 0.8 0.7v1.2h-0.5v-0.3zm0-0.4v-0.2h-0.4c-0.2 0-0.3 0.1-0.3 0.2s0.1 0.2 0.3 0.2 0.4-0.1 0.4-0.2zm2.1 0.5c-0.1 0.1-0.3 0.1-0.5 0.1-0.3 0-0.6-0.2-0.6-0.6v-0.8h-0.3v-0.4h0.3v-0.5h0.5v0.5h0.5v0.4h-0.5v0.8c0 0.2 0.1 0.2 0.2 0.2s0.2 0 0.2-0.1l0.2 0.4zm0.8-2.3c0 0.2-0.1 0.3-0.3 0.3s-0.3-0.1-0.3-0.3 0.1-0.3 0.3-0.3 0.3 0.2 0.3 0.3zm-0.5 2.4v-1.8h0.5v1.8h-0.5zm2.8-0.9c0 0.6-0.4 0.9-1 0.9s-1-0.4-1-0.9 0.4-0.9 1-0.9c0.6-0.1 1 0.3 1 0.9zm-1.5 0c0 0.3 0.2 0.5 0.5 0.5s0.5-0.2 0.5-0.5-0.2-0.5-0.5-0.5-0.5 0.2-0.5 0.5zm3.6-0.3v1.2h-0.5v-1c0-0.2-0.1-0.4-0.4-0.4s-0.4 0.2-0.4 0.5v0.9h-0.5v-1.8h0.5v0.3c0.1-0.2 0.4-0.3 0.6-0.3 0.4-0.1 0.7 0.2 0.7 0.6z"/>
<path class="st1" d="m99.6 45.2v-2l-0.8 1.7h-0.4l-0.8-1.7v2h-0.6v-2.9h0.7l0.8 1.8 0.8-1.8h0.7v2.9h-0.4zm2.3 0.2c-0.2 0.4-0.4 0.6-0.8 0.6-0.2 0-0.4-0.1-0.6-0.2l0.3-0.5c0.1 0.1 0.2 0.1 0.3 0.1s0.2-0.1 0.3-0.2l0.1-0.1-0.9-2.2h0.7l0.6 1.5 0.5-1.5h0.6l-1.1 2.5zm2.5-0.5c-0.2 0.2-0.4 0.3-0.7 0.3-0.5 0-0.8-0.3-0.8-0.7s0.3-0.7 0.8-0.7h0.6c0-0.2-0.2-0.4-0.5-0.4-0.2 0-0.4 0.1-0.7 0.2l-0.2-0.4c0.3-0.2 0.6-0.3 1-0.3 0.6 0 0.9 0.3 0.9 0.8v1.5h-0.6l0.2-0.3zm0-0.5v-0.2h-0.5c-0.2 0-0.4 0.1-0.4 0.3s0.1 0.3 0.4 0.3c0.2 0 0.4-0.2 0.5-0.4zm3.2-0.6v1.4h-0.6v-1.2c0-0.3-0.2-0.4-0.4-0.4-0.3 0-0.5 0.2-0.5 0.6v1.1h-0.6v-2.3h0.6v0.4c0.2-0.3 0.4-0.4 0.8-0.4 0.3-0.1 0.7 0.3 0.7 0.8zm4.1 0v1.4h-0.7v-1.2c0-0.3-0.2-0.4-0.4-0.4-0.3 0-0.5 0.2-0.5 0.6v1.1h-0.6v-1.3c0-0.3-0.2-0.4-0.4-0.4-0.3 0-0.5 0.2-0.5 0.6v1.1h-0.6v-2.3h0.6v0.4c0.2-0.3 0.4-0.4 0.8-0.4s0.6 0.2 0.8 0.5c0.1-0.3 0.4-0.5 0.8-0.5 0.3-0.1 0.7 0.3 0.7 0.8zm1.6 1.1c-0.2 0.2-0.4 0.3-0.7 0.3-0.5 0-0.8-0.3-0.8-0.7s0.3-0.7 0.8-0.7h0.6c0-0.2-0.2-0.4-0.5-0.4-0.2 0-0.4 0.1-0.7 0.2l-0.2-0.4c0.3-0.2 0.6-0.3 1-0.3 0.6 0 0.9 0.3 0.9 0.8v1.5h-0.6l0.2-0.3zm0-0.5v-0.2h-0.5c-0.2 0-0.4 0.1-0.4 0.3s0.1 0.3 0.4 0.3 0.5-0.2 0.5-0.4zm1.6-1c0.2-0.3 0.4-0.4 0.7-0.4v0.6c-0.4 0-0.7 0.2-0.7 0.6v1.1h-0.6v-2.3h0.6v0.4zm-17.9 5.9v-2.9h0.7v2.9h-0.7zm3.2-1.4v1.4h-0.6v-1.2c0-0.3-0.2-0.4-0.4-0.4-0.3 0-0.5 0.2-0.5 0.6v1.1h-0.7v-2.2h0.6v0.4c0.2-0.3 0.4-0.4 0.8-0.4 0.5-0.2 0.8 0.2 0.8 0.7zm1.3-0.9v0.2h0.5v0.4h-0.5v1.7h-0.6v-1.7h-0.3v-0.4h0.3v-0.2c0-0.5 0.4-0.8 0.8-0.8 0.2 0 0.4 0.1 0.6 0.2l-0.2 0.5c-0.1-0.1-0.2-0.1-0.3-0.1-0.2-0.1-0.3 0-0.3 0.2zm3.2 1.2c0 0.7-0.5 1.1-1.2 1.1s-1.2-0.5-1.2-1.1c0-0.7 0.5-1.1 1.2-1.1s1.2 0.4 1.2 1.1zm-1.8 0c0 0.4 0.2 0.6 0.6 0.6 0.3 0 0.6-0.3 0.6-0.6 0-0.4-0.2-0.6-0.6-0.6s-0.6 0.2-0.6 0.6zm2.7-0.7c0.2-0.3 0.4-0.4 0.7-0.4v0.6c-0.4 0-0.7 0.2-0.7 0.6v1.1h-0.6v-2.2h0.6v0.3zm4.9 0.4v1.4h-0.6v-1.2c0-0.3-0.2-0.4-0.4-0.4-0.3 0-0.5 0.2-0.5 0.6v1.1h-0.6v-1.2c0-0.3-0.2-0.4-0.4-0.4-0.3 0-0.5 0.2-0.5 0.6v1.1h-0.6v-2.2h0.6v0.4c0.2-0.3 0.4-0.4 0.8-0.4s0.6 0.2 0.8 0.5c0.1-0.3 0.4-0.5 0.8-0.5 0.3-0.3 0.6 0.1 0.6 0.6zm1.8 1.1c-0.2 0.2-0.4 0.3-0.7 0.3-0.5 0-0.8-0.3-0.8-0.7s0.3-0.7 0.8-0.7h0.6c0-0.2-0.2-0.4-0.5-0.4-0.2 0-0.4 0.1-0.7 0.2l-0.2-0.4c0.3-0.2 0.6-0.3 1-0.3 0.6 0 0.9 0.3 0.9 0.8v1.5h-0.6l0.2-0.3zm0-0.5v-0.2h-0.5c-0.2 0-0.4 0.1-0.4 0.3s0.1 0.3 0.4 0.3c0.2 0 0.4-0.2 0.5-0.4zm2.4 0.7c-0.2 0.1-0.4 0.2-0.6 0.2-0.4 0-0.7-0.2-0.7-0.7v-1h-0.3v-0.4h0.3v-0.6h0.6v0.6h0.6v0.4h-0.6v0.9c0 0.2 0.1 0.3 0.2 0.3s0.2 0 0.3-0.1c0-0.1 0.2 0.4 0.2 0.4zm1-2.8c0 0.2-0.1 0.4-0.3 0.4s-0.3-0.2-0.3-0.4 0.1-0.4 0.3-0.4c0.1 0.1 0.3 0.2 0.3 0.4zm-0.7 2.9v-2.2h0.6v2.2h-0.6zm3.3-1.1c0 0.7-0.5 1.1-1.2 1.1s-1.2-0.5-1.2-1.1c0-0.7 0.5-1.1 1.2-1.1s1.2 0.4 1.2 1.1zm-1.7 0c0 0.4 0.2 0.6 0.6 0.6 0.3 0 0.6-0.3 0.6-0.6 0-0.4-0.2-0.6-0.6-0.6s-0.6 0.2-0.6 0.6zm4.3-0.3v1.4h-0.6v-1.2c0-0.3-0.2-0.4-0.4-0.4-0.3 0-0.5 0.2-0.5 0.6v1.1h-0.6v-2.2h0.6v0.4c0.2-0.3 0.4-0.4 0.8-0.4 0.4-0.2 0.7 0.2 0.7 0.7zm-22.6 3.2v2.3h-0.7v-2.3h-0.9v-0.6h2.4v0.6h-0.8zm2.9 1.4h-1.6c0.1 0.3 0.3 0.4 0.6 0.4 0.2 0 0.4-0.1 0.6-0.2l0.3 0.3c-0.2 0.3-0.5 0.4-1 0.4-0.7 0-1.2-0.4-1.2-1.1s0.5-1.1 1.2-1.1c0.8 0 1.1 0.5 1.1 1.3zm-0.6-0.3c0-0.3-0.2-0.5-0.5-0.5s-0.5 0.2-0.5 0.5h1zm3-0.5-0.4 0.3c-0.1-0.2-0.3-0.2-0.5-0.2-0.3 0-0.5 0.2-0.5 0.6s0.2 0.6 0.5 0.6c0.2 0 0.4-0.1 0.5-0.3l0.4 0.3c-0.2 0.3-0.5 0.5-1 0.5-0.7 0-1.1-0.4-1.1-1.1s0.5-1.1 1.1-1.1c0.5-0.1 0.8 0.1 1 0.4zm2.6 0.3v1.4h-0.6v-1.2c0-0.3-0.2-0.4-0.4-0.4-0.3 0-0.5 0.2-0.5 0.6v1.1h-0.7v-3.1h0.6v1.2c0.2-0.3 0.4-0.4 0.8-0.4 0.5 0 0.8 0.3 0.8 0.8zm2.6 0v1.4h-0.6v-1.2c0-0.3-0.2-0.4-0.4-0.4-0.3 0-0.5 0.2-0.5 0.6v1.1h-0.6v-2.2h0.6v0.4c0.2-0.3 0.4-0.4 0.8-0.4 0.4-0.1 0.7 0.2 0.7 0.7zm2.7 0.3c0 0.7-0.5 1.1-1.2 1.1s-1.2-0.5-1.2-1.1c0-0.7 0.5-1.1 1.2-1.1s1.2 0.4 1.2 1.1zm-1.8 0c0 0.4 0.2 0.6 0.6 0.6 0.3 0 0.6-0.3 0.6-0.6 0-0.4-0.2-0.6-0.6-0.6-0.3 0-0.6 0.3-0.6 0.6zm2.1 1.1v-3.1h0.6v3.1h-0.6zm3.4-1.1c0 0.7-0.5 1.1-1.2 1.1s-1.2-0.5-1.2-1.1c0-0.7 0.5-1.1 1.2-1.1s1.2 0.4 1.2 1.1zm-1.7 0c0 0.4 0.2 0.6 0.6 0.6 0.3 0 0.6-0.3 0.6-0.6 0-0.4-0.2-0.6-0.6-0.6s-0.6 0.3-0.6 0.6zm4.3 0.9c0 0.6-0.5 1-1.2 1-0.4 0-0.7-0.1-1-0.3l0.2-0.4c0.2 0.1 0.4 0.2 0.7 0.2 0.4 0 0.6-0.2 0.6-0.5v-0.2c-0.2 0.2-0.4 0.3-0.7 0.3-0.6 0-1-0.4-1-1.1 0-0.6 0.4-1.1 1-1.1 0.3 0 0.5 0.1 0.7 0.3v-0.3h0.6l0.1 2.1zm-0.6-0.9c0-0.3-0.2-0.6-0.5-0.6s-0.5 0.2-0.5 0.6 0.2 0.6 0.5 0.6c0.3-0.1 0.5-0.3 0.5-0.6zm2.4 1.4c-0.2 0.4-0.4 0.6-0.8 0.6-0.2 0-0.4-0.1-0.6-0.2l0.3-0.5c0.1 0.1 0.2 0.1 0.3 0.1s0.2-0.1 0.3-0.2l0.1-0.1-0.9-2.2h0.7l0.6 1.5 0.5-1.5h0.6l-1.1 2.5z"/>
</svg>
