<?xml version="1.0" encoding="UTF-8"?>
<svg enable-background="new 0 0 150 100" version="1.1" viewBox="0 0 150 100" xml:space="preserve" xmlns="http://www.w3.org/2000/svg" xmlns:xlink="http://www.w3.org/1999/xlink">
<style type="text/css">
	.st0{fill:#F79421;}
	.st1{fill:#22BEEF;}
	.st2{fill:#D94181;}
	.st3{fill:#88CFC7;}
	.st4{fill:#393B94;}
	.st5{fill:#52C5D7;}
	.st6{fill:#348BCB;}
	.st7{fill:#804198;}
	.st8{clip-path:url(#g);}
	.st9{clip-path:url(#e);}
	.st10{clip-path:url(#c);}
	.st11{clip-path:url(#a);}
</style>
<path class="st0" d="m82.2 29.2v13.7l9.4-6.8-9.4-6.9z"/>
<path class="st1" d="m101.1 29.2v13.7l9.4-6.8-9.4-6.9z"/>
<path class="st2" d="m119.9 29.2-9.4 6.8 9.4 6.8v-13.6z"/>
<path class="st3" d="m101.1 29.2-9.4 6.8 9.4 6.8v-13.6z"/>
<path class="st4" d="m101.1 42.9 9.4 6.8v-13.6l-9.4 6.8z"/>
<path class="st5" d="m82.2 42.9 9.4 6.8v-13.6l-9.4 6.8z"/>
<path class="st6" d="m91.7 36.1v13.7l9.4-6.8-9.4-6.9z"/>
<path class="st7" d="m110.5 49.8 9.4-6.8-9.4-6.8v13.6z"/>
<path d="M51.2,42.9l-2.8,9.3h-0.1l-2.7-9.3h-5L38,52.3h-0.1l-3-9.3H30l5.4,14.9h4.6l2.7-9.9h0.1l3.1,9.9h4.5l5.3-14.9H51.2z"/>
	<defs>
		<rect id="h" x="30" y="29.2" width="90" height="41.5"/>
	</defs>
	<clipPath id="g">
		<use xlink:href="#h"/>
	</clipPath>
	<path class="st8" d="m57.2 38.2c0-0.7 0.3-1.4 0.8-1.9s1.2-0.8 1.9-0.8 1.4 0.3 1.9 0.8 0.8 1.2 0.8 1.9-0.3 1.4-0.8 1.9-1.2 0.8-1.9 0.8-1.4-0.3-1.9-0.8c-0.6-0.5-0.8-1.1-0.8-1.9m0.3 4.7h4.6v14.9h-4.6v-14.9zm6.4 0h4.4v2h0.1c0.1-0.3 0.3-0.6 0.6-0.9s0.6-0.5 1-0.8c0.4-0.2 0.8-0.4 1.2-0.5 0.5-0.1 1-0.2 1.5-0.2 1.2 0 2.1 0.2 2.8 0.5 0.7 0.4 1.3 0.9 1.7 1.5s0.7 1.4 0.8 2.2c0.1 0.9 0.2 1.8 0.2 2.8v8.2h-4.6v-7.3-1.3c0-0.5-0.1-0.9-0.3-1.3-0.1-0.4-0.4-0.7-0.7-1-0.3-0.2-0.8-0.4-1.4-0.4s-1.1 0.1-1.4 0.3c-0.4 0.2-0.6 0.5-0.8 0.9s-0.3 0.8-0.4 1.2-0.1 0.9-0.1 1.4v7.4h-4.6v-14.7zm-31.5 20.8h2v0.9c0.1-0.1 0.2-0.3 0.3-0.4s0.3-0.2 0.4-0.3c0.2-0.1 0.4-0.2 0.6-0.2 0.2-0.1 0.4-0.1 0.7-0.1 0.5 0 0.9 0.1 1.3 0.3s0.7 0.5 0.8 0.9c0.2-0.4 0.5-0.8 0.9-1 0.3-0.2 0.8-0.3 1.3-0.3s0.9 0.1 1.2 0.2 0.6 0.4 0.7 0.6c0.2 0.3 0.3 0.6 0.4 1s0.1 0.8 0.1 1.2v4h-2.1v-4c0-0.3-0.1-0.6-0.2-0.8s-0.4-0.3-0.7-0.3c-0.2 0-0.4 0-0.6 0.1s-0.3 0.2-0.4 0.3c0 0.2-0.1 0.4-0.1 0.6s-0.1 0.4-0.1 0.6v3.6h-2.1v-3.6-0.4c0-0.2 0-0.3-0.1-0.5 0-0.2-0.1-0.3-0.3-0.4-0.1-0.1-0.3-0.2-0.6-0.2s-0.5 0-0.7 0.1-0.3 0.2-0.4 0.4-0.1 0.3-0.2 0.6 0 0.4 0 0.6v3.4h-2.1v-6.9zm12 3.5c0-0.5 0.1-1 0.3-1.5 0.2-0.4 0.5-0.8 0.8-1.1s0.7-0.6 1.2-0.7c0.5-0.2 1-0.2 1.5-0.2s1 0.1 1.5 0.2c0.5 0.2 0.9 0.4 1.2 0.7s0.6 0.7 0.8 1.1 0.3 0.9 0.3 1.5c0 0.5-0.1 1-0.3 1.5s-0.5 0.8-0.8 1.1-0.7 0.6-1.2 0.7c-0.5 0.2-1 0.2-1.5 0.2s-1-0.1-1.5-0.2c-0.5-0.2-0.9-0.4-1.2-0.7s-0.6-0.7-0.8-1.1-0.3-1-0.3-1.5m2.1 0c0 0.5 0.1 0.9 0.4 1.2s0.7 0.5 1.2 0.5 1-0.2 1.2-0.5c0.3-0.3 0.4-0.7 0.4-1.2s-0.1-0.9-0.4-1.2-0.7-0.5-1.2-0.5-1 0.2-1.2 0.5-0.4 0.6-0.4 1.2m6.8-7.3h2.1v4.5c0.2-0.3 0.6-0.6 0.9-0.7s0.8-0.2 1.2-0.2c0.5 0 0.9 0.1 1.3 0.3s0.7 0.5 1 0.8 0.5 0.7 0.6 1.2c0.1 0.4 0.2 0.9 0.2 1.4s-0.1 1-0.2 1.4c-0.2 0.4-0.4 0.8-0.7 1.1s-0.7 0.6-1.1 0.7-0.9 0.3-1.4 0.3c-0.2 0-0.5 0-0.7-0.1s-0.4-0.1-0.6-0.2-0.3-0.2-0.5-0.3c-0.1-0.1-0.2-0.2-0.3-0.4v0.9h-1.9l0.1-10.7zm1.9 7.3c0 0.5 0.1 0.9 0.4 1.2s0.7 0.5 1.2 0.5 1-0.2 1.2-0.5 0.4-0.7 0.4-1.2-0.1-0.9-0.4-1.2-0.7-0.5-1.2-0.5-1 0.2-1.2 0.5c-0.2 0.2-0.4 0.6-0.4 1.2m6.6-5.6c0-0.3 0.1-0.6 0.4-0.9 0.2-0.2 0.5-0.4 0.9-0.4s0.6 0.1 0.9 0.4c0.2 0.2 0.4 0.5 0.4 0.9s-0.1 0.6-0.4 0.9c-0.2 0.2-0.5 0.4-0.9 0.4s-0.6-0.1-0.9-0.4-0.4-0.6-0.4-0.9m0.1 2.1h2.1v6.9h-2.1v-6.9z"/>
<path d="M65.3,59.9h2.1v10.7h-2.1V59.9z"/>
	<defs>
		<rect id="f" x="30" y="29.2" width="90" height="41.5"/>
	</defs>
	<clipPath id="e">
		<use xlink:href="#f"/>
	</clipPath>
	<path class="st9" d="m75.3 69.4c-0.3 0.4-0.8 0.8-1.3 1s-1.1 0.3-1.6 0.3-1-0.1-1.5-0.2c-0.5-0.2-0.9-0.4-1.2-0.7s-0.6-0.7-0.8-1.1-0.3-0.9-0.3-1.5c0-0.5 0.1-1 0.3-1.5 0.2-0.4 0.5-0.8 0.8-1.1s0.7-0.6 1.2-0.7c0.5-0.2 1-0.2 1.5-0.2s0.9 0.1 1.3 0.2c0.4 0.2 0.7 0.4 1 0.7s0.5 0.7 0.6 1.1 0.2 0.9 0.2 1.5v0.7h-4.9c0.1 0.4 0.3 0.7 0.6 1 0.3 0.2 0.6 0.4 1.1 0.4 0.3 0 0.6-0.1 0.9-0.2s0.4-0.4 0.6-0.6l1.5 0.9zm-1.8-3c0-0.4-0.1-0.7-0.3-0.9s-0.6-0.4-1-0.4c-0.2 0-0.4 0-0.6 0.1s-0.3 0.2-0.5 0.3c-0.1 0.1-0.2 0.2-0.3 0.4-0.1 0.1-0.1 0.3-0.1 0.5h2.8z"/>
<path d="m92 63.7-1.3 4.3-1.3-4.3h-2.3l-1.2 4.3-1.4-4.3h-2.3l2.5 6.9h2.1l1.3-4.6 1.4 4.6h2.1l2.4-6.9h-2z"/>
	<defs>
		<rect id="d" x="30" y="29.2" width="90" height="41.5"/>
	</defs>
	<clipPath id="c">
		<use xlink:href="#d"/>
	</clipPath>
	<path class="st10" d="m94.3 67.2c0-0.5 0.1-1 0.3-1.5s0.5-0.8 0.8-1.1 0.7-0.6 1.2-0.7c0.5-0.2 1-0.2 1.5-0.2s1 0.1 1.5 0.2c0.5 0.2 0.9 0.4 1.2 0.7s0.6 0.7 0.8 1.1 0.3 0.9 0.3 1.5c0 0.5-0.1 1-0.3 1.5-0.2 0.4-0.5 0.8-0.8 1.1s-0.7 0.6-1.2 0.7c-0.5 0.2-1 0.2-1.5 0.2s-1-0.1-1.5-0.2c-0.5-0.2-0.9-0.4-1.2-0.7s-0.6-0.7-0.8-1.1c-0.2-0.5-0.3-1-0.3-1.5m2.1 0c0 0.5 0.1 0.9 0.4 1.2s0.7 0.5 1.2 0.5 1-0.2 1.2-0.5c0.3-0.3 0.4-0.7 0.4-1.2s-0.1-0.9-0.4-1.2-0.7-0.5-1.2-0.5-1 0.2-1.2 0.5c-0.2 0.2-0.4 0.6-0.4 1.2m6.8-3.5h2.1v1.1c0.2-0.4 0.5-0.7 0.8-1 0.3-0.2 0.7-0.3 1.2-0.3h0.4 0.3v1.9c-0.1 0-0.3-0.1-0.4-0.1s-0.3 0-0.5 0c-0.4 0-0.7 0-1 0.2-0.2 0.1-0.4 0.3-0.5 0.5s-0.2 0.4-0.2 0.7v0.9 2.9h-2.1l-0.1-6.8z"/>
<path d="M109.2,59.9h2.1v10.7h-2.1V59.9z"/>
	<defs>
		<rect id="b" x="30" y="29.2" width="90" height="41.5"/>
	</defs>
	<clipPath id="a">
		<use xlink:href="#b"/>
	</clipPath>
	<path class="st11" d="m120 70.6h-2v-0.9c-0.1 0.1-0.2 0.2-0.3 0.4-0.1 0.1-0.3 0.2-0.5 0.3s-0.4 0.2-0.6 0.2c-0.2 0.1-0.4 0.1-0.7 0.1-0.5 0-1-0.1-1.4-0.3s-0.8-0.4-1.1-0.7-0.5-0.7-0.7-1.1-0.2-0.9-0.2-1.4 0.1-0.9 0.2-1.4 0.3-0.8 0.6-1.2c0.3-0.3 0.6-0.6 1-0.8s0.8-0.3 1.3-0.3c0.4 0 0.9 0.1 1.2 0.2 0.4 0.1 0.7 0.4 0.9 0.7v-4.5h2.1l0.2 10.7zm-2-3.4c0-0.5-0.1-0.9-0.4-1.2s-0.7-0.5-1.2-0.5-1 0.2-1.2 0.5-0.4 0.7-0.4 1.2 0.1 0.9 0.4 1.2 0.7 0.5 1.2 0.5 1-0.2 1.2-0.5c0.3-0.3 0.4-0.7 0.4-1.2"/>
</svg>
