<?xml version="1.0" encoding="UTF-8"?>
<svg enable-background="new 0 0 150 100" version="1.1" viewBox="0 0 150 100" xml:space="preserve" xmlns="http://www.w3.org/2000/svg">
<style type="text/css">
	.st0{fill:#EF3F62;}
	.st1{fill:#F8991D;}
	.st2{fill:url(#k);}
	.st3{fill:url(#j);}
	.st4{fill:url(#i);}
	.st5{fill:url(#h);}
	.st6{fill:url(#g);}
	.st7{fill:#00AEEF;}
	.st8{fill:url(#f);}
	.st9{fill:url(#e);}
	.st10{fill:url(#d);}
	.st11{fill:url(#c);}
	.st12{fill:url(#p);}
	.st13{fill:#B22B48;}
	.st14{fill:#8C1C35;}
	.st15{fill:url(#b);}
	.st16{fill:url(#o);}
	.st17{fill:url(#n);}
	.st18{fill:url(#a);}
	.st19{fill:url(#m);}
	.st20{fill:url(#l);}
	.st21{fill:#FFFFFF;}
	.st22{fill:#532D8F;}
	.st23{fill:#010101;}
</style>
<path class="st0" d="m86.4 62.4h-0.4c-0.3 0-0.5-0.2-0.5-0.5v-0.7c0-0.5-0.3-0.7-0.7-0.7s-0.7 0.2-0.7 0.7v0.6c0 0.4 0.2 0.6 0.5 0.8l1 0.5c0.8 0.5 1.3 0.8 1.3 1.7v1.2c0 1.3-0.8 1.7-2.1 1.7-1.2 0-2.1-0.4-2.1-1.7v-1c0-0.3 0.2-0.5 0.5-0.5h0.4c0.3 0 0.5 0.2 0.5 0.5v0.8c0 0.5 0.3 0.7 0.7 0.7s0.7-0.2 0.7-0.7v-0.6c0-0.4-0.1-0.6-0.5-0.9l-1-0.5c-0.8-0.5-1.3-0.8-1.3-1.7v-1.1c0-1.2 0.9-1.7 2-1.7s2 0.5 2 1.7v0.9c0.2 0.3 0 0.5-0.3 0.5zm4.8-2.5v0.3c0 0.3-0.2 0.5-0.5 0.5h-0.9v6.6c0 0.3-0.2 0.5-0.5 0.5h-0.3c-0.3 0-0.5-0.2-0.5-0.5v-6.6h-0.9c-0.3 0-0.5-0.2-0.5-0.5v-0.3c0-0.3 0.2-0.5 0.5-0.5h3.2c0.3 0 0.4 0.2 0.4 0.5zm1 6.7v0.6c0 0.3-0.2 0.5-0.5 0.5h-0.4c-0.3 0-0.5-0.2-0.5-0.5v-0.6c0-0.3 0.2-0.5 0.5-0.5h0.4c0.3 0.1 0.5 0.2 0.5 0.5zm3.2-0.9v-5.8c0-0.3 0.2-0.5 0.5-0.5h0.4c0.3 0 0.5 0.2 0.5 0.5v6.1c0 1.3-0.9 1.7-2.1 1.7h-0.1c-0.3 0-0.5-0.2-0.5-0.5v-0.3c0-0.3 0.2-0.5 0.5-0.5 0.5 0.1 0.8-0.1 0.8-0.7zm4.3-6.4h0.1c1.2 0 2.1 0.5 2.1 1.7v5c0 1.2-0.8 1.7-2.1 1.7h-0.1c-1.2 0-2.1-0.5-2.1-1.7v-5c0-1.2 0.8-1.7 2.1-1.7zm0 7.3c0.5 0 0.8-0.2 0.8-0.8v-4.5c0-0.6-0.3-0.8-0.8-0.8s-0.7 0.2-0.7 0.8v4.5c0 0.6 0.3 0.8 0.7 0.8zm3.5-7.2h0.4c0.3 0 0.5 0.2 0.5 0.5v3h1.6v-3c0-0.3 0.2-0.5 0.5-0.5h0.4c0.3 0 0.5 0.2 0.5 0.5v7.3c0 0.3-0.2 0.5-0.5 0.5h-0.4c-0.3 0-0.5-0.2-0.5-0.5v-3.1h-1.6v3.1c0 0.3-0.2 0.5-0.5 0.5h-0.4c-0.3 0-0.5-0.2-0.5-0.5v-7.3c0-0.3 0.2-0.5 0.5-0.5zm5.6 8.3h-0.3c-0.3 0-0.5-0.2-0.5-0.5v-7.3c0-0.3 0.2-0.5 0.5-0.5h0.5c0.3 0 0.5 0.1 0.5 0.4l1.6 4.7v-4.6c0-0.3 0.2-0.5 0.5-0.5h0.3c0.3 0 0.5 0.2 0.5 0.5v7.3c0 0.3-0.2 0.5-0.5 0.5h-0.4c-0.3 0-0.5-0.1-0.5-0.4l-1.7-5v4.9c-0.1 0.3-0.2 0.5-0.5 0.5z"/>
			<path class="st1" d="m77.5 36.2-1.8-0.8-12.3 1.1 1.2 22.1 12 1.1 1.1-0.6 1.2-0.2-1.4-22.7z"/>
				<linearGradient id="k" x1="63.866" x2="69.368" y1="52.73" y2="52.978" gradientTransform="matrix(1 0 0 -1 0 100.8)" gradientUnits="userSpaceOnUse">
				<stop stop-color="#A2560B" stop-opacity=".969" offset="0"/>
				<stop stop-color="#B76213" stop-opacity=".679" offset=".299"/>
				<stop stop-color="#ED7E1E" stop-opacity=".06" offset=".939"/>
				<stop stop-color="#F58220" stop-opacity="0" offset="1"/>
			</linearGradient>
			<path class="st2" d="m77.5 36.2-1.8-0.8-12.3 1.1 1.2 22.1 12 1.1 1.1-0.6 1.2-0.2-1.4-22.7z"/>
				<linearGradient id="j" x1="69.878" x2="80.638" y1="48.471" y2="55.992" gradientTransform="matrix(1 0 0 -1 0 100.8)" gradientUnits="userSpaceOnUse">
				<stop stop-color="#DF771C" offset="0"/>
				<stop stop-color="#F58220" stop-opacity="0" offset="1"/>
			</linearGradient>
			<path class="st3" d="m77.5 36.2-1.8-0.8 0.9 24.4 1.1-0.6 1.2-0.2-1.4-22.8z"/>
				<linearGradient id="i" x1="76.559" x2="78.599" y1="53.308" y2="53.531" gradientTransform="matrix(1 0 0 -1 0 100.8)" gradientUnits="userSpaceOnUse">
				<stop stop-color="#DF771C" stop-opacity=".969" offset="0"/>
				<stop stop-color="#F58220" stop-opacity="0" offset="1"/>
			</linearGradient>
			<path class="st4" d="m77.5 36.2-0.9-0.4 1.1 23.3 1.2-0.2-1.4-22.7z"/>
				<linearGradient id="h" x1="73.223" x2="73.399" y1="63.208" y2="65.438" gradientTransform="matrix(1 0 0 -1 0 100.8)" gradientUnits="userSpaceOnUse">
				<stop offset="0"/>
				<stop stop-opacity="0" offset="1"/>
			</linearGradient>
			<path class="st5" d="m73.1 35.6c0.1 0.4 0.2 0.9 0.1 1.3 0 0.1 0.1 0.2 0.2 0.2s0.3-0.1 0.3-0.2c0.1-0.5 0.1-1-0.1-1.4-0.1 0-0.5 0.1-0.5 0.1z"/>
				<linearGradient id="g" x1="67.4" x2="67.813" y1="63.517" y2="64.902" gradientTransform="matrix(1 0 0 -1 0 100.8)" gradientUnits="userSpaceOnUse">
				<stop offset="0"/>
				<stop stop-opacity="0" offset="1"/>
			</linearGradient>
			<path class="st6" d="m67.5 36.1c-0.1 0.3-0.2 0.6-0.3 0.8 0 0.1 0.1 0.2 0.2 0.2s0.3-0.1 0.3-0.2l0.3-0.9-0.5 0.1z"/>
			<path class="st7" d="m44.6 36.4h-12.9l-0.6 0.4-0.6-0.1-1.7 23.5h0.9l0.8 0.5 13.7-1.1 0.4-23.2z"/>
				<linearGradient id="f" x1="44.051" x2="40.185" y1="51.115" y2="51.786" gradientTransform="matrix(1 0 0 -1 0 100.8)" gradientUnits="userSpaceOnUse">
				<stop stop-color="#0077A3" offset="0"/>
				<stop stop-color="#007BA9" stop-opacity=".559" offset=".441"/>
				<stop stop-color="#0085B6" stop-opacity="0" offset="1"/>
			</linearGradient>
			<path class="st8" d="m44.6 36.4h-12.9l-0.6 0.4-0.6-0.1-1.7 23.5h0.9l0.8 0.5 13.7-1.1 0.4-23.2z"/>
				<linearGradient id="e" x1="1628" x2="1638.4" y1="47.6" y2="54.89" gradientTransform="matrix(-1 0 0 -1 1665.3 100.8)" gradientUnits="userSpaceOnUse">
				<stop stop-color="#0077A3" offset="0"/>
				<stop stop-color="#00AEEF" stop-opacity="0" offset="1"/>
			</linearGradient>
			<path class="st9" d="m30.5 36.7 0.6 0.1 0.6-0.4-1.2 24.3-0.9-0.5h-0.9l1.8-23.5z"/>
				<linearGradient id="d" x1="1634.4" x2="1636" y1="52.242" y2="52.409" gradientTransform="matrix(-1 0 0 -1 1665.3 100.8)" gradientUnits="userSpaceOnUse">
				<stop stop-color="#0077A3" offset="0"/>
				<stop stop-color="#0085B6" stop-opacity="0" offset="1"/>
			</linearGradient>
			<path class="st10" d="m30.5 36.7 0.6 0.1-1.4 23.4h-0.9l1.7-23.5z"/>
				<linearGradient id="c" x1="41.805" x2="41.215" y1="61.83" y2="64.408" gradientTransform="matrix(1 0 0 -1 0 100.8)" gradientUnits="userSpaceOnUse">
				<stop offset="0"/>
				<stop stop-opacity="0" offset="1"/>
			</linearGradient>
			<path class="st11" d="m40.9 36.4c0.3 0.6 0.5 1.3 0.6 2 0 0.1 0.1 0.2 0.3 0.2 0.1 0 0.2-0.1 0.2-0.2-0.1-0.7-0.3-1.4-0.6-2h-0.5z"/>
				<linearGradient id="p" x1="35.844" x2="36.034" y1="62.164" y2="64.428" gradientTransform="matrix(1 0 0 -1 0 100.8)" gradientUnits="userSpaceOnUse">
				<stop offset="0"/>
				<stop stop-opacity="0" offset="1"/>
			</linearGradient>
			<path class="st12" d="m36.3 36.4h-0.5c-0.2 0.6-0.3 1.3-0.2 2.1 0 0.1 0.1 0.2 0.3 0.2s0.2-0.1 0.2-0.2c0-0.8 0-1.5 0.2-2.1z"/>
			<path class="st0" d="m52.3 60.5-11.8-0.9 4.6-23.8 11.8 0.9-4.6 23.8z"/>
			<path class="st13" d="m40.5 59.5 1.1 0.3v0.6l11.4 0.8v-4.6l-0.7 3.8-11.8-0.9z"/>
			<path class="st14" d="m52.8 60.5 0.2 0.8v-4.6l-0.7 3.8h0.5zm-11.2-0.7 10.7 0.6-11.8-0.9 1.1 0.3z"/>
				<linearGradient id="b" x1="55.714" x2="50.497" y1="52.686" y2="52.686" gradientTransform="matrix(1 0 0 -1 0 100.8)" gradientUnits="userSpaceOnUse">
				<stop stop-color="#8C1C35" stop-opacity=".969" offset="0"/>
				<stop stop-color="#8C1C35" stop-opacity="0" offset="1"/>
			</linearGradient>
			<path class="st15" d="m52.3 60.5-11.8-0.9 4.6-23.8 11.8 0.9-4.6 23.8z"/>
				<linearGradient id="o" x1="48.73" x2="49.089" y1="63.521" y2="64.784" gradientTransform="matrix(1 0 0 -1 0 100.8)" gradientUnits="userSpaceOnUse">
				<stop offset="0"/>
				<stop stop-opacity="0" offset="1"/>
			</linearGradient>
			<path class="st16" d="m49 36.1c-0.3 0.4-0.5 0.8-0.6 1.3 0 0.1 0.1 0.2 0.1 0.2 0.1 0 0.2-0.1 0.2-0.1 0.1-0.5 0.4-0.9 0.6-1.3 0.1-0.1-0.3-0.1-0.3-0.1z"/>
				<linearGradient id="n" x1="52.717" x2="52.864" y1="63.138" y2="64.503" gradientTransform="matrix(1 0 0 -1 0 100.8)" gradientUnits="userSpaceOnUse">
				<stop offset="0"/>
				<stop stop-opacity="0" offset="1"/>
			</linearGradient>
			<path class="st17" d="m52.6 36.4c0.1 0.4 0 0.9-0.1 1.4 0 0.1 0.1 0.2 0.1 0.2 0.1 0 0.2-0.1 0.2-0.1 0.1-0.5 0.2-1 0.1-1.4l-0.3-0.1z"/>
				<linearGradient id="a" x1="59.01" x2="59.01" y1="39.197" y2="50.921" gradientTransform="matrix(1 0 0 -1 0 100.8)" gradientUnits="userSpaceOnUse">
				<stop stop-color="#3F1A6F" offset="0"/>
				<stop stop-color="#532D8F" offset="1"/>
			</linearGradient>
			<path class="st18" d="M53.1,35h11.9v27.8H53.1V35z"/>
				<linearGradient id="m" x1="56.657" x2="56.657" y1="63.896" y2="65.849" gradientTransform="matrix(1 0 0 -1 0 100.8)" gradientUnits="userSpaceOnUse">
				<stop offset="0"/>
				<stop stop-opacity="0" offset="1"/>
			</linearGradient>
			<path class="st19" d="m56.9 35h-0.5c-0.1 0.5 0 1 0.1 1.5 0 0.1 0.2 0.2 0.3 0.2s0.2-0.1 0.2-0.2c-0.1-0.6-0.2-1.1-0.1-1.5z"/>
				<linearGradient id="l" x1="62.652" x2="62.216" y1="63.984" y2="66.159" gradientTransform="matrix(1 0 0 -1 0 100.8)" gradientUnits="userSpaceOnUse">
				<stop offset="0"/>
				<stop stop-opacity="0" offset="1"/>
			</linearGradient>
			<path class="st20" d="m62 35c0.2 0.4 0.3 0.9 0.4 1.3 0 0.1 0.2 0.2 0.3 0.2s0.2-0.1 0.2-0.2c-0.1-0.5-0.2-0.9-0.4-1.3h-0.5z"/>
		<path class="st21" d="m41.2 51.2v2.2c0 2.3-1.5 3.1-3.7 3.1h-0.1c-2.3 0-3.7-0.8-3.7-3.1v-8.9c0-2.2 1.5-3.1 3.7-3.1h0.1c2.3 0 3.7 0.9 3.7 3.1v1.9c0 0.6-0.3 0.8-0.8 0.8h-0.8c-0.6 0-0.9-0.3-0.9-0.8v-1.5c0-1-0.5-1.4-1.3-1.4s-1.3 0.3-1.3 1.4v8.2c0 1 0.5 1.4 1.3 1.4s1.3-0.3 1.3-1.4v-1.8c0-0.6 0.3-0.9 0.9-0.9h0.8c0.5 0 0.8 0.3 0.8 0.8z"/>
		<path class="st21" d="m48.7 56.4h-0.8c-0.6 0-0.8-0.3-0.8-0.8v-13.2c0-0.6 0.3-0.9 0.8-0.9h0.8c0.6 0 0.9 0.3 0.9 0.9v13.1c0 0.6-0.4 0.9-0.9 0.9z"/>
		<path class="st21" d="m62.3 42.4v0.5c0 0.6-0.3 0.9-0.9 0.9h-1.6v11.8c0 0.6-0.3 0.8-0.8 0.8h-0.8c-0.6 0-0.9-0.3-0.9-0.8v-11.9h-1.6c-0.6 0-0.9-0.3-0.9-0.9v-0.4c0-0.6 0.3-0.9 0.9-0.9h5.7c0.6 0.1 0.9 0.4 0.9 0.9z"/>
		<path class="st21" d="m71.4 55.6c0 0.6-0.3 0.8-0.9 0.8h-0.8c-0.6 0-0.8-0.3-0.8-0.8v-4.4l-2.7-8.6c-0.2-0.6 0.1-1 0.7-1h0.8c0.5 0 0.8 0.2 0.9 0.7l1.5 6.2 1.5-6.2c0.1-0.5 0.4-0.7 0.9-0.7h0.8c0.6 0 0.9 0.4 0.7 1l-2.7 8.6 0.1 4.4z"/>
				<ellipse class="st21" cx="67.5" cy="36.9" rx=".4" ry=".3"/>
				<ellipse class="st21" cx="73.3" cy="36.9" rx=".4" ry=".3"/>
				<path class="st1" d="m73.3 37.1c-0.1 0-0.3-0.1-0.3-0.2 0-1.6-1.2-2.8-2.7-2.8s-2.7 1.3-2.7 2.8c0 0.1-0.1 0.2-0.3 0.2-0.1 0-0.3-0.1-0.3-0.2 0-1.7 1.4-3.1 3.2-3.1s3.2 1.4 3.2 3.1c0.2 0.1 0.1 0.2-0.1 0.2z"/>
				<path class="st21" d="m57.2 36.5c0 0.2-0.2 0.4-0.4 0.4s-0.4-0.2-0.4-0.3c0-0.2 0.2-0.4 0.4-0.4 0.2-0.1 0.4 0.1 0.4 0.3z"/>
				<path class="st21" d="m63 36.3c0 0.2-0.2 0.4-0.4 0.4s-0.4-0.2-0.4-0.3c0-0.2 0.2-0.4 0.4-0.4 0.2-0.1 0.4 0.1 0.4 0.3z"/>
				<path class="st22" d="m62.6 36.5c-0.2 0-0.3-0.1-0.3-0.2-0.1-2.2-1.4-3.9-2.8-3.8-0.7 0-1.3 0.4-1.8 1.2s-0.7 1.8-0.7 2.8c0 0.1-0.1 0.2-0.2 0.2s-0.3-0.1-0.3-0.2c-0.1-1.1 0.2-2.2 0.8-3.1s1.3-1.3 2.2-1.4c1.7-0.1 3.2 1.8 3.3 4.3 0.1 0.1 0 0.2-0.2 0.2z"/>
				<ellipse class="st21" cx="35.9" cy="38.4" rx=".4" ry=".4"/>
				<ellipse class="st21" cx="41.7" cy="38.4" rx=".4" ry=".4"/>
				<path class="st7" d="m35.9 38.7c-0.1 0-0.3-0.1-0.3-0.2 0-2.4 1.4-4.4 3.2-4.4 1.7 0 3.2 1.9 3.2 4.3 0 0.1-0.1 0.2-0.3 0.2-0.1 0-0.3-0.1-0.3-0.2 0-2.2-1.2-3.9-2.7-3.9s-2.7 1.8-2.7 3.9c0.1 0.2 0 0.3-0.1 0.3z"/>
				<path class="st21" d="m48.9 37.4c0 0.1-0.2 0.2-0.3 0.2-0.2 0-0.3-0.1-0.3-0.3s0.2-0.2 0.3-0.2c0.2 0.1 0.3 0.2 0.3 0.3z"/>
				<path class="st21" d="m53 37.8c0 0.1-0.2 0.2-0.3 0.2-0.2 0-0.3-0.1-0.3-0.3s0.2-0.2 0.3-0.2c0.2 0 0.3 0.2 0.3 0.3z"/>
				<path class="st0" d="m48.6 37.5c-0.1 0-0.2-0.1-0.2-0.2 0.2-1.7 1.4-3 2.6-2.8 1.2 0.1 2.1 1.6 1.8 3.3 0 0.1-0.1 0.1-0.2 0.1s-0.2-0.1-0.2-0.2c0.2-1.5-0.5-2.8-1.5-2.9s-2.1 1.1-2.3 2.6c0.1 0.1 0.1 0.2 0 0.1z"/>
<path class="st23" d="m88.9 53.7c-0.2 0.5-0.5 0.7-0.9 0.7s-0.8-0.2-0.9-0.7l-2-6.3v8.3c0 0.6-0.3 0.9-0.9 0.9h-0.6c-0.6 0-0.9-0.3-0.9-0.9v-13.2c0-0.6 0.3-0.9 0.9-0.9h0.8c0.5 0 0.8 0.2 1 0.7l2.7 8 2.7-8c0.2-0.5 0.5-0.7 1-0.7h0.9c0.6 0 0.9 0.3 0.9 0.9v13.3c0 0.6-0.3 0.9-0.9 0.9h-0.7c-0.6 0-0.9-0.3-0.9-0.9v-8.4l-2.2 6.3zm14.4 2.9h-0.8c-0.5 0-0.8-0.3-0.9-0.8l-0.4-2.6h-2.8l-0.4 2.6c-0.1 0.5-0.4 0.8-0.9 0.8h-0.7c-0.6 0-0.9-0.3-0.8-0.9l2.5-13.3c0.1-0.5 0.4-0.8 0.9-0.8h1.5c0.5 0 0.9 0.3 0.9 0.8l2.5 13.3c0.2 0.6-0.1 0.9-0.6 0.9zm-2.5-5.4-1.1-6.7-1.1 6.7h2.2zm11.8 4v0.5c0 0.6-0.3 0.9-0.9 0.9h-4.6c-0.6 0-0.9-0.3-0.9-0.9v-13.2c0-0.6 0.3-0.9 0.9-0.9h0.8c0.6 0 0.9 0.3 0.9 0.9v12h3c0.5-0.1 0.8 0.2 0.8 0.7zm8.6 0v0.5c0 0.6-0.3 0.9-0.9 0.9h-4.6c-0.6 0-0.9-0.3-0.9-0.9v-13.2c0-0.6 0.3-0.9 0.9-0.9h0.8c0.6 0 0.9 0.3 0.9 0.9v12h3c0.5-0.1 0.8 0.2 0.8 0.7z"/>
</svg>
