<?xml version="1.0" encoding="UTF-8"?>
<svg enable-background="new 0 0 150 100" version="1.1" viewBox="0 0 150 100" xml:space="preserve" xmlns="http://www.w3.org/2000/svg">
<style type="text/css">
	.st0{fill:#38B99A;}
	.st1{fill:#EF6670;}
</style>
	<path class="st0" d="m67.5 50.2h-6.5v-8.9h3.5c0.4 0.5 0.7 0.9 1 1.4-0.8 0.2-1.3 0.9-1.3 1.7v0.1 0.1 5h3.2c0.1 0.1 0.1 0.4 0.1 0.6m-0.2 1h-6.3v-0.8h6.4c0 0.3 0 0.6-0.1 0.8m-0.5 2.4c-0.2-0.1-0.5-0.2-0.8-0.2-1 0-1.7 0.8-1.7 1.7v0.1 0.1 2.6c-0.9 1-2 1.9-3.2 2.6v-8.9h6.3c-0.2 0.6-0.4 1.3-0.6 2m-0.2 0.5c0-0.2-0.2-0.4-0.5-0.5 0.2 0 0.4 0.1 0.6 0.2 0 0.1-0.1 0.2-0.1 0.3m-0.6 0.5c-0.2 0-0.4-0.2-0.4-0.4s0.2-0.4 0.4-0.4 0.4 0.2 0.4 0.4-0.2 0.4-0.4 0.4m0 0.5c0-0.1-0.1-0.2-0.2-0.3h0.2 0.2c-0.1 0.1-0.2 0.2-0.2 0.3m-0.5-0.6c-0.1 0-0.2-0.1-0.3-0.1-0.2 0-0.4 0.1-0.6 0.2 0.2-0.6 0.7-1 1.3-1.1-0.3 0.1-0.5 0.3-0.5 0.6 0 0.2 0 0.3 0.1 0.4m0.3 1.2c-0.4 0.7-0.8 1.3-1.3 1.9v-2.3c0-0.4 0.3-0.7 0.7-0.7s0.7 0.3 0.7 0.7l-0.1 0.4zm-5.1-13.3c-0.8-2.5-3.2-4.3-6-4.3s-5.2 1.8-6 4.3v-4.3c0.1 0 0.1-0.1 0.2-0.1h11.6c0.1 0 0.1 0.1 0.2 0.1v4.3zm0 18.3c-0.3 0.2-0.6 0.3-0.9 0.4v-16.7c0-2.8-2.3-5.1-5.1-5.1s-5.1 2.3-5.1 5.1v16.6c-0.3-0.1-0.6-0.3-0.9-0.4v-16.2c0-3.3 2.7-6 6-6s6 2.7 6 6v16.3zm-1.2-13.6h-2.2v-2.7c0-1.4-1.2-2.6-2.6-2.6s-2.6 1.2-2.6 2.6v2.7h-2.2v-2.7c0-2.7 2.1-4.8 4.8-4.8s4.8 2.2 4.8 4.8v2.7zm0 2.9h-0.9v-2.6h0.9v2.6zm-2.2-2.6h0.9v2.6h-0.9v-2.6zm-4 2.6h-0.9v-2.6h0.9v2.6zm1.3 0h-0.9v-2.6h0.9v2.6zm0-2.9h-2.1v-2.7c0-1.2 0.9-2.2 2.1-2.3v5zm0.3 0.3h0.9v2.6h-0.9v-2.6zm2.1 2.6h-0.9v-2.6h0.9v2.6zm-2.1-2.9v-5c1.2 0.1 2.1 1.1 2.1 2.3v2.7h-2.1zm-3.8 0.3h0.9v2.6h-0.9v-2.6zm-1.2 0h0.9v2.6h-0.9v-2.6zm9.6 3.8h-9.6v-0.9h9.6v0.9zm0 10c-0.3 0.1-0.5 0.2-0.8 0.3v-0.3h-8.1v0.3c-0.3-0.1-0.5-0.2-0.8-0.3v-9.7h9.6l0.1 9.7zm-11.1-20.3h-3.2c0.9-1 2-1.9 3.2-2.6v2.6zm0 3.5v5.8h-6.4v-0.6h3.2v-5-0.1-0.1c0-0.8-0.6-1.5-1.3-1.7 0.3-0.5 0.7-1 1-1.4h3.5v3.1zm0 6.8h-6.3c0-0.2-0.1-0.5-0.1-0.8h6.4v0.8zm0 9.3c-1.2-0.7-2.3-1.6-3.2-2.6v-2.6-0.1-0.1c0-1-0.8-1.7-1.7-1.7-0.3 0-0.6 0.1-0.8 0.2-0.2-0.6-0.4-1.3-0.5-2h6.3v8.9h-0.1zm-3.5-2.9c-0.5-0.6-0.9-1.2-1.3-1.9v-0.4c0-0.4 0.3-0.7 0.7-0.7s0.7 0.3 0.7 0.7l-0.1 2.3zm-1.5-2.5c0-0.1-0.1-0.2-0.2-0.3h0.2s0.1 0 0.2 0c-0.1 0.1-0.2 0.2-0.2 0.3m0.2-1.5c0.6 0.1 1.1 0.5 1.3 1.1-0.2-0.2-0.4-0.2-0.6-0.2-0.1 0-0.2 0-0.3 0.1 0.1-0.1 0.1-0.2 0.1-0.3-0.1-0.4-0.3-0.6-0.5-0.7m-0.6 0.6c0-0.2 0.2-0.4 0.4-0.4s0.4 0.2 0.4 0.4-0.2 0.4-0.4 0.4-0.4-0.2-0.4-0.4m-0.2-0.1c0-0.1-0.1-0.2-0.1-0.3 0.2-0.1 0.4-0.2 0.6-0.2-0.3 0-0.4 0.2-0.5 0.5m0.2-10c0.1 0.1 0.2 0.3 0.2 0.4v4.7h-1.3c0-1.7 0.4-3.5 1.1-5.1m0.6-0.1c-0.1 0.1-0.1 0.2-0.2 0.3 0-0.1-0.1-0.2-0.2-0.3h0.2c0.1 0.1 0.1 0 0.2 0m0-0.9c0.1 0.1 0.2 0.2 0.2 0.4s-0.2 0.4-0.4 0.4c-0.1 0-0.1 0-0.2-0.1 0.1-0.3 0.3-0.5 0.4-0.7m1.3 1.5v4.7h-1.3v-4.7c0-0.4 0.3-0.7 0.7-0.7 0.3 0 0.6 0.3 0.6 0.7m-1.2-1.7c0.6 0.1 1 0.5 1.2 1-0.2-0.2-0.4-0.2-0.6-0.2-0.1 0-0.2 0-0.3 0.1 0.1-0.1 0.1-0.2 0.1-0.3-0.1-0.3-0.2-0.5-0.4-0.6m11-6.3c1.8 0 3.6 0.4 5.2 1.1h-10.4c1.6-0.7 3.4-1.1 5.2-1.1m6.3 1.7c1.2 0.7 2.3 1.6 3.2 2.6h-3.2v-2.6zm4.7 4.6c-0.2 0.1-0.4 0.3-0.4 0.6 0 0.1 0 0.2 0.1 0.3-0.1 0-0.2-0.1-0.3-0.1-0.2 0-0.4 0.1-0.6 0.2 0.2-0.5 0.7-0.9 1.2-1m0.1 1.7v4.7h-1.3v-4.7c0-0.4 0.3-0.7 0.7-0.7 0.3 0 0.6 0.3 0.6 0.7m0.3-0.6c-0.1 0.1-0.1 0.2-0.2 0.3 0-0.1-0.1-0.2-0.2-0.3h0.2c0.1 0.1 0.2 0 0.2 0m-0.3-0.9c0.1 0.2 0.2 0.4 0.4 0.7-0.1 0-0.1 0.1-0.2 0.1-0.2 0-0.4-0.2-0.4-0.4s0.1-0.4 0.2-0.4m0.4 1.5c0-0.2 0.1-0.3 0.2-0.4 0.7 1.6 1.1 3.3 1.1 5.2h-1.3v-4.8zm-1.1-5.6c-2.8-2.8-6.5-4.3-10.4-4.3s-7.6 1.5-10.4 4.3-4.3 6.4-4.3 10.4 1.5 7.6 4.3 10.4 6.5 4.3 10.4 4.3 7.6-1.5 10.4-4.3 4.3-6.5 4.3-10.4-1.5-7.7-4.3-10.4"/>
	<path class="st0" d="m54.1 56.8c0.1 0 0.2-0.1 0.2-0.2s-0.1-0.2-0.2-0.2-0.2 0.1-0.2 0.2 0.1 0.2 0.2 0.2m-2.8 3.7h6.9v0.3h-6.9v-0.3z"/>
	<path class="st0" d="m57 59.9h-2.1v-7.4c1.2 0.1 2.1 1.1 2.1 2.3v5.1zm-2.4 0h-2.1v-5.1c0-1.2 0.9-2.2 2.1-2.3v7.4zm2.7-5.2c0-1.4-1.2-2.6-2.6-2.6s-2.6 1.2-2.6 2.6v5.5h5.2v-5.5z"/>
	<path class="st0" d="m55.3 56.4c-0.1 0-0.2 0.1-0.2 0.2s0.1 0.2 0.2 0.2 0.2-0.1 0.2-0.2-0.1-0.2-0.2-0.2m-19-6.3v-2.1-2.1c0-0.7-0.1-1.2-0.1-1.6s-0.2-0.7-0.5-1-0.7-0.4-1.2-0.5c-0.5 0-0.9-0.1-1.3-0.1h-1.1v13.4h1.4 0.9c0.3 0 0.6-0.1 0.9-0.2 0.2-0.1 0.3-0.2 0.5-0.4s0.3-0.5 0.4-0.9c0-0.2 0.1-0.4 0.1-0.7s0-0.6 0.1-1v-1.3l-0.1-1.5zm2.1-1.6v1.9 1.9c0 0.6 0 1.3-0.1 1.9-0.1 0.7-0.2 1.3-0.5 1.9s-0.7 1.1-1.3 1.4c-0.5 0.3-1.1 0.4-1.6 0.4h-1.7-3.2v-17.2h3.3 1.6c0.5 0 1 0.1 1.6 0.4 0.4 0.2 0.7 0.4 1 0.7s0.4 0.5 0.6 0.8c0.1 0.3 0.2 0.5 0.3 0.8 0.1 0.2 0.1 0.4 0.1 0.6 0.1 0.4 0.1 1 0.1 1.8-0.2 0.8-0.2 1.7-0.2 2.7m38.8 9.5v-8.1h-4v8.1h-2.2v-17.3h2.2v7.4h4v-7.4h2.2v17.3h-2.2zm9.6 0v-17.4h7.7v2h-5.5v5.2h4.8v1.9h-4.8v6.4h5.7v1.9h-7.9zm14.2-14.1-1.6 8.9h3.3l-1.7-8.9zm2.7 14.1-0.6-3.3h-4l-0.7 3.3h-2.2l3.7-17.4h2.2l3.8 17.4h-2.2zm3.6-17.4h2.1v17.4h-2.1v-17.4zm8.9 17.4-3.4-15 0.3 15.1h-2.1v-17.5h3l3.5 15.2-0.3-15.2h2.1v17.4h-3.1z"/>
	<path class="st1" d="m71.2 61.5v-0.3h0.9l0.1 0.4c0.1-0.2 0.2-0.3 0.3-0.4s0.3-0.1 0.4-0.1h0.1 0.1l-0.1 0.5h-0.3c-0.1 0-0.3 0-0.4 0.1s-0.2 0.2-0.2 0.3v1.7l0.4 0.1v0.3h-1.4v-0.3l0.4-0.1v-2.1l-0.3-0.1zm3.7 0.1c-0.2 0-0.3 0.1-0.5 0.2-0.1 0.2-0.2 0.3-0.2 0.6h1.4v-0.1c0-0.2-0.1-0.4-0.2-0.5s-0.2-0.2-0.5-0.2m0.1 2.6c-0.4 0-0.7-0.1-1-0.4-0.2-0.3-0.4-0.6-0.4-1.1v-0.1c0-0.4 0.1-0.8 0.4-1 0.2-0.3 0.6-0.4 0.9-0.4 0.4 0 0.7 0.1 0.9 0.4 0.2 0.2 0.3 0.6 0.3 1v0.3h-1.9c0 0.3 0.1 0.5 0.2 0.7s0.3 0.3 0.6 0.3c0.2 0 0.3 0 0.5-0.1 0.1-0.1 0.3-0.1 0.4-0.2l0.2 0.3c-0.1 0.1-0.2 0.2-0.4 0.3h-0.7m1.8-0.4 0.4-0.1v-2.1l-0.4-0.1v-0.3h0.9v0.4c0.1-0.2 0.2-0.3 0.4-0.4s0.3-0.1 0.5-0.1c0.3 0 0.6 0.1 0.7 0.3 0.2 0.2 0.3 0.5 0.3 0.9v1.4l0.4 0.1v0.3h-1.4v-0.3l0.4-0.1v-1.4c0-0.3-0.1-0.4-0.2-0.6-0.1-0.1-0.3-0.2-0.5-0.2s-0.3 0-0.4 0.1l-0.3 0.3v1.7l0.4 0.1v0.3h-1.4l0.2-0.2zm5.2-2.2c-0.2 0-0.3 0.1-0.5 0.2-0.1 0.2-0.2 0.3-0.2 0.6h1.4v-0.1c0-0.2-0.1-0.4-0.2-0.5-0.1-0.2-0.3-0.2-0.5-0.2m0.1 2.6c-0.4 0-0.7-0.1-1-0.4-0.2-0.3-0.4-0.6-0.4-1.1v-0.1c0-0.4 0.1-0.8 0.4-1 0.2-0.3 0.6-0.4 0.9-0.4 0.4 0 0.7 0.1 0.9 0.4 0.2 0.2 0.3 0.6 0.3 1v0.3h-1.9c0 0.3 0.1 0.5 0.2 0.7s0.3 0.3 0.6 0.3c0.2 0 0.3 0 0.5-0.1 0.1-0.1 0.3-0.1 0.4-0.2l0.2 0.3c-0.1 0.1-0.2 0.2-0.4 0.3h-0.7m2.9-2.7-0.3 0.1 0.4 1.5 0.1 0.4 0.1-0.4 0.6-1.9h0.4l0.6 1.9 0.1 0.4 0.1-0.4 0.4-1.5-0.5-0.1v-0.4h1.1v0.4h-0.3l-0.7 2.6h-0.4l-0.6-1.8-0.1-0.5-0.1 0.5-0.6 1.8h-0.4l-0.7-2.6h-0.3v-0.4h1.1v0.4zm4.8-1.1h-0.5v-0.6h0.5v0.6zm-1 3.4 0.4-0.1v-2.1l-0.4-0.1v-0.3h1v2.5l0.4 0.1v0.3h-1.4v-0.3zm2 0 0.4-0.1v-2.1l-0.4-0.1v-0.3h0.9v0.4c0.1-0.2 0.2-0.3 0.4-0.4s0.3-0.1 0.5-0.1c0.3 0 0.6 0.1 0.7 0.3 0.2 0.2 0.3 0.5 0.3 0.9v1.4l0.4 0.1v0.3h-1.4v-0.3l0.4-0.1v-1.4c0-0.3-0.1-0.4-0.2-0.6-0.1-0.1-0.3-0.2-0.5-0.2s-0.3 0-0.4 0.1l-0.3 0.3v1.7l0.4 0.1v0.3h-1.4l0.2-0.2zm4.4-1c0 0.3 0.1 0.5 0.2 0.7s0.3 0.3 0.6 0.3c0.2 0 0.3 0 0.4-0.1l0.3-0.3v-1.4l-0.3-0.3c-0.1-0.1-0.2-0.1-0.4-0.1-0.3 0-0.5 0.1-0.6 0.3s-0.2 0.5-0.2 0.9zm-0.5-0.1c0-0.5 0.1-0.9 0.3-1.2s0.5-0.4 0.9-0.4c0.2 0 0.3 0 0.5 0.1 0.1 0.1 0.3 0.2 0.4 0.3l0.1-0.4h0.5v2.9c0 0.4-0.1 0.7-0.3 0.9s-0.5 0.3-0.9 0.3c-0.1 0-0.3 0-0.5-0.1-0.2 0-0.3-0.1-0.4-0.2l0.1-0.4c0.1 0.1 0.2 0.1 0.4 0.1s0.3 0.1 0.4 0.1c0.2 0 0.4-0.1 0.5-0.2s0.2-0.3 0.2-0.6v-0.3l-0.3 0.3c-0.1 0.1-0.3 0.1-0.5 0.1-0.4 0-0.6-0.1-0.9-0.4-0.4-0.1-0.5-0.4-0.5-0.9zm7.8-1.2h-0.3l-1.1 3c-0.1 0.2-0.2 0.4-0.3 0.5-0.1 0.2-0.3 0.2-0.6 0.2h-0.2-0.2l0.1-0.4h0.1 0.1c0.1 0 0.2-0.1 0.3-0.2s0.1-0.2 0.2-0.3l0.1-0.3-1-2.5h-0.3v-0.3h1.2v0.3l-0.3 0.1 0.5 1.5 0.1 0.4 0.6-1.8-0.3-0.1v-0.3h1.2l0.1 0.2zm1.6 2.3c0.2 0 0.3 0 0.5-0.1s0.2-0.2 0.3-0.3v-0.5h-0.6c-0.2 0-0.4 0.1-0.5 0.2s-0.2 0.2-0.2 0.4c0 0.1 0 0.2 0.1 0.3 0.1-0.1 0.2 0 0.4 0m0.8 0.3v-0.2-0.2c-0.1 0.1-0.2 0.2-0.4 0.3s-0.3 0.1-0.5 0.1c-0.3 0-0.5-0.1-0.7-0.2-0.2-0.2-0.2-0.4-0.2-0.6s0.1-0.5 0.3-0.6c0.2-0.2 0.5-0.2 0.9-0.2h0.6v-0.3c0-0.2-0.1-0.3-0.2-0.4s-0.3-0.2-0.5-0.2c-0.1 0-0.2 0-0.4 0.1-0.1 0-0.2 0.1-0.2 0.1l-0.1 0.3h-0.4v-0.6c0.1-0.1 0.3-0.2 0.5-0.3s0.4-0.1 0.6-0.1c0.3 0 0.6 0.1 0.8 0.3s0.3 0.4 0.3 0.7v1.5 0.1h0.2v0.3l-0.6 0.1zm1.3-0.3 0.4-0.1v-2.1l-0.4-0.1v-0.3h0.9v0.4c0.1-0.2 0.2-0.3 0.4-0.4s0.3-0.1 0.5-0.1c0.3 0 0.6 0.1 0.7 0.3 0.2 0.2 0.3 0.5 0.3 0.9v1.4l0.4 0.1v0.3h-1.4v-0.3l0.4-0.1v-1.4c0-0.3-0.1-0.4-0.2-0.6-0.1-0.1-0.3-0.2-0.5-0.2s-0.3 0-0.4 0.1l-0.3 0.3v1.7l0.4 0.1v0.3h-1.4l0.2-0.2zm4.5-1c0 0.3 0.1 0.5 0.2 0.7s0.3 0.3 0.6 0.3c0.2 0 0.3 0 0.4-0.1s0.2-0.2 0.3-0.3v-1.4l-0.3-0.3c-0.1-0.1-0.2-0.1-0.4-0.1-0.3 0-0.5 0.1-0.6 0.3-0.2 0.2-0.2 0.5-0.2 0.9zm-0.6-0.1c0-0.5 0.1-0.9 0.3-1.2s0.5-0.4 0.9-0.4c0.2 0 0.3 0 0.5 0.1 0.1 0.1 0.3 0.2 0.4 0.3l0.1-0.4h0.5v2.9c0 0.4-0.1 0.7-0.3 0.9s-0.5 0.3-0.9 0.3c-0.1 0-0.3 0-0.5-0.1s-0.3-0.1-0.4-0.2l0.1-0.4c0.1 0.1 0.2 0.1 0.4 0.1 0.1 0 0.3 0.1 0.4 0.1 0.2 0 0.4-0.1 0.5-0.2s0.2-0.3 0.2-0.6v-0.3l-0.3 0.3c-0.1 0.1-0.3 0.1-0.5 0.1-0.4 0-0.6-0.1-0.9-0.4-0.4-0.1-0.5-0.4-0.5-0.9zm3.9 0c0 0.3 0.1 0.6 0.2 0.8s0.3 0.3 0.6 0.3 0.5-0.1 0.6-0.3 0.2-0.5 0.2-0.8v-0.1c0-0.3-0.1-0.6-0.2-0.8s-0.3-0.3-0.6-0.3-0.5 0.1-0.6 0.3c-0.1 0.3-0.2 0.5-0.2 0.9zm-0.5-0.1c0-0.4 0.1-0.8 0.4-1.1 0.2-0.3 0.6-0.4 1-0.4s0.7 0.1 1 0.4c0.2 0.3 0.4 0.6 0.4 1.1v0.1c0 0.4-0.1 0.8-0.4 1.1-0.2 0.3-0.6 0.4-1 0.4s-0.7-0.1-1-0.4-0.4-0.7-0.4-1.2zm3.3 1.2 0.4-0.1v-2.1l-0.4-0.1v-0.3h0.9v0.4c0.1-0.2 0.2-0.3 0.4-0.4s0.3-0.1 0.5-0.1c0.3 0 0.6 0.1 0.7 0.3 0.2 0.2 0.3 0.5 0.3 0.9v1.4l0.4 0.1v0.3h-1.4v-0.3l0.4-0.1v-1.4c0-0.3-0.1-0.4-0.2-0.6-0.1-0.1-0.3-0.2-0.5-0.2s-0.3 0-0.4 0.1l-0.3 0.3v1.7l0.4 0.1v0.3h-1.4l0.2-0.2z"/>
</svg>
