<?xml version="1.0" encoding="UTF-8"?>
<svg enable-background="new 0 0 150 100" version="1.1" viewBox="0 0 150 100" xml:space="preserve" xmlns="http://www.w3.org/2000/svg">
<style type="text/css">
	.st0{fill:#0C7F3F;}
	.st1{fill:#11ADE4;}
	.st2{fill:#6B3E98;}
	.st3{fill:#B73794;}
	.st4{fill:#502367;}
	.st5{fill:#FAC013;}
	.st6{fill:#FFFFFF;}
	.st7{fill:#68449B;}
	.st8{fill:#8F8F8F;}
</style>
	<circle class="st0" cx="116.8" cy="50.6" r="7.4"/>
	<circle class="st1" cx="118.9" cy="47.2" r="8.7"/>
	<path class="st2" d="m107.9 39.7s1.4-2.4 3.9-3.4 8.3-3.5 13.9 0.7c6.2 4.2 2.1 7.6 2.1 7.6s-4.4 8.7-10 8.8c-5.7 0.1-6-1.3-6.3-2.9-0.3-1.7-2.5-7.3-2.5-7.3l-1.1-3.5z"/>
	<path class="st3" d="m102.5 50.5s-3.7 0.4-6-3.3-0.2-7.1 0.7-8.4c0.9-1.2 9.6-9.8 19.2-3.9s5.1 12 4.7 13.2-4.3 7.9-9.2 4-7.6-1.9-7.6-1.9l-1.8 0.3z"/>
	<path class="st4" d="m116.4 35c-0.1 0-0.1-0.1-0.2-0.1-1.9 0.4-3.5 1-4.5 1.4-2.5 1-3.9 3.4-3.9 3.4l1.1 3.5s2.3 5.7 2.5 7.3c0.2 1.4 0.5 2.6 4.1 2.9 3-0.5 5.2-4.3 5.5-5.2 0.5-1.2 5-7.4-4.6-13.2z"/>
	<path class="st5" d="m118.3 43.4c-1-3.3-3.7-4.9-6.5-5.7-2.8-0.7-7.8-0.3-11.3 1.6-2.2 1.1-2.7 3-2.7 4.5 0 0.6 0.3 2.4 2.2 4.6 0.9 1 2.1 2.3 2.8 3.2 1.1 1.3 3.2 2.1 4.7 1.7s3.9 0.2 4.7-0.4 2.9-2.4 5.3-2.3c2.6 0.2 1.8-3.9 0.8-7.2z"/>
	<path class="st6" d="m106 52s-3.2-1-2.7-3.4 1.5-7.7 4.2-7.6 4.3 1.6 5.4 3.3c1 1.7 2.7 5.4 0.2 8.1s-3.8 1.9-3.8 1.9-1.4-1.6-1.9-1.8c-0.4-0.1-1.4-0.5-1.4-0.5z"/>
	<path class="st5" d="m107.4 50.9s-2.1-0.7-1.8-2.2 1-5.1 2.8-5 2.8 1.1 3.5 2.2 1.8 3.5 0.2 5.3-2.5 1.3-2.5 1.3-0.9-1.1-1.2-1.2-1-0.4-1-0.4z"/>
	<path class="st7" d="m23.9 53.6h-1v-1.7h5c2.1 0 3.5 1.4 3.5 3.6s-1.4 3.6-3.5 3.6h-2v3.8h-2v-9.3zm3.6 3.7c1.1 0 1.8-0.7 1.8-1.9 0-1.1-0.6-1.8-1.8-1.8h-1.6v3.7h1.6zm5.1-3.4c0-0.2-0.1-0.3-0.3-0.3h-0.6v-1.7h1.9c0.7 0 1 0.3 1 1v2.8 0.7c0.4-0.8 1.3-1.6 2.7-1.6 1.8 0 2.7 0.9 2.7 3v3.1c0 0.2 0.1 0.3 0.3 0.3h0.6v1.6h-1.9c-0.7 0-1-0.3-1-1v-3.6c0-1-0.3-1.6-1.2-1.6-1 0-1.8 0.7-2.1 1.6-0.1 0.3-0.1 0.6-0.1 1v3.6h-2v-8.9zm13.5 4h0.2v-0.1c0-1.1-0.4-1.5-1.4-1.5-0.4 0-1 0.1-1 0.5v0.4h-1.9v-0.8c0-1.5 2.1-1.6 2.9-1.6 2.6 0 3.4 1.4 3.4 3.1v2.9c0 0.2 0.1 0.3 0.3 0.3h0.6v1.6h-1.8c-0.7 0-1-0.4-1-0.9v-0.3s-0.6 1.4-2.4 1.4c-1.4 0-2.7-0.9-2.7-2.4 0.1-2.4 3.5-2.6 4.8-2.6zm-1.5 3.6c1 0 1.8-1.1 1.8-2.1v-0.2h-0.4c-1 0-2.6 0.1-2.6 1.2 0 0.6 0.4 1.1 1.2 1.1zm5.9-4.5c0-0.2-0.1-0.3-0.3-0.3h-0.6v-1.7h1.8c0.7 0 1 0.3 1 0.9v0.2 0.3c0.3-0.7 1.2-1.6 2.8-1.6 1.7 0 2.7 0.9 2.7 3v3.1c0 0.2 0.1 0.3 0.3 0.3h0.6v1.6h-1.8c-0.7 0-1-0.3-1-1v-3.6c0-1-0.2-1.6-1.2-1.6s-1.8 0.7-2.1 1.6c-0.1 0.3-0.2 0.7-0.2 1v3.6h-1.9l-0.1-5.8zm12.4-2.2c1.7 0 2.3 1 2.3 1v-0.5-1.4c0-0.2-0.1-0.3-0.3-0.3h-0.6v-1.7h1.9c0.7 0 1 0.3 1 1v7.9c0 0.2 0.1 0.3 0.3 0.3h0.6v1.6h-1.8c-0.7 0-1-0.3-1-0.8v-0.3s-0.6 1.3-2.4 1.3c-2.1 0-3.5-1.7-3.5-4.1-0.1-2.4 1.4-4 3.5-4zm2.3 4.1c0-1.2-0.6-2.4-1.9-2.4-1.1 0-2 0.9-2 2.4s0.8 2.5 1.9 2.5 2-0.8 2-2.5zm7.4-4.1c2.2 0 3.5 1.6 3.5 3.7v0.7h-5.4c0.2 1.4 1.2 2.1 2.4 2.1 1.3 0 2.2-0.9 2.2-0.9l0.8 1.4s-1.2 1.2-3.2 1.2c-2.6 0-4.2-1.9-4.2-4.1-0.1-2.4 1.5-4.1 3.9-4.1zm1.5 3.1c0-0.9-0.7-1.6-1.5-1.6-1 0-1.7 0.6-1.9 1.6h3.4zm6.8-3.1c2.2 0 3.5 1.6 3.5 3.7v0.7h-5.4c0.2 1.4 1.2 2.1 2.4 2.1 1.3 0 2.2-0.9 2.2-0.9l0.8 1.4s-1.2 1.2-3.2 1.2c-2.6 0-4.2-1.9-4.2-4.1-0.1-2.4 1.5-4.1 3.9-4.1zm1.4 3.1c0-0.9-0.7-1.6-1.5-1.6-1 0-1.7 0.6-1.9 1.6h3.4zm4.2 6.5c0.5 0 1-0.3 1.3-1l0.3-0.6-2.6-5.9c-0.1-0.2-0.2-0.3-0.4-0.3h-0.2v-1.6h1.3c0.6 0 0.8 0.2 1 0.7l1.5 3.9c0.2 0.4 0.3 1 0.3 1s0.1-0.6 0.3-1l1.3-3.9c0.2-0.5 0.5-0.7 1-0.7h1.4v1.7h-0.2c-0.2 0-0.4 0-0.4 0.3l-2.9 7c-0.6 1.4-1.7 2.1-2.8 2.1-1.2 0-2-0.8-2-0.8l0.8-1.4c-0.1 0 0.4 0.5 1 0.5zm11.4-6.5h0.2v-0.1c0-1.1-0.4-1.5-1.4-1.5-0.4 0-1 0.1-1 0.5v0.4h-1.8v-0.8c0-1.5 2.1-1.6 2.9-1.6 2.6 0 3.4 1.4 3.4 3.1v2.9c0 0.2 0.1 0.3 0.3 0.3h0.6v1.6h-1.8c-0.7 0-1-0.4-1-0.9v-0.3s-0.6 1.4-2.4 1.4c-1.4 0-2.7-0.9-2.7-2.4 0.1-2.4 3.4-2.6 4.7-2.6zm-1.5 3.6c1 0 1.8-1.1 1.8-2.1v-0.2h-0.3c-1 0-2.6 0.1-2.6 1.2-0.1 0.6 0.3 1.1 1.1 1.1zm5.9-4.5c0-0.2-0.1-0.3-0.3-0.3h-0.6v-1.7h1.8c0.7 0 1 0.3 1 1v0.5 0.5c0.4-1.1 1.3-2 2.5-2h0.4v1.9h-0.5c-0.8 0-1.8 0.5-2.1 1.6-0.1 0.4-0.2 0.8-0.2 1.3v3.1h-1.9l-0.1-5.9z"/>
	<path class="st8" d="m23.7 67h-0.3v-1.9h0.5l0.6 1.2 0.6-1.2h0.5v1.9h-0.3v-1.5l-0.7 1.3h-0.2l-0.7-1.3v1.5zm4.1 0h-0.3v-0.7l-0.7-1.1h0.4l0.5 0.9 0.5-0.9h0.4l-0.7 1.1-0.1 0.7zm2.1-0.4-0.2 0.4h-0.3l0.8-1.9h0.3l0.8 1.9h-0.3l-0.2-0.4h-0.9zm0.8-0.3-0.3-0.8-0.4 0.8h0.7zm3.4-1.1h0.3v1.8h-0.4l-1-1.3v1.3h-0.3v-1.9h0.3l1.1 1.4v-1.3zm2.1 1.8h-0.3v-1.9h0.5l0.6 1.2 0.6-1.2h0.5v1.9h-0.3v-1.5l-0.7 1.3h-0.2l-0.7-1.3v1.5zm3.7-0.4-0.2 0.4h-0.3l0.8-1.9h0.3l0.8 1.9h-0.3l-0.2-0.4h-0.9zm0.8-0.3-0.3-0.8-0.4 0.8h0.7zm3.4-0.5c0 0.3-0.1 0.5-0.4 0.6l0.5 0.7h-0.4l-0.4-0.6h-0.4v0.5h-0.3v-1.9h0.7c0.3 0 0.5 0 0.6 0.1s0.1 0.4 0.1 0.6zm-0.4 0.2c0.1-0.1 0.1-0.1 0.1-0.3s0-0.2-0.1-0.3c-0.1 0-0.2-0.1-0.4-0.1h-0.3v0.7h0.4c0.1 0.1 0.3 0.1 0.3 0zm3.4-0.8h0.3v1.8h-0.3v-1.8zm3.1 0h0.3v1.8h-0.3l-1.1-1.4v1.4h-0.3v-1.9h0.3l1.1 1.4v-1.3zm3.3 0h0.3v1.8h-0.3l-1.1-1.4v1.4h-0.3v-1.9h0.3l1.1 1.4v-1.3zm3.3 1.6c-0.2 0.2-0.4 0.3-0.7 0.3s-0.5-0.1-0.7-0.3-0.3-0.4-0.3-0.7 0.1-0.5 0.3-0.7 0.4-0.3 0.7-0.3 0.5 0.1 0.7 0.3 0.3 0.4 0.3 0.7-0.1 0.5-0.3 0.7zm-0.2-1.2c-0.1-0.1-0.3-0.2-0.5-0.2s-0.3 0.1-0.5 0.2-0.2 0.3-0.2 0.5 0.1 0.4 0.2 0.5 0.3 0.2 0.5 0.2 0.3-0.1 0.5-0.2 0.2-0.3 0.2-0.5-0.1-0.4-0.2-0.5zm2.7 1.4h-0.4l-0.8-1.9h0.4l0.6 1.4 0.6-1.4h0.4l-0.8 1.9zm2.1-0.4-0.2 0.4h-0.3l0.8-1.9h0.3l0.8 1.9h-0.3l-0.2-0.4h-0.9zm0.8-0.3-0.3-0.8-0.3 0.8h0.6zm2.5-0.8v1.5h-0.3v-1.6h-0.6v-0.3h1.5v0.3h-0.6zm2-0.3h0.3v1.8h-0.3v-1.8zm3.3 1.6c-0.2 0.2-0.4 0.3-0.7 0.3s-0.5-0.1-0.7-0.3-0.3-0.4-0.3-0.7 0.1-0.5 0.3-0.7 0.4-0.3 0.7-0.3 0.5 0.1 0.7 0.3 0.3 0.4 0.3 0.7-0.1 0.5-0.3 0.7zm-0.2-1.2c-0.1-0.1-0.3-0.2-0.5-0.2s-0.3 0.1-0.5 0.2c-0.1 0.1-0.2 0.3-0.2 0.5s0.1 0.4 0.2 0.5 0.3 0.2 0.5 0.2 0.3-0.1 0.5-0.2c0.1-0.1 0.2-0.3 0.2-0.5s-0.1-0.4-0.2-0.5zm3.3-0.4h0.3v1.8h-0.3l-1.1-1.3v1.3h-0.3v-1.9h0.3l1.1 1.4v-1.3zm3.2 1.8v-1.9h0.3v1.6h0.9v0.3h-1.2zm2.8-0.4-0.2 0.4h-0.3l0.8-1.9h0.3l0.8 1.9h-0.3l-0.2-0.4h-0.9zm0.8-0.3-0.3-0.8-0.3 0.8h0.6zm2.7 0.7h-0.8v-1.9h0.7 0.3c0.1 0 0.2 0.1 0.2 0.1 0.1 0.1 0.1 0.2 0.1 0.3s0 0.3-0.1 0.3h-0.1-0.1c0.1 0 0.2 0.1 0.3 0.2s0.1 0.2 0.1 0.3 0 0.2-0.1 0.4c-0.1 0.3-0.2 0.3-0.5 0.3zm-0.5-1.1h0.4c0.2 0 0.3-0.1 0.3-0.2s0-0.2-0.1-0.2-0.1-0.1-0.3-0.1h-0.4v0.5h0.1zm0 0.8h0.5c0.1 0 0.2 0 0.3-0.1 0.1 0 0.1-0.1 0.1-0.2 0-0.2-0.1-0.3-0.4-0.3h-0.5v0.6z"/>
</svg>
