<?xml version="1.0" encoding="UTF-8"?>
<svg enable-background="new 0 0 150 100" version="1.1" viewBox="0 0 150 100" xml:space="preserve" xmlns="http://www.w3.org/2000/svg">
<style type="text/css">
	.st0{fill:#BD202E;}
	.st1{fill:#FFFFFF;}
	.st2{fill:#FBED1F;}
	.st3{fill:#221F1F;}
</style>
<path class="st0" d="m100.6 30.1-21.2-12.2c-2.7-1.6-6.1-1.6-8.8 0l-21.2 12.2c-2.7 1.6-4.4 4.5-4.4 7.6v24.5c0 3.2 1.7 6.1 4.4 7.6l21.2 12.3c2.7 1.6 6.1 1.6 8.8 0l21.2-12.3c2.7-1.6 4.4-4.5 4.4-7.6v-24.5c0-3.1-1.6-6-4.4-7.6"/>
<path class="st1" d="m99.6 31.4-20.4-11.8c-1.2-0.7-2.6-1.1-4-1.1s-2.8 0.4-4 1.1l-20.3 11.8c-2.4 1.4-4 4.1-4 6.9v23.6c0 2.8 1.5 5.5 4 6.9l19.2 11.1c0-0.3-0.1-0.9-0.2-1.7l-18.4-10.7c-2-1.2-3.3-3.3-3.3-5.7v-23.6c0-2.3 1.3-4.5 3.3-5.7l20.4-11.8c1-0.6 2.1-0.9 3.3-0.9s2.3 0.3 3.3 0.9l20.4 11.8c2 1.2 3.3 3.3 3.3 5.7v23.6c0 2.3-1.3 4.5-3.3 5.7l-18.3 10.6c-0.1 0.7-0.1 1.3-0.2 1.7l19.2-11.1c2.4-1.4 4-4.1 4-6.9v-23.6c0-2.8-1.6-5.4-4-6.8z"/>
<path class="st1" d="m78.9 80.3v0c0 0.4-1.5 0.9-3.7 0.9s-3.7-0.5-3.7-0.9l-0.7-6.7c0.1 0.1 0.3 0.2 0.6 0.2v-1c0.3 0.1 0.7 0.1 1.2 0.2l0.2 1c0.7 0.1 1.5 0.1 2.3 0.1s1.6 0 2.3-0.1l0.2-1c0.5 0 0.8-0.1 1.2-0.2v1c0.3-0.1 0.5-0.2 0.6-0.2l-0.5 6.7zm-7.7-7.1s-0.1 0 0 0c0 0.2 0.1 0.2 0.3 0.3v0.3c-0.5-0.1-0.6-0.3-0.6-0.3-0.1-0.1 0-0.2 0.3-0.3m0.2 0v0.2c-0.1 0-0.1-0.1-0.1-0.1s0-0.1 0.1-0.1m0.6-0.5 1 0.1-0.2 0.1c-0.4 0-0.7-0.1-1-0.2h0.2zm2.3 0.1c0.1 0 0.2 0 0.2-0.1l0.2-0.7c0.4-0.1 0.8-0.1 1.2 0l0.2 0.7s0 0.1 0.1 0.1h0.1 1l-0.2 0.7c-0.6 0-1.2 0.1-1.8 0.1s-1.3 0-1.8-0.1l-0.2-0.7c0.3 0.1 0.6 0.1 1 0m3.1 1.1-0.3-0.3 0.2-0.8 0.3 0.1-0.2 1zm-4-0.1c0.6 0 1.2 0.1 1.9 0.1 0.6 0 1.3 0 1.9-0.1l0.2 0.2c-0.6 0.1-1.4 0.1-2.1 0.1s-1.5 0-2.1-0.1l0.2-0.2zm-0.3-0.9 0.2 0.8-0.3 0.2-0.1-0.9 0.2-0.1zm5.4-0.2 0.2 0.1c-0.3 0.1-0.6 0.1-1 0.2l-0.2-0.1 1-0.2zm0.5 0.5c0.1 0 0.1 0.1 0.1 0.1s0 0-0.1 0.1v-0.2zm0.6 0.2c0 0.1-0.1 0.2-0.6 0.3v-0.3c0.2-0.1 0.3-0.1 0.3-0.2v-0.1c0.3 0.2 0.3 0.3 0.3 0.3m0.2 0c0-0.2-0.2-0.3-0.7-0.5v-0.2l-0.5-0.1-1.2 0.2c-0.3 0-0.7 0-1.1-0.1l-0.3-0.8s0-0.1-0.1-0.1c-0.5-0.1-0.9-0.1-1.4 0 0 0-0.1 0-0.1 0.1l-0.2 0.8c-0.4 0-0.8 0-1.1 0.1l-1.1-0.2-0.5 0.1v0.3c-0.5 0.1-0.7 0.3-0.7 0.5l0.7 6.9c0 0.7 2 1 3.8 1s3.8-0.4 3.8-1l0.7-7z"/>
<path class="st1" d="m77.6 79.3-0.6-0.4 0.1-1.1c0.2 0 0.3 0 0.5-0.1h0.1l-0.1 1.6zm-0.3 0.1c-0.7 0.1-1.3 0.2-2 0.2s-1.4-0.1-2-0.2h-0.1l0.4-0.3c0.5 0.1 1.1 0.2 1.7 0.2s1.2-0.1 1.7-0.2l0.4 0.3h-0.1zm-4.6-1.7c0.2 0 0.4 0.1 0.6 0.1l0.1 1.1-0.6 0.3-0.1-1.5zm0.9 0.2c1.1 0.1 2.3 0.1 3.3 0h0.1l-0.1 1.1c-0.5 0.1-1.1 0.1-1.6 0.1-0.6 0-1.1 0-1.6-0.1l-0.1-1.1zm4.2-0.3c-0.8 0.2-1.6 0.2-2.5 0.2s-1.8-0.1-2.5-0.2h-0.1v0.1l0.1 1.6c0 0.1 0 0.1 0.1 0.1 0.8 0.2 1.6 0.2 2.4 0.2s1.7-0.1 2.4-0.2c0.1 0 0.1-0.1 0.1-0.1l0.1-1.6s0-0.1-0.1-0.1"/>
<path class="st2" d="m78.6 69.1c0.1 0 0.1 0 0 0 0.1 0 0.1 0 0 0 0.1 0 0.1 0 0 0l0.1-0.1s0 0 0 0 0 0 0 0 0 0 0 0 0 0 0 0 0 0 0 0v-0.1s0 0-0.1 0 0 0 0 0 0 0 0 0c0.1 0.1 0.1 0.1 0 0.2v0 0m-0.5 0.4c-0.1 0-0.1 0 0 0-0.1 0-0.1 0 0 0-0.1 0-0.1 0 0 0h-0.1s0 0 0 0 0 0 0 0 0 0 0 0 0 0 0 0 0 0 0 0 0 0 0 0 0 0 0 0.1 0 0 0 0 0 0 0 0 0 0 0 0 0 0 0 0 0 0 0 0 0 0 0 0 0 0 0 0c0.1 0 0.1-0.1 0.1-0.1h0.1s0 0 0-0.1 0 0-0.1 0c0.1 0 0.1 0 0 0.1v0 0m-0.8-0.4-0.1 0.1v0.1c0.1-0.1 0.1-0.1 0.1-0.2 0.1 0 0.1 0 0 0 0.1 0 0.1 0 0 0 0.1 0 0.1 0 0 0h0.1s0 0 0 0 0 0 0 0 0 0 0 0 0 0 0 0v-0.1s0 0-0.1 0 0 0 0 0 0 0 0 0 0 0 0 0 0.1 0 0 0.1c0.1-0.1 0.1-0.1 0 0v0m-0.4 0.4v0l-0.1 0.1s0 0 0 0v0.1s0 0 0 0 0 0 0 0 0 0 0 0c0.1-0.1 0.1-0.1 0.1-0.2 0.1 0 0.1 0 0 0 0.1 0 0.1 0 0 0 0.1 0 0.1 0 0 0m0.4-1.6-0.1 0.1s0 0 0 0 0 0 0 0 0 0 0 0 0 0 0 0 0 0 0 0.1 0 0 0 0 0 0 0 0 0 0 0 0 0 0 0 0c0.1-0.1 0.1-0.1 0.1-0.2 0.1 0 0.1 0 0 0 0.1 0 0.1 0 0 0 0.1 0 0.1 0 0 0 0.1-0.1 0-0.1 0 0m-1.1 2v0 0 0l0.1-0.1s0 0 0 0 0 0 0 0 0 0 0 0 0 0 0 0 0 0 0 0 0 0 0 0v-0.1h-0.1s0 0 0 0 0 0 0 0 0 0 0 0 0 0 0 0 0 0 0 0 0 0 0 0c-0.1 0.1-0.1 0.1 0 0.2-0.1-0.1-0.1-0.1 0 0-0.1-0.1-0.1-0.1 0 0h-0.1s0 0 0 0 0 0 0 0 0 0 0 0.1 0 0 0 0 0 0 0 0l0.1-0.1c-0.1 0-0.1 0 0 0-0.1 0-0.1 0 0 0m-0.4-0.8v0l0.1-0.1s0 0 0 0 0 0 0 0 0 0 0 0 0 0 0 0 0 0 0 0 0 0 0 0 0 0 0 0 0 0 0 0 0 0 0 0 0 0 0 0 0 0 0 0 0 0 0 0 0 0 0 0 0 0 0 0 0 0 0 0 0 0 0 0 0 0 0 0 0 0 0 0 0 0 0 0 0 0 0 0 0 0 0 0 0 0 0 0 0 0 0 0 0 0 0 0 0 0 0 0 0 0 0 0c-0.2 0-0.2 0-0.1 0.1-0.1-0.1-0.1-0.1 0 0-0.1 0-0.1 0 0 0m-0.1 0.4v0 0-0.1s0 0 0 0-0.1 0 0 0.1c-0.1-0.1-0.1-0.1 0 0-0.1 0-0.1 0 0 0-0.1 0-0.1 0 0 0l-0.1 0.1s0 0 0 0 0 0 0 0 0 0 0 0 0 0 0 0 0 0 0 0 0 0 0 0 0 0 0 0 0 0 0 0 0 0 0 0 0 0 0 0 0 0 0 0 0 0 0 0 0 0 0 0 0 0 0 0 0 0 0 0 0 0 0 0 0 0 0 0 0 0 0 0 0 0 0 0 0.1 0 0.1-0.1v0m-1-2.7v0.1 0.6s0 0 0 0v-0.5s0 0 0 0v-0.1c0.1 0 0.1 0 0-0.1 0.1-0.1 0-0.1 0-0.1v0.1m0.4 3.3v-0.1-1.1s0 0 0 0v-0.5 0.4s0 0 0 0v0.6s0 0 0 0v0.4c-0.1 0.1-0.1 0.2 0 0.3-0.1-0.1-0.1-0.1 0 0-0.1 0.1-0.1 0.1 0 0.1s0-0.1 0-0.1m-2.2-3.1v0 0l0.1 0.1s0 0 0 0 0 0 0 0 0 0 0 0 0 0 0 0 0 0 0 0 0 0 0 0 0 0 0 0 0 0 0 0 0 0 0 0 0 0 0 0 0 0 0 0 0 0 0 0v-0.1s0 0 0 0 0 0 0 0 0 0 0 0 0 0 0 0 0 0 0 0 0 0 0 0 0 0 0 0 0 0 0 0 0 0 0 0 0 0 0 0 0 0 0 0 0 0-0.1 0v0c-0.1-0.1-0.1 0 0 0m1.3 2.6v0 0l0.1 0.1s0 0 0 0 0 0 0 0 0 0 0 0v-0.1s0 0 0 0 0 0-0.1 0c0.1 0 0.1 0 0 0 0.1 0 0.1 0 0 0v-0.1s0 0 0 0h-0.1v0.1c0-0.1 0-0.1 0.1 0-0.1 0-0.1 0 0 0m-2.1-1.8v0 0l0.1 0.1s0 0 0 0 0 0 0 0 0 0 0 0 0 0 0 0v-0.1s0 0 0 0 0 0 0 0 0 0 0 0h-0.1c0.1 0 0 0 0 0v0 0c-0.1-0.1-0.1 0 0 0m2 2.5c0-0.1-0.1-0.1 0 0-0.1-0.1-0.1-0.1 0 0l-0.1-0.1s0 0 0 0 0 0 0 0 0 0 0 0 0 0 0 0 0 0 0 0h-0.1v0.1s0 0 0 0 0 0 0 0 0 0 0 0 0 0 0 0 0 0 0 0 0 0 0 0 0 0 0 0 0.1 0 0.2 0c-0.1 0-0.1 0 0 0-0.1 0-0.1 0 0 0v0 0m-0.3 0.5v0 0c0-0.1-0.1-0.1 0 0l-0.1-0.1s0 0 0 0 0 0 0 0 0 0 0 0 0 0 0 0 0 0 0 0 0 0 0 0 0 0 0 0 0 0 0 0 0 0 0 0 0 0 0 0 0 0 0 0 0 0 0 0 0 0 0 0 0 0 0 0h-0.1v0.1s0 0 0 0 0 0 0 0 0 0 0 0 0 0 0 0 0 0 0 0 0 0 0 0 0 0 0 0 0 0 0 0 0 0 0 0 0 0 0 0 0 0 0 0 0 0 0 0 0 0 0 0 0.1 0 0.2 0 0 0 0 0m-1.9 0.2h-0.1s0 0 0 0 0 0 0 0 0 0 0 0 0 0 0 0 0 0 0 0 0 0 0 0 0 0 0 0h-0.1s0 0 0 0h-0.1s0 0 0 0-1.1-0.2-1.1-0.2 0 0 0 0 0 0 0 0 0 0 0 0 1.1 0.2 1.1 0.2 0 0 0 0h0.1s0 0 0 0 0 0 0 0 0 0 0 0 0 0 0 0 0 0 0 0 0 0 0 0 0 0 0 0 0 0 0 0 0 0 0 0 0 0 0 0 0 0 0 0 0 0 0 0h0.2c0.1 0 0.1 0 0 0 0.1 0 0.1 0 0 0m1.5 0.2s-0.1 0 0 0c-0.1 0-0.1 0 0 0h-0.1s0 0 0 0 0 0 0 0 0 0 0 0 0 0 0 0 0 0 0 0 0 0 0 0 0 0 0 0 0 0 0 0 0 0 0 0h0.1s0 0 0 0 0 0 0 0 0 0 0 0 0 0 0 0 0 0 0 0 0 0 0 0 0 0 0 0-0.1 0.1 0 0c-0.1 0.1-0.1 0.1 0 0v0 0m4.5-0.6c0.1 0 0.1 0 0 0 0.1 0 0.1 0 0 0h0.1s0 0 0 0 0 0 0 0 0 0 0 0 0 0 0 0 0 0 0 0 0 0 0 0 0 0 0 0 0 0 0 0 0 0 0 0 0 0 0 0 0 0 0 0 0 0 0 0 0 0 0 0 0 0 0 0 0 0 0 0 0 0 0 0 0 0 0 0 0 0 0 0 0 0 0 0 0 0 0 0 0 0 0 0 0 0 0 0 0 0 0 0 0 0 0 0 0 0 0 0 0 0 0 0c0-0.1 0-0.1-0.1 0 0.1-0.1 0.1-0.1 0 0 0.1-0.1 0 0 0 0h-0.1s0 0 0 0 0 0 0 0 0 0 0 0 0 0 0 0 0 0 0 0 0 0 0 0 0 0 0 0 0 0 0 0 0 0 0 0 0 0 0 0c0 0.1 0.1 0.1 0.1 0v0 0m-0.9 0.1c0.1 0 0.1 0 0 0 0.1 0 0.1 0 0 0 0.1 0 0.1-0.1 0.1-0.1s0 0 0 0 0 0 0 0v-0.1h-0.1s0 0 0 0 0 0 0 0 0 0 0 0 0 0 0 0 0 0 0 0 0 0 0 0 0 0.1 0 0.2v0 0h-0.1s0 0 0 0 0 0 0 0v0.1s0 0 0 0 0 0 0 0l0.1-0.1m1.5-0.9v0c-0.1 0.1-0.1 0.1 0 0-0.1 0.1 0 0.1 0 0v0 0 0c0.1 0.1 0.1 0.1 0 0h0.1s0 0 0 0 0 0 0 0v-0.1h-0.1s0 0 0 0 0 0 0 0c0.1 0.1 0.1 0.1 0 0.1m2.4 0.9h-0.1s0 0 0 0 0 0 0 0 0 0 0 0h-0.2s0 0 0 0h-0.1s0 0 0 0 0 0 0 0h-0.4s0 0 0 0 0 0 0 0h-0.1s0 0 0 0 0 0 0 0 0 0 0 0 0 0 0 0h0.1s0 0 0 0 0 0 0 0h0.1-1.2s0 0 0 0h0.1s0 0 0 0h0.1s0 0 0 0h0.1s0 0 0 0 0 0 0 0h0.1s0 0 0 0h0.1s0 0 0 0 0 0 0 0c1.3 0.1 1.3 0.1 1.4 0-0.1 0.1-0.1 0.1 0 0v0m-3.2 0.4c-0.1 0-0.1 0 0 0h-0.1-0.1s0 0 0 0 0 0 0 0 0 0 0 0 0 0 0 0 0 0 0 0c0.1 0.1 0.1 0.1 0.2 0-0.1 0.1-0.1 0.1 0 0-0.1 0.1-0.1 0.1 0 0v0 0 0m-7.9-1.3s0.1 0 0 0c0.1 0 0.1 0 0 0 0.1 0 0.1 0 0 0h0.1s0 0 0 0 0 0 0 0 0 0 0 0 0 0 0 0 0 0 0 0 0 0 0 0 0 0 0 0 0 0 0 0 0 0 0 0 0 0 0 0 0 0 0 0 0 0 0 0 0 0 0 0 0 0 0 0 0 0 0 0 0 0 0 0 0 0 0 0 0 0 0 0 0 0 0 0 0 0 0 0 0 0 0 0 0 0 0 0 0 0 0 0 0 0 0 0 0 0 0 0 0 0 0 0 0 0 0 0 0 0 0 0 0 0 0 0 0 0 0 0c0-0.1 0-0.1-0.1 0 0.1-0.1 0.1-0.1 0 0 0.1-0.1 0.1-0.1 0 0v0m3.6 1.1c-0.1 0-0.1 0 0 0h-0.1s0 0 0 0 0 0 0 0 0 0 0 0 0 0 0 0 0 0 0 0 0 0 0 0 0 0 0 0 0 0 0 0 0 0 0 0 0 0 0 0 0 0 0 0 0 0 0 0 0 0 0 0 0 0 0 0 0 0 0 0 0 0 0 0 0 0 0 0 0 0 0 0 0 0 0 0 0 0 0 0 0 0 0 0 0 0 0 0 0 0 0 0 0 0 0 0 0 0 0 0 0 0 0 0 0 0.1 0.1 0v0 0c0 0.1 0.1 0.1 0 0 0.1 0.1 0.1 0 0 0m-2.1-2.4v0 0l0.1 0.1s0 0 0 0 0 0 0 0 0 0 0 0 0 0 0 0 0 0 0 0 0 0 0 0 0 0 0 0v-0.1s0 0 0 0 0 0 0 0 0 0 0 0 0 0 0 0 0 0 0 0 0 0 0 0 0 0 0 0 0 0-0.1 0v0c-0.1 0-0.1 0 0 0m2.7 2c-0.1 0-0.1 0 0 0-0.1 0-0.1 0 0 0l-0.1-0.1s0 0 0 0 0 0 0 0 0 0 0 0 0 0 0 0 0 0 0 0 0 0 0 0 0 0 0 0 0 0 0 0 0 0 0 0 0 0 0 0h-0.1s0 0 0 0.1 0 0 0 0 0 0 0 0 0 0 0 0 0 0 0 0 0 0 0 0 0 0 0 0 0 0 0 0 0 0 0 0h0.2c-0.1 0.1-0.1 0.1 0 0-0.1 0.1-0.1 0.1 0 0-0.1 0.1 0 0.1 0 0v0.1s0 0 0-0.1v0m-0.1-3.1s0.1 0 0 0c0.1 0.1 0.1 0.1 0 0 0.1 0.1 0.1 0.1 0 0v0.1s0 0 0 0 0 0 0 0 0 0 0 0 0 0 0 0 0 0 0 0 0 0 0 0 0 0 0 0 0 0 0 0 0 0 0 0 0 0 0 0 0 0 0 0 0 0 0 0 0 0 0 0 0 0 0 0 0 0 0 0 0 0 0 0 0 0 0 0 0 0 0 0 0 0 0 0 0 0 0 0 0 0 0 0 0 0 0 0c0.1 0 0.1 0 0-0.1 0.1 0.1 0.1 0.1 0 0 0.1 0 0.1 0 0 0 0.1 0 0.1 0 0 0 0.1 0 0.1 0 0 0 0.1 0 0.1-0.1 0 0v-0.1s0 0 0 0.1m1 3v-0.1s0 0 0 0 0 0 0 0 0 0 0 0 0 0 0 0 0 0 0 0 0 0 0 0 0 0 0 0 0 0 0 0 0 0 0 0 0 0 0 0 0 0 0 0 0 0 0 0 0 0 0 0 0 0 0 0 0 0 0 0 0 0 0 0 0 0 0 0 0 0 0 0 0 0 0 0 0 0 0 0 0 0 0 0c-0.1 0-0.1 0 0 0.1-0.1-0.1-0.1 0 0 0-0.1 0-0.1 0 0 0-0.1 0-0.1 0 0 0-0.1 0-0.1 0.1 0 0-0.1 0.1-0.1 0.1 0 0v0.1-0.1 0m0.5-1.9v-1.2s0 0 0 0v1.1s0 0 0 0v0.1m-0.1 0.5s-0.1 0.1 0 0v0.1 0.9s0 0 0 0v-1 0 0m1.2-0.6c0.1 0 0.1 0 0 0 0.1 0 0.1 0 0 0 0.1 0 0.1-0.1 0 0l0.1-0.1s0 0 0 0 0 0 0 0 0 0 0 0 0 0 0 0 0 0 0 0 0 0 0 0 0 0 0 0 0 0 0 0 0 0 0 0 0 0 0 0 0 0 0 0 0 0 0 0 0 0 0 0 0 0 0 0 0 0 0 0 0 0 0 0v-0.1h-0.1s0 0 0 0 0 0 0 0 0 0 0 0 0 0 0 0 0 0 0 0 0 0 0 0 0 0 0 0 0 0 0 0 0 0 0 0 0 0 0 0 0 0 0 0 0 0 0 0 0 0 0 0 0 0 0 0 0 0 0 0 0 0 0 0 0 0 0 0v0.2m-0.3 0.6v0 0 0l-0.1 0.1s0 0 0 0 0 0 0 0 0 0 0 0 0 0 0 0 0 0 0 0 0 0 0 0 0 0 0 0 0 0 0 0 0 0 0 0 0 0 0 0 0 0 0 0 0 0 0 0 0 0 0 0c0.1 0.1 0.1 0 0.1-0.1v0 0c0.1 0.1 0.1 0.1 0 0 0.1 0 0.1 0 0 0h0.1s0 0 0 0 0 0 0 0 0 0 0 0 0 0 0 0v-0.1s0 0 0 0 0 0 0 0 0 0 0 0c-0.1 0-0.1 0-0.1 0.1v0m0.5 1.2 0.1-0.1v-0.1s0 0-0.1 0 0 0 0 0 0 0 0 0 0 0 0 0 0 0 0 0v0.2c-0.1-0.1-0.1 0 0 0h-0.1s0 0 0 0 0 0 0 0v0.1s0 0 0 0 0 0 0 0 0 0 0.1-0.1c-0.1 0.1-0.1 0.1 0 0m0.5-0.5c0.1 0 0.1 0 0 0 0.1-0.1 0.1-0.1 0 0l0.1-0.1s0 0 0 0 0 0 0 0 0 0 0 0v-0.1h-0.1s0 0 0 0 0 0 0 0 0 0 0 0v0.2 0m-4.5-1.8c0.1 0 0.1 0 0 0 0.1 0 0.1 0 0 0l0.1 0.1s0 0 0 0 0 0 0 0 0 0 0 0 0 0 0 0 0 0 0 0 0 0 0 0 0 0 0 0 0 0 0 0 0 0 0 0 0 0 0 0 0 0 0 0 0 0 0 0 0 0 0 0v-0.1s0 0 0 0 0 0 0 0 0 0 0 0 0 0 0 0 0 0 0 0 0 0 0 0 0 0 0 0 0 0 0 0 0 0 0 0 0 0 0 0 0 0 0 0 0 0 0 0 0 0 0 0 0 0 0 0 0 0 0 0 0 0-0.1 0c0.1 0 0.1 0 0 0 0.1-0.1 0.1-0.1 0 0 0.1-0.1 0.1-0.1 0 0v-0.1 0.1m1.8 2.6-0.1-0.1s0 0 0 0 0 0 0 0 0 0 0 0 0 0 0 0 0 0 0 0h-0.1v0.1s0 0 0 0 0 0 0 0 0 0 0 0 0 0 0 0 0 0 0 0 0 0 0 0h0.2c-0.1 0.1-0.1 0.1 0 0-0.1 0.1-0.1 0.1 0 0v0 0 0 0"/>
<path class="st3" d="m67.2 50.5v-1.2l2.7-0.3-0.2-5.5-0.3-1.3-2 0.2h3.4l0.1 8-3.7 0.1zm1.1-6.5v4.1h-1.3l0.1-4.6 1.2 0.5zm-2.8-2.6-0.7 9.1 0.5 0.9 8 0.4-0.7-10.5-0.5-1.3-6.6 1.4zm3.7-3.4-1.1-0.3v-1.5l1.1 0.1v1.7zm-2.5-0.7 0.4 1.5 3.7 1 0.2-3.8-0.2-1.6-4.2 0.2v2.7zm17 14.9 0.4 3.5-0.4 0.7-8.9 0.7-2.3-20.9 0.2-1.7 12.5 1.6 0.5 1.2-0.5 1.5h-2.2v-1.3h-7.5l1.9 18.1 4.3 0.1v-3.5l0.3-0.9 1.7 0.9z"/>
<path class="st3" d="m85.2 42.5-0.6-1.3-0.4 1.3 0.1 6.6-3.6-0.2-0.5-8.2-1.9-1.4-0.1 1.4 0.5 10.9 6.6-0.2 0.5-0.9-0.6-8z"/>
<path class="st2" d="m66.8 49.6v-1.3l2.9-0.3-0.2-5.7-2.3-0.6v-0.5h3.6l0.1 8.4h-4.1zm1.1-6.9v4.3h-1.3l0.1-4.8 1.2 0.5zm-2.9-2.7-0.3 10.5 8 0.5-0.7-11h-7zm4-3.4-1.6-0.2v-1.1l1.6 0.1v1.2zm-2.3-2v2.7l3.9 1 0.3-3.9-4.2 0.2zm17.4 16.7v4.4l-9 0.6-2.4-21.9h13v2.8h-2.4v-1.3h-7.8l2 19 4.5 0.1v-3.7h2.1z"/>
<path class="st2" d="m85.7 41.2h-1.1l0.1 6.9-3.8-0.2-0.6-8.6h-2.1l0.6 11.4 6.9-0.2v-9.3z"/>
<path class="st1" d="m65.4 29.8c0.1 0.2 0.2 0.4 0.1 0.6 0 0.2-0.2 0.4-0.4 0.5s-0.4 0.2-0.6 0.2-0.4-0.1-0.6-0.3c-0.1-0.1-0.2-0.2-0.4-0.2-0.1 0-0.3 0-0.4 0.1s-0.2 0.2-0.2 0.3 0 0.3 0.1 0.4 0.2 0.2 0.4 0.2c0.1 0 0.3-0.1 0.4-0.2l0.2 0.3c-0.2 0.1-0.4 0.2-0.6 0.2s-0.4-0.1-0.6-0.3-0.2-0.4-0.1-0.6c0-0.2 0.2-0.4 0.4-0.5 0.2-0.2 0.4-0.2 0.6-0.2s0.4 0.1 0.6 0.3c0.1 0.1 0.2 0.2 0.3 0.2s0.3-0.1 0.4-0.2 0.2-0.2 0.2-0.3 0-0.3-0.1-0.4-0.2-0.2-0.4-0.2c-0.1 0-0.3 0-0.4 0.1l-0.2-0.3c0.2-0.2 0.4-0.2 0.6-0.2 0.4 0.2 0.6 0.3 0.7 0.5"/>
<path class="st1" d="m66.4 31.8-0.4 0.2-0.2-0.1-0.6-1 0.3-0.2 0.5 0.9 0.2-0.1 0.2 0.3zm-0.6 0.3-0.3 0.2-0.7-1.1 0.3-0.2 0.7 1.1zm1.1-2.9-0.9 0.5c0.2 0.1 0.3 0.1 0.5 0 0.3-0.1 0.4-0.3 0.4-0.5m0.3-0.4c0.1 0.2 0.1 0.4 0 0.6s-0.2 0.4-0.4 0.5-0.4 0.2-0.6 0.1c-0.2 0-0.4-0.2-0.5-0.4-0.2-0.3-0.1-0.6 0.1-0.9l0.2 0.3c-0.1 0.2-0.2 0.3-0.1 0.5l1-0.5c-0.1-0.2-0.2-0.2-0.5-0.2v-0.3c0.4-0.1 0.6 0.1 0.8 0.3"/>
<path class="st1" d="m67.9 30.9-0.4 0.2-0.2-0.1-0.5-1.1 0.3-0.1 0.4 0.9 0.2-0.1 0.2 0.3zm-0.7 0.1-0.1 0.2-0.4 0.2-0.1-0.3 0.2-0.1-0.4-0.9 0.3-0.1 0.5 1zm3.2-3.4c0.1 0.1 0.1 0.3 0 0.4 0 0.2-0.1 0.3-0.2 0.4l-0.2-0.2c0.2-0.2 0.2-0.3 0.2-0.5 0-0.1-0.1-0.2-0.3-0.3h-0.4c-0.1 0-0.2 0.1-0.3 0.2-0.2 0.2-0.2 0.3-0.2 0.5 0.1 0.2 0.1 0.4-0.1 0.6-0.1 0.2-0.3 0.3-0.5 0.4-0.3 0.1-0.6 0.1-0.8-0.1l0.2-0.3c0.2 0.1 0.3 0.1 0.5 0.1 0.1 0 0.2-0.1 0.3-0.2s0.1-0.3 0.1-0.4-0.1-0.2-0.3-0.3h-0.4c-0.2 0.1-0.3 0.2-0.4 0.4l-0.3-0.1c0.1-0.3 0.3-0.5 0.6-0.6s0.6-0.1 0.8 0.1c0.1-0.3 0.3-0.5 0.6-0.6 0.2-0.1 0.4-0.1 0.7 0 0.2 0.1 0.4 0.2 0.4 0.5m1.7-0.3c0-0.1-0.1-0.2-0.2-0.3s-0.3-0.1-0.4 0c-0.1 0-0.3 0.1-0.4 0.2-0.1 0-0.1 0.1-0.1 0.3 0 0.1 0.1 0.2 0.2 0.3s0.3 0.1 0.4 0c0.1 0 0.3-0.1 0.4-0.2s0.1-0.2 0.1-0.3m0.3-0.1c0 0.2 0 0.4-0.2 0.6-0.1 0.2-0.3 0.3-0.6 0.3-0.2 0-0.5 0-0.6-0.1-0.2-0.1-0.3-0.3-0.4-0.5 0-0.2 0-0.4 0.2-0.6 0.1-0.2 0.3-0.3 0.6-0.3s0.5 0 0.6 0.1c0.3 0.1 0.4 0.3 0.4 0.5m1.7-0.1c0-0.1-0.1-0.3-0.2-0.3-0.1-0.1-0.2-0.1-0.4-0.1s-0.3 0-0.4 0.1-0.1 0.2-0.1 0.3 0.1 0.3 0.2 0.3c0.1 0.1 0.2 0.1 0.4 0.1s0.3 0 0.4-0.1 0.1-0.2 0.1-0.3m1.8-0.1c0 0.2 0 0.3-0.1 0.4l-0.3 0.3-0.2-0.3c0.2-0.1 0.3-0.2 0.3-0.4 0-0.1-0.1-0.3-0.2-0.3-0.1-0.1-0.2-0.1-0.4-0.1s-0.3 0-0.4 0.1-0.2 0.2-0.2 0.3c0 0.2-0.1 0.4-0.3 0.6s-0.4 0.2-0.6 0.2-0.4-0.1-0.6-0.2-0.3-0.3-0.3-0.6c0-0.2 0.1-0.4 0.3-0.6 0.2-0.1 0.4-0.2 0.6-0.2 0.3 0 0.6 0.1 0.7 0.3 0.2-0.2 0.4-0.3 0.7-0.4 0.2 0 0.5 0.1 0.6 0.2 0.3 0.3 0.4 0.5 0.4 0.7"/>
<path class="st1" d="m75.5 25.7c0-0.1-0.1-0.2-0.2-0.3-0.1 0-0.1-0.1-0.2-0.1s-0.2 0-0.3 0.1-0.2 0.1-0.2 0.2 0 0.2 0.1 0.3 0.2 0.1 0.3 0.1 0.2 0 0.3-0.1c0.2-0.1 0.2-0.1 0.2-0.2m0.4 0c0 0.2-0.1 0.4-0.3 0.5s-0.3 0.2-0.5 0.2-0.4-0.1-0.5-0.2c-0.2-0.1-0.2-0.3-0.2-0.5s0.1-0.3 0.3-0.5c0.1-0.2 0.3-0.2 0.5-0.2s0.4 0.1 0.5 0.2 0.2 0.3 0.2 0.5m-0.6 3.5h-0.4l-0.2-0.2 0.1-1.2h0.3l-0.1 1h0.2l0.1 0.4zm1.3-2.5v0c-0.1-0.1-0.2 0-0.2 0h0.2m-0.1 0.9c-0.1-0.1-0.2 0-0.2 0h0.2m0.4-0.9c0 0.1-0.1 0.2-0.1 0.2-0.1 0.1-0.2 0.1-0.3 0.1s-0.2 0-0.2-0.1c-0.1-0.1-0.1-0.2-0.1-0.2s0.1-0.2 0.1-0.2c0.1-0.1 0.2-0.1 0.3-0.1s0.2 0 0.2 0.1c0.1 0 0.1 0.1 0.1 0.2m-0.1 0.9c0 0.1-0.1 0.2-0.1 0.2-0.1 0.1-0.2 0.1-0.3 0.1s-0.2 0-0.2-0.1c-0.1-0.1-0.1-0.1-0.1-0.2s0.1-0.2 0.1-0.2c0.1-0.1 0.2-0.1 0.3-0.1s0.2 0 0.2 0.1c0.1 0.1 0.1 0.1 0.1 0.2m1.7-0.2c0-0.1 0-0.3-0.1-0.4s-0.2-0.2-0.3-0.2h-0.4l-0.3 0.3c0 0.1 0 0.3 0.1 0.4s0.2 0.2 0.3 0.2h0.4c0.2 0 0.3-0.1 0.3-0.3m1.7 0.4c0 0.2-0.1 0.3-0.2 0.4s-0.3 0.2-0.4 0.2l-0.1-0.3c0.2 0 0.3-0.2 0.4-0.3 0-0.1 0-0.3-0.1-0.4s-0.2-0.2-0.3-0.2h-0.4l-0.3 0.3c0 0.2-0.2 0.4-0.4 0.5s-0.4 0.1-0.6 0.1l-0.6-0.3c-0.2-0.2-0.2-0.4-0.1-0.6s0.2-0.4 0.4-0.5 0.4-0.1 0.6-0.1c0.3 0.1 0.5 0.2 0.6 0.5 0.2-0.2 0.5-0.2 0.8-0.2l0.6 0.3c0.2 0.2 0.2 0.4 0.1 0.6m3.3 1.4-0.3 0.3c-0.1 0.1-0.3 0.1-0.4 0.1v-0.3c0.2 0 0.4-0.1 0.4-0.2 0.1-0.1 0-0.3 0-0.4l-0.3-0.3c-0.1-0.1-0.3-0.1-0.4 0-0.1 0-0.2 0.1-0.3 0.2l-0.3 0.3c-0.1 0.1-0.3 0.1-0.4 0.1v-0.3c0.2 0 0.4-0.1 0.4-0.2 0.1-0.1 0-0.3 0-0.4l-0.3-0.3s-0.3-0.1-0.4 0c-0.1 0-0.2 0.1-0.3 0.2-0.1 0.2 0 0.3 0.1 0.5l-0.3 0.2c-0.1-0.1-0.2-0.3-0.2-0.4v-0.4c0.1-0.2 0.3-0.4 0.5-0.4 0.2-0.1 0.4 0 0.7 0.1s0.5 0.3 0.5 0.6c0.3-0.1 0.5-0.1 0.8 0 0.2 0.1 0.4 0.2 0.5 0.5 0.1 0.1 0.1 0.3 0 0.5"/>
<path class="st1" d="m84.1 27.7h-0.3c0-0.2 0-0.3-0.2-0.4-0.1-0.1-0.2-0.1-0.3-0.1s-0.2 0.1-0.2 0.1c-0.1 0.1-0.1 0.2 0 0.3 0 0.1 0.1 0.2 0.2 0.2l-0.2 0.3c-0.2-0.1-0.3-0.2-0.4-0.4s-0.1-0.4 0-0.5c0.1-0.2 0.2-0.3 0.4-0.3s0.4 0 0.5 0.1c0.4 0.2 0.5 0.4 0.5 0.7m0.6 2.6-0.8-0.5c0 0.2 0.1 0.3 0.3 0.5s0.3 0.1 0.5 0m0.2 0.2-0.1 0.1c-0.3 0.1-0.6 0.1-0.8-0.1-0.2-0.1-0.3-0.3-0.4-0.5s0-0.4 0.1-0.6 0.3-0.3 0.6-0.3c0.2 0 0.4 0 0.6 0.2 0.3 0.2 0.4 0.4 0.4 0.7h-0.3c0-0.2-0.1-0.3-0.3-0.5-0.1-0.1-0.3-0.1-0.4-0.1-0.2 0-0.3 0.1-0.3 0.2l0.9 0.6v0.3zm0.7 0.8 0.1-0.7-0.1 0.1c-0.2 0.1-0.1 0.3 0 0.6m-0.1 2.1-0.3-0.3v-0.2l1.3-1.5c0.1-0.1 0.1-0.2 0.1-0.4 0-0.1-0.1-0.2-0.2-0.3-0.2-0.2-0.4-0.2-0.6-0.1l0.2 0.2-0.1 0.7-0.2 0.3-0.2-0.2c-0.2-0.2-0.2-0.3-0.3-0.5 0-0.2 0-0.4 0.2-0.6s0.3-0.3 0.6-0.3c0.2 0 0.4 0.1 0.6 0.2 0.2 0.2 0.3 0.3 0.3 0.6 0 0.2 0 0.4-0.2 0.6l-1.1 1.4 0.2 0.2-0.3 0.2zm2-1.6v0l-0.1-0.1 0.1 0.1c-0.1 0 0 0 0 0m0.2 0.2h-0.2c-0.1 0-0.2 0-0.2-0.1-0.1-0.1-0.1-0.2-0.1-0.2s0-0.2 0.1-0.2c0.1-0.1 0.2-0.1 0.2-0.1 0.1 0 0.2 0 0.2 0.1 0.1 0.1 0.1 0.2 0.1 0.2 0 0.1 0 0.2-0.1 0.3m-0.8 0.4-0.1-0.1v0.1h0.1m0.2 0.2c-0.1 0.1-0.2 0.1-0.2 0.1-0.1 0-0.2 0-0.2-0.1-0.1-0.1-0.1-0.2-0.1-0.2s0-0.2 0.1-0.2c0.1-0.1 0.2-0.1 0.2-0.1 0.1 0 0.2 0 0.2 0.1 0.1 0.1 0.1 0.2 0.1 0.2-0.1 0.1-0.1 0.1-0.1 0.2m-15.5 28c-0.1 0.2-0.2 0.4-0.5 0.4-0.2 0.1-0.4 0.1-0.6 0-0.3-0.1-0.5-0.3-0.6-0.6-0.2 0.1-0.5 0.2-0.8 0.1s-0.5-0.3-0.6-0.6l0.3-0.1c0 0.2 0.2 0.3 0.4 0.4 0.1 0 0.3 0.1 0.4 0 0.1 0 0.2-0.1 0.3-0.3 0-0.1 0-0.3-0.1-0.4s-0.2-0.2-0.3-0.2c-0.2-0.1-0.4-0.1-0.5 0.1l-0.2-0.3c0.2-0.2 0.5-0.2 0.8-0.1 0.2 0.1 0.4 0.2 0.5 0.4s0.2 0.4 0.1 0.6c0 0.1 0 0.3 0.1 0.4s0.2 0.2 0.3 0.2 0.3 0.1 0.4 0c0.1 0 0.2-0.1 0.3-0.3 0-0.1 0-0.3-0.1-0.4s-0.2-0.2-0.3-0.2l0.1-0.3c0.2 0.1 0.4 0.2 0.5 0.4 0.1 0.3 0.2 0.6 0.1 0.8m-0.4-1.5v0c-0.1-0.1-0.2-0.1-0.2-0.1 0 0.1 0.1 0.1 0.2 0.1-0.1 0 0 0 0 0m0.3 0c0 0.1-0.1 0.2-0.2 0.2s-0.2 0.1-0.3 0-0.2-0.1-0.2-0.1c-0.1-0.1-0.1-0.2 0-0.3 0-0.1 0.1-0.2 0.2-0.2s0.2-0.1 0.3 0 0.2 0.1 0.2 0.1v0.3m-0.8 3.4-0.4-0.1-0.1-0.2 0.3-1.2 0.3 0.1-0.2 1 0.2 0.1-0.1 0.3zm1.7-2.3c-0.1-0.1-0.2-0.1-0.2 0 0 0 0 0.1 0.1 0.1s0.1-0.1 0.1-0.1m-0.1 0.9s-0.1 0 0 0c-0.1-0.1-0.2-0.1-0.2 0 0 0 0 0.1 0.1 0.1l0.1-0.1m0.4-0.8c0 0.1-0.1 0.2-0.2 0.2s-0.2 0.1-0.3 0c-0.1 0-0.2-0.1-0.2-0.1s0-0.2 0-0.3 0.1-0.2 0.2-0.2 0.2-0.1 0.3 0c0.1 0 0.2 0.1 0.2 0.1v0.3m-0.2 0.9c0 0.1-0.1 0.2-0.2 0.2s-0.2 0.1-0.3 0c-0.1 0-0.2-0.1-0.2-0.1s-0.1-0.2-0.1-0.2c0-0.1 0.1-0.2 0.2-0.2s0.2-0.1 0.3 0c0.1 0 0.2 0.1 0.2 0.1 0.1 0 0.1 0.1 0.1 0.2m1.8-0.3c0-0.1 0-0.3-0.2-0.4-0.1-0.1-0.2-0.1-0.4-0.2h-0.1l-0.1 0.9h0.1c0.2 0 0.3 0 0.4-0.1 0.3 0.1 0.3 0 0.3-0.2m-0.9 0.3 0.1-0.8c-0.2 0.1-0.3 0.2-0.3 0.4s0.1 0.3 0.2 0.4m1.3-0.2c0 0.2-0.1 0.4-0.3 0.5s-0.4 0.2-0.6 0.2-0.4-0.1-0.6-0.3-0.2-0.4-0.2-0.6 0.1-0.4 0.3-0.6c0.2-0.1 0.4-0.2 0.6-0.2s0.4 0.1 0.6 0.3c0.1 0.2 0.2 0.5 0.2 0.7"/>
<path class="st1" d="m74.3 59.5c0-0.1-0.1-0.2-0.2-0.3-0.1 0-0.1 0-0.2-0.1-0.1 0-0.2 0-0.3 0.1l-0.2 0.2c0 0.1 0 0.2 0.1 0.3s0.2 0.1 0.3 0.1 0.2 0 0.3-0.1c0.1 0 0.2-0.1 0.2-0.2m0.3 0c0 0.2-0.1 0.4-0.2 0.5-0.2 0.1-0.3 0.2-0.5 0.2s-0.4-0.1-0.5-0.2c-0.2-0.1-0.2-0.3-0.2-0.5s0.1-0.4 0.3-0.5 0.3-0.2 0.5-0.2 0.4 0.1 0.5 0.2c0 0.2 0.1 0.4 0.1 0.5m-0.5 3.6h-0.4l-0.2-0.2v-1.2h0.3v1h0.3v0.4z"/>
<path class="st1" d="m74.5 62.4v0h-0.2 0.2m0.3 0c0 0.1 0 0.2-0.1 0.2-0.1 0.1-0.2 0.1-0.3 0.1s-0.2 0-0.2-0.1c-0.1-0.1-0.1-0.1-0.1-0.2s0-0.2 0.1-0.2c0.1-0.1 0.2-0.1 0.3-0.1s0.2 0 0.2 0.1c0.1 0 0.1 0.1 0.1 0.2m1.6-1.2h-1c0.1 0.2 0.3 0.2 0.5 0.2s0.3 0 0.5-0.2m0.4-0.2c0 0.2-0.1 0.4-0.3 0.6-0.2 0.1-0.4 0.2-0.6 0.2s-0.5-0.1-0.6-0.2c-0.2-0.2-0.3-0.3-0.3-0.6s0.2-0.6 0.5-0.7l0.2 0.3c-0.2 0.1-0.3 0.2-0.3 0.4h1.1c0-0.2-0.1-0.3-0.3-0.4l0.1-0.3c0.3 0.1 0.4 0.3 0.5 0.7m1.7-0.1-1 0.2c0.1 0.1 0.3 0.2 0.5 0.2 0.2-0.1 0.4-0.2 0.5-0.4m0.3 0v0.2c-0.1 0.3-0.4 0.4-0.7 0.5-0.2 0-0.5 0-0.6-0.1-0.2-0.1-0.3-0.3-0.4-0.5 0-0.2 0-0.4 0.2-0.6 0.1-0.2 0.3-0.3 0.6-0.3 0.3-0.1 0.6 0 0.8 0.3l-0.2 0.2c-0.1-0.1-0.3-0.2-0.5-0.2-0.1 0-0.3 0.1-0.4 0.2s-0.2 0.2-0.1 0.4l1.1-0.2 0.2 0.1zm1.7-0.4c-0.1 0-0.2-0.1-0.3-0.1l0.1 0.3c0-0.1 0.1-0.1 0.2-0.2m-0.5 0.3v-0.2l-0.3 0.1c0 0.1 0.2 0.1 0.3 0.1m0.9-0.5c0 0.3-0.2 0.6-0.5 0.7-0.1 0-0.2 0.1-0.3 0.1-0.3 0-0.6-0.1-0.8-0.3l0.2-0.3 0.6-0.2h-0.1l-0.6-0.2v-0.3l0.1-0.1s0.1-0.1 0.3-0.1h0.4l-0.1 0.4h-0.2v-0.1h-0.1s-0.1 0-0.1 0.1l1.2 0.3zm0 1.8-0.1 0.2-0.4 0.1-0.1-0.3 0.2-0.1-0.4-0.9 0.3-0.1 0.5 1.1zm0.8-1.9h-0.1s-0.1 0-0.1 0.1c0 0 0.1 0 0.2-0.1v0m0.2-0.1v0.3c0 0.1-0.1 0.1-0.2 0.2h-0.3c-0.1 0-0.2-0.1-0.2-0.2s0-0.2 0-0.3 0.1-0.1 0.2-0.2h0.3c0.1 0.1 0.2 0.1 0.2 0.2m-0.6-0.7h-0.1s-0.1 0-0.1 0.1c0.1 0 0.1 0 0.2-0.1m0.3-0.1v0.3c0 0.1-0.1 0.1-0.2 0.2h-0.3c-0.1 0-0.2-0.1-0.2-0.2v-0.3c0-0.1 0.1-0.1 0.2-0.2h0.3c0.1 0 0.1 0.1 0.2 0.2"/>
</svg>
