<?xml version="1.0" encoding="UTF-8"?>
<svg enable-background="new 0 0 150 100" version="1.1" viewBox="0 0 150 100" xml:space="preserve" xmlns="http://www.w3.org/2000/svg">
<style type="text/css">
	.st0{fill:#39B54A;}
</style>
			<path class="st0" d="m41.7 64.6c-1 0-1.9-0.8-1.9-1.9s0.8-1.9 1.9-1.9c2.3 0 4.2-1.9 4.2-4.2v-16.6c0-1 0.8-1.9 1.9-1.9s1.9 0.8 1.9 1.9v16.7c-0.1 4.4-3.6 7.9-8 7.9z"/>
			<path class="st0" d="m67.3 56.6h-14c-1 0-1.9-0.8-1.9-1.9 0-0.5 0.2-0.9 0.5-1.3l11-11.6h-9.6c-1 0-1.9-0.8-1.9-1.9s0.8-1.9 1.9-1.9h14c1 0 1.9 0.8 1.9 1.9 0 0.5-0.2 0.9-0.5 1.3l-11 11.6h9.6c1 0 1.9 0.8 1.9 1.9s-0.9 1.9-1.9 1.9z"/>
			<path class="st0" d="m78.3 56.6c-5.1 0-9.2-4.1-9.2-9.2s4.1-9.2 9.2-9.2 9.2 4.1 9.2 9.2-4.1 9.2-9.2 9.2zm0-14.7c-3 0-5.5 2.5-5.5 5.5s2.5 5.5 5.5 5.5 5.5-2.5 5.5-5.5c0-3.1-2.5-5.5-5.5-5.5z"/>
			<path class="st0" d="m98.4 56.6c-5.1 0-9.2-4.1-9.2-9.2s4.1-9.2 9.2-9.2 9.2 4.1 9.2 9.2-4.1 9.2-9.2 9.2zm0-14.7c-3 0-5.5 2.5-5.5 5.5s2.5 5.5 5.5 5.5 5.5-2.5 5.5-5.5c0-3.1-2.5-5.5-5.5-5.5z"/>
			<path class="st0" d="m88.3 67.9c-6.2 0-12.3-2.1-17.1-6-0.8-0.6-0.9-1.8-0.3-2.6s1.8-0.9 2.6-0.3c8.6 6.9 21 6.9 29.6 0 0.8-0.6 2-0.5 2.6 0.3s0.5 2-0.3 2.6c-4.8 3.9-10.8 6-17.1 6z"/>
			<circle class="st0" cx="108.3" cy="56.8" r="1.9"/>
			<circle class="st0" cx="47.8" cy="34.2" r="2.1"/>
</svg>
