<?xml version="1.0" encoding="UTF-8"?>
<svg enable-background="new 0 0 150 100" version="1.1" viewBox="0 0 150 100" xml:space="preserve" xmlns="http://www.w3.org/2000/svg" xmlns:xlink="http://www.w3.org/1999/xlink">
<style type="text/css">
	.st0{fill:#FFFFFF;}
	.st1{fill:url(#h);}
	.st2{clip-path:url(#t);fill:url(#g);}
	.st3{fill:url(#f);}
	.st4{fill:url(#e);}
	.st5{clip-path:url(#r);fill:url(#d);}
	.st6{fill:url(#c);}
	.st7{fill:none;}
	.st8{opacity:0.5;clip-path:url(#p);fill:#1D1D1B;enable-background:new    ;}
	.st9{clip-path:url(#n);fill:url(#b);}
	.st10{fill:url(#a);}
	.st11{fill:url(#l);}
	.st12{clip-path:url(#v);fill:url(#k);}
	.st13{fill:url(#j);}
	.st14{fill:#243456;}
	.st15{fill:url(#i);}
	.st16{fill:#363636;}
</style>
<rect class="st0" width="150" height="100"/>
		<radialGradient id="h" cx="111.96" cy="56.752" r="3.2247" gradientTransform="matrix(1 0 0 -1 0 100.5)" gradientUnits="userSpaceOnUse">
		<stop stop-color="#C08237" offset="0"/>
		<stop stop-color="#662B0F" offset=".376"/>
	</radialGradient>
	<path class="st1" d="m111 49.2 1.3-5.7-3 1.8 1.7 3.9z"/>
			<defs>
				<polygon id="u" points="111 49.2 112.2 43.5 109.3 45.2"/>
			</defs>
			<clipPath id="t">
				<use xlink:href="#u"/>
			</clipPath>
				<radialGradient id="g" cx="112.28" cy="56.762" r="7.9452" gradientTransform="matrix(1 0 0 -1 0 100.5)" gradientUnits="userSpaceOnUse">
				<stop stop-color="#C08237" offset="0"/>
				<stop stop-color="#662B0F" offset=".376"/>
			</radialGradient>
			<path class="st2" d="m109.8 46.2 2.5-2.8-1 5.8-1.5-3z"/>
		<radialGradient id="f" cx="100.7" cy="45.577" r="10.182" gradientTransform="matrix(1 0 0 -1 0 100.5)" gradientUnits="userSpaceOnUse">
		<stop stop-color="#009EE2" offset="0"/>
		<stop stop-color="#312782" offset=".495"/>
	</radialGradient>
	<path class="st3" d="m100.7 51-2.6-0.4c0.1 0.2 0.2 0.4 0.2 0.6s-0.3 0.3-0.5 0.4l-1.4-0.2-0.5 0.3s4.2 0.7 6.5 4.1c1 1.6 1.4 3.5 1 5.5-0.2 1-0.6 2.4-0.9 3.3 0.4 0.1 1.4-1.3 1.7-1l1.8-2 0.1-7.2-5.4-3.4z"/>
		<radialGradient id="e" cx="102.78" cy="47.12" r="13.288" gradientTransform="matrix(1 0 0 -1 0 100.5)" gradientUnits="userSpaceOnUse">
		<stop stop-color="#F29100" offset="0"/>
		<stop stop-color="#F29100" offset=".177"/>
		<stop stop-color="#E5332A" offset=".968"/>
	</radialGradient>
	<path class="st4" d="m97.9 46.6c-5.5-0.6-11.5-0.8-14.1-8.6 0 0-0.6 11.9 11.9 13.7 12.5 1.3 7.5 13.9 4.1 16.2 0 0 7.7-2 9-11.9 0.1 0.1-0.1-8.4-10.9-9.4z"/>
			<defs>
				<path id="s" d="m83.8 37.5s-0.3 10 14.2 11.3c14 1.4 10 12.7 7 15.6 0 0 7.2-3.8 6.7-13.8-0.4-5.6-6.9-7.9-12.5-7.4-5.5 0.6-11.4 1.5-15.4-5.7z"/>
			</defs>
			<clipPath id="r">
				<use xlink:href="#s"/>
			</clipPath>
				<radialGradient id="d" cx="93.946" cy="53.429" r="14.938" gradientTransform="matrix(1 0 0 -1 0 100.5)" gradientUnits="userSpaceOnUse">
				<stop stop-color="#F29100" offset="0"/>
				<stop stop-color="#F29100" offset=".177"/>
				<stop stop-color="#E5332A" offset=".968"/>
			</radialGradient>
			<path class="st5" d="m97.9 46.6c-5.5-0.6-11.5-0.8-14.1-8.6 0 0-0.6 11.9 11.9 13.7s7.5 13.9 4.1 16.2c0 0 7.7-2 9-11.9 0.1 0.1-0.1-8.4-10.9-9.4z"/>
		<radialGradient id="c" cx="103.37" cy="60.705" r="24.683" gradientTransform="matrix(1 0 0 -1 0 100.5)" gradientUnits="userSpaceOnUse">
		<stop stop-color="#68479C" offset="0"/>
		<stop stop-color="#493087" offset="1"/>
	</radialGradient>
	<path class="st6" d="m109 23.2s-8.9 3.7-9.4 10.1 2.6 11.3 3.4 13.3 3.1 7.6 2.6 12.3-2.5 7.4-5.7 9c0 0 11.8-3.3 12.1-15.8-0.2-6.3-3.6-9.1-5.7-14.8-2.1-5.6-1.8-11 2.7-14.1z"/>
	<path class="st7" d="m109 23.2s-8.9 3.7-9.4 10.1 2.6 11.3 3.4 13.3 3.1 7.6 2.6 12.3-2.5 7.4-5.7 9c0 0 11.8-3.3 12.1-15.8-0.2-6.3-3.6-9.1-5.7-14.8-2.1-5.6-1.8-11 2.7-14.1z"/>
			<defs>
				<path id="q" d="m109 23.2s-8.9 3.7-9.4 10.1 2.6 11.3 3.4 13.3 3.1 7.6 2.6 12.3-2.5 7.4-5.7 9c0 0 11.8-3.3 12.1-15.8-0.2-6.3-3.6-9.1-5.7-14.8-2.1-5.6-1.8-11 2.7-14.1z"/>
			</defs>
			<clipPath id="p">
				<use xlink:href="#q"/>
			</clipPath>
			<path class="st8" d="m113 21.8s-8.9 3.7-9.4 10.2 2.6 11.3 3.4 13.3 3.1 7.7 2.6 12.3-2.5 7.4-5.7 9c0 0 11.8-3.3 12.1-15.8-0.2-6.3-3.6-9.1-5.7-14.9-2.1-5.6-1.7-11 2.7-14.1z"/>
			<defs>
				<path id="o" d="m109 23.2s-8.9 3.7-9.4 10.1 2.6 11.3 3.4 13.3 3.1 7.6 2.6 12.3-2.5 7.4-5.7 9c0 0 11.8-3.3 12.1-15.8-0.2-6.3-3.6-9.1-5.7-14.8-2.1-5.6-1.8-11 2.7-14.1z"/>
			</defs>
			<clipPath id="n">
				<use xlink:href="#o"/>
			</clipPath>
				<radialGradient id="b" cx="107.28" cy="60.39" r="25.06" gradientTransform="matrix(1 0 0 -1 0 100.5)" gradientUnits="userSpaceOnUse">
				<stop stop-color="#442681" offset=".296"/>
				<stop stop-color="#26214D" offset="1"/>
			</radialGradient>
			<path class="st9" d="m113 21.8s-8.9 3.7-9.4 10.2 2.6 11.3 3.4 13.3 3.1 7.7 2.6 12.3-2.5 7.4-5.7 9c0 0 11.8-3.3 12.1-15.8-0.2-6.3-3.6-9.1-5.7-14.9-2.1-5.6-1.7-11 2.7-14.1z"/>
		<radialGradient id="a" cx="97.332" cy="35.034" r="3.2764" gradientTransform="matrix(1 0 0 -1 0 100.5)" gradientUnits="userSpaceOnUse">
		<stop stop-color="#F29100" offset="0"/>
		<stop stop-color="#F29100" offset=".177"/>
		<stop stop-color="#E5332A" offset=".968"/>
	</radialGradient>
	<circle class="st10" cx="99.3" cy="66.7" r="1.4"/>
	<path class="st7" d="m112.4 48.3c0.6 1.6 1 3.4 1 5.3 0 8-6.3 14.4-14.2 14.7 1 0.2 2 0.4 3.1 0.4 7 0 12.7-5.7 12.7-12.7-0.1-2.9-1-5.5-2.6-7.7z"/>
		<radialGradient id="l" cx="114.6" cy="40.664" r="8.5582" gradientTransform="matrix(1 0 0 -1 0 100.5)" gradientUnits="userSpaceOnUse">
		<stop stop-color="#F29100" offset="0"/>
		<stop stop-color="#F29100" offset=".177"/>
		<stop stop-color="#E5332A" offset=".968"/>
	</radialGradient>
	<path class="st11" d="m112.4 48.3c0.6 1.6 1 3.4 1 5.3 0 8-6.3 14.4-14.2 14.7 1 0.2 2 0.4 3.1 0.4 7 0 12.7-5.7 12.7-12.7-0.1-2.9-1-5.5-2.6-7.7z"/>
			<defs>
				<path id="m" d="m112.4 48.3c0.6 1.6 1 3.4 1 5.3 0 8-6.3 14.4-14.2 14.7 1 0.2 2 0.4 3.1 0.4 7 0 12.7-5.7 12.7-12.7-0.1-2.9-1-5.5-2.6-7.7z"/>
			</defs>
			<clipPath id="v">
				<use xlink:href="#m"/>
			</clipPath>
				<radialGradient id="k" cx="108.43" cy="35.964" r="13.658" gradientTransform="matrix(1 0 0 -1 0 100.5)" gradientUnits="userSpaceOnUse">
				<stop stop-color="#F29100" offset="0"/>
				<stop stop-color="#F29100" offset=".177"/>
				<stop stop-color="#E5332A" offset=".968"/>
			</radialGradient>
			<path class="st12" d="m111.6 47.7c0.6 1.6 1 3.4 1 5.3 0 8-6.3 14.4-14.2 14.7 1 0.2 2 0.4 3.1 0.4 7 0 12.7-5.7 12.7-12.7 0-2.9-1-5.6-2.6-7.7z"/>
		<radialGradient id="j" cx="107.76" cy="31.449" r="15.007" gradientTransform="matrix(1 0 0 -1 0 100.5)" gradientUnits="userSpaceOnUse">
		<stop stop-color="#009EE2" offset="0"/>
		<stop stop-color="#312782" offset=".495"/>
	</radialGradient>
	<path class="st13" d="m100.8 68.9s3.7 2.1 7.4 0.8 5-4 6-6.4c0 0-4.2 7.7-13.4 5.6z"/>
		<path class="st14" d="m40 44.7c0.8-1.7 2.2-2.5 4.1-2.5 2.6 0 4 1.5 4 4.6v5.5c0 0.6 0.1 0.6 0.4 0.6h1.1v1.9h-6.4v-1.9h1c0.3 0 0.4-0.1 0.4-0.6v-5.4c0-1.7-0.6-2.4-2-2.4-1.7 0-2.7 1.3-2.7 4v3.8c0 0.6 0.1 0.6 0.4 0.6h1v1.9h-6.4v-1.9h1.1c0.3 0 0.4-0.1 0.4-0.6v-7.1c0-0.6-0.1-0.7-0.4-0.7h-1.1v-1.9h2c1.2 0 2.4-0.1 2.9-0.2 0.2-0.1 0.2 2.3 0.2 2.3z"/>
		<path class="st14" d="m49.5 53h1.2c0.3 0 0.4-0.1 0.4-0.6v-6.8c0-0.8-0.1-1-0.5-1h-1v-1.9h2c1.2 0 2.4-0.1 3-0.2v10c0 0.5 0.1 0.6 0.4 0.6h1v1.9h-6.5v-2z"/>
		<path class="st14" d="m65.9 45.4c-0.4-0.7-1.2-1.2-2.6-1.2-2.3 0-3.5 1.5-3.5 4.2v0.4c0 2.8 1.1 4.4 3.4 4.4 1.8 0 2.9-0.7 3.5-2.4l1.9 0.9c-0.7 2-2.3 3.6-5.5 3.6-4.4 0-6.7-2.4-6.7-6.5 0-4 2.5-6.4 6.8-6.4 3.5 0 5.6 1.6 5.6 4.2 0 1.7-1 2.7-2.5 2.7-1.2 0-2-0.8-2-1.9 0-1 0.7-1.8 1.6-2z"/>
		<path class="st14" d="m72.3 49.4c0.1 2.3 1.2 3.8 3.5 3.8 1.7 0 2.8-0.9 3.3-2.4l1.9 0.9c-0.7 2-2.3 3.5-5.5 3.5-4.5 0-6.7-2.7-6.7-6.5s2.6-6.5 6.4-6.5c3.9 0 6 2.4 6 6.5v0.6c0 0.1-8.9 0.1-8.9 0.1zm0-1.7h5.5c0-2.5-0.8-3.5-2.6-3.5-1.7 0-2.8 1.1-2.9 3.5z"/>
		<path class="st14" d="m47.5 64.9h2.6v2.3c0.5 0.1 1.2 0.2 2.2 0.2 1.5 0 2.4-0.5 2.4-1.6 0-1.2-1.2-1.5-2.9-1.8-2.2-0.4-4.4-1.1-4.4-3.7 0-2.4 1.9-4 5.4-4 1.8 0 3.7 0.5 4.6 1v3.3h-2.6v-2.1c-0.3-0.1-1.2-0.3-1.9-0.3-1.5 0-2.4 0.6-2.4 1.6 0 1.2 1.3 1.4 2.9 1.7 2.2 0.4 4.4 1.1 4.4 3.8 0 2.5-2 4.1-5.5 4.1-1.9 0-3.6-0.5-4.9-1v-3.5h0.1z"/>
		<path class="st14" d="m59.7 65.4v-6.9h-1.7v-1.7l1-0.1c0.9-0.1 1.4-0.5 1.5-1.4l0.2-2.2 2.3 0.5v3h2.4v1.9h-2.4v6.8c0 1.3 0.5 1.8 1.6 1.8 0.5 0 0.9-0.1 1.2-0.2v1.9c-0.5 0.1-1.3 0.3-2.2 0.3-2.8 0.1-3.9-1-3.9-3.7z"/>
		<path class="st14" d="m71.2 68.6-4.4-9.5c-0.2-0.5-0.4-0.6-0.7-0.6h-0.8v-1.9h6.5v1.9h-1c-0.4 0-0.6 0.3-0.4 0.7l2.7 6 2.4-5.9c0.2-0.5 0-0.8-0.5-0.8h-1v-1.9h5.3v1.9h-1c-0.4 0-0.5 0.1-0.7 0.6l-4 9.8c-1.4 3.2-2.6 4.7-5.3 4.7-1.9 0-3.3-0.9-3.3-2.6 0-1.3 0.8-2.2 2.1-2.2 1.5 0 2.3 1.3 1.4 2.9 1.1-0.2 1.9-1 2.7-3.1z"/>
		<path class="st14" d="m79 67h1.1c0.2 0 0.4-0.1 0.4-0.6v-13.1c0-0.6-0.1-0.7-0.4-0.7h-1.2v-1.9h2.1c1.2 0 2.4-0.1 3-0.2v16c0 0.6 0.1 0.6 0.4 0.6h1v1.9h-6.4v-2z"/>
		<path class="st14" d="m89.1 63.4c0.1 2.3 1.2 3.8 3.5 3.8 1.7 0 2.8-0.9 3.3-2.4l1.9 0.9c-0.7 2-2.3 3.5-5.5 3.5-4.5 0-6.7-2.7-6.7-6.5s2.6-6.5 6.4-6.5c3.9 0 6 2.4 6 6.5v0.6h-8.9v0.1zm0-1.7h5.5c0-2.5-0.8-3.5-2.6-3.5s-2.8 1-2.9 3.5z"/>
		<radialGradient id="i" cx="51.468" cy="62.258" r="4.2856" gradientTransform="matrix(1 0 0 -1 0 100.5)" gradientUnits="userSpaceOnUse">
		<stop stop-color="#F29100" offset="0"/>
		<stop stop-color="#F29100" offset=".177"/>
		<stop stop-color="#E5332A" offset=".968"/>
	</radialGradient>
	<path class="st15" d="m50.7 39.4c0-1.1 0.8-2.1 2.1-2.1 1.2 0 2.1 0.9 2.1 2.1 0 1.1-0.9 2.1-2.1 2.1-1.3-0.1-2.1-1-2.1-2.1z"/>
		<path class="st16" d="m75.8 75.8c0-0.1 0-0.2-0.1-0.2-0.1-0.1-0.2-0.1-0.3-0.2-0.2-0.1-0.4-0.1-0.5-0.2s-0.2-0.2-0.2-0.4 0.1-0.3 0.2-0.4 0.3-0.2 0.5-0.2 0.4 0.1 0.5 0.2 0.2 0.3 0.2 0.4h-0.3c0-0.1 0-0.2-0.1-0.3s-0.2-0.1-0.3-0.1-0.2 0-0.3 0.1-0.1 0.2-0.1 0.3 0 0.2 0.1 0.2c0.1 0.1 0.2 0.1 0.3 0.2 0.2 0.1 0.3 0.1 0.4 0.2s0.2 0.2 0.2 0.4-0.1 0.3-0.2 0.4-0.3 0.2-0.5 0.2-0.4-0.1-0.5-0.2-0.2-0.3-0.2-0.5h0.3c0 0.1 0 0.3 0.1 0.3s0.2 0.1 0.3 0.1 0.2 0 0.3-0.1c0.2 0 0.2-0.1 0.2-0.2z"/>
		<path class="st16" d="m76.8 74.2 0.5 1.8 0.5-1.8h0.4v2.1h-0.3v-0.8-0.8l-0.5 1.7h-0.2l-0.5-1.7v0.8 0.8h-0.3v-2.1h0.4z"/>
		<path class="st16" d="m78.8 76.4h-0.3v-2.1h0.3v2.1z"/>
		<path class="st16" d="m79.5 76.2h0.9v0.2h-1.2v-2.2h0.3v2z"/>
		<path class="st16" d="m81.6 75.4h-0.8v0.8h0.9v0.2h-1.2v-2.2h1.2v0.2h-0.9v0.7h0.8v0.3z"/>
		<path class="st16" d="m82.2 76.3-0.2 0.5h-0.2l0.1-0.4v-0.3h0.3v0.2z"/>
		<path class="st16" d="m84.1 75.8c0-0.1 0-0.2-0.1-0.2-0.1-0.1-0.2-0.1-0.3-0.2-0.2-0.1-0.4-0.1-0.5-0.2s-0.2-0.2-0.2-0.4 0.1-0.3 0.2-0.4 0.3-0.2 0.5-0.2 0.4 0.1 0.5 0.2 0.2 0.3 0.2 0.4h-0.3c0-0.1 0-0.2-0.1-0.3s-0.2-0.1-0.3-0.1-0.2 0-0.3 0.1-0.1 0.1-0.1 0.2 0 0.2 0.1 0.2 0.2 0.1 0.3 0.2c0.2 0.1 0.3 0.1 0.4 0.2s0.2 0.2 0.2 0.4-0.1 0.3-0.2 0.4-0.3 0.2-0.5 0.2-0.4-0.1-0.5-0.2c-0.1 0-0.1-0.1-0.1-0.3h0.3c0 0.1 0 0.3 0.1 0.3 0.1 0.1 0.2 0.1 0.3 0.1s0.2 0 0.3-0.1 0.1-0.2 0.1-0.3z"/>
		<path class="st16" d="m86.1 76.4h-0.3v-1h-0.8v1h-0.3v-2.1h0.3v1h0.8v-1h0.3v2.1z"/>
		<path class="st16" d="m87.4 75.8h-0.7l-0.2 0.5h-0.3l0.6-2.1h0.3l0.6 2.1h-0.3v-0.5zm-0.6-0.2h0.5l-0.3-1-0.2 1z"/>
		<path class="st16" d="m88.4 75.5v0.9h-0.3v-2.1h0.7c0.2 0 0.4 0.1 0.5 0.2s0.2 0.3 0.2 0.4 0 0.2-0.1 0.3l-0.2 0.2c0.1 0 0.2 0.1 0.2 0.2s0.1 0.2 0.1 0.3v0.2 0.2c0 0.1 0 0.1 0.1 0.1h-0.3l-0.1-0.1v-0.4c0-0.1 0-0.2-0.1-0.3s-0.1-0.1-0.2-0.1h-0.5zm0-0.3h0.3c0.1 0 0.2 0 0.3-0.1s0.1-0.2 0.1-0.3 0-0.2-0.1-0.3-0.1-0.1-0.3-0.1h-0.4v0.8h0.1z"/>
		<path class="st16" d="M90.8,75.4H90v0.8H91v0.2h-1.2v-2.2H91v0.2H90v0.7h0.8V75.4z"/>
		<path class="st16" d="m91.7 75.8c0-0.1 0-0.2 0.1-0.3l0.3-0.3c-0.1-0.1-0.1-0.2-0.1-0.3v-0.2c0-0.2 0-0.3 0.1-0.4s0.2-0.1 0.4-0.1c0.1 0 0.2 0 0.3 0.1s0.1 0.2 0.1 0.3 0 0.2-0.1 0.2c0 0.1-0.1 0.1-0.2 0.2l-0.2 0.1 0.4 0.6c0-0.1 0.1-0.1 0.1-0.2v-0.2h0.2v0.3s-0.1 0.2-0.1 0.3l0.3 0.3h-0.3l-0.1-0.2c-0.1 0.1-0.1 0.1-0.2 0.1h-0.3c-0.2 0-0.3-0.1-0.4-0.2-0.3 0.2-0.3 0.1-0.3-0.1zm0.6 0.4h0.2c0.1 0 0.1-0.1 0.2-0.1l-0.5-0.6c-0.1 0.1-0.1 0.1-0.1 0.2v0.2c0 0.1 0 0.2 0.1 0.3-0.1-0.1 0 0 0.1 0zm-0.2-1.5v0.2s0.1 0.1 0.1 0.2l0.2-0.1 0.1-0.1v-0.1c0-0.1 0-0.1-0.1-0.2l-0.1-0.1c-0.1 0-0.1 0-0.2 0.1 0.1 0 0 0 0 0.1z"/>
		<path class="st16" d="m95 75.8c0-0.1 0-0.2-0.1-0.2-0.1-0.1-0.2-0.1-0.3-0.2-0.2-0.1-0.4-0.1-0.5-0.2s-0.1-0.3-0.1-0.4 0.1-0.3 0.2-0.4 0.3-0.2 0.5-0.2 0.4 0.1 0.5 0.2 0.2 0.3 0.2 0.4h-0.4c0-0.1 0-0.2-0.1-0.3s-0.2-0.1-0.3-0.1-0.2 0-0.3 0.1-0.1 0.1-0.1 0.2 0 0.2 0.1 0.2 0.2 0.1 0.3 0.2c0.2 0.1 0.3 0.1 0.4 0.2s0.2 0.2 0.2 0.4-0.1 0.3-0.2 0.4-0.3 0.2-0.5 0.2-0.4-0.1-0.5-0.2-0.2-0.3-0.2-0.5h0.3c0 0.1 0 0.3 0.1 0.3s0.2 0.1 0.3 0.1 0.2 0 0.3-0.1c0.2 0.1 0.2 0 0.2-0.1z"/>
		<path class="st16" d="m97 76.4h-0.3v-1h-0.8v1h-0.3v-2.1h0.3v1h0.8v-1h0.3v2.1z"/>
		<path class="st16" d="m98.4 75.8h-0.7l-0.2 0.5h-0.3l0.6-2.1h0.3l0.6 2.1h-0.3v-0.5zm-0.6-0.2h0.5l-0.3-1-0.2 1z"/>
		<path class="st16" d="m99.3 75.5v0.9h-0.3v-2.1h0.7c0.2 0 0.4 0.1 0.5 0.2s0.2 0.3 0.2 0.5-0.1 0.3-0.2 0.5c-0.1 0.1-0.3 0.2-0.5 0.2h-0.4v-0.2zm0-0.2h0.4c0.1 0 0.2 0 0.3-0.1s0.1-0.2 0.1-0.3 0-0.2-0.1-0.3-0.1-0.1-0.3-0.1h-0.4v0.8z"/>
		<path class="st16" d="M101.7,75.4H101v0.8h0.9v0.2h-1.2v-2.2h1.2v0.2H101v0.7h0.8V75.4z"/>
		<path class="st14" d="m75.9 71.4h-0.7v2.5h-0.6v-2.5h-0.6v-0.5h1.9v0.5z"/>
		<path class="st14" d="m76.8 72.7v1.2h-0.6v-3h1c0.3 0 0.5 0.1 0.7 0.2s0.2 0.4 0.2 0.6 0 0.3-0.1 0.4l-0.3 0.3c0.1 0.1 0.3 0.1 0.3 0.3 0.1 0.1 0.1 0.3 0.1 0.4v0.2 0.3c0 0.1 0.1 0.2 0.1 0.2h-0.6s-0.1-0.1-0.1-0.2v-0.3-0.2c0-0.1 0-0.3-0.1-0.3-0.1-0.1-0.1-0.1-0.3-0.1h-0.3zm0-0.5h0.4c0.1 0 0.2 0 0.3-0.1s0.1-0.2 0.1-0.3 0-0.2-0.1-0.3-0.1-0.1-0.3-0.1h-0.4v0.8z"/>
		<path class="st14" d="m79.9 73.2h-0.8l-0.1 0.7h-0.6l0.9-3h0.6l0.8 3h-0.6l-0.2-0.7zm-0.6-0.4h0.5l-0.3-1.1-0.2 1.1z"/>
		<path class="st14" d="m81.6 73.1v0.1-0.1l0.6-2.2h0.6l-0.8 3h-0.6l-0.8-3h0.6l0.4 2.2z"/>
		<path class="st14" d="m84.6 72.6h-1v0.9h1.2v0.5h-1.8v-3h1.7v0.5h-1.2v0.7h1v0.4h0.1z"/>
		<path class="st14" d="m85.7 73.4h1.1v0.5h-1.7v-3h0.6v2.5z"/>
		<path class="st14" d="m87.8 73.1c0-0.2 0-0.3 0.1-0.4s0.2-0.2 0.4-0.4c-0.1-0.1-0.1-0.2-0.2-0.3 0-0.1-0.1-0.2-0.1-0.3 0-0.2 0.1-0.4 0.2-0.5s0.3-0.2 0.5-0.2 0.3 0.1 0.5 0.2c0.1 0.1 0.2 0.3 0.2 0.5 0 0.1 0 0.2-0.1 0.4-0.1 0.1-0.1 0.2-0.2 0.3l-0.2 0.1 0.5 0.6c0-0.1 0.1-0.1 0.1-0.2v-0.3h0.4c0 0.2 0 0.4-0.1 0.5 0 0.2-0.1 0.3-0.2 0.4l0.4 0.5h-0.6l-0.1-0.2c-0.1 0.1-0.2 0.1-0.3 0.2-0.1 0-0.2 0.1-0.3 0.1-0.3 0-0.5-0.1-0.6-0.2-0.2-0.4-0.3-0.6-0.3-0.8zm0.9 0.3h0.2c0.1 0 0.1 0 0.2-0.1l-0.5-0.7-0.1 0.2v0.2c0 0.1 0 0.2 0.1 0.3-0.1 0.1 0 0.1 0.1 0.1zm-0.1-1.8v0.2l0.1 0.2 0.1-0.1c0.1 0 0.1-0.1 0.1-0.1v-0.2s0-0.1-0.1-0.2c0-0.1-0.1-0.1-0.2-0.1s-0.1 0-0.2 0.1c0.2 0.1 0.2 0.1 0.2 0.2z"/>
		<path class="st14" d="m93.1 71.4h-0.7v2.5h-0.6v-2.5h-0.7v-0.5h1.9l0.1 0.5z"/>
		<path class="st14" d="m95.3 72.8c0 0.3-0.1 0.6-0.3 0.8s-0.4 0.3-0.7 0.3-0.6-0.1-0.7-0.3c-0.2-0.2-0.3-0.5-0.3-0.8v-0.8c0-0.3 0.1-0.6 0.3-0.8s0.4-0.3 0.7-0.3 0.6 0.1 0.7 0.3c0.2 0.2 0.3 0.5 0.3 0.8v0.8zm-0.6-0.9c0-0.2 0-0.4-0.1-0.5s-0.2-0.2-0.3-0.2-0.3 0.1-0.3 0.2c-0.1 0.1-0.1 0.3-0.1 0.5v0.9c0 0.2 0 0.4 0.1 0.5s0.2 0.2 0.3 0.2 0.3-0.1 0.3-0.2c0.1-0.1 0.1-0.3 0.1-0.5v-0.9z"/>
		<path class="st14" d="m97.7 70.9v2c0 0.3-0.1 0.5-0.3 0.7s-0.4 0.3-0.7 0.3-0.5-0.1-0.7-0.3-0.3-0.4-0.3-0.7v-2h0.6v2c0 0.2 0 0.3 0.1 0.4s0.2 0.1 0.3 0.1 0.2 0 0.3-0.1 0.1-0.2 0.1-0.4v-2h0.6z"/>
		<path class="st14" d="m98.6 72.7v1.2h-0.6v-3h1c0.3 0 0.5 0.1 0.7 0.2s0.2 0.4 0.2 0.6 0 0.3-0.1 0.4l-0.3 0.3c0.1 0.1 0.3 0.1 0.3 0.3 0.1 0.1 0.1 0.3 0.1 0.4v0.2 0.3c0 0.1 0.1 0.2 0.1 0.2h-0.6s-0.1-0.1-0.1-0.2v-0.3-0.2c0-0.1 0-0.3-0.1-0.3-0.1-0.1-0.1-0.1-0.3-0.1h-0.3zm0-0.5h0.4c0.1 0 0.2 0 0.3-0.1s0.1-0.2 0.1-0.3 0-0.2-0.1-0.3-0.1-0.1-0.3-0.1h-0.4v0.8z"/>
		<path class="st14" d="m101.7 73.1c0-0.1 0-0.2-0.1-0.3s-0.2-0.1-0.3-0.2c-0.3-0.1-0.5-0.2-0.7-0.4-0.1-0.1-0.2-0.3-0.2-0.6 0-0.2 0.1-0.4 0.3-0.6 0.2-0.1 0.4-0.2 0.7-0.2s0.5 0.1 0.7 0.3 0.3 0.4 0.3 0.6h-0.6c0-0.1 0-0.2-0.1-0.3s-0.2-0.1-0.3-0.1-0.2 0-0.3 0.1-0.1 0.2-0.1 0.3 0 0.2 0.1 0.2c0.1 0.1 0.2 0.1 0.4 0.2 0.3 0.1 0.5 0.2 0.6 0.4 0.1 0.1 0.2 0.3 0.2 0.6s-0.1 0.4-0.3 0.6c-0.2 0.1-0.4 0.2-0.7 0.2s-0.5-0.1-0.7-0.2c-0.2-0.2-0.3-0.4-0.3-0.7h0.6c0 0.2 0 0.3 0.1 0.4s0.2 0.1 0.3 0.1 0.2 0 0.3-0.1 0.1-0.2 0.1-0.3z"/>
</svg>
